<?xml version="1.0" encoding="UTF-8" standalone="no"?>
<!-- Created with Inkscape (http://www.inkscape.org/) -->
<svg
   xmlns:dc="http://purl.org/dc/elements/1.1/"
   xmlns:cc="http://creativecommons.org/ns#"
   xmlns:rdf="http://www.w3.org/1999/02/22-rdf-syntax-ns#"
   xmlns:svg="http://www.w3.org/2000/svg"
   xmlns="http://www.w3.org/2000/svg"
   xmlns:sodipodi="http://sodipodi.sourceforge.net/DTD/sodipodi-0.dtd"
   xmlns:inkscape="http://www.inkscape.org/namespaces/inkscape"
   width="48"
   height="48"
   id="svg2"
   sodipodi:version="0.32"
   inkscape:version="0.46+devel"
   sodipodi:docname="battery-full.svg"
   inkscape:output_extension="org.inkscape.output.svg.inkscape"
   inkscape:export-filename="/home/hbons/Desktop/Intel/icons.png"
   inkscape:export-xdpi="90"
   inkscape:export-ydpi="90"
   version="1.0">
  <defs
     id="defs4" />
  <sodipodi:namedview
     id="base"
     pagecolor="#ffffff"
     bordercolor="#666666"
     borderopacity="1.0"
     gridtolerance="10000"
     guidetolerance="10"
     objecttolerance="10"
     inkscape:pageopacity="0.0"
     inkscape:pageshadow="2"
     inkscape:zoom="1"
     inkscape:cx="18.702913"
     inkscape:cy="21.766206"
     inkscape:document-units="px"
     inkscape:current-layer="layer1"
     showgrid="false"
     inkscape:window-width="1280"
     inkscape:window-height="750"
     inkscape:window-x="0"
     inkscape:window-y="0"
     inkscape:snap-intersection-line-segments="false"
     inkscape:snap-bbox="false"
     inkscape:snap-nodes="true"
     inkscape:bbox-paths="true">
    <inkscape:grid
       type="xygrid"
       id="grid4079"
       visible="true"
       enabled="true"
       empspacing="5" />
  </sodipodi:namedview>
  <metadata
     id="metadata7">
    <rdf:RDF>
      <cc:Work
         rdf:about="">
        <dc:format>image/svg+xml</dc:format>
        <dc:type
           rdf:resource="http://purl.org/dc/dcmitype/StillImage" />
        <dc:title />
      </cc:Work>
    </rdf:RDF>
  </metadata>
  <g
     inkscape:label="Layer 1"
     inkscape:groupmode="layer"
     id="layer1"
     transform="translate(-9.3897648,-13.175828)">
    <g
       id="g6617"
       transform="translate(-2.0753293,0.00965597)">
      <rect
         transform="matrix(0,1,1,0,0,0)"
         style="fill:#ffffff;fill-opacity:1;stroke:none"
         id="rect5744"
         width="26.435703"
         height="3.3710001"
         x="23.948545"
         y="45.64912"
         rx="1.6855"
         ry="1.6855" />
      <rect
         transform="scale(1,-1)"
         style="fill:#ffffff;fill-opacity:1;stroke:none"
         id="rect5820"
         width="29.834986"
         height="3.3710001"
         x="19.153275"
         y="-50.473076"
         rx="1.6855"
         ry="1.6855" />
      <rect
         transform="matrix(0,1,1,0,0,0)"
         style="fill:#ffffff;fill-opacity:1;stroke:none"
         id="rect5824"
         width="18.92378"
         height="3.3710001"
         x="27.834091"
         y="15.245445"
         rx="1.6855"
         ry="1.6855" />
      <rect
         ry="1.6855"
         rx="1.6855001"
         y="-27.24958"
         x="19.085167"
         height="3.3710001"
         width="29.903097"
         id="rect6653"
         style="fill:#ffffff;fill-opacity:1;stroke:none"
         transform="scale(1,-1)" />
      <g
         transform="matrix(0,1,-1,0,70.610571,3.1748035)"
         id="g5848">
        <path
           sodipodi:nodetypes="cssssssssccccccccsscc"
           id="rect5813"
           transform="translate(10.001025,13.175828)"
           d="m 19,1.75 c -0.476221,0 -0.881544,0.2157696 -1.1875,0.53125 C 17.74351,2.352388 17.680624,2.4175303 17.625,2.5 c -0.0083,0.011679 -0.02322,0.019351 -0.03125,0.03125 -0.05053,0.079202 -0.08808,0.1624325 -0.125,0.25 -0.02604,0.057554 -0.04295,0.126673 -0.0625,0.1875 -0.01282,0.04405 -0.05324,0.079516 -0.0625,0.125 -0.0044,0.01837 0.0038,0.043898 0,0.0625 -0.01517,0.091238 -0.03125,0.1855772 -0.03125,0.28125 0,0.010524 -1.9e-4,0.020773 0,0.03125 l 0,3.25 3.375,0 0,-1.59375 6.625,0 0,1.59375 3.375,0 0,-3.25 c 0,-0.6302928 -0.333942,-1.1482949 -0.84375,-1.4375 C 29.785399,1.9918935 29.719534,1.9694244 29.65625,1.9375 29.427879,1.8222945 29.180434,1.75 28.90625,1.75 L 19,1.75 z"
           style="fill:#ffffff;fill-opacity:1;stroke:none" />
      </g>
      <path
         sodipodi:open="true"
         sodipodi:type="arc"
         style="fill:none;stroke:#ffffff;stroke-width:20.53379822;stroke-linecap:round;stroke-miterlimit:4;stroke-opacity:1;stroke-dasharray:none;stroke-dashoffset:0;display:inline"
         id="path6419-7"
         sodipodi:cx="-25.809397"
         sodipodi:cy="179.43886"
         sodipodi:rx="22.98097"
         sodipodi:ry="22.98097"
         d="m -25.809396,202.41983 c -12.685496,0 -22.980971,-10.29548 -22.980971,-22.98097 0,0 0,0 0,0"
         transform="matrix(0.16424416,0,0,-0.16405989,24.951173,58.753575)"
         sodipodi:start="1.5707963"
         sodipodi:end="3.1415927" />
      <path
         sodipodi:end="3.1415927"
         sodipodi:start="1.5707963"
         transform="matrix(0.16424416,0,0,0.16405989,24.951173,15.550326)"
         d="m -25.809396,202.41983 c -12.685496,0 -22.980971,-10.29548 -22.980971,-22.98097 0,0 0,0 0,0"
         sodipodi:ry="22.98097"
         sodipodi:rx="22.98097"
         sodipodi:cy="179.43886"
         sodipodi:cx="-25.809397"
         id="path5901"
         style="fill:none;stroke:#ffffff;stroke-width:20.53379822;stroke-linecap:round;stroke-miterlimit:4;stroke-opacity:1;stroke-dasharray:none;stroke-dashoffset:0;display:inline"
         sodipodi:type="arc"
         sodipodi:open="true" />
      <rect
         y="28.886635"
         x="37.253677"
         height="16.511137"
         width="6.7122569"
         id="rect6601"
         style="fill:#ffffff;fill-opacity:1;stroke:none" />
      <rect
         style="fill:#ffffff;fill-opacity:1;stroke:none"
         id="rect6609"
         width="6.7122569"
         height="16.511137"
         x="28.811943"
         y="28.886635" />
      <path
         style="fill:#ffffff;fill-opacity:1;stroke:none"
         d="m 21.018649,28.886635 c 0,0 6.099047,0 6.099047,0 0,0 0.0077,16.511137 0.0077,16.511137 l -6.106712,0 c -0.339718,0 -0.61321,-0.273491 -0.61321,-0.613209 l 0,-15.284719 c 0,-0.339718 0.273492,-0.613209 0.61321,-0.613209 z"
         id="rect6613"
         sodipodi:nodetypes="ccccccc" />
    </g>
  </g>
</svg>
