<?xml version="1.0" encoding="UTF-8" standalone="no"?>
<!-- Created with Inkscape (http://www.inkscape.org/) -->

<svg
   xmlns:dc="http://purl.org/dc/elements/1.1/"
   xmlns:cc="http://creativecommons.org/ns#"
   xmlns:rdf="http://www.w3.org/1999/02/22-rdf-syntax-ns#"
   xmlns:svg="http://www.w3.org/2000/svg"
   xmlns="http://www.w3.org/2000/svg"
   xmlns:sodipodi="http://sodipodi.sourceforge.net/DTD/sodipodi-0.dtd"
   xmlns:inkscape="http://www.inkscape.org/namespaces/inkscape"
   width="48"
   height="48"
   id="svg2"
   sodipodi:version="0.32"
   inkscape:version="0.46+devel r20974"
   sodipodi:docname="image-missing.svg"
   inkscape:output_extension="org.inkscape.output.svg.inkscape"
   inkscape:export-filename="/home/hbons/Desktop/Intel/svn/moblin-ui-docs/in progress/draft visual UI/icons/icons.png"
   inkscape:export-xdpi="60.476192"
   inkscape:export-ydpi="60.476192"
   version="1.0">
  <sodipodi:namedview
     id="base"
     pagecolor="#ffffff"
     bordercolor="#dcdcdc"
     borderopacity="1"
     gridtolerance="10000"
     guidetolerance="10"
     objecttolerance="10"
     inkscape:pageopacity="0"
     inkscape:pageshadow="2"
     inkscape:zoom="11.313708"
     inkscape:cx="22.41507"
     inkscape:cy="28.707526"
     inkscape:document-units="px"
     inkscape:current-layer="layer1"
     showgrid="true"
     inkscape:window-width="1278"
     inkscape:window-height="750"
     inkscape:window-x="0"
     inkscape:window-y="0"
     inkscape:snap-intersection-line-segments="false"
     inkscape:snap-bbox="true"
     inkscape:snap-nodes="false"
     inkscape:bbox-paths="true"
     inkscape:showpageshadow="false"
     showguides="false"
     inkscape:guide-bbox="true"
     inkscape:bbox-nodes="true"
     inkscape:snap-global="false">
    <inkscape:grid
       enabled="true"
       visible="true"
       id="grid4079"
       type="xygrid"
       empspacing="5" />
    <sodipodi:guide
       id="guide7317"
       position="566.05335,854.14667"
       orientation="1,0" />
  </sodipodi:namedview>
  <defs
     id="defs4">
    <inkscape:perspective
       sodipodi:type="inkscape:persp3d"
       inkscape:vp_x="0 : 24 : 1"
       inkscape:vp_y="0 : 1000 : 0"
       inkscape:vp_z="48 : 24 : 1"
       inkscape:persp3d-origin="24 : 16 : 1"
       id="perspective25" />
    <inkscape:perspective
       id="perspective2818"
       inkscape:persp3d-origin="0.5 : 0.33333333 : 1"
       inkscape:vp_z="1 : 0.5 : 1"
       inkscape:vp_y="0 : 1000 : 0"
       inkscape:vp_x="0 : 0.5 : 1"
       sodipodi:type="inkscape:persp3d" />
    <inkscape:perspective
       sodipodi:type="inkscape:persp3d"
       inkscape:vp_x="0 : 0.5 : 1"
       inkscape:vp_y="0 : 1000 : 0"
       inkscape:vp_z="1 : 0.5 : 1"
       inkscape:persp3d-origin="0.5 : 0.33333333 : 1"
       id="perspective4040" />
    <inkscape:perspective
       sodipodi:type="inkscape:persp3d"
       inkscape:vp_x="0 : 0.5 : 1"
       inkscape:vp_y="0 : 1000 : 0"
       inkscape:vp_z="1 : 0.5 : 1"
       inkscape:persp3d-origin="0.5 : 0.33333333 : 1"
       id="perspective4015" />
    <inkscape:perspective
       sodipodi:type="inkscape:persp3d"
       inkscape:vp_x="0 : 0.5 : 1"
       inkscape:vp_y="0 : 1000 : 0"
       inkscape:vp_z="1 : 0.5 : 1"
       inkscape:persp3d-origin="0.5 : 0.33333333 : 1"
       id="perspective3991" />
    <inkscape:perspective
       sodipodi:type="inkscape:persp3d"
       inkscape:vp_x="0 : 0.5 : 1"
       inkscape:vp_y="0 : 1000 : 0"
       inkscape:vp_z="1 : 0.5 : 1"
       inkscape:persp3d-origin="0.5 : 0.33333333 : 1"
       id="perspective3912" />
    <inkscape:perspective
       sodipodi:type="inkscape:persp3d"
       inkscape:vp_x="0 : 0.5 : 1"
       inkscape:vp_y="0 : 1000 : 0"
       inkscape:vp_z="1 : 0.5 : 1"
       inkscape:persp3d-origin="0.5 : 0.33333333 : 1"
       id="perspective3853" />
    <inkscape:perspective
       sodipodi:type="inkscape:persp3d"
       inkscape:vp_x="0 : 0.5 : 1"
       inkscape:vp_y="0 : 1000 : 0"
       inkscape:vp_z="1 : 0.5 : 1"
       inkscape:persp3d-origin="0.5 : 0.33333333 : 1"
       id="perspective3057" />
    <inkscape:perspective
       id="perspective16"
       inkscape:persp3d-origin="24 : 16 : 1"
       inkscape:vp_z="48 : 24 : 1"
       inkscape:vp_y="0 : 1000 : 0"
       inkscape:vp_x="0 : 24 : 1"
       sodipodi:type="inkscape:persp3d" />
  </defs>
  <metadata
     id="metadata7">
    <rdf:RDF>
      <cc:Work
         rdf:about="">
        <dc:format>image/svg+xml</dc:format>
        <dc:type
           rdf:resource="http://purl.org/dc/dcmitype/StillImage" />
        <dc:title></dc:title>
      </cc:Work>
    </rdf:RDF>
  </metadata>
  <g
     style="display:inline"
     id="layer1"
     inkscape:groupmode="layer"
     inkscape:label="Layer 1">
    <g
       id="g2849"
       transform="translate(5.0086269,5.0224897)">
      <g
         transform="matrix(1.1369331,0,0,1.1369331,-102.47246,-9.1293893)"
         id="g5599" />
      <g
         style="opacity:0.68279569;stroke:#707070;stroke-width:0.89643699;stroke-opacity:1"
         id="g6374"
         transform="matrix(1.4473033,0,0,1.4473026,-114.48963,-12.017926)">
        <g
           style="stroke:#707070;stroke-width:0.89643699;stroke-opacity:1"
           id="g6376"
           transform="translate(4.2092501,-3.9419057)" />
      </g>
      <path
         transform="matrix(0.86398146,0,0,0.86398146,16.405363,-4.4484927)"
         d="m -9.7277484,12.670291 c 0,0.958848 -0.7772996,1.736148 -1.7361486,1.736148 -0.958848,0 -1.736148,-0.7773 -1.736148,-1.736148 0,-0.958848 0.7773,-1.736148 1.736148,-1.736148 0.958849,0 1.7361486,0.7773 1.7361486,1.736148 z"
         sodipodi:ry="1.7361484"
         sodipodi:rx="1.7361484"
         sodipodi:cy="12.670291"
         sodipodi:cx="-11.463897"
         id="path2774"
         style="fill:#ffffff;fill-opacity:1;stroke:none"
         sodipodi:type="arc" />
      <path
         sodipodi:type="arc"
         style="fill:#ffffff;fill-opacity:1;stroke:none"
         id="path2776"
         sodipodi:cx="-11.463897"
         sodipodi:cy="12.670291"
         sodipodi:rx="1.7361484"
         sodipodi:ry="1.7361484"
         d="m -9.7277484,12.670291 c 0,0.958848 -0.7772996,1.736148 -1.7361486,1.736148 -0.958848,0 -1.736148,-0.7773 -1.736148,-1.736148 0,-0.958848 0.7773,-1.736148 1.736148,-1.736148 0.958849,0 1.7361486,0.7773 1.7361486,1.736148 z"
         transform="matrix(0.86398146,0,0,0.86398146,16.405363,1.5532917)" />
      <path
         transform="matrix(0.86398146,0,0,0.86398146,16.405363,7.5512435)"
         d="m -9.7277484,12.670291 c 0,0.958848 -0.7772996,1.736148 -1.7361486,1.736148 -0.958848,0 -1.736148,-0.7773 -1.736148,-1.736148 0,-0.958848 0.7773,-1.736148 1.736148,-1.736148 0.958849,0 1.7361486,0.7773 1.7361486,1.736148 z"
         sodipodi:ry="1.7361484"
         sodipodi:rx="1.7361484"
         sodipodi:cy="12.670291"
         sodipodi:cx="-11.463897"
         id="path2778"
         style="fill:#ffffff;fill-opacity:1;stroke:none"
         sodipodi:type="arc" />
      <path
         sodipodi:type="arc"
         style="fill:#ffffff;fill-opacity:1;stroke:none"
         id="path2780"
         sodipodi:cx="-11.463897"
         sodipodi:cy="12.670291"
         sodipodi:rx="1.7361484"
         sodipodi:ry="1.7361484"
         d="m -9.7277484,12.670291 c 0,0.958848 -0.7772996,1.736148 -1.7361486,1.736148 -0.958848,0 -1.736148,-0.7773 -1.736148,-1.736148 0,-0.958848 0.7773,-1.736148 1.736148,-1.736148 0.958849,0 1.7361486,0.7773 1.7361486,1.736148 z"
         transform="matrix(0.86398146,0,0,0.86398146,16.405363,13.537698)" />
      <path
         transform="matrix(0.86398146,0,0,0.86398146,16.405363,19.54835)"
         d="m -9.7277484,12.670291 c 0,0.958848 -0.7772996,1.736148 -1.7361486,1.736148 -0.958848,0 -1.736148,-0.7773 -1.736148,-1.736148 0,-0.958848 0.7773,-1.736148 1.736148,-1.736148 0.958849,0 1.7361486,0.7773 1.7361486,1.736148 z"
         sodipodi:ry="1.7361484"
         sodipodi:rx="1.7361484"
         sodipodi:cy="12.670291"
         sodipodi:cx="-11.463897"
         id="path2782"
         style="fill:#ffffff;fill-opacity:1;stroke:none"
         sodipodi:type="arc" />
      <g
         id="g2786"
         transform="matrix(0,1.1369331,-1.1369331,0,46.138217,-102.48764)" />
      <g
         transform="matrix(0,1.4473033,-1.4473026,0,49.026754,-114.5048)"
         id="g2788"
         style="opacity:0.68279569;stroke:#707070;stroke-width:0.89643699;stroke-opacity:1">
        <g
           transform="translate(4.2092501,-3.9419057)"
           id="g2790"
           style="stroke:#707070;stroke-width:0.89643699;stroke-opacity:1" />
      </g>
      <path
         transform="matrix(0,0.86398146,-0.86398146,0,35.455536,16.390185)"
         d="m -9.7277484,12.670291 c 0,0.958848 -0.7772996,1.736148 -1.7361486,1.736148 -0.958848,0 -1.736148,-0.7773 -1.736148,-1.736148 0,-0.958848 0.7773,-1.736148 1.736148,-1.736148 0.958849,0 1.7361486,0.7773 1.7361486,1.736148 z"
         sodipodi:ry="1.7361484"
         sodipodi:rx="1.7361484"
         sodipodi:cy="12.670291"
         sodipodi:cx="-11.463897"
         id="path2794"
         style="fill:#ffffff;fill-opacity:1;stroke:none"
         sodipodi:type="arc" />
      <path
         sodipodi:type="arc"
         style="fill:#ffffff;fill-opacity:1;stroke:none"
         id="path2796"
         sodipodi:cx="-11.463897"
         sodipodi:cy="12.670291"
         sodipodi:rx="1.7361484"
         sodipodi:ry="1.7361484"
         d="m -9.7277484,12.670291 c 0,0.958848 -0.7772996,1.736148 -1.7361486,1.736148 -0.958848,0 -1.736148,-0.7773 -1.736148,-1.736148 0,-0.958848 0.7773,-1.736148 1.736148,-1.736148 0.958849,0 1.7361486,0.7773 1.7361486,1.736148 z"
         transform="matrix(0,0.86398146,-0.86398146,0,29.457584,16.390185)" />
      <path
         transform="matrix(0,0.86398146,-0.86398146,0,23.47113,16.390185)"
         d="m -9.7277484,12.670291 c 0,0.958848 -0.7772996,1.736148 -1.7361486,1.736148 -0.958848,0 -1.736148,-0.7773 -1.736148,-1.736148 0,-0.958848 0.7773,-1.736148 1.736148,-1.736148 0.958849,0 1.7361486,0.7773 1.7361486,1.736148 z"
         sodipodi:ry="1.7361484"
         sodipodi:rx="1.7361484"
         sodipodi:cy="12.670291"
         sodipodi:cx="-11.463897"
         id="path2798"
         style="fill:#ffffff;fill-opacity:1;stroke:none"
         sodipodi:type="arc" />
      <path
         transform="matrix(-0.86398146,0,0,-0.86398146,20.557923,35.455087)"
         d="m -9.7277484,12.670291 c 0,0.958848 -0.7772996,1.736148 -1.7361486,1.736148 -0.958848,0 -1.736148,-0.7773 -1.736148,-1.736148 0,-0.958848 0.7773,-1.736148 1.736148,-1.736148 0.958849,0 1.7361486,0.7773 1.7361486,1.736148 z"
         sodipodi:ry="1.7361484"
         sodipodi:rx="1.7361484"
         sodipodi:cy="12.670291"
         sodipodi:cx="-11.463897"
         id="path2802"
         style="fill:#ffffff;fill-opacity:1;stroke:none;display:inline"
         sodipodi:type="arc" />
      <path
         sodipodi:type="arc"
         style="fill:#ffffff;fill-opacity:1;stroke:none;display:inline"
         id="path2804"
         sodipodi:cx="-11.463897"
         sodipodi:cy="12.670291"
         sodipodi:rx="1.7361484"
         sodipodi:ry="1.7361484"
         d="m -9.7277484,12.670291 c 0,0.958848 -0.7772996,1.736148 -1.7361486,1.736148 -0.958848,0 -1.736148,-0.7773 -1.736148,-1.736148 0,-0.958848 0.7773,-1.736148 1.736148,-1.736148 0.958849,0 1.7361486,0.7773 1.7361486,1.736148 z"
         transform="matrix(-0.86398146,0,0,-0.86398146,20.557923,29.453302)" />
      <path
         transform="matrix(-0.86398146,0,0,-0.86398146,20.557923,23.45535)"
         d="m -9.7277484,12.670291 c 0,0.958848 -0.7772996,1.736148 -1.7361486,1.736148 -0.958848,0 -1.736148,-0.7773 -1.736148,-1.736148 0,-0.958848 0.7773,-1.736148 1.736148,-1.736148 0.958849,0 1.7361486,0.7773 1.7361486,1.736148 z"
         sodipodi:ry="1.7361484"
         sodipodi:rx="1.7361484"
         sodipodi:cy="12.670291"
         sodipodi:cx="-11.463897"
         id="path2806"
         style="fill:#ffffff;fill-opacity:1;stroke:none;display:inline"
         sodipodi:type="arc" />
      <path
         sodipodi:type="arc"
         style="fill:#ffffff;fill-opacity:1;stroke:none;display:inline"
         id="path2808"
         sodipodi:cx="-11.463897"
         sodipodi:cy="12.670291"
         sodipodi:rx="1.7361484"
         sodipodi:ry="1.7361484"
         d="m -9.7277484,12.670291 c 0,0.958848 -0.7772996,1.736148 -1.7361486,1.736148 -0.958848,0 -1.736148,-0.7773 -1.736148,-1.736148 0,-0.958848 0.7773,-1.736148 1.736148,-1.736148 0.958849,0 1.7361486,0.7773 1.7361486,1.736148 z"
         transform="matrix(-0.86398146,0,0,-0.86398146,20.557923,17.468896)" />
      <path
         transform="matrix(0,0.86398146,-0.86398146,0,35.31313,40.415885)"
         d="m -9.7277484,12.670291 c 0,0.958848 -0.7772996,1.736148 -1.7361486,1.736148 -0.958848,0 -1.736148,-0.7773 -1.736148,-1.736148 0,-0.958848 0.7773,-1.736148 1.736148,-1.736148 0.958849,0 1.7361486,0.7773 1.7361486,1.736148 z"
         sodipodi:ry="1.7361484"
         sodipodi:rx="1.7361484"
         sodipodi:cy="12.670291"
         sodipodi:cx="-11.463897"
         id="path2841"
         style="fill:#ffffff;fill-opacity:1;stroke:none"
         sodipodi:type="arc" />
      <path
         sodipodi:type="arc"
         style="fill:#ffffff;fill-opacity:1;stroke:none"
         id="path2843"
         sodipodi:cx="-11.463897"
         sodipodi:cy="12.670291"
         sodipodi:rx="1.7361484"
         sodipodi:ry="1.7361484"
         d="m -9.7277484,12.670291 c 0,0.958848 -0.7772996,1.736148 -1.7361486,1.736148 -0.958848,0 -1.736148,-0.7773 -1.736148,-1.736148 0,-0.958848 0.7773,-1.736148 1.736148,-1.736148 0.958849,0 1.7361486,0.7773 1.7361486,1.736148 z"
         transform="matrix(0,0.86398146,-0.86398146,0,29.315179,40.415885)" />
      <path
         transform="matrix(0,0.86398146,-0.86398146,0,23.328724,40.415885)"
         d="m -9.7277484,12.670291 c 0,0.958848 -0.7772996,1.736148 -1.7361486,1.736148 -0.958848,0 -1.736148,-0.7773 -1.736148,-1.736148 0,-0.958848 0.7773,-1.736148 1.736148,-1.736148 0.958849,0 1.7361486,0.7773 1.7361486,1.736148 z"
         sodipodi:ry="1.7361484"
         sodipodi:rx="1.7361484"
         sodipodi:cy="12.670291"
         sodipodi:cx="-11.463897"
         id="path2845"
         style="fill:#ffffff;fill-opacity:1;stroke:none"
         sodipodi:type="arc" />
      <path
         sodipodi:type="arc"
         style="fill:#ffffff;fill-opacity:1;stroke:none;display:inline"
         id="path2847"
         sodipodi:cx="-11.463897"
         sodipodi:cy="12.670291"
         sodipodi:rx="1.7361484"
         sodipodi:ry="1.7361484"
         d="m -9.7277484,12.670291 c 0,0.958848 -0.7772996,1.736148 -1.7361486,1.736148 -0.958848,0 -1.736148,-0.7773 -1.736148,-1.736148 0,-0.958848 0.7773,-1.736148 1.736148,-1.736148 0.958849,0 1.7361486,0.7773 1.7361486,1.736148 z"
         transform="matrix(-0.86398146,0,0,-0.86398146,20.557923,41.38022)" />
    </g>
    <g
       id="g2836"
       transform="translate(2.2124121,-2.6508018)">
      <rect
         ry="1.5"
         rx="1.5"
         y="-10.949575"
         x="-35.051926"
         height="14.978168"
         width="3"
         id="rect3584"
         style="fill:#ffffff;fill-opacity:1;stroke:none"
         transform="matrix(-0.70710678,-0.70710678,0.70710678,-0.70710678,0,0)" />
      <rect
         transform="matrix(-0.70710678,0.70710678,-0.70710678,-0.70710678,0,0)"
         style="fill:#ffffff;fill-opacity:1;stroke:none"
         id="rect4005"
         width="3"
         height="14.978168"
         x="1.9604919"
         y="-41.041012"
         rx="1.5"
         ry="1.5" />
    </g>
  </g>
</svg>
