<?xml version="1.0" encoding="UTF-8" standalone="no"?>
<!-- Created with Inkscape (http://www.inkscape.org/) -->

<svg
   xmlns:dc="http://purl.org/dc/elements/1.1/"
   xmlns:cc="http://creativecommons.org/ns#"
   xmlns:rdf="http://www.w3.org/1999/02/22-rdf-syntax-ns#"
   xmlns:svg="http://www.w3.org/2000/svg"
   xmlns="http://www.w3.org/2000/svg"
   xmlns:sodipodi="http://sodipodi.sourceforge.net/DTD/sodipodi-0.dtd"
   xmlns:inkscape="http://www.inkscape.org/namespaces/inkscape"
   width="48"
   height="48"
   id="svg2"
   sodipodi:version="0.32"
   inkscape:version="0.46+devel r20974"
   sodipodi:docname="license-cc-nc.svg"
   inkscape:output_extension="org.inkscape.output.svg.inkscape"
   inkscape:export-filename="/home/hbons/Desktop/Intel/svn/moblin-ui-docs/in progress/draft visual UI/icons/icons.png"
   inkscape:export-xdpi="60.476192"
   inkscape:export-ydpi="60.476192"
   version="1.0">
  <sodipodi:namedview
     id="base"
     pagecolor="#ffffff"
     bordercolor="#dcdcdc"
     borderopacity="1"
     gridtolerance="10000"
     guidetolerance="10"
     objecttolerance="10"
     inkscape:pageopacity="0"
     inkscape:pageshadow="2"
     inkscape:zoom="11.313708"
     inkscape:cx="50.52641"
     inkscape:cy="17.623506"
     inkscape:document-units="px"
     inkscape:current-layer="layer1"
     showgrid="true"
     inkscape:window-width="1278"
     inkscape:window-height="750"
     inkscape:window-x="0"
     inkscape:window-y="0"
     inkscape:snap-intersection-line-segments="false"
     inkscape:snap-bbox="true"
     inkscape:snap-nodes="false"
     inkscape:bbox-paths="true"
     inkscape:showpageshadow="false"
     showguides="false"
     inkscape:guide-bbox="true"
     inkscape:bbox-nodes="true"
     inkscape:snap-global="false">
    <inkscape:grid
       enabled="true"
       visible="true"
       id="grid4079"
       type="xygrid"
       empspacing="5" />
    <sodipodi:guide
       id="guide7317"
       position="566.05335,854.14667"
       orientation="1,0" />
  </sodipodi:namedview>
  <defs
     id="defs4">
    <inkscape:perspective
       sodipodi:type="inkscape:persp3d"
       inkscape:vp_x="0 : 24 : 1"
       inkscape:vp_y="0 : 1000 : 0"
       inkscape:vp_z="48 : 24 : 1"
       inkscape:persp3d-origin="24 : 16 : 1"
       id="perspective15" />
    <inkscape:perspective
       sodipodi:type="inkscape:persp3d"
       inkscape:vp_x="0 : 24 : 1"
       inkscape:vp_y="0 : 1000 : 0"
       inkscape:vp_z="48 : 24 : 1"
       inkscape:persp3d-origin="24 : 16 : 1"
       id="perspective3851" />
    <inkscape:perspective
       sodipodi:type="inkscape:persp3d"
       inkscape:vp_x="0 : 24 : 1"
       inkscape:vp_y="0 : 1000 : 0"
       inkscape:vp_z="48 : 24 : 1"
       inkscape:persp3d-origin="24 : 16 : 1"
       id="perspective3747" />
    <inkscape:perspective
       id="perspective2792"
       inkscape:persp3d-origin="0.5 : 0.33333333 : 1"
       inkscape:vp_z="1 : 0.5 : 1"
       inkscape:vp_y="0 : 1000 : 0"
       inkscape:vp_x="0 : 0.5 : 1"
       sodipodi:type="inkscape:persp3d" />
    <inkscape:perspective
       id="perspective2839"
       inkscape:persp3d-origin="0.5 : 0.33333333 : 1"
       inkscape:vp_z="1 : 0.5 : 1"
       inkscape:vp_y="0 : 1000 : 0"
       inkscape:vp_x="0 : 0.5 : 1"
       sodipodi:type="inkscape:persp3d" />
  </defs>
  <metadata
     id="metadata7">
    <rdf:RDF>
      <cc:Work
         rdf:about="">
        <dc:format>image/svg+xml</dc:format>
        <dc:type
           rdf:resource="http://purl.org/dc/dcmitype/StillImage" />
        <dc:title />
      </cc:Work>
    </rdf:RDF>
  </metadata>
  <g
     style="display:inline"
     id="layer1"
     inkscape:groupmode="layer"
     inkscape:label="Layer 1">
    <path
       sodipodi:type="arc"
       style="fill:none;stroke:#ffffff;stroke-width:3.36306882;stroke-linecap:round;stroke-miterlimit:4;stroke-opacity:1;stroke-dasharray:none;stroke-dashoffset:0;display:inline"
       id="path2876-8"
       sodipodi:cx="-25.809397"
       sodipodi:cy="179.43886"
       sodipodi:rx="22.98097"
       sodipodi:ry="22.98097"
       d="m -2.8284264,179.43886 a 22.98097,22.98097 0 1 1 -45.9619406,0 22.98097,22.98097 0 1 1 45.9619406,0 z"
       transform="matrix(0.8920424,0,0,-0.8920424,47.023076,184.06707)" />
    <path
       style="font-size:medium;font-style:normal;font-variant:normal;font-weight:normal;font-stretch:normal;text-indent:0;text-align:start;text-decoration:none;line-height:normal;letter-spacing:normal;word-spacing:normal;text-transform:none;direction:ltr;block-progression:tb;writing-mode:lr-tb;text-anchor:start;color:#ffffff;fill:#ffffff;fill-opacity:1;stroke:none;stroke-width:5.99503565;marker:none;visibility:visible;display:inline;overflow:visible;enable-background:accumulate;font-family:Bitstream Vera Sans;-inkscape-font-specification:Bitstream Vera Sans"
       d="m 23.6875,11.03125 c -3.32797,0.08199 -6.625178,1.405876 -9.09375,4 -1.388572,1.459194 -2.3586,3.167087 -2.9375,4.96875 L 9.5,20 C 8.6690001,20 8,20.669 8,21.5 8,22.331 8.6690001,23 9.5,23 l 1.53125,0 c -0.05174,0.685604 -0.02485,1.377661 0.03125,2.0625 l -1.5625,0 c -0.831,0 -1.5,0.669 -1.5,1.5 0,0.831 0.669,1.5 1.5,1.5 l 2.15625,0 c 0.247291,0.753882 0.5814,1.48086 0.96875,2.1875 l 2.21875,-2.1875 2.96875,-3 -3.75,0 C 13.988338,24.37393 13.961755,23.689769 14.03125,23 l 5.84375,0 3,-3 -8.03125,0 c 0.456259,-1.040245 1.075704,-2.033462 1.90625,-2.90625 2.99578,-3.148146 7.527433,-3.906912 11.28125,-2.25 L 30.25,12.625 c -2.035035,-1.109029 -4.308789,-1.649272 -6.5625,-1.59375 z m 8.46875,19.53125 c -0.412342,0.0072 -0.818524,0.19287 -1.09375,0.5 -3.08325,3.083249 -7.64854,3.752752 -11.375,1.96875 L 17.5,35.25 c 2.052504,1.188437 4.357344,1.778498 6.65625,1.75 3.279179,-0.04065 6.543042,-1.324291 9.03125,-3.8125 0.454534,-0.406108 0.620621,-1.104004 0.397745,-1.671324 -0.222876,-0.56732 -0.819582,-0.965547 -1.428995,-0.953676 z"
       id="path2829"
       sodipodi:nodetypes="csccsccccsccccccccccscccccccscsc" />
    <rect
       style="fill:#ffffff;fill-opacity:0.99366491;stroke:none"
       id="rect2770"
       width="3"
       height="41.358448"
       x="-35.291592"
       y="-20.828756"
       rx="1.5"
       ry="1.4999999"
       transform="matrix(-0.70710678,-0.70710678,0.70710678,-0.70710678,0,0)" />
  </g>
</svg>
