<?xml version="1.0" encoding="UTF-8" standalone="no"?>
<!-- Created with Inkscape (http://www.inkscape.org/) -->
<svg
   xmlns:dc="http://purl.org/dc/elements/1.1/"
   xmlns:cc="http://creativecommons.org/ns#"
   xmlns:rdf="http://www.w3.org/1999/02/22-rdf-syntax-ns#"
   xmlns:svg="http://www.w3.org/2000/svg"
   xmlns="http://www.w3.org/2000/svg"
   xmlns:sodipodi="http://sodipodi.sourceforge.net/DTD/sodipodi-0.dtd"
   xmlns:inkscape="http://www.inkscape.org/namespaces/inkscape"
   width="48"
   height="48"
   id="svg2"
   sodipodi:version="0.32"
   inkscape:version="0.46+devel r20711"
   sodipodi:docname="mail-attachment.svg"
   inkscape:output_extension="org.inkscape.output.svg.inkscape"
   inkscape:export-filename="/home/hbons/Desktop/Intel/svn/moblin-ui-docs/in progress/draft visual UI/icons/icons.png"
   inkscape:export-xdpi="60.476192"
   inkscape:export-ydpi="60.476192"
   version="1.0">
  <sodipodi:namedview
     id="base"
     pagecolor="#ffffff"
     bordercolor="#dcdcdc"
     borderopacity="1"
     gridtolerance="10000"
     guidetolerance="10"
     objecttolerance="10"
     inkscape:pageopacity="0"
     inkscape:pageshadow="2"
     inkscape:zoom="4"
     inkscape:cx="25.034333"
     inkscape:cy="28.266615"
     inkscape:document-units="px"
     inkscape:current-layer="layer1"
     showgrid="false"
     inkscape:window-width="1278"
     inkscape:window-height="750"
     inkscape:window-x="0"
     inkscape:window-y="0"
     inkscape:snap-intersection-line-segments="false"
     inkscape:snap-bbox="true"
     inkscape:snap-nodes="false"
     inkscape:bbox-paths="true"
     inkscape:showpageshadow="false"
     showguides="false"
     inkscape:guide-bbox="true"
     inkscape:bbox-nodes="true"
     inkscape:snap-global="false">
    <inkscape:grid
       enabled="true"
       visible="true"
       id="grid4079"
       type="xygrid"
       empspacing="5" />
    <sodipodi:guide
       id="guide7317"
       position="566.05335,854.14667"
       orientation="1,0" />
  </sodipodi:namedview>
  <defs
     id="defs4">
    <inkscape:perspective
       sodipodi:type="inkscape:persp3d"
       inkscape:vp_x="0 : 24 : 1"
       inkscape:vp_y="0 : 1000 : 0"
       inkscape:vp_z="48 : 24 : 1"
       inkscape:persp3d-origin="24 : 16 : 1"
       id="perspective11" />
  </defs>
  <metadata
     id="metadata7">
    <rdf:RDF>
      <cc:Work
         rdf:about="">
        <dc:format>image/svg+xml</dc:format>
        <dc:type
           rdf:resource="http://purl.org/dc/dcmitype/StillImage" />
        <dc:title />
      </cc:Work>
    </rdf:RDF>
  </metadata>
  <g
     style="display:inline"
     id="layer1"
     inkscape:groupmode="layer"
     inkscape:label="Layer 1">
    <g
       id="g2868"
       transform="translate(0.00144894,-0.01562588)">
      <path
         style="font-size:medium;font-style:normal;font-variant:normal;font-weight:normal;font-stretch:normal;text-indent:0;text-align:start;text-decoration:none;line-height:normal;letter-spacing:normal;word-spacing:normal;text-transform:none;direction:ltr;block-progression:tb;writing-mode:lr-tb;text-anchor:start;color:#ffffff;fill:#ffffff;fill-opacity:1;stroke:none;stroke-width:20.53379822;marker:none;visibility:visible;display:inline;overflow:visible;enable-background:accumulate;font-family:Bitstream Vera Sans;-inkscape-font-specification:Bitstream Vera Sans"
         d="m 27.375,0.96875 c -4.843218,0 -8.8125,3.9426763 -8.8125,8.78125 0.0294,7.392884 -0.05609,14.798946 0.03125,22.1875 0.193936,2.822039 2.56662,5.09375 5.4375,5.09375 2.995901,0 5.46875,-2.47621 5.46875,-5.46875 l 0,-11.96875 c 0,-0.933767 -0.753733,-1.6875 -1.6875,-1.6875 -0.933767,0 -1.6875,0.753733 -1.6875,1.6875 -1e-6,3.989553 0,7.979253 0,11.96875 0,1.169823 -0.922614,2.09375 -2.09375,2.09375 -1.160889,0 -2.077879,-0.907352 -2.09375,-2.0625 7.31e-4,-7.281249 1.33e-4,-14.5625 0,-21.84375 0,-3.015525 2.41908,-5.40625 5.4375,-5.40625 3.018421,0 5.40625,2.390725 5.40625,5.40625 -0.02185,8.373758 0.08101,16.75492 0,25.125 0,4.868737 -3.908124,8.8125 -8.78125,8.8125 -4.873127,0 -8.8125,-3.943759 -8.8125,-8.8125 l 0,-18.625 c 0,-0.933767 -0.753733,-1.6875 -1.6875,-1.6875 -0.933767,0 -1.6875,0.753733 -1.6875,1.6875 0,6.208315 0,12.416723 0,18.625 10e-7,6.691842 5.489629,12.1875 12.1875,12.1875 6.519881,0 11.844741,-5.208441 12.125,-11.65625 C 36.238006,26.826213 36.217375,18.214747 36.15625,9.625 36.08924,4.8436079 32.176517,0.96875 27.375,0.96875 z"
         transform="translate(-0.01069152,8.8080085e-7)"
         id="path5560"
         sodipodi:nodetypes="cccsccsssscssccsccsccsccc" />
    </g>
  </g>
</svg>
