<?xml version="1.0" encoding="UTF-8" standalone="no"?>
<!-- Created with Inkscape (http://www.inkscape.org/) -->

<svg
   xmlns:dc="http://purl.org/dc/elements/1.1/"
   xmlns:cc="http://creativecommons.org/ns#"
   xmlns:rdf="http://www.w3.org/1999/02/22-rdf-syntax-ns#"
   xmlns:svg="http://www.w3.org/2000/svg"
   xmlns="http://www.w3.org/2000/svg"
   xmlns:sodipodi="http://sodipodi.sourceforge.net/DTD/sodipodi-0.dtd"
   xmlns:inkscape="http://www.inkscape.org/namespaces/inkscape"
   width="48"
   height="48"
   id="svg2"
   sodipodi:version="0.32"
   inkscape:version="0.46+devel r20974"
   sodipodi:docname="network-transmit-receive.svg"
   inkscape:output_extension="org.inkscape.output.svg.inkscape"
   inkscape:export-filename="/home/hbons/Desktop/Intel/icons.png"
   inkscape:export-xdpi="90"
   inkscape:export-ydpi="90"
   version="1.0">
  <defs
     id="defs4">
    <inkscape:perspective
       sodipodi:type="inkscape:persp3d"
       inkscape:vp_x="0 : 24 : 1"
       inkscape:vp_y="0 : 1000 : 0"
       inkscape:vp_z="48 : 24 : 1"
       inkscape:persp3d-origin="24 : 16 : 1"
       id="perspective16" />
    <inkscape:perspective
       id="perspective3057"
       inkscape:persp3d-origin="0.5 : 0.33333333 : 1"
       inkscape:vp_z="1 : 0.5 : 1"
       inkscape:vp_y="0 : 1000 : 0"
       inkscape:vp_x="0 : 0.5 : 1"
       sodipodi:type="inkscape:persp3d" />
  </defs>
  <sodipodi:namedview
     id="base"
     pagecolor="#ffffff"
     bordercolor="#666666"
     borderopacity="1.0"
     gridtolerance="10000"
     guidetolerance="10"
     objecttolerance="10"
     inkscape:pageopacity="0.0"
     inkscape:pageshadow="2"
     inkscape:zoom="4"
     inkscape:cx="26.266672"
     inkscape:cy="25.469334"
     inkscape:document-units="px"
     inkscape:current-layer="layer1"
     showgrid="true"
     inkscape:window-width="1278"
     inkscape:window-height="750"
     inkscape:window-x="0"
     inkscape:window-y="0"
     inkscape:snap-intersection-line-segments="false"
     inkscape:snap-bbox="false"
     inkscape:snap-nodes="true"
     inkscape:bbox-paths="true"
     inkscape:snap-global="false">
    <inkscape:grid
       type="xygrid"
       id="grid4079"
       visible="true"
       enabled="true"
       empspacing="5" />
  </sodipodi:namedview>
  <metadata
     id="metadata7">
    <rdf:RDF>
      <cc:Work
         rdf:about="">
        <dc:format>image/svg+xml</dc:format>
        <dc:type
           rdf:resource="http://purl.org/dc/dcmitype/StillImage" />
        <dc:title></dc:title>
      </cc:Work>
    </rdf:RDF>
  </metadata>
  <g
     inkscape:label="Layer 1"
     inkscape:groupmode="layer"
     id="layer1"
     transform="translate(-9.3897648,-13.175828)">
    <g
       id="g3586"
       transform="translate(0.92622101,0.05301997)">
      <g
         style="fill:#ffffff;fill-opacity:1"
         transform="matrix(1.0544815,0,0,1.0548523,-286.18326,-306.568)"
         enable-background="new    "
         id="g494">
        <path
           d="m 295.013,330.601 c -0.783,0 -1.421,0.637 -1.421,1.423 0,0.784 0.638,1.421 1.421,1.421 0.785,0 1.424,-0.637 1.424,-1.421 0,-0.786 -0.639,-1.423 -1.424,-1.423 l 0,0 z"
           id="path496"
           style="fill:#ffffff;fill-opacity:1" />
      </g>
      <path
         transform="matrix(1.1106095,0,0,1.1106095,20.526209,20.372992)"
         d="m 13.89126,14.632283 c 0,1.989123 -1.612503,3.601626 -3.601626,3.601626 -1.9891233,0 -3.6016262,-1.612503 -3.6016262,-3.601626 0,-1.989123 1.6125029,-3.601626 3.6016262,-3.601626 1.989123,0 3.601626,1.612503 3.601626,3.601626 z"
         sodipodi:ry="3.6016259"
         sodipodi:rx="3.6016259"
         sodipodi:cy="14.632283"
         sodipodi:cx="10.289634"
         id="path3572"
         style="fill:none;stroke:#ffffff;stroke-width:2.7012198;stroke-miterlimit:4;stroke-opacity:1;stroke-dasharray:none"
         sodipodi:type="arc" />
      <rect
         ry="1.5"
         rx="1.5"
         y="46.179688"
         x="19.367615"
         height="8.9944286"
         width="3"
         id="rect3574"
         style="fill:#ffffff;fill-opacity:1;stroke:none" />
      <rect
         transform="matrix(0,1,-1,0,0,0)"
         style="fill:#ffffff;fill-opacity:1;stroke:none"
         id="rect3576"
         width="3"
         height="8.9944286"
         x="46.149799"
         y="-22.335018"
         rx="1.5"
         ry="1.5" />
      <g
         id="g3578"
         enable-background="new    "
         transform="matrix(-1.0544815,0,0,-1.0548523,349.98357,379.90147)"
         style="fill:#ffffff;fill-opacity:1">
        <path
           style="fill:#ffffff;fill-opacity:1"
           id="path3580"
           d="m 295.013,330.601 c -0.783,0 -1.421,0.637 -1.421,1.423 0,0.784 0.638,1.421 1.421,1.421 0.785,0 1.424,-0.637 1.424,-1.421 0,-0.786 -0.639,-1.423 -1.424,-1.423 l 0,0 z" />
      </g>
      <rect
         transform="scale(-1,-1)"
         style="fill:#ffffff;fill-opacity:1;stroke:none"
         id="rect3582"
         width="3"
         height="8.9944286"
         x="-44.432701"
         y="-27.15378"
         rx="1.5"
         ry="1.5" />
      <rect
         ry="1.5"
         rx="1.5"
         y="41.465298"
         x="-27.183668"
         height="8.9944286"
         width="3"
         id="rect3584"
         style="fill:#ffffff;fill-opacity:1;stroke:none"
         transform="matrix(0,-1,1,0,0,0)" />
    </g>
  </g>
</svg>
