<?xml version="1.0" encoding="UTF-8" standalone="no"?>
<!-- Created with Inkscape (http://www.inkscape.org/) -->
<svg
   xmlns:dc="http://purl.org/dc/elements/1.1/"
   xmlns:cc="http://creativecommons.org/ns#"
   xmlns:rdf="http://www.w3.org/1999/02/22-rdf-syntax-ns#"
   xmlns:svg="http://www.w3.org/2000/svg"
   xmlns="http://www.w3.org/2000/svg"
   xmlns:sodipodi="http://sodipodi.sourceforge.net/DTD/sodipodi-0.dtd"
   xmlns:inkscape="http://www.inkscape.org/namespaces/inkscape"
   width="48"
   height="48"
   id="svg2"
   sodipodi:version="0.32"
   inkscape:version="0.46+devel r20679"
   sodipodi:docname="network-error.svg"
   inkscape:output_extension="org.inkscape.output.svg.inkscape"
   inkscape:export-filename="/home/hbons/Desktop/Intel/icons.png"
   inkscape:export-xdpi="90"
   inkscape:export-ydpi="90"
   version="1.0">
  <defs
     id="defs4" />
  <sodipodi:namedview
     id="base"
     pagecolor="#ffffff"
     bordercolor="#666666"
     borderopacity="1.0"
     gridtolerance="10000"
     guidetolerance="10"
     objecttolerance="10"
     inkscape:pageopacity="0.0"
     inkscape:pageshadow="2"
     inkscape:zoom="1"
     inkscape:cx="38.807602"
     inkscape:cy="23.247756"
     inkscape:document-units="px"
     inkscape:current-layer="layer1"
     showgrid="false"
     inkscape:window-width="1280"
     inkscape:window-height="750"
     inkscape:window-x="0"
     inkscape:window-y="0"
     inkscape:snap-intersection-line-segments="false"
     inkscape:snap-bbox="false"
     inkscape:snap-nodes="true"
     inkscape:bbox-paths="true">
    <inkscape:grid
       type="xygrid"
       id="grid4079"
       visible="true"
       enabled="true"
       empspacing="5" />
  </sodipodi:namedview>
  <metadata
     id="metadata7">
    <rdf:RDF>
      <cc:Work
         rdf:about="">
        <dc:format>image/svg+xml</dc:format>
        <dc:type
           rdf:resource="http://purl.org/dc/dcmitype/StillImage" />
        <dc:title />
      </cc:Work>
    </rdf:RDF>
  </metadata>
  <g
     inkscape:label="Layer 1"
     inkscape:groupmode="layer"
     id="layer1"
     transform="translate(-9.3897648,-13.175828)">
    <g
       id="g3879"
       transform="matrix(-1,0,0,-1,67.341651,73.925397)">
      <path
         sodipodi:type="arc"
         style="fill:none;stroke:#ffffff;stroke-width:7.39470673;stroke-linecap:round;stroke-miterlimit:4;stroke-opacity:1;stroke-dasharray:none;stroke-dashoffset:0;display:inline"
         id="path3047"
         sodipodi:cx="-25.809397"
         sodipodi:cy="179.43886"
         sodipodi:rx="22.98097"
         sodipodi:ry="22.98097"
         d="m -2.8284264,179.43886 c 0,12.68549 -10.2954746,22.98097 -22.9809706,22.98097 -12.685495,0 -22.98097,-10.29548 -22.98097,-22.98097 0,-12.6855 10.295475,-22.98097 22.98097,-22.98097 12.685496,0 22.9809706,10.29547 22.9809706,22.98097 z"
         transform="matrix(-0.32249158,-0.32249158,0.32220124,-0.32220124,-22.262729,76.317558)" />
      <rect
         transform="matrix(-0.70710678,0.70710678,-0.70710678,-0.70710678,0,0)"
         style="fill:#ffffff;fill-opacity:1;stroke:none;display:inline"
         id="rect5744-8"
         width="8.871335"
         height="3.3710001"
         x="-2.4155517"
         y="-51.678978"
         rx="1.6855"
         ry="1.6855" />
      <path
         transform="matrix(-0.32249158,-0.32249158,0.32220124,-0.32220124,-42.110969,96.165798)"
         d="m -2.8284264,179.43886 c 0,12.68549 -10.2954746,22.98097 -22.9809706,22.98097 -12.685495,0 -22.98097,-10.29548 -22.98097,-22.98097 0,-12.6855 10.295475,-22.98097 22.98097,-22.98097 12.685496,0 22.9809706,10.29547 22.9809706,22.98097 z"
         sodipodi:ry="22.98097"
         sodipodi:rx="22.98097"
         sodipodi:cy="179.43886"
         sodipodi:cx="-25.809397"
         id="path3849"
         style="fill:none;stroke:#ffffff;stroke-width:7.39470673;stroke-linecap:round;stroke-miterlimit:4;stroke-opacity:1;stroke-dasharray:none;stroke-dashoffset:0;display:inline"
         sodipodi:type="arc" />
    </g>
    <g
       id="g4130"
       transform="matrix(-1,0,0,-1,66.77953,74.351656)">
      <g
         transform="translate(-1.3027056,22.833367)"
         id="g5558">
        <path
           sodipodi:nodetypes="cccsccc"
           style="fill:#ffffff;fill-opacity:1;stroke:none;display:inline"
           d="m 29.521349,29.019566 c 0.66019,-0.66019 0.667289,-1.716136 0.01587,-2.367541 l -7.154302,-7.154317 c -0.651426,-0.651411 -1.707355,-0.644318 -2.367551,0.01587 -0.660226,0.660225 -0.667291,1.716139 -0.01587,2.367551 l 7.154303,7.154317 c 0.651411,0.651411 1.707325,0.644345 2.36755,-0.01588 z"
           id="path5579" />
        <path
           id="path5556"
           d="m 20.015368,29.019583 c 0.66019,0.66019 1.716132,0.667285 2.367537,0.01587 l 7.154317,-7.154306 c 0.651412,-0.651427 0.644317,-1.707356 -0.01587,-2.367552 -0.660226,-0.660226 -1.716139,-0.667292 -2.367552,-0.01587 l -7.154312,7.154308 c -0.651411,0.651411 -0.644345,1.707325 0.01588,2.36755 z"
           style="fill:#ffffff;fill-opacity:1;stroke:none;display:inline"
           sodipodi:nodetypes="cccsccc" />
      </g>
    </g>
  </g>
</svg>
