<?xml version="1.0" encoding="UTF-8" standalone="no"?>
<!-- Created with Inkscape (http://www.inkscape.org/) -->
<svg
   xmlns:dc="http://purl.org/dc/elements/1.1/"
   xmlns:cc="http://creativecommons.org/ns#"
   xmlns:rdf="http://www.w3.org/1999/02/22-rdf-syntax-ns#"
   xmlns:svg="http://www.w3.org/2000/svg"
   xmlns="http://www.w3.org/2000/svg"
   xmlns:sodipodi="http://sodipodi.sourceforge.net/DTD/sodipodi-0.dtd"
   xmlns:inkscape="http://www.inkscape.org/namespaces/inkscape"
   width="48"
   height="48"
   id="svg2"
   sodipodi:version="0.32"
   inkscape:version="0.46+devel"
   sodipodi:docname="weather-few-clouds-night.svg"
   inkscape:output_extension="org.inkscape.output.svg.inkscape"
   inkscape:export-filename="/home/hbons/Desktop/Intel/svn/moblin-ui-docs/in progress/draft visual UI/icons/icons.png"
   inkscape:export-xdpi="60.476192"
   inkscape:export-ydpi="60.476192"
   version="1.0">
  <sodipodi:namedview
     id="base"
     pagecolor="#ffffff"
     bordercolor="#dcdcdc"
     borderopacity="1"
     gridtolerance="10000"
     guidetolerance="10"
     objecttolerance="10"
     inkscape:pageopacity="0"
     inkscape:pageshadow="2"
     inkscape:zoom="8"
     inkscape:cx="58.958731"
     inkscape:cy="15.95724"
     inkscape:document-units="px"
     inkscape:current-layer="layer1"
     showgrid="false"
     inkscape:window-width="1280"
     inkscape:window-height="750"
     inkscape:window-x="0"
     inkscape:window-y="0"
     inkscape:snap-intersection-line-segments="false"
     inkscape:snap-bbox="true"
     inkscape:snap-nodes="false"
     inkscape:bbox-paths="true"
     inkscape:showpageshadow="false"
     showguides="false"
     inkscape:guide-bbox="true"
     inkscape:bbox-nodes="true"
     inkscape:snap-global="false">
    <inkscape:grid
       enabled="true"
       visible="true"
       id="grid4079"
       type="xygrid"
       empspacing="5" />
    <sodipodi:guide
       id="guide7317"
       position="566.05335,854.14667"
       orientation="1,0" />
  </sodipodi:namedview>
  <defs
     id="defs4" />
  <metadata
     id="metadata7">
    <rdf:RDF>
      <cc:Work
         rdf:about="">
        <dc:format>image/svg+xml</dc:format>
        <dc:type
           rdf:resource="http://purl.org/dc/dcmitype/StillImage" />
        <dc:title></dc:title>
      </cc:Work>
    </rdf:RDF>
  </metadata>
  <g
     style="display:inline"
     id="layer1"
     inkscape:groupmode="layer"
     inkscape:label="Layer 1">
    <g
       id="g7929"
       transform="translate(0.09451121,-1.8378714)">
      <rect
         transform="scale(-1,1)"
         style="fill:#ffffff;fill-opacity:1;stroke:none;display:inline"
         id="rect7029"
         width="31.618679"
         height="3.3710001"
         x="-38.544487"
         y="44.069092"
         rx="1.6854999"
         ry="1.6855" />
      <path
         sodipodi:open="true"
         sodipodi:end="8.6393798"
         sodipodi:start="4.712389"
         transform="matrix(-0.31184545,0,0,-0.31146442,0.84771845,94.442397)"
         d="m -25.809396,156.45789 c 12.685495,0 22.9809699,10.29547 22.9809696,22.98097 -2e-7,12.68549 -10.2954756,22.98097 -22.9809706,22.98097 -6.342748,0 -11.765,-2.24597 -16.25,-6.73097"
         sodipodi:ry="22.98097"
         sodipodi:rx="22.98097"
         sodipodi:cy="179.43886"
         sodipodi:cx="-25.809397"
         id="path7031"
         style="fill:none;stroke:#ffffff;stroke-width:10.81645203;stroke-linecap:round;stroke-miterlimit:4;stroke-opacity:1;stroke-dasharray:none;stroke-dashoffset:0;display:inline"
         sodipodi:type="arc" />
      <path
         sodipodi:open="true"
         sodipodi:end="3.6651914"
         sodipodi:start="0"
         transform="matrix(0.30925961,0,0,-0.30896286,28.033415,85.289012)"
         d="m -2.8284264,179.43886 c 0,12.68549 -10.2954746,22.98097 -22.9809706,22.98097 -12.685495,0 -22.98097,-10.29548 -22.98097,-22.98097 0,-4.2285 0.964617,-7.8285 3.078866,-11.49049"
         sodipodi:ry="22.98097"
         sodipodi:rx="22.98097"
         sodipodi:cy="179.43886"
         sodipodi:cx="-25.809397"
         id="path7033"
         style="fill:none;stroke:#ffffff;stroke-width:10.90546036;stroke-linecap:round;stroke-miterlimit:4;stroke-opacity:1;stroke-dasharray:none;stroke-dashoffset:0;display:inline"
         sodipodi:type="arc" />
      <path
         sodipodi:open="true"
         sodipodi:end="3.6651914"
         sodipodi:start="0.26179939"
         transform="matrix(-0.17997404,-0.04836717,0.04816997,-0.18030687,17.575189,63.09875)"
         d="m -3.611484,185.38677 c -3.2832478,12.25325 -15.892578,19.53325 -28.145826,16.25 -12.253247,-3.28325 -19.533247,-15.89258 -16.25,-28.14582 0.547208,-2.04221 1.238684,-3.71158 2.295809,-5.54258"
         sodipodi:ry="22.98097"
         sodipodi:rx="22.98097"
         sodipodi:cy="179.43886"
         sodipodi:cx="-25.809397"
         id="path7035"
         style="fill:none;stroke:#ffffff;stroke-width:18.07554626;stroke-linecap:round;stroke-miterlimit:4;stroke-opacity:1;stroke-dasharray:none;stroke-dashoffset:0;display:inline"
         sodipodi:type="arc" />
      <path
         sodipodi:type="arc"
         style="fill:none;stroke:#ffffff;stroke-width:13.51111794;stroke-linecap:round;stroke-miterlimit:4;stroke-opacity:1;stroke-dasharray:none;stroke-dashoffset:0;display:inline"
         id="path7037"
         sodipodi:cx="-25.809397"
         sodipodi:cy="179.43886"
         sodipodi:rx="22.98097"
         sodipodi:ry="22.98097"
         d="m -5.9072926,190.92934 c -6.3427484,10.98596 -20.4066284,14.75437 -31.3925894,8.41162 -10.985961,-6.34275 -14.754367,-20.40663 -8.411619,-31.39259 2.114249,-3.66198 4.749632,-6.29737 8.411619,-8.41162"
         transform="matrix(-0.21814473,-0.12370199,0.12580507,-0.21401851,8.5553465,75.27147)"
         sodipodi:start="0.52359878"
         sodipodi:end="4.1887902"
         sodipodi:open="true" />
      <g
         transform="translate(7.5977285,-3.5403122)"
         style="display:inline"
         id="layer1-3"
         inkscape:label="Layer 1">
        <path
           sodipodi:nodetypes="cccccssccccccc"
           id="path5562-3"
           transform="translate(-7.5977285,3.5403122)"
           d="M 29.875,4.25 C 29.81198,4.25689 29.749345,4.267333 29.6875,4.28125 21.375411,5.235956 15.263979,12.318334 15.3125,20.5 16.361533,19.965568 17.508574,19.593907 18.71875,19.4375 19.169601,13.381532 23.828435,8.3133696 30.09375,7.59375 30.725389,7.5256239 31.298726,7.070534 31.506891,6.4720592 31.715056,5.8735843 31.547437,5.1622358 31.09375,4.71875 30.771351,4.4098882 30.321895,4.2370205 29.875,4.25 z M 46,20.65625 c -0.794108,0.03961 -1.508343,0.711831 -1.59375,1.5 -0.509696,3.917081 -2.601166,7.145707 -5.65625,9.125 1.263101,0.277994 2.473482,0.805304 3.53125,1.5625 2.940931,-2.531893 4.932826,-6.13135 5.46875,-10.25 0.151856,-0.982554 -0.754069,-1.985542 -1.75,-1.9375 z"
           style="font-size:medium;font-style:normal;font-variant:normal;font-weight:normal;font-stretch:normal;text-indent:0;text-align:start;text-decoration:none;line-height:normal;letter-spacing:normal;word-spacing:normal;text-transform:none;direction:ltr;block-progression:tb;writing-mode:lr-tb;text-anchor:start;color:#ffffff;fill:#ffffff;fill-opacity:1;stroke:none;stroke-width:5.29667139;marker:none;visibility:visible;display:inline;overflow:visible;enable-background:accumulate;font-family:Bitstream Vera Sans;-inkscape-font-specification:Bitstream Vera Sans" />
        <path
           transform="matrix(-0.36876673,-0.32106638,-0.32001909,0.36777744,78.56839,-57.077068)"
           d="m -2.8505058,178.43172 c 0.5559401,12.67331 -9.2784452,23.41009 -21.9517532,23.96603 -12.190448,0.53476 -22.601743,-8.44369 -23.864684,-20.58033"
           sodipodi:ry="22.98097"
           sodipodi:rx="22.98097"
           sodipodi:cy="179.43886"
           sodipodi:cx="-25.809397"
           style="fill:none;stroke:#ffffff;stroke-width:6.90380096;stroke-linecap:round;stroke-miterlimit:4;stroke-opacity:1;stroke-dasharray:none;stroke-dashoffset:0;display:inline"
           sodipodi:type="arc"
           id="path5538"
           sodipodi:start="6.2393464"
           sodipodi:end="9.3210909"
           sodipodi:open="true" />
      </g>
    </g>
  </g>
</svg>
