<?xml version="1.0" encoding="UTF-8" standalone="no"?>
<!-- Created with Inkscape (http://www.inkscape.org/) -->
<svg
   xmlns:dc="http://purl.org/dc/elements/1.1/"
   xmlns:cc="http://creativecommons.org/ns#"
   xmlns:rdf="http://www.w3.org/1999/02/22-rdf-syntax-ns#"
   xmlns:svg="http://www.w3.org/2000/svg"
   xmlns="http://www.w3.org/2000/svg"
   xmlns:sodipodi="http://sodipodi.sourceforge.net/DTD/sodipodi-0.dtd"
   xmlns:inkscape="http://www.inkscape.org/namespaces/inkscape"
   width="48"
   height="48"
   id="svg2"
   sodipodi:version="0.32"
   inkscape:version="0.46+devel r20679"
   sodipodi:docname="weather-snow.svg"
   inkscape:output_extension="org.inkscape.output.svg.inkscape"
   inkscape:export-filename="/home/hbons/Desktop/Intel/svn/moblin-ui-docs/in progress/draft visual UI/icons/icons.png"
   inkscape:export-xdpi="60.476192"
   inkscape:export-ydpi="60.476192"
   version="1.0">
  <sodipodi:namedview
     id="base"
     pagecolor="#ffffff"
     bordercolor="#dcdcdc"
     borderopacity="1"
     gridtolerance="10000"
     guidetolerance="10"
     objecttolerance="10"
     inkscape:pageopacity="0"
     inkscape:pageshadow="2"
     inkscape:zoom="5.6568542"
     inkscape:cx="24.669826"
     inkscape:cy="19.040422"
     inkscape:document-units="px"
     inkscape:current-layer="layer1"
     showgrid="false"
     inkscape:window-width="1280"
     inkscape:window-height="750"
     inkscape:window-x="0"
     inkscape:window-y="0"
     inkscape:snap-intersection-line-segments="false"
     inkscape:snap-bbox="true"
     inkscape:snap-nodes="false"
     inkscape:bbox-paths="true"
     inkscape:showpageshadow="false"
     showguides="false"
     inkscape:guide-bbox="true"
     inkscape:bbox-nodes="true"
     inkscape:snap-global="false">
    <inkscape:grid
       enabled="true"
       visible="true"
       id="grid4079"
       type="xygrid"
       empspacing="5" />
    <sodipodi:guide
       id="guide7317"
       position="566.05335,854.14667"
       orientation="1,0" />
  </sodipodi:namedview>
  <defs
     id="defs4" />
  <metadata
     id="metadata7">
    <rdf:RDF>
      <cc:Work
         rdf:about="">
        <dc:format>image/svg+xml</dc:format>
        <dc:type
           rdf:resource="http://purl.org/dc/dcmitype/StillImage" />
        <dc:title />
      </cc:Work>
    </rdf:RDF>
  </metadata>
  <g
     style="display:inline"
     id="layer1"
     inkscape:groupmode="layer"
     inkscape:label="Layer 1">
    <g
       id="g2868"
       transform="translate(-6.6360627e-8,-0.33062396)">
      <path
         sodipodi:nodetypes="ccscssccccsccsssscssssscscc"
         id="rect6405"
         d="m 10.748929,10.84933 c 2.376091,0 4.56985,0.915652 6.25,2.59375 0.713605,0.598351 0.767333,1.822298 0.108899,2.480732 -0.658435,0.658435 -1.883944,0.606269 -2.483899,-0.105732 -1.117103,-1.115737 -2.295178,-1.59375 -3.875,-1.59375 -3.043395,0 -5.46875,2.429072 -5.46875,5.46875 0,3.039678 2.425355,5.46875 5.46875,5.46875 0.189237,-0.01091 0.38029,0.01032 0.5625,0.0625 l 0.375,0 c -0.994223,0.842897 -1.765248,1.93041 -2.1875,3.1875 -4.285279,-0.606751 -7.59375,-4.277512 -7.59375,-8.71875 0,-4.862486 3.975316,-8.84375 8.84375,-8.84375 z m 27.65625,3 c 2.653912,-0.05523 5.271805,1.281823 6.6875,3.6875 2.059192,3.499165 0.843889,8.013267 -2.71875,10.03125 -1.016471,0.575759 -2.149802,0.902518 -3.3125,0.96875 -0.04211,0.0024 -0.08277,-0.0017 -0.125,0 -0.07201,0.0093 -0.144125,0.03125 -0.21875,0.03125 0.123488,-0.523078 0.1875,-1.067348 0.1875,-1.625 0,-0.591932 -0.07971,-1.167486 -0.21875,-1.71875 0.01017,-2e-6 0.02039,1.6e-4 0.03125,0 0.751995,-0.0111 1.268578,-0.152354 1.9375,-0.53125 1.968814,-1.115194 2.637967,-3.566264 1.5,-5.5 -1.137967,-1.933737 -3.624936,-2.583944 -5.59375,-1.46875 -0.746396,0.588002 -1.978721,0.347599 -2.459101,-0.479723 -0.480381,-0.827322 -0.09371,-2.043323 0.771601,-2.426527 1.113325,-0.63062 2.324927,-0.943647 3.53125,-0.96875 z"
         style="fill:#ffffff;fill-opacity:1;stroke:none" />
      <path
         sodipodi:open="true"
         sodipodi:end="3.6651914"
         sodipodi:start="0"
         transform="matrix(0.30925961,0,0,-0.30896286,29.889758,66.429482)"
         d="m -2.8284264,179.43886 c 0,12.68549 -10.2954746,22.98097 -22.9809706,22.98097 -12.685495,0 -22.98097,-10.29548 -22.98097,-22.98097 0,-4.2285 0.964617,-7.8285 3.078866,-11.49049"
         sodipodi:ry="22.98097"
         sodipodi:rx="22.98097"
         sodipodi:cy="179.43886"
         sodipodi:cx="-25.809397"
         id="path5558"
         style="fill:none;stroke:#ffffff;stroke-width:10.90546036;stroke-linecap:round;stroke-miterlimit:4;stroke-opacity:1;stroke-dasharray:none;stroke-dashoffset:0;display:inline"
         sodipodi:type="arc" />
      <path
         sodipodi:open="true"
         sodipodi:end="3.6651914"
         sodipodi:start="0.26179939"
         transform="matrix(-0.17997404,-0.04836717,0.04816997,-0.18030687,19.445941,44.304854)"
         d="m -3.611484,185.38677 c -3.2832478,12.25325 -15.892578,19.53325 -28.145826,16.25 -12.253247,-3.28325 -19.533247,-15.89258 -16.25,-28.14582 0.547208,-2.04221 1.238684,-3.71158 2.295809,-5.54258"
         sodipodi:ry="22.98097"
         sodipodi:rx="22.98097"
         sodipodi:cy="179.43886"
         sodipodi:cx="-25.809397"
         id="path5567"
         style="fill:none;stroke:#ffffff;stroke-width:18.07554626;stroke-linecap:round;stroke-miterlimit:4;stroke-opacity:1;stroke-dasharray:none;stroke-dashoffset:0;display:inline"
         sodipodi:type="arc" />
      <path
         sodipodi:type="arc"
         style="fill:none;stroke:#ffffff;stroke-width:20.53379822;stroke-linecap:round;stroke-miterlimit:4;stroke-opacity:1;stroke-dasharray:none;stroke-dashoffset:0;display:inline"
         id="path6725"
         sodipodi:cx="-25.809397"
         sodipodi:cy="179.43886"
         sodipodi:rx="22.98097"
         sodipodi:ry="22.98097"
         d="m -2.8284264,179.43886 c 0,12.68549 -10.2954746,22.98097 -22.9809706,22.98097 -12.685495,0 -22.98097,-10.29548 -22.98097,-22.98097 0,-12.6855 10.295475,-22.98097 22.98097,-22.98097 12.685496,0 22.9809706,10.29547 22.9809706,22.98097 z"
         transform="matrix(-0.16424416,0,0,-0.16405989,17.820388,57.045565)" />
      <path
         transform="matrix(-0.16424416,0,0,-0.16405989,13.393093,69.781267)"
         d="m -2.8284264,179.43886 c 0,12.68549 -10.2954746,22.98097 -22.9809706,22.98097 -12.685495,0 -22.98097,-10.29548 -22.98097,-22.98097 0,-12.6855 10.295475,-22.98097 22.98097,-22.98097 12.685496,0 22.9809706,10.29547 22.9809706,22.98097 z"
         sodipodi:ry="22.98097"
         sodipodi:rx="22.98097"
         sodipodi:cy="179.43886"
         sodipodi:cx="-25.809397"
         id="path6727"
         style="fill:none;stroke:#ffffff;stroke-width:20.53379822;stroke-linecap:round;stroke-miterlimit:4;stroke-opacity:1;stroke-dasharray:none;stroke-dashoffset:0;display:inline"
         sodipodi:type="arc" />
      <path
         transform="matrix(-0.16424416,0,0,-0.16405989,26.974612,66.444293)"
         d="m -2.8284264,179.43886 c 0,12.68549 -10.2954746,22.98097 -22.9809706,22.98097 -12.685495,0 -22.98097,-10.29548 -22.98097,-22.98097 0,-12.6855 10.295475,-22.98097 22.98097,-22.98097 12.685496,0 22.9809706,10.29547 22.9809706,22.98097 z"
         sodipodi:ry="22.98097"
         sodipodi:rx="22.98097"
         sodipodi:cy="179.43886"
         sodipodi:cx="-25.809397"
         id="path6727-9"
         style="fill:none;stroke:#ffffff;stroke-width:20.53379822;stroke-linecap:round;stroke-miterlimit:4;stroke-opacity:1;stroke-dasharray:none;stroke-dashoffset:0;display:inline"
         sodipodi:type="arc" />
      <path
         sodipodi:nodetypes="cccsccc"
         style="fill:#ffffff;fill-opacity:1;stroke:none;display:inline"
         d="m 31.592742,25.611762 c -0.93368,0 -1.685321,0.75168 -1.685311,1.68533 l 2e-5,0.008 c -3e-5,0.93369 0.751611,1.68533 1.685321,1.68533 0.93364,0 1.685319,-0.75164 1.685319,-1.68533 l -1e-5,-0.008 c 1e-5,-0.93365 -0.751669,-1.68533 -1.685339,-1.68533 z"
         id="path7348-1" />
      <path
         sodipodi:nodetypes="cccsccc"
         style="fill:#ffffff;fill-opacity:1;stroke:none;display:inline"
         d="m 25.992787,43.078815 c -0.93368,0 -1.685321,0.75168 -1.685311,1.68533 l 2e-5,0.008 c -3e-5,0.93369 0.751611,1.68533 1.685321,1.68533 0.93364,0 1.685319,-0.75164 1.685319,-1.68533 l -10e-6,-0.008 c 10e-6,-0.93365 -0.751669,-1.68533 -1.685339,-1.68533 z"
         id="path7348-1-3" />
      <path
         sodipodi:nodetypes="cccsccc"
         style="fill:#ffffff;fill-opacity:1;stroke:none;display:inline"
         d="m 13.889132,30.09652 c -0.93368,0 -1.685321,0.75168 -1.685311,1.68533 l 2e-5,0.008 c -3e-5,0.93369 0.751611,1.68533 1.685321,1.68533 0.93364,0 1.685319,-0.75164 1.685319,-1.68533 l -10e-6,-0.008 c 10e-6,-0.93365 -0.751669,-1.68533 -1.685339,-1.68533 z"
         id="path7348-1-6" />
      <rect
         ry="1.6855"
         rx="1.6855001"
         y="-28.591135"
         x="-40.320869"
         height="3.3710001"
         width="5.0961733"
         id="rect6653"
         style="fill:#ffffff;fill-opacity:1;stroke:none"
         transform="scale(-1,-1)" />
      <rect
         transform="scale(-1,-1)"
         style="fill:#ffffff;fill-opacity:1;stroke:none"
         id="rect3014"
         width="5.7580438"
         height="3.3710001"
         x="-13.797035"
         y="-28.442083"
         rx="1.6855001"
         ry="1.6855" />
    </g>
  </g>
</svg>
