<?xml version="1.0" encoding="UTF-8" standalone="no"?>
<!-- Created with Inkscape (http://www.inkscape.org/) -->
<svg
   xmlns:dc="http://purl.org/dc/elements/1.1/"
   xmlns:cc="http://creativecommons.org/ns#"
   xmlns:rdf="http://www.w3.org/1999/02/22-rdf-syntax-ns#"
   xmlns:svg="http://www.w3.org/2000/svg"
   xmlns="http://www.w3.org/2000/svg"
   xmlns:sodipodi="http://sodipodi.sourceforge.net/DTD/sodipodi-0.dtd"
   xmlns:inkscape="http://www.inkscape.org/namespaces/inkscape"
   width="48"
   height="48"
   id="svg2"
   sodipodi:version="0.32"
   inkscape:version="0.46+devel r20679"
   sodipodi:docname="audio-card.svg"
   inkscape:output_extension="org.inkscape.output.svg.inkscape"
   inkscape:export-filename="/home/hbons/Desktop/Intel/svn/moblin-ui-docs/in progress/draft visual UI/icons/icons.png"
   inkscape:export-xdpi="60.476192"
   inkscape:export-ydpi="60.476192"
   version="1.0">
  <sodipodi:namedview
     id="base"
     pagecolor="#ffffff"
     bordercolor="#dcdcdc"
     borderopacity="1"
     gridtolerance="10000"
     guidetolerance="10"
     objecttolerance="10"
     inkscape:pageopacity="0"
     inkscape:pageshadow="2"
     inkscape:zoom="11.313708"
     inkscape:cx="44.222974"
     inkscape:cy="29.651337"
     inkscape:document-units="px"
     inkscape:current-layer="layer1"
     showgrid="false"
     inkscape:window-width="1280"
     inkscape:window-height="750"
     inkscape:window-x="0"
     inkscape:window-y="0"
     inkscape:snap-intersection-line-segments="false"
     inkscape:snap-bbox="true"
     inkscape:snap-nodes="false"
     inkscape:bbox-paths="true"
     inkscape:showpageshadow="false"
     showguides="true"
     inkscape:guide-bbox="true"
     inkscape:bbox-nodes="true"
     inkscape:snap-global="false">
    <inkscape:grid
       enabled="true"
       visible="true"
       id="grid4079"
       type="xygrid"
       empspacing="5" />
    <sodipodi:guide
       id="guide7317"
       position="566.05335,854.14667"
       orientation="1,0" />
  </sodipodi:namedview>
  <defs
     id="defs4">
    <inkscape:perspective
       sodipodi:type="inkscape:persp3d"
       inkscape:vp_x="0 : 24 : 1"
       inkscape:vp_y="0 : 1000 : 0"
       inkscape:vp_z="48 : 24 : 1"
       inkscape:persp3d-origin="24 : 16 : 1"
       id="perspective23" />
    <inkscape:perspective
       id="perspective2868"
       inkscape:persp3d-origin="0.5 : 0.33333333 : 1"
       inkscape:vp_z="1 : 0.5 : 1"
       inkscape:vp_y="0 : 1000 : 0"
       inkscape:vp_x="0 : 0.5 : 1"
       sodipodi:type="inkscape:persp3d" />
  </defs>
  <metadata
     id="metadata7">
    <rdf:RDF>
      <cc:Work
         rdf:about="">
        <dc:format>image/svg+xml</dc:format>
        <dc:type
           rdf:resource="http://purl.org/dc/dcmitype/StillImage" />
        <dc:title />
      </cc:Work>
    </rdf:RDF>
  </metadata>
  <g
     style="display:inline"
     id="layer1"
     inkscape:groupmode="layer"
     inkscape:label="Layer 1">
    <g
       id="g3643"
       transform="translate(0.01555818,-6.4230957e-7)">
      <g
         transform="matrix(1.1369331,0,0,1.1369331,55.963179,21.633547)"
         id="g5599" />
      <path
         sodipodi:nodetypes="csccccccccsccssssscc"
         id="rect6524"
         d="m 4.03125,10.78125 c -0.9337671,0 -1.6875,0.753733 -1.6875,1.6875 0,0.933767 0.7537329,1.6875 1.6875,1.6875 l 15.90625,0 0,-3.375 -15.90625,0 z m 36.25,0 0,3.375 1.96875,0 0,20.875 c 0,0.933767 0.753733,1.6875 1.6875,1.6875 0.933767,0 1.6875,-0.753733 1.6875,-1.6875 l 0,-22.5 c 3.8e-4,-0.01043 -1.91e-4,-0.02077 0,-0.03125 -1.91e-4,-0.01047 3.8e-4,-0.02084 0,-0.03125 0,-0.09567 -0.01604,-0.189974 -0.03125,-0.28125 -0.0041,-0.02002 0.0048,-0.04277 0,-0.0625 C 45.57543,12.0352 45.53192,11.958941 45.5,11.875 45.258293,11.239315 44.659242,10.78125 43.9375,10.78125 l -3.65625,0 z"
         style="fill:#ffffff;fill-opacity:1;stroke:none" />
      <rect
         ry="1.6855"
         rx="1.6855001"
         y="33.422428"
         x="22.634678"
         height="3.3710001"
         width="22.964521"
         id="rect6758"
         style="fill:#ffffff;fill-opacity:1;stroke:none" />
      <rect
         transform="matrix(0,1,1,0,0,0)"
         ry="1.6855"
         rx="1.6855003"
         y="2.372122"
         x="10.789119"
         height="3.3710001"
         width="26.001013"
         id="rect5794"
         style="fill:#ffffff;fill-opacity:1;stroke:none" />
      <path
         sodipodi:type="arc"
         style="fill:none;stroke:#ffffff;stroke-width:18.18814087;stroke-linecap:round;stroke-miterlimit:4;stroke-opacity:1;stroke-dasharray:none;stroke-dashoffset:0;display:inline"
         id="path7622"
         sodipodi:cx="-25.809397"
         sodipodi:cy="179.43886"
         sodipodi:rx="22.98097"
         sodipodi:ry="22.98097"
         d="m -2.8284264,179.43886 c 0,12.68549 -10.2954746,22.98097 -22.9809706,22.98097 -12.685495,0 -22.98097,-10.29548 -22.98097,-22.98097 0,-12.6855 10.295475,-22.98097 22.98097,-22.98097 12.685496,0 22.9809706,10.29547 22.9809706,22.98097 z"
         transform="matrix(0.18542245,0,0,0.18522181,23.835915,-10.081753)" />
      <path
         transform="matrix(0.18542245,0,0,0.18522181,37.401514,-10.017123)"
         d="m -2.8284264,179.43886 c 0,12.68549 -10.2954746,22.98097 -22.9809706,22.98097 -12.685495,0 -22.98097,-10.29548 -22.98097,-22.98097 0,-12.6855 10.295475,-22.98097 22.98097,-22.98097 12.685496,0 22.9809706,10.29547 22.9809706,22.98097 z"
         sodipodi:ry="22.98097"
         sodipodi:rx="22.98097"
         sodipodi:cy="179.43886"
         sodipodi:cx="-25.809397"
         id="path7624"
         style="fill:none;stroke:#ffffff;stroke-width:18.18814087;stroke-linecap:round;stroke-miterlimit:4;stroke-opacity:1;stroke-dasharray:none;stroke-dashoffset:0;display:inline"
         sodipodi:type="arc" />
      <path
         id="path6502-8"
         d="m 23.317065,5.0957358 c -0.93365,0 -1.68533,0.75165 -1.68532,1.6853099 l -10e-6,15.6692203 c 10e-6,0.93367 0.75168,1.68531 1.68533,1.68532 0.9337,0 1.68534,-0.75165 1.68533,-1.68532 l 10e-6,-15.6692203 c 0,-0.9336599 -0.75164,-1.6853099 -1.68534,-1.6853099 z"
         style="fill:#ffffff;fill-opacity:1;stroke:none;display:inline"
         sodipodi:nodetypes="cccsccc" />
      <path
         sodipodi:nodetypes="cccsccc"
         style="fill:#ffffff;fill-opacity:1;stroke:none;display:inline"
         d="m 36.882664,5.0653591 c -0.93365,0 -1.68533,0.743276 -1.68533,1.6665324 l 0,16.3688015 c 0,0.923257 0.75168,1.666543 1.68532,1.666543 0.9337,0 1.68534,-0.743286 1.68534,-1.666543 l 0,-16.3688015 c 0,-0.9232564 -0.75163,-1.6665324 -1.68533,-1.6665324 z"
         id="path6504" />
      <rect
         style="fill:#ffffff;fill-opacity:1;stroke:none"
         id="rect5853"
         width="10.136355"
         height="3.3710001"
         x="2.4002666"
         y="33.449799"
         rx="1.6855003"
         ry="1.6855" />
      <rect
         transform="matrix(0,1,1,0,0,0)"
         ry="1.6855"
         rx="1.6855003"
         y="9.2048206"
         x="33.491394"
         height="3.3710001"
         width="9.4450769"
         id="rect6700"
         style="fill:#ffffff;fill-opacity:1;stroke:none;display:inline" />
      <rect
         style="fill:#ffffff;fill-opacity:1;stroke:none;display:inline"
         id="rect6702"
         width="9.529088"
         height="3.3710001"
         x="33.407387"
         y="22.625469"
         rx="1.6855003"
         ry="1.6855"
         transform="matrix(0,1,1,0,0,0)" />
      <rect
         transform="scale(1,-1)"
         ry="1.6855"
         rx="1.6855004"
         y="-42.948215"
         x="9.2382412"
         height="3.3710001"
         width="16.691513"
         id="rect6704"
         style="fill:#ffffff;fill-opacity:1;stroke:none;display:inline" />
      <path
         id="path6502-8-8"
         d="m 38.501946,6.7371158 c 0,-0.93365 -0.663359,-1.68533 -1.48735,-1.68532 l -13.828678,-10e-6 c -0.824,10e-6 -1.48735,0.75168 -1.487359,1.68533 0,0.9337 0.663359,1.68534 1.487359,1.68533 l 13.828678,10e-6 c 0.823991,0 1.48735,-0.75164 1.48735,-1.68534 z"
         style="fill:#ffffff;fill-opacity:1;stroke:none;display:inline"
         sodipodi:nodetypes="cccsccc" />
    </g>
  </g>
</svg>
