<?xml version="1.0" encoding="UTF-8" standalone="no"?>
<!-- Created with Inkscape (http://www.inkscape.org/) -->
<svg
   xmlns:dc="http://purl.org/dc/elements/1.1/"
   xmlns:cc="http://creativecommons.org/ns#"
   xmlns:rdf="http://www.w3.org/1999/02/22-rdf-syntax-ns#"
   xmlns:svg="http://www.w3.org/2000/svg"
   xmlns="http://www.w3.org/2000/svg"
   xmlns:sodipodi="http://sodipodi.sourceforge.net/DTD/sodipodi-0.dtd"
   xmlns:inkscape="http://www.inkscape.org/namespaces/inkscape"
   width="48"
   height="48"
   id="svg2"
   sodipodi:version="0.32"
   inkscape:version="0.46+devel"
   sodipodi:docname="bluetooth.svg"
   inkscape:output_extension="org.inkscape.output.svg.inkscape"
   inkscape:export-filename="/home/hbons/Desktop/Intel/svn/moblin-ui-docs/in progress/draft visual UI/icons/icons.png"
   inkscape:export-xdpi="60.476192"
   inkscape:export-ydpi="60.476192"
   version="1.0">
  <sodipodi:namedview
     id="base"
     pagecolor="#ffffff"
     bordercolor="#dcdcdc"
     borderopacity="1"
     gridtolerance="10000"
     guidetolerance="10"
     objecttolerance="10"
     inkscape:pageopacity="0"
     inkscape:pageshadow="2"
     inkscape:zoom="4"
     inkscape:cx="63.173015"
     inkscape:cy="25.096617"
     inkscape:document-units="px"
     inkscape:current-layer="layer1"
     showgrid="false"
     inkscape:window-width="1280"
     inkscape:window-height="750"
     inkscape:window-x="0"
     inkscape:window-y="0"
     inkscape:snap-intersection-line-segments="false"
     inkscape:snap-bbox="true"
     inkscape:snap-nodes="false"
     inkscape:bbox-paths="true"
     inkscape:showpageshadow="false"
     showguides="false"
     inkscape:guide-bbox="true"
     inkscape:bbox-nodes="true"
     inkscape:snap-global="false">
    <inkscape:grid
       enabled="true"
       visible="true"
       id="grid4079"
       type="xygrid"
       empspacing="5" />
    <sodipodi:guide
       id="guide7317"
       position="566.05335,854.14667"
       orientation="1,0" />
  </sodipodi:namedview>
  <defs
     id="defs4">
    <inkscape:perspective
       sodipodi:type="inkscape:persp3d"
       inkscape:vp_x="0 : 24 : 1"
       inkscape:vp_y="0 : 1000 : 0"
       inkscape:vp_z="48 : 24 : 1"
       inkscape:persp3d-origin="24 : 16 : 1"
       id="perspective15" />
  </defs>
  <metadata
     id="metadata7">
    <rdf:RDF>
      <cc:Work
         rdf:about="">
        <dc:format>image/svg+xml</dc:format>
        <dc:type
           rdf:resource="http://purl.org/dc/dcmitype/StillImage" />
        <dc:title />
      </cc:Work>
    </rdf:RDF>
  </metadata>
  <g
     style="display:inline"
     id="layer1"
     inkscape:groupmode="layer"
     inkscape:label="Layer 1">
    <g
       id="g8255"
       transform="translate(0.36618169,-0.25540505)"
       style="fill:#ffffff;fill-opacity:1">
      <path
         sodipodi:nodetypes="cccsccc"
         style="fill:#ffffff;fill-opacity:1;stroke:none;display:inline"
         d="m 23.728379,5.1755601 c -0.933654,0 -1.685337,0.75163 -1.685337,1.68532 l 0,34.7890199 c 0,0.9337 0.751683,1.68535 1.685329,1.68535 0.9337,0 1.685335,-0.75165 1.685335,-1.68535 l 0,-34.7890199 c 0,-0.93369 -0.751635,-1.68532 -1.685327,-1.68532 z"
         id="path7160-8" />
      <path
         sodipodi:nodetypes="cccsccc"
         style="fill:#ffffff;fill-opacity:1;stroke:none;display:inline"
         d="m 22.528195,42.82827 c -0.660185,-0.66017 -0.660223,-1.72317 0,-2.38339 l 8.660053,-8.66005 c 0.66023,-0.66024 1.72324,-0.66021 2.383422,0 0.66023,0.66021 0.66023,1.72318 0,2.38338 l -8.66005,8.66006 c -0.660222,0.66026 -1.723196,0.66026 -2.383425,0 z"
         id="path7437" />
      <path
         id="path7441"
         d="m 13.685951,14.28727 c -0.660191,0.66017 -0.660222,1.72317 0,2.38338 l 17.502297,17.5023 c 0.66023,0.66024 1.72324,0.6602 2.383422,0 0.66023,-0.6602 0.66023,-1.72318 0,-2.38339 L 16.069377,14.28727 c -0.66023,-0.66026 -1.723204,-0.66026 -2.383426,0 z"
         style="fill:#ffffff;fill-opacity:1;stroke:none;display:inline"
         sodipodi:nodetypes="cccsccc" />
      <path
         sodipodi:nodetypes="cccsccc"
         style="fill:#ffffff;fill-opacity:1;stroke:none;display:inline"
         d="m 13.685951,34.17292 c -0.660191,-0.66015 -0.660222,-1.72316 0,-2.38337 l 17.502297,-17.5023 c 0.66023,-0.66026 1.72324,-0.66021 2.383422,0 0.66023,0.66021 0.66023,1.72319 0,2.38339 L 16.069377,34.17292 c -0.66023,0.66025 -1.723204,0.66025 -2.383426,0 z"
         id="path7444" />
      <path
         id="path7446"
         d="m 22.538198,5.6707501 c -0.660192,0.66015 -0.660222,1.72317 0,2.38337 l 8.660047,8.6600599 c 0.660229,0.66025 1.723238,0.66021 2.383429,0 0.660222,-0.66021 0.660222,-1.72318 0,-2.38339 l -8.66005,-8.6600399 c -0.66023,-0.66025 -1.723204,-0.66025 -2.383426,0 z"
         style="fill:#ffffff;fill-opacity:1;stroke:none;display:inline"
         sodipodi:nodetypes="cccsccc" />
    </g>
  </g>
</svg>
