<?xml version="1.0" encoding="UTF-8" standalone="no"?>
<!-- Created with Inkscape (http://www.inkscape.org/) -->
<svg
   xmlns:dc="http://purl.org/dc/elements/1.1/"
   xmlns:cc="http://creativecommons.org/ns#"
   xmlns:rdf="http://www.w3.org/1999/02/22-rdf-syntax-ns#"
   xmlns:svg="http://www.w3.org/2000/svg"
   xmlns="http://www.w3.org/2000/svg"
   xmlns:sodipodi="http://sodipodi.sourceforge.net/DTD/sodipodi-0.dtd"
   xmlns:inkscape="http://www.inkscape.org/namespaces/inkscape"
   width="48"
   height="48"
   id="svg2"
   sodipodi:version="0.32"
   inkscape:version="0.46+devel"
   sodipodi:docname="address-book-new.svg"
   inkscape:output_extension="org.inkscape.output.svg.inkscape"
   inkscape:export-filename="/home/hbons/Desktop/Intel/svn/moblin-ui-docs/in progress/draft visual UI/icons/icons.png"
   inkscape:export-xdpi="60.476192"
   inkscape:export-ydpi="60.476192"
   version="1.0">
  <sodipodi:namedview
     id="base"
     pagecolor="#ffffff"
     bordercolor="#dcdcdc"
     borderopacity="1"
     gridtolerance="10000"
     guidetolerance="10"
     objecttolerance="10"
     inkscape:pageopacity="0"
     inkscape:pageshadow="2"
     inkscape:zoom="8"
     inkscape:cx="38.244448"
     inkscape:cy="25.287124"
     inkscape:document-units="px"
     inkscape:current-layer="layer1"
     showgrid="false"
     inkscape:window-width="1280"
     inkscape:window-height="750"
     inkscape:window-x="0"
     inkscape:window-y="0"
     inkscape:snap-intersection-line-segments="false"
     inkscape:snap-bbox="true"
     inkscape:snap-nodes="false"
     inkscape:bbox-paths="true"
     inkscape:showpageshadow="false"
     showguides="false"
     inkscape:guide-bbox="true"
     inkscape:bbox-nodes="true"
     inkscape:snap-global="false">
    <inkscape:grid
       enabled="true"
       visible="true"
       id="grid4079"
       type="xygrid"
       empspacing="5" />
    <sodipodi:guide
       id="guide7317"
       position="566.05335,854.14667"
       orientation="1,0" />
  </sodipodi:namedview>
  <defs
     id="defs4" />
  <metadata
     id="metadata7">
    <rdf:RDF>
      <cc:Work
         rdf:about="">
        <dc:format>image/svg+xml</dc:format>
        <dc:type
           rdf:resource="http://purl.org/dc/dcmitype/StillImage" />
        <dc:title />
      </cc:Work>
    </rdf:RDF>
  </metadata>
  <g
     style="display:inline"
     id="layer1"
     inkscape:groupmode="layer"
     inkscape:label="Layer 1">
    <g
       id="g6257"
       transform="translate(1.6969999,-1.082578)">
      <path
         sodipodi:open="true"
         sodipodi:end="4.712389"
         sodipodi:start="1.5707963"
         transform="matrix(0.16424416,0,0,-0.16405989,40.756854,69.848513)"
         d="m -25.809396,202.41983 c -12.685496,0 -22.980971,-10.29548 -22.980971,-22.98097 0,-12.6855 10.295474,-22.98097 22.98097,-22.98097 0,0 0,0 1e-6,0"
         sodipodi:ry="22.98097"
         sodipodi:rx="22.98097"
         sodipodi:cy="179.43886"
         sodipodi:cx="-25.809397"
         id="path5560"
         style="fill:none;stroke:#000000;stroke-width:20.53379822;stroke-linecap:round;stroke-miterlimit:4;stroke-opacity:1;stroke-dasharray:none;stroke-dashoffset:0;display:inline"
         sodipodi:type="arc" />
      <rect
         style="fill:#000000;fill-opacity:1;stroke:none"
         id="rect6405"
         width="29.858324"
         height="3.3710001"
         x="8.1500759"
         y="34.936432"
         rx="1.6855"
         ry="1.6855" />
      <rect
         ry="1.6855"
         rx="1.6854999"
         y="-7.672966"
         x="10.323387"
         height="3.3710001"
         width="31.013988"
         id="rect6456"
         style="fill:#000000;fill-opacity:1;stroke:none"
         transform="matrix(0,1,-1,0,0,0)" />
      <path
         sodipodi:type="arc"
         style="fill:none;stroke:#000000;stroke-width:20.53379822;stroke-linecap:round;stroke-miterlimit:4;stroke-opacity:1;stroke-dasharray:none;stroke-dashoffset:0;display:inline"
         id="path5575"
         sodipodi:cx="-25.809397"
         sodipodi:cy="179.43886"
         sodipodi:rx="22.98097"
         sodipodi:ry="22.98097"
         d="m -25.809396,202.41983 c -12.685496,0 -22.980971,-10.29548 -22.980971,-22.98097 0,-12.6855 10.295474,-22.98097 22.98097,-22.98097 0,0 0,0 1e-6,0"
         transform="matrix(0.16424416,0,0,-0.16405989,14.01716,69.848513)"
         sodipodi:start="1.5707963"
         sodipodi:end="4.712389"
         sodipodi:open="true" />
      <rect
         ry="1.6855"
         rx="1.6855"
         y="42.486568"
         x="8.1500759"
         height="3.3710001"
         width="29.686533"
         id="rect5577"
         style="fill:#000000;fill-opacity:1;stroke:none" />
      <path
         sodipodi:nodetypes="cccsccccsccsccccccsccsccsccscccsccscccccsccsccsccsccccccsccc"
         id="rect5853-4"
         d="m 31.649762,4.2997748 c -0.93376,0 -1.6875,0.753733 -1.6875,1.6875 l 0,2.0000001 c 0,0.9337666 0.75374,1.6874996 1.6875,1.6874996 0.93377,0 1.6875,-0.753733 1.6875,-1.6874996 l 0,-2.0000001 c 0,-0.933767 -0.75373,-1.6875 -1.6875,-1.6875 z m -4.34375,2.6250001 c -0.43084,0 -0.88861,0.169863 -1.21875,0.5 -0.66027,0.660273 -0.66027,1.7147266 0,2.3749996 l 0.84375,0.8437495 c 0.66028,0.660273 1.71473,0.660273 2.375,0 0.66028,-0.6602725 0.66028,-1.7147265 0,-2.3749992 l -0.8125,-0.8437499 c -0.33013,-0.330137 -0.75665,-0.5 -1.1875,-0.5 z m 8.6875,0 c -0.43084,0 -0.85736,0.169863 -1.1875,0.5 l -0.84375,0.8437499 c -0.66027,0.6602727 -0.66027,1.7147267 0,2.3749992 0.66028,0.660273 1.74598,0.660273 2.40625,0 l 0.8125,-0.8437495 c 0.66028,-0.660273 0.66028,-1.7147266 0,-2.3749996 -0.33013,-0.330137 -0.75665,-0.5 -1.1875,-0.5 z m -11.34375,4.3749991 c -0.93376,0 -1.6875,0.722483 -1.6875,1.65625 0,0.933767 0.75374,1.6875 1.6875,1.6875 l 2.03125,0 c 0.93377,0 1.6875,-0.753733 1.6875,-1.6875 0,-0.933767 -0.75373,-1.65625 -1.6875,-1.65625 l -2.03125,0 z m 11.96875,0 c -0.93376,0 -1.6875,0.722483 -1.6875,1.65625 0,0.933767 0.75374,1.6875 1.6875,1.6875 l 2,0 c 0.93377,0 1.6875,-0.753733 1.6875,-1.6875 0,-0.933767 -0.75373,-1.65625 -1.6875,-1.65625 l -2,0 z m -8.5,3.5 c -0.43084,0 -0.85736,0.169864 -1.1875,0.5 l -0.84375,0.84375 c -0.66027,0.660273 -0.66027,1.714727 0,2.375 0.66028,0.660273 1.74598,0.660273 2.40625,0 l 0.8125,-0.84375 c 0.66028,-0.660273 0.66028,-1.714727 0,-2.375 -0.33013,-0.330136 -0.75665,-0.5 -1.1875,-0.5 z m 7.0625,0 c -0.43084,0 -0.88861,0.169864 -1.21875,0.5 -0.66027,0.660273 -0.66027,1.714727 0,2.375 l 0.84375,0.84375 c 0.66028,0.660273 1.71473,0.660273 2.375,0 0.66028,-0.660273 0.66028,-1.714727 0,-2.375 l -0.8125,-0.84375 c -0.33013,-0.330136 -0.75665,-0.5 -1.1875,-0.5 z m -3.53125,1.46875 c -0.93376,0 -1.6875,0.753733 -1.6875,1.6875 l 0,2 c 0,0.933767 0.75374,1.6875 1.6875,1.6875 0.93377,0 1.6875,-0.753733 1.6875,-1.6875 l 0,-2 c 0,-0.933767 -0.75373,-1.6875 -1.6875,-1.6875 z"
         style="fill:#000000;fill-opacity:1;stroke:none" />
      <path
         sodipodi:open="true"
         sodipodi:type="arc"
         style="fill:none;stroke:#000000;stroke-width:20.53379822;stroke-linecap:round;stroke-miterlimit:4;stroke-opacity:1;stroke-dasharray:none;stroke-dashoffset:0;display:inline"
         id="path6248"
         sodipodi:cx="-25.809397"
         sodipodi:cy="179.43886"
         sodipodi:rx="22.98097"
         sodipodi:ry="22.98097"
         d="m -25.809396,202.41983 c -12.685496,0 -22.980971,-10.29548 -22.980971,-22.98097 0,0 0,0 0,0"
         transform="matrix(0.16424416,0,0,-0.16405989,13.998853,41.353117)"
         sodipodi:start="1.5707963"
         sodipodi:end="3.1415927" />
      <path
         id="rect6250"
         d="m 9.78125,6.46875 c -0.9337669,0 -1.6875,0.753733 -1.6875,1.6875 0,0.933767 0.7537331,1.6875 1.6875,1.6875 l 13.75,0 C 23.718001,9.7783844 23.927263,9.7205596 24.125,9.6875 23.773254,8.6040476 23.920272,7.378871 24.65625,6.46875 l -14.875,0 z m 28.5,13.375 c -0.920694,0.83357 -2.206914,1.025327 -3.34375,0.65625 -0.0071,0.04201 -0.02268,0.08346 -0.03125,0.125 l 0,15.59375 c 0,0.933767 0.753733,1.6875 1.6875,1.6875 0.933767,0 1.6875,-0.753733 1.6875,-1.6875 l 0,-16.375 z"
         style="fill:#000000;fill-opacity:1;stroke:none" />
    </g>
  </g>
</svg>
