<?xml version="1.0" encoding="UTF-8" standalone="no"?>
<!-- Created with Inkscape (http://www.inkscape.org/) -->
<svg
   xmlns:dc="http://purl.org/dc/elements/1.1/"
   xmlns:cc="http://creativecommons.org/ns#"
   xmlns:rdf="http://www.w3.org/1999/02/22-rdf-syntax-ns#"
   xmlns:svg="http://www.w3.org/2000/svg"
   xmlns="http://www.w3.org/2000/svg"
   xmlns:sodipodi="http://sodipodi.sourceforge.net/DTD/sodipodi-0.dtd"
   xmlns:inkscape="http://www.inkscape.org/namespaces/inkscape"
   width="48"
   height="48"
   id="svg2"
   sodipodi:version="0.32"
   inkscape:version="0.46+devel"
   sodipodi:docname="appointment-new.svg"
   inkscape:output_extension="org.inkscape.output.svg.inkscape"
   inkscape:export-filename="/home/hbons/Desktop/Intel/svn/moblin-ui-docs/in progress/draft visual UI/icons/icons.png"
   inkscape:export-xdpi="60.476192"
   inkscape:export-ydpi="60.476192"
   version="1.0">
  <sodipodi:namedview
     id="base"
     pagecolor="#ffffff"
     bordercolor="#dcdcdc"
     borderopacity="1"
     gridtolerance="10000"
     guidetolerance="10"
     objecttolerance="10"
     inkscape:pageopacity="0"
     inkscape:pageshadow="2"
     inkscape:zoom="1"
     inkscape:cx="14.532316"
     inkscape:cy="7.0096443"
     inkscape:document-units="px"
     inkscape:current-layer="layer1"
     showgrid="false"
     inkscape:window-width="1280"
     inkscape:window-height="750"
     inkscape:window-x="0"
     inkscape:window-y="0"
     inkscape:snap-intersection-line-segments="false"
     inkscape:snap-bbox="true"
     inkscape:snap-nodes="false"
     inkscape:bbox-paths="true"
     inkscape:showpageshadow="false"
     showguides="false"
     inkscape:guide-bbox="true"
     inkscape:bbox-nodes="true"
     inkscape:snap-global="false">
    <inkscape:grid
       enabled="true"
       visible="true"
       id="grid4079"
       type="xygrid"
       empspacing="5" />
    <sodipodi:guide
       id="guide7317"
       position="566.05335,854.14667"
       orientation="1,0" />
  </sodipodi:namedview>
  <defs
     id="defs4" />
  <metadata
     id="metadata7">
    <rdf:RDF>
      <cc:Work
         rdf:about="">
        <dc:format>image/svg+xml</dc:format>
        <dc:type
           rdf:resource="http://purl.org/dc/dcmitype/StillImage" />
        <dc:title></dc:title>
      </cc:Work>
    </rdf:RDF>
  </metadata>
  <g
     style="display:inline"
     id="layer1"
     inkscape:groupmode="layer"
     inkscape:label="Layer 1">
    <g
       id="g6646"
       transform="translate(-0.82761931,0.83360663)">
      <rect
         transform="matrix(0.8660254,0.5,0.5,-0.8660254,0,0)"
         style="fill:#000000;fill-opacity:1;stroke:none;display:inline"
         id="rect5744-8"
         width="11.365408"
         height="3.3710001"
         x="22.993427"
         y="-10.416454"
         rx="1.6855"
         ry="1.6855" />
      <rect
         ry="1.6855"
         rx="1.6855"
         y="-34.345367"
         x="-21.738333"
         height="3.3710001"
         width="14.554581"
         id="rect5925"
         style="fill:#000000;fill-opacity:1;stroke:none;display:inline"
         transform="matrix(0.5,-0.8660254,-0.8660254,-0.5,0,0)" />
      <path
         sodipodi:nodetypes="cssscccssscccc"
         id="path5937"
         d="M 24.5,4.375 C 17.525976,4.1897726 10.686615,7.7167184 6.96875,14.15625 1.5609457,23.522842 4.7944147,35.576899 14.1875,41 c 9.393086,5.4231 21.435946,2.210341 26.84375,-7.15625 2.775416,-4.807162 3.25642,-10.322303 1.8125,-15.28125 -0.870827,0.551098 -1.934913,0.659097 -2.90625,0.34375 -0.047,0.277619 -0.142626,0.528285 -0.25,0.78125 1.125193,4.049176 0.677821,8.534273 -1.59375,12.46875 C 33.59662,39.945508 23.686289,42.572351 15.875,38.0625 8.0637099,33.55265 5.3778695,23.633009 9.875,15.84375 13.661499,9.2853416 21.30049,6.407995 28.28125,8.34375 28.547129,8.2261122 28.833156,8.1425434 29.125,8.09375 28.811303,7.1274956 28.894145,6.0247845 29.4375,5.15625 27.816267,4.6870939 26.147851,4.4187663 24.5,4.375 z"
         style="font-size:medium;font-style:normal;font-variant:normal;font-weight:normal;font-stretch:normal;text-indent:0;text-align:start;text-decoration:none;line-height:normal;letter-spacing:normal;word-spacing:normal;text-transform:none;direction:ltr;block-progression:tb;writing-mode:lr-tb;text-anchor:start;color:#000000;fill:#000000;fill-opacity:1;stroke:none;stroke-width:2.05902481;marker:none;visibility:visible;display:inline;overflow:visible;enable-background:accumulate;font-family:Bitstream Vera Sans;-inkscape-font-specification:Bitstream Vera Sans" />
      <path
         sodipodi:nodetypes="cccsccccsccsccccccsccsccsccscccsccscccccsccsccsccsccccccsccc"
         id="rect5853-4"
         d="m 36.650105,2.6960525 c -0.933767,0 -1.6875,0.753733 -1.6875,1.6875 l 0,2 c 0,0.933767 0.753733,1.6875 1.6875,1.6875 0.933767,0 1.6875,-0.753733 1.6875,-1.6875 l 0,-2 c 0,-0.933767 -0.753733,-1.6875 -1.6875,-1.6875 z m -4.34375,2.625 c -0.430846,0 -0.888614,0.169863 -1.21875,0.5 -0.660273,0.660273 -0.660273,1.714727 0,2.375 l 0.84375,0.84375 c 0.660273,0.6602733 1.714727,0.6602733 2.375,0 0.660273,-0.660273 0.660273,-1.714727 0,-2.375 l -0.8125,-0.84375 c -0.330136,-0.330137 -0.756654,-0.5 -1.1875,-0.5 z m 8.6875,0 c -0.430846,0 -0.857364,0.169863 -1.1875,0.5 l -0.84375,0.84375 c -0.660273,0.660273 -0.660273,1.714727 0,2.375 0.660273,0.6602733 1.745977,0.6602733 2.40625,0 l 0.8125,-0.84375 c 0.660273,-0.660273 0.660273,-1.714727 0,-2.375 -0.330136,-0.330137 -0.756654,-0.5 -1.1875,-0.5 z m -11.34375,4.3750003 c -0.933767,0 -1.6875,0.7224832 -1.6875,1.6562502 0,0.933767 0.753733,1.6875 1.6875,1.6875 l 2.03125,0 c 0.933767,0 1.6875,-0.753733 1.6875,-1.6875 0,-0.933767 -0.753733,-1.6562502 -1.6875,-1.6562502 l -2.03125,0 z m 11.96875,0 c -0.933767,0 -1.6875,0.7224832 -1.6875,1.6562502 0,0.933767 0.753733,1.6875 1.6875,1.6875 l 2,0 c 0.933767,0 1.6875,-0.753733 1.6875,-1.6875 0,-0.933767 -0.753733,-1.6562502 -1.6875,-1.6562502 l -2,0 z m -8.5,3.5000002 c -0.430846,0 -0.857364,0.169864 -1.1875,0.5 l -0.84375,0.84375 c -0.660273,0.660273 -0.660273,1.714727 0,2.375 0.660273,0.660273 1.745977,0.660273 2.40625,0 l 0.8125,-0.84375 c 0.660273,-0.660273 0.660273,-1.714727 0,-2.375 -0.330136,-0.330136 -0.756654,-0.5 -1.1875,-0.5 z m 7.0625,0 c -0.430846,0 -0.888614,0.169864 -1.21875,0.5 -0.660273,0.660273 -0.660273,1.714727 0,2.375 l 0.84375,0.84375 c 0.660273,0.660273 1.714727,0.660273 2.375,0 0.660273,-0.660273 0.660273,-1.714727 0,-2.375 l -0.8125,-0.84375 c -0.330136,-0.330136 -0.756654,-0.5 -1.1875,-0.5 z m -3.53125,1.46875 c -0.933767,0 -1.6875,0.753733 -1.6875,1.6875 l 0,2 c 0,0.933767 0.753733,1.6875 1.6875,1.6875 0.933767,0 1.6875,-0.753733 1.6875,-1.6875 l 0,-2 c 0,-0.933767 -0.753733,-1.6875 -1.6875,-1.6875 z"
         style="fill:#000000;fill-opacity:1;stroke:none" />
    </g>
  </g>
</svg>
