<?xml version="1.0" encoding="UTF-8" standalone="no"?>
<!-- Created with Inkscape (http://www.inkscape.org/) -->
<svg
   xmlns:dc="http://purl.org/dc/elements/1.1/"
   xmlns:cc="http://creativecommons.org/ns#"
   xmlns:rdf="http://www.w3.org/1999/02/22-rdf-syntax-ns#"
   xmlns:svg="http://www.w3.org/2000/svg"
   xmlns="http://www.w3.org/2000/svg"
   xmlns:sodipodi="http://sodipodi.sourceforge.net/DTD/sodipodi-0.dtd"
   xmlns:inkscape="http://www.inkscape.org/namespaces/inkscape"
   width="48"
   height="48"
   id="svg2"
   sodipodi:version="0.32"
   inkscape:version="0.46+devel"
   sodipodi:docname="bookmark-new.svg"
   inkscape:output_extension="org.inkscape.output.svg.inkscape"
   inkscape:export-filename="/home/hbons/Desktop/Intel/svn/moblin-ui-docs/in progress/draft visual UI/icons/icons.png"
   inkscape:export-xdpi="60.476192"
   inkscape:export-ydpi="60.476192"
   version="1.0">
  <sodipodi:namedview
     id="base"
     pagecolor="#ffffff"
     bordercolor="#dcdcdc"
     borderopacity="1"
     gridtolerance="10000"
     guidetolerance="10"
     objecttolerance="10"
     inkscape:pageopacity="0"
     inkscape:pageshadow="2"
     inkscape:zoom="1"
     inkscape:cx="42.223862"
     inkscape:cy="24.503706"
     inkscape:document-units="px"
     inkscape:current-layer="layer1"
     showgrid="false"
     inkscape:window-width="1280"
     inkscape:window-height="750"
     inkscape:window-x="0"
     inkscape:window-y="0"
     inkscape:snap-intersection-line-segments="false"
     inkscape:snap-bbox="true"
     inkscape:snap-nodes="false"
     inkscape:bbox-paths="true"
     inkscape:showpageshadow="false"
     showguides="false"
     inkscape:guide-bbox="true"
     inkscape:bbox-nodes="true"
     inkscape:snap-global="false">
    <inkscape:grid
       enabled="true"
       visible="true"
       id="grid4079"
       type="xygrid"
       empspacing="5" />
    <sodipodi:guide
       id="guide7317"
       position="566.05335,854.14667"
       orientation="1,0" />
  </sodipodi:namedview>
  <defs
     id="defs4">
    <inkscape:perspective
       sodipodi:type="inkscape:persp3d"
       inkscape:vp_x="0 : 24 : 1"
       inkscape:vp_y="0 : 1000 : 0"
       inkscape:vp_z="48 : 24 : 1"
       inkscape:persp3d-origin="24 : 16 : 1"
       id="perspective18" />
  </defs>
  <metadata
     id="metadata7">
    <rdf:RDF>
      <cc:Work
         rdf:about="">
        <dc:format>image/svg+xml</dc:format>
        <dc:type
           rdf:resource="http://purl.org/dc/dcmitype/StillImage" />
        <dc:title />
      </cc:Work>
    </rdf:RDF>
  </metadata>
  <g
     style="display:inline"
     id="layer1"
     inkscape:groupmode="layer"
     inkscape:label="Layer 1">
    <path
       style="fill:#000000;fill-opacity:1;stroke:none;display:inline"
       d="m 7.4373242,41.211278 c -0.9336793,0 -1.6874983,0.7538 -1.6874983,1.6875 9e-6,0.93366 0.75382,1.6875 1.6874993,1.6875 l 31.1713988,0 c 0.93368,0 1.65624,-0.75384 1.65625,-1.6875 0,-0.9337 -0.72257,-1.6875 -1.65625,-1.6875 l -31.1713998,0 z"
       id="path5538"
       sodipodi:nodetypes="csccscc" />
    <path
       style="fill:#000000;fill-opacity:1;stroke:none;display:inline"
       d="M 7.4375,5.4375 C 6.5038207,5.4375 5.75,6.1913 5.75,7.125 c 9e-6,0.9336598 0.7538207,1.6875 1.6875,1.6875 l 3.4375,0 0,-3.375 -3.4375,0 z m 5.125,0 0,3.375 13.355027,0 0,-3.375 -13.355027,0 z m 27.6875,13.5 c -0.921413,0.843262 -2.233042,1.02699 -3.375,0.65625 l 0,23.1875 c -10e-7,0.933679 0.7538,1.6875 1.6875,1.6875 0.93366,-8e-6 1.6875,-0.75382 1.6875,-1.6875 l 0,-23.84375 z"
       id="path6512"
       sodipodi:nodetypes="csccccccccccccscc" />
    <path
       style="fill:#000000;fill-opacity:1;stroke:none"
       d="m 33.602985,3.4137223 c -0.93376,0 -1.6875,0.753733 -1.6875,1.6875 l 0,2 c 0,0.933767 0.75374,1.6875 1.6875,1.6875 0.93377,0 1.6875,-0.753733 1.6875,-1.6875 l 0,-2 c 0,-0.933767 -0.75373,-1.6875 -1.6875,-1.6875 z m -4.34375,2.625 c -0.43084,0 -0.88861,0.169863 -1.21875,0.5 -0.66027,0.660273 -0.66027,1.714727 0,2.375 l 0.84375,0.84375 c 0.66028,0.6602727 1.71473,0.6602727 2.375,0 0.66028,-0.660273 0.66028,-1.714727 0,-2.375 l -0.8125,-0.84375 c -0.33013,-0.330137 -0.75665,-0.5 -1.1875,-0.5 z m 8.6875,0 c -0.43084,0 -0.85736,0.169863 -1.1875,0.5 l -0.84375,0.84375 c -0.66027,0.660273 -0.66027,1.714727 0,2.375 0.66028,0.6602727 1.74598,0.6602727 2.40625,0 l 0.8125,-0.84375 c 0.66028,-0.660273 0.66028,-1.714727 0,-2.375 -0.33013,-0.330137 -0.75665,-0.5 -1.1875,-0.5 z m -11.34375,4.3749997 c -0.93376,0 -1.6875,0.722484 -1.6875,1.656251 0,0.933767 0.75374,1.6875 1.6875,1.6875 l 2.03125,0 c 0.93377,0 1.6875,-0.753733 1.6875,-1.6875 0,-0.933767 -0.75373,-1.656251 -1.6875,-1.656251 l -2.03125,0 z m 11.96875,0 c -0.93376,0 -1.6875,0.722484 -1.6875,1.656251 0,0.933767 0.75374,1.6875 1.6875,1.6875 l 2,0 c 0.93377,0 1.6875,-0.753733 1.6875,-1.6875 0,-0.933767 -0.75373,-1.656251 -1.6875,-1.656251 l -2,0 z m -8.5,3.500001 c -0.43084,0 -0.85736,0.169864 -1.1875,0.5 l -0.84375,0.84375 c -0.66027,0.660273 -0.66027,1.714727 0,2.375 0.66028,0.660273 1.74598,0.660273 2.40625,0 l 0.8125,-0.84375 c 0.66028,-0.660273 0.66028,-1.714727 0,-2.375 -0.33013,-0.330136 -0.75665,-0.5 -1.1875,-0.5 z m 7.0625,0 c -0.43084,0 -0.88861,0.169864 -1.21875,0.5 -0.66027,0.660273 -0.66027,1.714727 0,2.375 l 0.84375,0.84375 c 0.66028,0.660273 1.71473,0.660273 2.375,0 0.66028,-0.660273 0.66028,-1.714727 0,-2.375 l -0.8125,-0.84375 c -0.33013,-0.330136 -0.75665,-0.5 -1.1875,-0.5 z m -3.53125,1.46875 c -0.93376,0 -1.6875,0.753733 -1.6875,1.6875 l 0,2 c 0,0.933767 0.75374,1.6875 1.6875,1.6875 0.93377,0 1.6875,-0.753733 1.6875,-1.6875 l 0,-2 c 0,-0.933767 -0.75373,-1.6875 -1.6875,-1.6875 z"
       id="rect5853-4"
       sodipodi:nodetypes="cccsccccsccsccccccsccsccsccscccsccscccccsccsccsccsccccccsccc" />
    <path
       style="fill:#000000;fill-opacity:1;stroke:none;display:inline"
       d="m 5.7407665,42.78747 c -1e-6,0.933679 0.753799,1.687498 1.687499,1.687498 0.93366,-8e-6 1.6875,-0.753819 1.6875,-1.687499 l 0,-35.6727534 c 0,-0.9336797 -0.75384,-1.6562407 -1.6875,-1.6562497 -0.933699,0 -1.687499,0.72257 -1.6875,1.6562498 l 1e-6,35.6727543 z"
       id="path6264"
       sodipodi:nodetypes="csccscc" />
    <path
       style="fill:#000000;fill-opacity:1;stroke:none;display:inline"
       d="m 12.532058,26.576088 c -10e-7,0.933679 0.753799,1.687498 1.687498,1.687498 0.93366,-8e-6 1.6875,-0.753819 1.6875,-1.687499 l 0,-18.763846 c 0,-0.9336797 -0.75384,-1.6562407 -1.6875,-1.6562497 -0.933698,0 -1.687498,0.72257 -1.687499,1.6562498 l 10e-7,18.7638469 z"
       id="path5904"
       sodipodi:nodetypes="csccscc" />
    <path
       style="fill:#000000;fill-opacity:1;stroke:none;display:inline"
       d="m 24.21875,5.7234925 c -0.933698,0 -1.687499,0.7225702 -1.6875,1.65625 l 0,19.2765075 c -1e-6,0.933679 0.753801,1.6875 1.6875,1.6875 0.93366,-8e-6 1.6875,-0.75382 1.6875,-1.6875 l 0,-9.9375 c -0.0096,-0.155182 -0.01063,-0.313221 0,-0.46875 l 0,-0.96875 c -1.510627,-0.341515 -2.6875,-1.615796 -2.6875,-3.21875 0,-1.605919 1.190685,-2.9157041 2.6875,-3.25 l 0,-0.96875 c -0.01,-0.1542066 -0.0097,-0.2837689 0,-0.4375 l 0,-0.28125 c 0,-0.9336797 -0.75384,-1.4014985 -1.6875,-1.4015075 z"
       id="path5928"
       sodipodi:nodetypes="cccsccccsccccc" />
    <path
       sodipodi:nodetypes="csccscc"
       id="path5932"
       d="m 22.933181,28.166266 c 0.665703,0.654672 1.731737,0.645744 2.386409,-0.01999 0.654658,-0.66569 0.645732,-1.731742 -0.01999,-2.386401 l -4.943783,-4.872039 c -0.665703,-0.654672 -1.709468,-0.623798 -2.364119,0.0419 -0.654686,0.665717 -0.668012,1.70983 -0.0023,2.36449 l 4.943783,4.87204 z"
       style="fill:#000000;fill-opacity:1;stroke:none;display:inline" />
    <path
       style="fill:#000000;fill-opacity:1;stroke:none;display:inline"
       d="m 15.429328,28.166266 c -0.665703,0.654672 -1.731737,0.645744 -2.386409,-0.01999 -0.654658,-0.66569 -0.645732,-1.731742 0.01999,-2.386401 l 4.943783,-4.872039 c 0.665703,-0.654672 1.709468,-0.623798 2.364119,0.0419 0.654686,0.665717 0.668012,1.70983 0.0023,2.36449 l -4.943783,4.87204 z"
       id="path5936"
       sodipodi:nodetypes="csccscc" />
    <path
       style="fill:#000000;fill-opacity:1;stroke:none"
       d="m 33.608605,3.3791437 c -0.933767,0 -1.6875,0.753733 -1.6875,1.6875 l 0,2 c 0,0.933767 0.753733,1.6875 1.6875,1.6875 0.933767,0 1.6875,-0.753733 1.6875,-1.6875 l 0,-2 c 0,-0.933767 -0.753733,-1.6875 -1.6875,-1.6875 z m -4.34375,2.625 c -0.430846,0 -0.888614,0.169863 -1.21875,0.5 -0.660273,0.660273 -0.660273,1.714727 0,2.375 l 0.84375,0.84375 c 0.660273,0.6602733 1.714727,0.6602733 2.375,0 0.660273,-0.660273 0.660273,-1.714727 0,-2.375 l -0.8125,-0.84375 c -0.330136,-0.330137 -0.756654,-0.5 -1.1875,-0.5 z m 8.6875,0 c -0.430846,0 -0.857364,0.169863 -1.1875,0.5 l -0.84375,0.84375 c -0.660273,0.660273 -0.660273,1.714727 0,2.375 0.660273,0.6602733 1.745977,0.6602733 2.40625,0 l 0.8125,-0.84375 c 0.660273,-0.660273 0.660273,-1.714727 0,-2.375 -0.330136,-0.330137 -0.756654,-0.5 -1.1875,-0.5 z m -11.34375,4.3750003 c -0.933767,0 -1.6875,0.722483 -1.6875,1.65625 0,0.933767 0.753733,1.6875 1.6875,1.6875 l 2.03125,0 c 0.933767,0 1.6875,-0.753733 1.6875,-1.6875 0,-0.933767 -0.753733,-1.65625 -1.6875,-1.65625 l -2.03125,0 z m 11.96875,0 c -0.933767,0 -1.6875,0.722483 -1.6875,1.65625 0,0.933767 0.753733,1.6875 1.6875,1.6875 l 2,0 c 0.933767,0 1.6875,-0.753733 1.6875,-1.6875 0,-0.933767 -0.753733,-1.65625 -1.6875,-1.65625 l -2,0 z m -8.5,3.5 c -0.430846,0 -0.857364,0.169864 -1.1875,0.5 l -0.84375,0.84375 c -0.660273,0.660273 -0.660273,1.714727 0,2.375 0.660273,0.660273 1.745977,0.660273 2.40625,0 l 0.8125,-0.84375 c 0.660273,-0.660273 0.660273,-1.714727 0,-2.375 -0.330136,-0.330136 -0.756654,-0.5 -1.1875,-0.5 z m 7.0625,0 c -0.430846,0 -0.888614,0.169864 -1.21875,0.5 -0.660273,0.660273 -0.660273,1.714727 0,2.375 l 0.84375,0.84375 c 0.660273,0.660273 1.714727,0.660273 2.375,0 0.660273,-0.660273 0.660273,-1.714727 0,-2.375 l -0.8125,-0.84375 c -0.330136,-0.330136 -0.756654,-0.5 -1.1875,-0.5 z m -3.53125,1.46875 c -0.933767,0 -1.6875,0.753733 -1.6875,1.6875 l 0,2 c 0,0.933767 0.753733,1.6875 1.6875,1.6875 0.933767,0 1.6875,-0.753733 1.6875,-1.6875 l 0,-2 c 0,-0.933767 -0.753733,-1.6875 -1.6875,-1.6875 z"
       id="rect5853-4-9"
       sodipodi:nodetypes="cccsccccsccsccccccsccsccsccscccsccscccccsccsccsccsccccccsccc" />
  </g>
</svg>
