<?xml version="1.0" encoding="UTF-8" standalone="no"?>
<!-- Created with Inkscape (http://www.inkscape.org/) -->
<svg
   xmlns:dc="http://purl.org/dc/elements/1.1/"
   xmlns:cc="http://creativecommons.org/ns#"
   xmlns:rdf="http://www.w3.org/1999/02/22-rdf-syntax-ns#"
   xmlns:svg="http://www.w3.org/2000/svg"
   xmlns="http://www.w3.org/2000/svg"
   xmlns:sodipodi="http://sodipodi.sourceforge.net/DTD/sodipodi-0.dtd"
   xmlns:inkscape="http://www.inkscape.org/namespaces/inkscape"
   width="48"
   height="48"
   id="svg2"
   sodipodi:version="0.32"
   inkscape:version="0.46+devel"
   sodipodi:docname="members.svg"
   inkscape:output_extension="org.inkscape.output.svg.inkscape"
   inkscape:export-filename="/home/hbons/Desktop/Intel/svn/moblin-ui-docs/in progress/draft visual UI/icons/icons.png"
   inkscape:export-xdpi="60.476192"
   inkscape:export-ydpi="60.476192"
   version="1.0">
  <sodipodi:namedview
     id="base"
     pagecolor="#ffffff"
     bordercolor="#dcdcdc"
     borderopacity="1"
     gridtolerance="10000"
     guidetolerance="10"
     objecttolerance="10"
     inkscape:pageopacity="0"
     inkscape:pageshadow="2"
     inkscape:zoom="8"
     inkscape:cx="35.235629"
     inkscape:cy="19.827565"
     inkscape:document-units="px"
     inkscape:current-layer="layer1"
     showgrid="false"
     inkscape:window-width="1280"
     inkscape:window-height="750"
     inkscape:window-x="0"
     inkscape:window-y="0"
     inkscape:snap-intersection-line-segments="false"
     inkscape:snap-bbox="true"
     inkscape:snap-nodes="false"
     inkscape:bbox-paths="true"
     inkscape:showpageshadow="false"
     showguides="false"
     inkscape:guide-bbox="true"
     inkscape:bbox-nodes="true"
     inkscape:snap-global="false">
    <inkscape:grid
       enabled="true"
       visible="true"
       id="grid4079"
       type="xygrid"
       empspacing="5" />
    <sodipodi:guide
       id="guide7317"
       position="566.05335,854.14667"
       orientation="1,0" />
  </sodipodi:namedview>
  <defs
     id="defs4" />
  <metadata
     id="metadata7">
    <rdf:RDF>
      <cc:Work
         rdf:about="">
        <dc:format>image/svg+xml</dc:format>
        <dc:type
           rdf:resource="http://purl.org/dc/dcmitype/StillImage" />
        <dc:title />
      </cc:Work>
    </rdf:RDF>
  </metadata>
  <g
     style="display:inline"
     id="layer1"
     inkscape:groupmode="layer"
     inkscape:label="Layer 1">
    <g
       id="g6967"
       transform="matrix(-1,0,0,1,51.677641,2.6204489)">
      <path
         sodipodi:nodetypes="cccsccc"
         style="fill:#000000;fill-opacity:1;stroke:none;display:inline"
         d="m 21.178741,33.967582 c -0.93368,0 -1.68532,0.75168 -1.68531,1.68533 l 2e-5,5.09959 c -2e-5,0.9337 0.75161,1.68534 1.68533,1.68534 0.93363,0 1.68532,-0.75164 1.68531,-1.68534 l -10e-6,-5.09959 c 10e-6,-0.93365 -0.75167,-1.68533 -1.68534,-1.68533 z"
         id="path6737" />
      <path
         sodipodi:type="arc"
         style="fill:none;stroke:#000000;stroke-width:7.37966299;stroke-linecap:round;stroke-miterlimit:4;stroke-opacity:1;stroke-dasharray:none;stroke-dashoffset:0;display:inline"
         id="path6158"
         sodipodi:cx="-25.809397"
         sodipodi:cy="179.43886"
         sodipodi:rx="22.98097"
         sodipodi:ry="22.98097"
         d="m -2.8284264,179.43886 c 0,12.68549 -10.2954746,22.98097 -22.9809706,22.98097 -12.685495,0 -22.98097,-10.29548 -22.98097,-22.98097 0,-12.6855 10.295475,-22.98097 22.98097,-22.98097 12.685496,0 22.9809706,10.29547 22.9809706,22.98097 z"
         transform="matrix(0.45695607,0,0,-0.45654475,45.53036,94.420302)" />
      <path
         sodipodi:nodetypes="ccscssssccscsscc"
         id="path6160"
         d="m 33.75,21.375 c -3.062111,0 -5.895492,0.999909 -8.21875,2.65625 0.566068,0.58961 0.90625,1.373619 0.90625,2.25 0,0.835007 -0.325216,1.578582 -0.84375,2.15625 1.981958,-2.257 4.900879,-3.6875 8.15625,-3.6875 6.000137,0 10.8125,4.817646 10.8125,10.8125 0,0.890969 0.811371,1.701626 1.703125,1.701626 0.891754,0 1.703125,-0.810657 1.703125,-1.701626 0,-7.817797 -6.39407,-14.1875 -14.21875,-14.1875 z m -10.1875,10.5 c -0.154113,0.432252 -0.406921,0.844421 -0.75,1.1875 -0.856674,0.856674 -2.070224,1.086281 -3.1875,0.8125 -0.06705,0.55746 -0.09375,1.112426 -0.09375,1.6875 -0.0081,0.81509 0.659711,1.582405 1.46875,1.6875 0.953981,0.125481 1.916047,-0.726184 1.90625,-1.6875 0,-1.300762 0.238832,-2.534332 0.65625,-3.6875 z"
         style="font-size:medium;font-style:normal;font-variant:normal;font-weight:normal;font-stretch:normal;text-indent:0;text-align:start;text-decoration:none;line-height:normal;letter-spacing:normal;word-spacing:normal;text-transform:none;direction:ltr;block-progression:tb;writing-mode:lr-tb;text-anchor:start;color:#000000;fill:#000000;fill-opacity:1;stroke:none;stroke-width:6.18848944;marker:none;visibility:visible;display:inline;overflow:visible;enable-background:accumulate;font-family:Bitstream Vera Sans;-inkscape-font-specification:Bitstream Vera Sans" />
      <path
         id="path6162"
         d="m 46.289852,33.967582 c -0.93368,0 -1.68532,0.75168 -1.68531,1.68533 l 2e-5,5.09959 c -2e-5,0.9337 0.75161,1.68534 1.68533,1.68534 0.93363,0 1.68532,-0.75164 1.68531,-1.68534 l -1e-5,-5.09959 c 1e-5,-0.93365 -0.75167,-1.68533 -1.68534,-1.68533 z"
         style="fill:#000000;fill-opacity:1;stroke:none;display:inline"
         sodipodi:nodetypes="cccsccc" />
      <path
         sodipodi:nodetypes="cccsccccsccsccccccsccsccsccscccsccscccccsccsccsccsccccccsccc"
         id="rect5853-4"
         d="m 16.067579,17.604681 c -0.933766,0 -1.687499,0.753733 -1.687499,1.6875 l 0,2 c 0,0.933767 0.753733,1.6875 1.687499,1.6875 0.933767,0 1.6875,-0.753733 1.6875,-1.6875 l 0,-2 c 0,-0.933767 -0.753733,-1.6875 -1.6875,-1.6875 z m -4.343749,2.625 c -0.430846,0 -0.888614,0.169863 -1.21875,0.5 -0.660273,0.660273 -0.660273,1.714727 0,2.375 l 0.84375,0.84375 c 0.660273,0.660273 1.714727,0.660273 2.375,0 0.660273,-0.660273 0.660273,-1.714727 0,-2.375 l -0.8125,-0.84375 c -0.330136,-0.330137 -0.756654,-0.5 -1.1875,-0.5 z m 8.687499,0 c -0.430846,0 -0.857364,0.169863 -1.1875,0.5 l -0.84375,0.84375 c -0.660273,0.660273 -0.660273,1.714727 0,2.375 0.660273,0.660273 1.745977,0.660273 2.40625,0 l 0.8125,-0.84375 c 0.660273,-0.660273 0.660273,-1.714727 0,-2.375 -0.330136,-0.330137 -0.756654,-0.5 -1.1875,-0.5 z m -11.343749,4.375 c -0.933767,0 -1.6875,0.722483 -1.6875,1.65625 0,0.933767 0.753733,1.6875 1.6875,1.6875 l 2.03125,0 c 0.933767,0 1.6875,-0.753733 1.6875,-1.6875 0,-0.933767 -0.753733,-1.65625 -1.6875,-1.65625 l -2.03125,0 z m 11.968749,0 c -0.933767,0 -1.6875,0.722483 -1.6875,1.65625 0,0.933767 0.753733,1.6875 1.6875,1.6875 l 2,0 c 0.933767,0 1.6875,-0.753733 1.6875,-1.6875 0,-0.933767 -0.753733,-1.65625 -1.6875,-1.65625 l -2,0 z m -8.499999,3.5 c -0.430846,0 -0.857364,0.169864 -1.1875,0.5 l -0.84375,0.84375 c -0.660273,0.660273 -0.660273,1.714727 0,2.375 0.660273,0.660273 1.745977,0.660273 2.40625,0 l 0.8125,-0.84375 c 0.660273,-0.660273 0.660273,-1.714727 0,-2.375 -0.330136,-0.330136 -0.756654,-0.5 -1.1875,-0.5 z m 7.062499,0 c -0.430846,0 -0.888614,0.169864 -1.21875,0.5 -0.660273,0.660273 -0.660273,1.714727 0,2.375 l 0.84375,0.84375 c 0.660273,0.660273 1.714727,0.660273 2.375,0 0.660273,-0.660273 0.660273,-1.714727 0,-2.375 l -0.8125,-0.84375 c -0.330136,-0.330136 -0.756654,-0.5 -1.1875,-0.5 z m -3.53125,1.46875 c -0.933766,0 -1.687499,0.753733 -1.687499,1.6875 l 0,2 c 0,0.933767 0.753733,1.6875 1.687499,1.6875 0.933767,0 1.6875,-0.753733 1.6875,-1.6875 l 0,-2 c 0,-0.933767 -0.753733,-1.6875 -1.6875,-1.6875 z"
         style="fill:#000000;fill-opacity:1;stroke:none" />
    </g>
  </g>
</svg>
