<?xml version="1.0" encoding="UTF-8" standalone="no"?>
<!-- Created with Inkscape (http://www.inkscape.org/) -->
<svg
   xmlns:dc="http://purl.org/dc/elements/1.1/"
   xmlns:cc="http://creativecommons.org/ns#"
   xmlns:rdf="http://www.w3.org/1999/02/22-rdf-syntax-ns#"
   xmlns:svg="http://www.w3.org/2000/svg"
   xmlns="http://www.w3.org/2000/svg"
   xmlns:sodipodi="http://sodipodi.sourceforge.net/DTD/sodipodi-0.dtd"
   xmlns:inkscape="http://www.inkscape.org/namespaces/inkscape"
   width="48"
   height="48"
   id="svg2"
   sodipodi:version="0.32"
   inkscape:version="0.46+devel"
   sodipodi:docname="document-print-preview.svg"
   inkscape:output_extension="org.inkscape.output.svg.inkscape"
   inkscape:export-filename="/home/hbons/Desktop/Intel/svn/moblin-ui-docs/in progress/draft visual UI/icons/icons.png"
   inkscape:export-xdpi="60.476192"
   inkscape:export-ydpi="60.476192"
   version="1.0">
  <sodipodi:namedview
     id="base"
     pagecolor="#ffffff"
     bordercolor="#dcdcdc"
     borderopacity="1"
     gridtolerance="10000"
     guidetolerance="10"
     objecttolerance="10"
     inkscape:pageopacity="0"
     inkscape:pageshadow="2"
     inkscape:zoom="5.6568542"
     inkscape:cx="58.78219"
     inkscape:cy="28.04329"
     inkscape:document-units="px"
     inkscape:current-layer="layer1"
     showgrid="false"
     inkscape:window-width="1280"
     inkscape:window-height="750"
     inkscape:window-x="0"
     inkscape:window-y="0"
     inkscape:snap-intersection-line-segments="false"
     inkscape:snap-bbox="true"
     inkscape:snap-nodes="false"
     inkscape:bbox-paths="true"
     inkscape:showpageshadow="false"
     showguides="true"
     inkscape:guide-bbox="true"
     inkscape:bbox-nodes="true"
     inkscape:snap-global="false">
    <inkscape:grid
       enabled="true"
       visible="true"
       id="grid4079"
       type="xygrid"
       empspacing="5" />
    <sodipodi:guide
       id="guide7317"
       position="566.05335,854.14667"
       orientation="1,0" />
  </sodipodi:namedview>
  <defs
     id="defs4" />
  <metadata
     id="metadata7">
    <rdf:RDF>
      <cc:Work
         rdf:about="">
        <dc:format>image/svg+xml</dc:format>
        <dc:type
           rdf:resource="http://purl.org/dc/dcmitype/StillImage" />
        <dc:title />
      </cc:Work>
    </rdf:RDF>
  </metadata>
  <g
     style="display:inline"
     id="layer1"
     inkscape:groupmode="layer"
     inkscape:label="Layer 1">
    <g
       id="g7309"
       transform="translate(-0.61648679,0.43349552)">
      <rect
         style="fill:#000000;fill-opacity:1;stroke:none;display:inline"
         id="rect6524-3"
         width="23.237591"
         height="3.3710001"
         x="0.66347337"
         y="10.64282"
         rx="1.6855001"
         ry="1.6855"
         transform="matrix(0,1,1,0,0,0)" />
      <path
         sodipodi:nodetypes="cccccccccccscccccsccscccssscccccccc"
         id="rect6547"
         d="m 35.71875,0.78125 c -0.933767,0 -1.6875,0.7537329 -1.6875,1.6875 l 0,3.5 c 1.152894,0.095911 2.280018,0.3681978 3.375,0.8125 l 0,-4.3125 c 0,-0.9337671 -0.753733,-1.6875 -1.6875,-1.6875 z M 43.9375,20.625 c -0.178053,0.595972 -0.382856,1.180404 -0.65625,1.75 l 2.4375,2.4375 C 45.49986,23.25261 44.871571,21.816907 43.9375,20.625 z m -33.28125,1.1875 c -0.933767,0 -1.6875,0.753733 -1.6875,1.6875 0,0.933767 0.753733,1.6875 1.6875,1.6875 l 13.90625,0 c -0.926977,-1.014224 -1.625797,-2.151281 -2.125,-3.375 l -11.78125,0 z m 23.6875,8.78125 c -0.111917,0.007 -0.231006,0.03229 -0.34375,0.0625 -0.90195,0.241676 -1.429176,1.16055 -1.1875,2.0625 l 3.75,9.21875 c 0.241677,0.90195 1.16055,1.429177 2.0625,1.1875 0.90195,-0.241677 1.429177,-1.16055 1.1875,-2.0625 l -1.5,-3.65625 5.78125,0 c 0.848618,0 1.535958,-0.623359 1.65625,-1.4375 0.0063,-0.03078 0.02668,-0.06238 0.03125,-0.09375 0.0047,-0.05136 0,-0.10363 0,-0.15625 0.0018,-0.03221 0.03125,-0.06107 0.03125,-0.09375 l 0,-2.5625 c -1.072894,0.139339 -2.180853,-0.180799 -3,-1 l -0.375,-0.375 0,2.34375 -5.5,0 -0.875,-2.1875 c -0.211467,-0.789205 -0.935332,-1.298659 -1.71875,-1.25 z"
         style="fill:#000000;fill-opacity:1;stroke:none;display:inline" />
      <path
         sodipodi:open="true"
         sodipodi:end="3.1415927"
         sodipodi:start="1.5707963"
         sodipodi:type="arc"
         style="fill:none;stroke:#000000;stroke-width:10.8867569;stroke-linecap:round;stroke-miterlimit:4;stroke-opacity:1;stroke-dasharray:none;stroke-dashoffset:0;display:inline"
         id="path6551"
         sodipodi:cx="-25.809397"
         sodipodi:cy="179.43886"
         sodipodi:rx="22.98097"
         sodipodi:ry="22.98097"
         d="m -25.809396,202.41983 c -12.685496,0 -22.980971,-10.29548 -22.980971,-22.98097 0,0 0,0 0,0"
         transform="matrix(0.30976003,0,0,-0.30946291,18.981866,81.54063)" />
      <rect
         transform="matrix(0,1,1,0,0,0)"
         ry="1.6855"
         rx="1.6855"
         y="2.2134838"
         x="23.849985"
         height="3.3710001"
         width="13.463764"
         id="rect6571"
         style="fill:#000000;fill-opacity:1;stroke:none;display:inline" />
      <rect
         style="fill:#000000;fill-opacity:1;stroke:none;display:inline"
         id="rect7359"
         width="10.957273"
         height="3.3710001"
         x="-13.160194"
         y="34.029427"
         rx="1.6855001"
         ry="1.6855"
         transform="scale(-1,1)" />
      <rect
         transform="scale(1,-1)"
         ry="1.6855"
         rx="1.6855"
         y="-46.502422"
         x="8.0369654"
         height="3.3710001"
         width="31.832729"
         id="rect7363"
         style="fill:#000000;fill-opacity:1;stroke:none;display:inline" />
      <rect
         style="fill:#000000;fill-opacity:1;stroke:none;display:inline"
         id="rect7367"
         width="6.7413816"
         height="3.3710001"
         x="-46.491268"
         y="-39.889767"
         rx="1.6854999"
         ry="1.6855"
         transform="matrix(0,-1,-1,0,0,0)" />
      <path
         sodipodi:nodetypes="ccsccsc"
         id="path7369"
         d="m 15.029687,32.716888 -3.746809,9.212424 C 11.041201,42.831262 10.12052,43.362818 9.21857,43.121141 8.31662,42.879464 7.785065,41.958783 8.026742,41.056833 l 3.746809,-9.212424 c 0.241676,-0.901949 1.162358,-1.433504 2.064307,-1.191827 0.90195,0.241676 1.433505,1.162356 1.191829,2.064306 z"
         inkscape:transform-center-y="0.40050902"
         inkscape:transform-center-x="0.10731666"
         style="fill:#000000;fill-opacity:1;stroke:none" />
      <rect
         transform="matrix(0,-1,1,0,0,0)"
         ry="1.6855"
         rx="1.6854999"
         y="7.972661"
         x="-46.518097"
         height="3.3710001"
         width="6.230269"
         id="rect7373"
         style="fill:#000000;fill-opacity:1;stroke:none;display:inline" />
      <rect
         transform="scale(-1,1)"
         ry="1.6855"
         rx="1.6855"
         y="0.61491203"
         x="-37.291672"
         height="3.3710001"
         width="26.64776"
         id="rect6180"
         style="fill:#000000;fill-opacity:1;stroke:none;display:inline" />
      <path
         id="path5543"
         d="m 33.304591,7.8170448 c 2.156981,0.05864 4.3157,0.82291 6.062501,2.3437502 3.695485,3.217449 4.328,8.671502 1.65625,12.625 l 5.53125,5.53125 c 0.660225,0.660225 0.660184,1.714817 0,2.375 -0.660232,0.660231 -1.746046,0.660247 -2.40625,0 l -5.5,-5.46875 c -3.531608,2.518741 -8.490461,2.411434 -11.906251,-0.5625 -3.992687,-3.476206 -4.40239,-9.58055 -0.9375,-13.5625 1.949001,-2.2398462 4.726739,-3.3566372 7.5,-3.2812502 z m -0.09375,3.3437502 c -1.794351,-0.05088 -3.598412,0.689159 -4.875,2.15625 -2.269489,2.608162 -1.990195,6.504348 0.625,8.78125 2.519299,2.19341 6.263629,2.034272 8.562501,-0.3125 0.03082,-0.03146 0.06345,-0.0615 0.09375,-0.09375 0.05573,-0.05931 0.102343,-0.125548 0.15625,-0.1875 2.269489,-2.608161 1.990195,-6.535598 -0.625,-8.8125 -1.144149,-0.996145 -2.541895,-1.491678 -3.937501,-1.53125 z"
         style="fill:#000000;fill-opacity:1;stroke:none;display:inline" />
    </g>
  </g>
</svg>
