<?xml version="1.0" encoding="UTF-8" standalone="no"?>
<!-- Created with Inkscape (http://www.inkscape.org/) -->
<svg
   xmlns:dc="http://purl.org/dc/elements/1.1/"
   xmlns:cc="http://creativecommons.org/ns#"
   xmlns:rdf="http://www.w3.org/1999/02/22-rdf-syntax-ns#"
   xmlns:svg="http://www.w3.org/2000/svg"
   xmlns="http://www.w3.org/2000/svg"
   xmlns:sodipodi="http://sodipodi.sourceforge.net/DTD/sodipodi-0.dtd"
   xmlns:inkscape="http://www.inkscape.org/namespaces/inkscape"
   width="48"
   height="48"
   id="svg2"
   sodipodi:version="0.32"
   inkscape:version="0.46+devel"
   sodipodi:docname="document.svg"
   inkscape:output_extension="org.inkscape.output.svg.inkscape"
   inkscape:export-filename="/home/hbons/Desktop/Intel/svn/moblin-ui-docs/in progress/draft visual UI/icons/icons.png"
   inkscape:export-xdpi="60.476192"
   inkscape:export-ydpi="60.476192"
   version="1.0">
  <sodipodi:namedview
     id="base"
     pagecolor="#ffffff"
     bordercolor="#dcdcdc"
     borderopacity="1"
     gridtolerance="10000"
     guidetolerance="10"
     objecttolerance="10"
     inkscape:pageopacity="0"
     inkscape:pageshadow="2"
     inkscape:zoom="4"
     inkscape:cx="49.659828"
     inkscape:cy="25.985497"
     inkscape:document-units="px"
     inkscape:current-layer="layer1"
     showgrid="false"
     inkscape:window-width="1280"
     inkscape:window-height="750"
     inkscape:window-x="0"
     inkscape:window-y="0"
     inkscape:snap-intersection-line-segments="false"
     inkscape:snap-bbox="true"
     inkscape:snap-nodes="false"
     inkscape:bbox-paths="true"
     inkscape:showpageshadow="false"
     showguides="false"
     inkscape:guide-bbox="true"
     inkscape:bbox-nodes="true"
     inkscape:snap-global="false">
    <inkscape:grid
       enabled="true"
       visible="true"
       id="grid4079"
       type="xygrid"
       empspacing="5" />
    <sodipodi:guide
       id="guide7317"
       position="566.05335,854.14667"
       orientation="1,0" />
  </sodipodi:namedview>
  <defs
     id="defs4">
    <inkscape:perspective
       sodipodi:type="inkscape:persp3d"
       inkscape:vp_x="0 : 24 : 1"
       inkscape:vp_y="0 : 1000 : 0"
       inkscape:vp_z="48 : 24 : 1"
       inkscape:persp3d-origin="24 : 16 : 1"
       id="perspective22" />
    <inkscape:perspective
       id="perspective5539"
       inkscape:persp3d-origin="0.5 : 0.33333333 : 1"
       inkscape:vp_z="1 : 0.5 : 1"
       inkscape:vp_y="0 : 1000 : 0"
       inkscape:vp_x="0 : 0.5 : 1"
       sodipodi:type="inkscape:persp3d" />
    <inkscape:perspective
       sodipodi:type="inkscape:persp3d"
       inkscape:vp_x="0 : 0.5 : 1"
       inkscape:vp_y="0 : 1000 : 0"
       inkscape:vp_z="1 : 0.5 : 1"
       inkscape:persp3d-origin="0.5 : 0.33333333 : 1"
       id="perspective6334" />
    <inkscape:perspective
       sodipodi:type="inkscape:persp3d"
       inkscape:vp_x="0 : 0.5 : 1"
       inkscape:vp_y="0 : 1000 : 0"
       inkscape:vp_z="1 : 0.5 : 1"
       inkscape:persp3d-origin="0.5 : 0.33333333 : 1"
       id="perspective5534" />
    <inkscape:perspective
       sodipodi:type="inkscape:persp3d"
       inkscape:vp_x="0 : 0.5 : 1"
       inkscape:vp_y="0 : 1000 : 0"
       inkscape:vp_z="1 : 0.5 : 1"
       inkscape:persp3d-origin="0.5 : 0.33333333 : 1"
       id="perspective6327" />
    <inkscape:perspective
       id="perspective17"
       inkscape:persp3d-origin="24 : 16 : 1"
       inkscape:vp_z="48 : 24 : 1"
       inkscape:vp_y="0 : 1000 : 0"
       inkscape:vp_x="0 : 24 : 1"
       sodipodi:type="inkscape:persp3d" />
  </defs>
  <metadata
     id="metadata7">
    <rdf:RDF>
      <cc:Work
         rdf:about="">
        <dc:format>image/svg+xml</dc:format>
        <dc:type
           rdf:resource="http://purl.org/dc/dcmitype/StillImage" />
        <dc:title />
      </cc:Work>
    </rdf:RDF>
  </metadata>
  <g
     style="display:inline"
     id="layer1"
     inkscape:groupmode="layer"
     inkscape:label="Layer 1">
    <g
       id="g5542"
       transform="translate(1.6571816,-1.685637)">
      <path
         id="path6515"
         d="m 31.025552,7.21165 c 0,-0.93365 -0.75168,-1.68534 -1.68535,-1.68533 L 6.7606221,5.613628 c 0,0 0,3.37066 0,3.37066 L 29.340202,8.89698 c 0.93367,0 1.68535,-0.75163 1.68535,-1.68533 z"
         style="fill:#000000;fill-opacity:1;stroke:none;display:inline"
         sodipodi:nodetypes="cccccc" />
      <path
         id="path7326-1"
         d="m 25.637377,17.279772 c 0,0.93365 0.75166,1.68534 1.68533,1.68533 l 10.551968,-0.06706 c 0.93368,-10e-6 1.68532,-0.75169 1.68532,-1.68534 0,-0.93369 -0.75164,-1.68532 -1.68532,-1.68531 l -10.551968,0.06706 c -0.93367,0 -1.68533,0.75163 -1.68533,1.68532 z"
         style="fill:#000000;fill-opacity:1;stroke:none;display:inline"
         sodipodi:nodetypes="cccsccc" />
      <path
         sodipodi:nodetypes="cccsccc"
         style="fill:#000000;fill-opacity:1;stroke:none;display:inline"
         d="m 27.305874,5.5404494 c -0.93365,0 -1.68534,0.75166 -1.68533,1.68533 l -10e-6,9.9264696 c 10e-6,0.93368 0.75169,1.68532 1.68534,1.68532 0.93369,0 1.68532,-0.75164 1.68531,-1.68532 l 10e-6,-9.9264696 c 0,-0.93367 -0.75163,-1.68533 -1.68532,-1.68533 z"
         id="path5553" />
      <path
         sodipodi:nodetypes="cccccc"
         style="fill:#000000;fill-opacity:1;stroke:none;display:inline"
         d="m 37.909343,13.97399 c -0.93367,0 -1.68535,0.75166 -1.68535,1.68534 l 0,28.483169 c 0,0 3.37067,0 3.37067,0 l 0,-28.483169 c 0,-0.93368 -0.75163,-1.68534 -1.68532,-1.68534 z"
         id="path5547" />
      <path
         id="path5557"
         d="m 28.499215,6.0234314 c -0.66019,0.6601901 -0.660211,1.7232192 0,2.3834164 l 8.224654,8.2246662 c 0.660219,0.660205 1.723227,0.660176 2.383416,-1.4e-5 0.660218,-0.660218 0.660212,-1.72319 -7e-6,-2.383395 L 30.882624,6.0234385 C 30.22242,5.3632341 29.159433,5.3632129 28.499215,6.0234314 z"
         style="fill:#000000;fill-opacity:1;stroke:none;display:inline"
         sodipodi:nodetypes="cccsccc" />
      <path
         sodipodi:nodetypes="csccscc"
         id="path5538"
         d="m 6.7706899,42.469954 c -0.9336795,0 -1.6874985,0.7538 -1.6874985,1.6875 9e-6,0.93366 0.75382,1.6875 1.6874995,1.6875 l 31.1713981,0 c 0.93368,0 1.65624,-0.75384 1.65625,-1.6875 0,-0.9337 -0.72257,-1.6875 -1.65625,-1.6875 l -31.1713991,0 z"
         style="fill:#000000;fill-opacity:1;stroke:none;display:inline" />
      <path
         id="path5540"
         d="m 6.7881939,5.6066603 c -0.9336695,0 -1.6853495,0.75166 -1.6853495,1.68534 l 0,37.0027177 c 0,0 3.3706695,0 3.3706695,0 l 0,-37.0027177 c 0,-0.93368 -0.75163,-1.68534 -1.68532,-1.68534 z"
         style="fill:#000000;fill-opacity:1;stroke:none;display:inline"
         sodipodi:nodetypes="cccccc" />
    </g>
  </g>
</svg>
