<?xml version="1.0" encoding="UTF-8" standalone="no"?>
<!-- Created with Inkscape (http://www.inkscape.org/) -->
<svg
   xmlns:dc="http://purl.org/dc/elements/1.1/"
   xmlns:cc="http://creativecommons.org/ns#"
   xmlns:rdf="http://www.w3.org/1999/02/22-rdf-syntax-ns#"
   xmlns:svg="http://www.w3.org/2000/svg"
   xmlns="http://www.w3.org/2000/svg"
   xmlns:sodipodi="http://sodipodi.sourceforge.net/DTD/sodipodi-0.dtd"
   xmlns:inkscape="http://www.inkscape.org/namespaces/inkscape"
   width="48"
   height="48"
   id="svg2"
   sodipodi:version="0.32"
   inkscape:version="0.46+devel"
   sodipodi:docname="document-print.svg"
   inkscape:output_extension="org.inkscape.output.svg.inkscape"
   inkscape:export-filename="/home/hbons/Desktop/Intel/svn/moblin-ui-docs/in progress/draft visual UI/icons/icons.png"
   inkscape:export-xdpi="60.476192"
   inkscape:export-ydpi="60.476192"
   version="1.0">
  <sodipodi:namedview
     id="base"
     pagecolor="#ffffff"
     bordercolor="#dcdcdc"
     borderopacity="1"
     gridtolerance="10000"
     guidetolerance="10"
     objecttolerance="10"
     inkscape:pageopacity="0"
     inkscape:pageshadow="2"
     inkscape:zoom="1"
     inkscape:cx="26.758689"
     inkscape:cy="34.149467"
     inkscape:document-units="px"
     inkscape:current-layer="layer1"
     showgrid="false"
     inkscape:window-width="1280"
     inkscape:window-height="750"
     inkscape:window-x="0"
     inkscape:window-y="0"
     inkscape:snap-intersection-line-segments="false"
     inkscape:snap-bbox="true"
     inkscape:snap-nodes="false"
     inkscape:bbox-paths="true"
     inkscape:showpageshadow="false"
     showguides="true"
     inkscape:guide-bbox="true"
     inkscape:bbox-nodes="true"
     inkscape:snap-global="false">
    <inkscape:grid
       enabled="true"
       visible="true"
       id="grid4079"
       type="xygrid"
       empspacing="5" />
    <sodipodi:guide
       id="guide7317"
       position="566.05335,854.14667"
       orientation="1,0" />
  </sodipodi:namedview>
  <defs
     id="defs4" />
  <metadata
     id="metadata7">
    <rdf:RDF>
      <cc:Work
         rdf:about="">
        <dc:format>image/svg+xml</dc:format>
        <dc:type
           rdf:resource="http://purl.org/dc/dcmitype/StillImage" />
        <dc:title />
      </cc:Work>
    </rdf:RDF>
  </metadata>
  <g
     style="display:inline"
     id="layer1"
     inkscape:groupmode="layer"
     inkscape:label="Layer 1">
    <g
       id="g6199">
      <g
         transform="matrix(1.1369331,0,0,1.1369331,56.635121,22.608486)"
         id="g5599" />
      <rect
         style="fill:#000000;fill-opacity:1;stroke:none;display:inline"
         id="rect6524-3"
         width="23.237591"
         height="3.3710001"
         x="0.66347337"
         y="10.64282"
         rx="1.6855001"
         ry="1.6855"
         transform="matrix(0,1,1,0,0,0)" />
      <rect
         style="fill:#000000;fill-opacity:1;stroke:none;display:inline"
         id="rect6547"
         width="23.12919"
         height="3.3710001"
         x="0.77187449"
         y="34.036381"
         rx="1.6855001"
         ry="1.6855"
         transform="matrix(0,1,1,0,0,0)" />
      <path
         sodipodi:open="true"
         sodipodi:end="3.1415927"
         sodipodi:start="1.5707963"
         sodipodi:type="arc"
         style="fill:none;stroke:#000000;stroke-width:10.8867569;stroke-linecap:round;stroke-miterlimit:4;stroke-opacity:1;stroke-dasharray:none;stroke-dashoffset:0;display:inline"
         id="path6551"
         sodipodi:cx="-25.809397"
         sodipodi:cy="179.43886"
         sodipodi:rx="22.98097"
         sodipodi:ry="22.98097"
         d="M -25.809396,202.41983 A 22.98097,22.98097 0 0 1 -48.790367,179.43886"
         transform="matrix(0.30976003,0,0,-0.30946291,18.981866,81.54063)" />
      <rect
         transform="scale(-1,1)"
         ry="1.6855"
         rx="1.6855"
         y="21.824587"
         x="-39.09301"
         height="3.3710001"
         width="30.120087"
         id="rect6553"
         style="fill:#000000;fill-opacity:1;stroke:none;display:inline" />
      <path
         transform="matrix(-0.30976003,0,0,-0.30946291,29.018134,81.54063)"
         d="M -25.809396,202.41983 A 22.98097,22.98097 0 0 1 -48.790367,179.43886"
         sodipodi:ry="22.98097"
         sodipodi:rx="22.98097"
         sodipodi:cy="179.43886"
         sodipodi:cx="-25.809397"
         id="path6565"
         style="fill:none;stroke:#000000;stroke-width:10.8867569;stroke-linecap:round;stroke-miterlimit:4;stroke-opacity:1;stroke-dasharray:none;stroke-dashoffset:0;display:inline"
         sodipodi:type="arc"
         sodipodi:start="1.5707963"
         sodipodi:end="3.1415927"
         sodipodi:open="true" />
      <rect
         transform="matrix(0,1,1,0,0,0)"
         ry="1.6855"
         rx="1.6855"
         y="2.2134838"
         x="23.849985"
         height="3.3710001"
         width="13.463764"
         id="rect6571"
         style="fill:#000000;fill-opacity:1;stroke:none;display:inline" />
      <rect
         style="fill:#000000;fill-opacity:1;stroke:none;display:inline"
         id="rect7357"
         width="13.463764"
         height="3.3710001"
         x="23.849985"
         y="42.428505"
         rx="1.6855"
         ry="1.6855"
         transform="matrix(0,1,1,0,0,0)" />
      <rect
         style="fill:#000000;fill-opacity:1;stroke:none;display:inline"
         id="rect7359"
         width="10.957273"
         height="3.3710001"
         x="-13.160194"
         y="34.029427"
         rx="1.6855001"
         ry="1.6855"
         transform="scale(-1,1)" />
      <rect
         transform="scale(-1,1)"
         ry="1.6855"
         rx="1.6855"
         y="34.029427"
         x="-45.786751"
         height="3.3710001"
         width="11.068416"
         id="rect7361"
         style="fill:#000000;fill-opacity:1;stroke:none;display:inline" />
      <rect
         transform="scale(1,-1)"
         ry="1.6855"
         rx="1.6855"
         y="-46.502422"
         x="8.0369654"
         height="3.3710001"
         width="31.832729"
         id="rect7363"
         style="fill:#000000;fill-opacity:1;stroke:none;display:inline" />
      <rect
         style="fill:#000000;fill-opacity:1;stroke:none;display:inline"
         id="rect7367"
         width="6.7413816"
         height="3.3710001"
         x="-46.491268"
         y="-39.889767"
         rx="1.6854999"
         ry="1.6855"
         transform="matrix(0,-1,-1,0,0,0)" />
      <path
         sodipodi:nodetypes="ccsccsc"
         id="path7369"
         d="m 15.029687,32.716888 -3.746809,9.212424 C 11.041201,42.831262 10.12052,43.362818 9.21857,43.121141 8.31662,42.879464 7.785065,41.958783 8.026742,41.056833 l 3.746809,-9.212424 c 0.241676,-0.901949 1.162358,-1.433504 2.064307,-1.191827 0.90195,0.241676 1.433505,1.162356 1.191829,2.064306 z"
         inkscape:transform-center-y="0.40050902"
         inkscape:transform-center-x="0.10731666"
         style="fill:#000000;fill-opacity:1;stroke:none" />
      <rect
         transform="matrix(0,-1,1,0,0,0)"
         ry="1.6855"
         rx="1.6854999"
         y="7.972661"
         x="-46.518097"
         height="3.3710001"
         width="6.230269"
         id="rect7373"
         style="fill:#000000;fill-opacity:1;stroke:none;display:inline" />
      <path
         style="fill:#000000;fill-opacity:1;stroke:none"
         inkscape:transform-center-x="-0.10731687"
         inkscape:transform-center-y="0.40050902"
         d="m 32.820676,32.716888 3.746809,9.212424 c 0.241677,0.90195 1.162358,1.433506 2.064308,1.191829 0.90195,-0.241677 1.433505,-1.162358 1.191828,-2.064308 l -3.746809,-9.212424 c -0.241676,-0.901949 -1.162358,-1.433504 -2.064307,-1.191827 -0.90195,0.241676 -1.433505,1.162356 -1.191829,2.064306 z"
         id="path6155"
         sodipodi:nodetypes="ccsccsc" />
      <g
         transform="translate(0.29367231,0)"
         id="g6194">
        <path
           sodipodi:nodetypes="cccsccc"
           id="path7193"
           d="m 16.887448,11.689833 c 0.66019,-0.6602 1.72321,-0.66021 2.38343,0 l 5.59113,5.59113 c 0.6602,0.6602 0.66018,1.72323 0,2.38341 -0.66024,0.66024 -1.72322,0.66022 -2.38342,0 l -5.59114,-5.59113 c -0.6602,-0.66019 -0.66022,-1.72318 0,-2.38341 z"
           style="fill:#000000;fill-opacity:1;stroke:none" />
        <path
           sodipodi:nodetypes="cccsccc"
           style="fill:#000000;fill-opacity:1;stroke:none"
           d="m 30.460798,11.689833 c 0.66019,0.6602 0.66021,1.72321 0,2.38341 l -5.59113,5.59113 c -0.6602,0.66022 -1.72322,0.6602 -2.38341,0 -0.66022,-0.66022 -0.66021,-1.72321 0,-2.38341 l 5.59113,-5.59113 c 0.66019,-0.66021 1.72319,-0.66021 2.38341,0 z"
           id="path7201" />
        <path
           style="fill:#000000;fill-opacity:1;stroke:none"
           d="m 25.361762,5.626459 0,10.847746 c 0,0.933664 -0.75169,1.685326 -1.685325,1.685326 -0.933721,0 -1.685347,-0.751655 -1.685333,-1.685333 l -7e-6,-10.845839 c 1.123693,-0.039817 2.246904,-0.019133 3.370665,-0.0019 z"
           id="path5522"
           sodipodi:nodetypes="ccsccc" />
      </g>
      <rect
         transform="scale(-1,1)"
         ry="1.6855"
         rx="1.6855"
         y="0.61491203"
         x="-37.291672"
         height="3.3710001"
         width="26.64776"
         id="rect6180"
         style="fill:#000000;fill-opacity:1;stroke:none;display:inline" />
    </g>
  </g>
</svg>
