<?xml version="1.0" encoding="UTF-8" standalone="no"?>
<!-- Created with Inkscape (http://www.inkscape.org/) -->
<svg
   xmlns:dc="http://purl.org/dc/elements/1.1/"
   xmlns:cc="http://creativecommons.org/ns#"
   xmlns:rdf="http://www.w3.org/1999/02/22-rdf-syntax-ns#"
   xmlns:svg="http://www.w3.org/2000/svg"
   xmlns="http://www.w3.org/2000/svg"
   xmlns:sodipodi="http://sodipodi.sourceforge.net/DTD/sodipodi-0.dtd"
   xmlns:inkscape="http://www.inkscape.org/namespaces/inkscape"
   width="48"
   height="48"
   id="svg2"
   sodipodi:version="0.32"
   inkscape:version="0.46+devel"
   sodipodi:docname="document-properties.svg"
   inkscape:output_extension="org.inkscape.output.svg.inkscape"
   inkscape:export-filename="/home/hbons/Desktop/Intel/svn/moblin-ui-docs/in progress/draft visual UI/icons/icons.png"
   inkscape:export-xdpi="60.476192"
   inkscape:export-ydpi="60.476192"
   version="1.0">
  <sodipodi:namedview
     id="base"
     pagecolor="#ffffff"
     bordercolor="#dcdcdc"
     borderopacity="1"
     gridtolerance="10000"
     guidetolerance="10"
     objecttolerance="10"
     inkscape:pageopacity="0"
     inkscape:pageshadow="2"
     inkscape:zoom="5.6568542"
     inkscape:cx="80.280544"
     inkscape:cy="5.054773"
     inkscape:document-units="px"
     inkscape:current-layer="layer1"
     showgrid="false"
     inkscape:window-width="1280"
     inkscape:window-height="750"
     inkscape:window-x="0"
     inkscape:window-y="0"
     inkscape:snap-intersection-line-segments="false"
     inkscape:snap-bbox="true"
     inkscape:snap-nodes="false"
     inkscape:bbox-paths="true"
     inkscape:showpageshadow="false"
     showguides="false"
     inkscape:guide-bbox="true"
     inkscape:bbox-nodes="true"
     inkscape:snap-global="false">
    <inkscape:grid
       enabled="true"
       visible="true"
       id="grid4079"
       type="xygrid"
       empspacing="5" />
    <sodipodi:guide
       id="guide7317"
       position="566.05335,854.14667"
       orientation="1,0" />
  </sodipodi:namedview>
  <defs
     id="defs4">
    <inkscape:perspective
       sodipodi:type="inkscape:persp3d"
       inkscape:vp_x="0 : 24 : 1"
       inkscape:vp_y="0 : 1000 : 0"
       inkscape:vp_z="48 : 24 : 1"
       inkscape:persp3d-origin="24 : 16 : 1"
       id="perspective22" />
    <inkscape:perspective
       id="perspective5539"
       inkscape:persp3d-origin="0.5 : 0.33333333 : 1"
       inkscape:vp_z="1 : 0.5 : 1"
       inkscape:vp_y="0 : 1000 : 0"
       inkscape:vp_x="0 : 0.5 : 1"
       sodipodi:type="inkscape:persp3d" />
    <inkscape:perspective
       sodipodi:type="inkscape:persp3d"
       inkscape:vp_x="0 : 0.5 : 1"
       inkscape:vp_y="0 : 1000 : 0"
       inkscape:vp_z="1 : 0.5 : 1"
       inkscape:persp3d-origin="0.5 : 0.33333333 : 1"
       id="perspective6334" />
    <inkscape:perspective
       sodipodi:type="inkscape:persp3d"
       inkscape:vp_x="0 : 0.5 : 1"
       inkscape:vp_y="0 : 1000 : 0"
       inkscape:vp_z="1 : 0.5 : 1"
       inkscape:persp3d-origin="0.5 : 0.33333333 : 1"
       id="perspective5534" />
    <inkscape:perspective
       sodipodi:type="inkscape:persp3d"
       inkscape:vp_x="0 : 0.5 : 1"
       inkscape:vp_y="0 : 1000 : 0"
       inkscape:vp_z="1 : 0.5 : 1"
       inkscape:persp3d-origin="0.5 : 0.33333333 : 1"
       id="perspective6327" />
    <inkscape:perspective
       id="perspective17"
       inkscape:persp3d-origin="24 : 16 : 1"
       inkscape:vp_z="48 : 24 : 1"
       inkscape:vp_y="0 : 1000 : 0"
       inkscape:vp_x="0 : 24 : 1"
       sodipodi:type="inkscape:persp3d" />
    <inkscape:perspective
       sodipodi:type="inkscape:persp3d"
       inkscape:vp_x="0 : 0.5 : 1"
       inkscape:vp_y="0 : 1000 : 0"
       inkscape:vp_z="1 : 0.5 : 1"
       inkscape:persp3d-origin="0.5 : 0.33333333 : 1"
       id="perspective6334-0" />
    <inkscape:perspective
       sodipodi:type="inkscape:persp3d"
       inkscape:vp_x="0 : 0.5 : 1"
       inkscape:vp_y="0 : 1000 : 0"
       inkscape:vp_z="1 : 0.5 : 1"
       inkscape:persp3d-origin="0.5 : 0.33333333 : 1"
       id="perspective5534-9" />
    <inkscape:perspective
       sodipodi:type="inkscape:persp3d"
       inkscape:vp_x="0 : 0.5 : 1"
       inkscape:vp_y="0 : 1000 : 0"
       inkscape:vp_z="1 : 0.5 : 1"
       inkscape:persp3d-origin="0.5 : 0.33333333 : 1"
       id="perspective6327-9" />
    <inkscape:perspective
       id="perspective17-9"
       inkscape:persp3d-origin="24 : 16 : 1"
       inkscape:vp_z="48 : 24 : 1"
       inkscape:vp_y="0 : 1000 : 0"
       inkscape:vp_x="0 : 24 : 1"
       sodipodi:type="inkscape:persp3d" />
    <inkscape:perspective
       id="perspective6373"
       inkscape:persp3d-origin="0.5 : 0.33333333 : 1"
       inkscape:vp_z="1 : 0.5 : 1"
       inkscape:vp_y="0 : 1000 : 0"
       inkscape:vp_x="0 : 0.5 : 1"
       sodipodi:type="inkscape:persp3d" />
  </defs>
  <metadata
     id="metadata7">
    <rdf:RDF>
      <cc:Work
         rdf:about="">
        <dc:format>image/svg+xml</dc:format>
        <dc:type
           rdf:resource="http://purl.org/dc/dcmitype/StillImage" />
        <dc:title></dc:title>
      </cc:Work>
    </rdf:RDF>
  </metadata>
  <g
     style="display:inline"
     id="layer1"
     inkscape:groupmode="layer"
     inkscape:label="Layer 1">
    <g
       id="g6389"
       transform="translate(3.4868598,0.03270301)">
      <path
         id="path6515"
         d="m 26.677313,2.5341431 c 0,-0.93365 -0.75168,-1.68534 -1.68535,-1.68533 L 2.4123836,0.9361211 c 0,0 0,3.37066 0,3.37066 L 24.991963,4.2194731 c 0.93367,0 1.68535,-0.75163 1.68535,-1.68533 z"
         style="fill:#000000;fill-opacity:1;stroke:none;display:inline"
         sodipodi:nodetypes="cccccc" />
      <path
         id="path7326-1"
         d="m 21.289138,12.602265 c 0,0.93365 0.75166,1.68534 1.68533,1.68533 l 10.551969,-0.06706 c 0.93368,-10e-6 1.685319,-0.75169 1.685319,-1.68534 0,-0.93369 -0.75164,-1.68532 -1.685319,-1.68531 l -10.551969,0.06706 c -0.93367,0 -1.68533,0.75163 -1.68533,1.68532 z"
         style="fill:#000000;fill-opacity:1;stroke:none;display:inline"
         sodipodi:nodetypes="cccsccc" />
      <path
         sodipodi:nodetypes="cccsccc"
         style="fill:#000000;fill-opacity:1;stroke:none;display:inline"
         d="m 22.957635,0.8629425 c -0.93365,0 -1.68534,0.75166 -1.68533,1.68533 l -10e-6,9.9264695 c 10e-6,0.93368 0.75169,1.68532 1.68534,1.68532 0.93369,0 1.68532,-0.75164 1.68531,-1.68532 l 10e-6,-9.9264695 c 0,-0.93367 -0.75163,-1.68533 -1.68532,-1.68533 z"
         id="path5553" />
      <path
         id="path5547"
         d="m 33.5625,9.28125 c -0.93367,0 -1.6875,0.75382 -1.6875,1.6875 l 0,9.03125 c 1.200082,0.401358 2.326224,0.942917 3.375,1.625 l 0,-10.65625 c 0,-0.93368 -0.75381,-1.6875 -1.6875,-1.6875 z"
         style="fill:#000000;fill-opacity:1;stroke:none;display:inline" />
      <path
         id="path5557"
         d="m 24.150976,1.3459245 c -0.66019,0.6601901 -0.660211,1.7232192 0,2.3834164 l 8.224654,8.2246661 c 0.660219,0.660205 1.723227,0.660176 2.383416,-1.4e-5 0.660218,-0.660218 0.660212,-1.72319 -7e-6,-2.3833949 L 26.534385,1.3459316 C 25.874181,0.6857272 24.811194,0.685706 24.150976,1.3459245 z"
         style="fill:#000000;fill-opacity:1;stroke:none;display:inline"
         sodipodi:nodetypes="cccsccc" />
      <path
         id="path5538"
         d="m 2.4375,37.78125 c -0.9336795,0 -1.6875,0.7538 -1.6875,1.6875 9e-6,0.93366 0.7538205,1.6875 1.6875,1.6875 l 11.90625,0 c -0.579502,-1.050662 -1.062962,-2.184773 -1.375,-3.375 l -10.53125,0 z"
         style="fill:#000000;fill-opacity:1;stroke:none;display:inline" />
      <path
         id="path5540"
         d="m 2.4399554,0.9291534 c -0.9336695,0 -1.6853495,0.75166 -1.6853495,1.68534 l 0,37.0027176 c 0,0 3.3706695,0 3.3706695,0 l 0,-37.0027176 c 0,-0.93368 -0.75163,-1.68534 -1.68532,-1.68534 z"
         style="fill:#000000;fill-opacity:1;stroke:none;display:inline"
         sodipodi:nodetypes="cccccc" />
      <path
         transform="matrix(-0.03411547,-0.49337086,-0.49191539,0.03415695,114.64692,15.172062)"
         d="m -2.8284264,179.43886 c 0,12.68549 -10.2954746,22.98097 -22.9809706,22.98097 -12.685495,0 -22.98097,-10.29548 -22.98097,-22.98097 0,-12.6855 10.295475,-22.98097 22.98097,-22.98097 12.685496,0 22.9809706,10.29547 22.9809706,22.98097 z"
         sodipodi:ry="22.98097"
         sodipodi:rx="22.98097"
         sodipodi:cy="179.43886"
         sodipodi:cx="-25.809397"
         style="fill:none;stroke:#000000;stroke-width:6.82563972;stroke-linecap:round;stroke-miterlimit:4;stroke-opacity:1;stroke-dasharray:none;stroke-dashoffset:0;display:inline"
         sodipodi:type="arc"
         id="path12" />
      <path
         style="fill:#000000;fill-opacity:1;stroke:none;display:inline"
         d="m 27.101124,32.598482 c -0.93368,0 -1.68532,0.75167 -1.68531,1.68532 l 2e-5,4.98111 c -3e-5,0.9337 0.75161,1.68532 1.68532,1.68532 0.93364,0 1.685319,-0.75162 1.685319,-1.68532 l -10e-6,-4.98111 c 10e-6,-0.93365 -0.751669,-1.68532 -1.685339,-1.68532 z"
         id="path7330-1"
         sodipodi:nodetypes="cccsccc" />
      <path
         sodipodi:nodetypes="cccsccc"
         style="fill:#000000;fill-opacity:1;stroke:none;display:inline"
         d="m 27.101124,27.452022 c -0.93368,0 -1.68532,0.75168 -1.68531,1.68533 l 2e-5,0.008 c -3e-5,0.93369 0.75161,1.68533 1.68532,1.68533 0.93364,0 1.685319,-0.75164 1.685319,-1.68533 l -10e-6,-0.008 c 10e-6,-0.93365 -0.751669,-1.68533 -1.685339,-1.68533 z"
         id="path7348-1" />
    </g>
  </g>
</svg>
