<?xml version="1.0" encoding="UTF-8" standalone="no"?>
<!-- Created with Inkscape (http://www.inkscape.org/) -->
<svg
   xmlns:dc="http://purl.org/dc/elements/1.1/"
   xmlns:cc="http://creativecommons.org/ns#"
   xmlns:rdf="http://www.w3.org/1999/02/22-rdf-syntax-ns#"
   xmlns:svg="http://www.w3.org/2000/svg"
   xmlns="http://www.w3.org/2000/svg"
   xmlns:sodipodi="http://sodipodi.sourceforge.net/DTD/sodipodi-0.dtd"
   xmlns:inkscape="http://www.inkscape.org/namespaces/inkscape"
   width="48"
   height="48"
   id="svg2"
   sodipodi:version="0.32"
   inkscape:version="0.46+devel"
   sodipodi:docname="document-save-as.svg"
   inkscape:output_extension="org.inkscape.output.svg.inkscape"
   inkscape:export-filename="/home/hbons/Desktop/Intel/svn/moblin-ui-docs/in progress/draft visual UI/icons/icons.png"
   inkscape:export-xdpi="60.476192"
   inkscape:export-ydpi="60.476192"
   version="1.0">
  <sodipodi:namedview
     id="base"
     pagecolor="#ffffff"
     bordercolor="#dcdcdc"
     borderopacity="1"
     gridtolerance="10000"
     guidetolerance="10"
     objecttolerance="10"
     inkscape:pageopacity="0"
     inkscape:pageshadow="2"
     inkscape:zoom="8"
     inkscape:cx="33.521832"
     inkscape:cy="20.728857"
     inkscape:document-units="px"
     inkscape:current-layer="layer1"
     showgrid="false"
     inkscape:window-width="1280"
     inkscape:window-height="750"
     inkscape:window-x="0"
     inkscape:window-y="0"
     inkscape:snap-intersection-line-segments="false"
     inkscape:snap-bbox="true"
     inkscape:snap-nodes="false"
     inkscape:bbox-paths="true"
     inkscape:showpageshadow="false"
     showguides="true"
     inkscape:guide-bbox="true"
     inkscape:bbox-nodes="true"
     inkscape:snap-global="false">
    <inkscape:grid
       enabled="true"
       visible="true"
       id="grid4079"
       type="xygrid"
       empspacing="5" />
    <sodipodi:guide
       id="guide7317"
       position="566.05335,854.14667"
       orientation="1,0" />
  </sodipodi:namedview>
  <defs
     id="defs4" />
  <metadata
     id="metadata7">
    <rdf:RDF>
      <cc:Work
         rdf:about="">
        <dc:format>image/svg+xml</dc:format>
        <dc:type
           rdf:resource="http://purl.org/dc/dcmitype/StillImage" />
        <dc:title />
      </cc:Work>
    </rdf:RDF>
  </metadata>
  <g
     style="display:inline"
     id="layer1"
     inkscape:groupmode="layer"
     inkscape:label="Layer 1">
    <g
       transform="translate(-1.2332992,-14.022799)"
       id="g5848" />
    <path
       style="fill:#000000;fill-opacity:1;stroke:none"
       inkscape:transform-center-x="0.10731623"
       inkscape:transform-center-y="0.40050902"
       d="M 9.8683336,13.383466 5.0337774,29.07082 C 4.7921007,29.97277 3.8714196,30.504326 2.9694699,30.262649 2.0675203,30.020972 1.5359648,29.100291 1.7776415,28.198341 L 6.6121976,12.510987 c 0.2416767,-0.90195 1.1623578,-1.433505 2.0643075,-1.191828 0.9019497,0.241676 1.4335049,1.162357 1.1918285,2.064307 z"
       id="rect6520"
       sodipodi:nodetypes="ccsccsc" />
    <rect
       transform="matrix(0,1,1,0,0,0)"
       ry="1.6855"
       rx="1.6855001"
       y="1.6909095"
       x="26.98807"
       height="3.3710001"
       width="16.522144"
       id="rect6524"
       style="fill:#000000;fill-opacity:1;stroke:none" />
    <rect
       style="fill:#000000;fill-opacity:1;stroke:none"
       id="rect6758"
       width="44.360889"
       height="3.3710001"
       x="-46.274158"
       y="40.232628"
       rx="1.6855001"
       ry="1.6855"
       transform="scale(-1,1)" />
    <path
       style="fill:#000000;fill-opacity:1;stroke:none"
       d="m 8.2812508,11.173984 c -0.9337671,0 -1.6875,0.753733 -1.6875,1.6875 0,0.933767 0.7537329,1.6875 1.6875,1.6875 l 12.3534202,0 -0.0053,-3.39397 -12.3480842,0.01897 -3.6e-5,0 z m 19.1235972,0 5.89e-4,3.375 12.188314,0 c 0.933767,0 1.6875,-0.753733 1.6875,-1.6875 0,-0.933767 -0.753733,-1.6875 -1.6875,-1.6875 l -12.188903,0 z"
       id="rect5697"
       sodipodi:nodetypes="cscccccccsccc" />
    <path
       sodipodi:nodetypes="ccsccsc"
       id="path5792"
       d="m 38.131667,13.318313 4.834556,15.687354 c 0.241677,0.90195 1.162358,1.433506 2.064308,1.191829 0.901949,-0.241677 1.433505,-1.162358 1.191828,-2.064308 L 41.387803,12.445834 c -0.241677,-0.90195 -1.162358,-1.433505 -2.064308,-1.191828 -0.901949,0.241676 -1.433505,1.162357 -1.191828,2.064307 z"
       inkscape:transform-center-y="0.40050902"
       inkscape:transform-center-x="-0.10731625"
       style="fill:#000000;fill-opacity:1;stroke:none" />
    <rect
       style="fill:#000000;fill-opacity:1;stroke:none"
       id="rect5794"
       width="16.522144"
       height="3.3710001"
       x="26.922916"
       y="-46.30909"
       rx="1.6855001"
       ry="1.6855"
       transform="matrix(0,1,-1,0,0,0)" />
    <path
       sodipodi:nodetypes="cccsccc"
       id="path7193"
       d="m 15.21333,18.40085 c 0.66019,-0.6602 1.72321,-0.66021 2.38343,0 l 7.59113,7.59113 c 0.6602,0.6602 0.66018,1.72323 0,2.38341 -0.66024,0.66024 -1.72322,0.66022 -2.38342,0 l -7.59114,-7.59113 c -0.6602,-0.66019 -0.66022,-1.72318 0,-2.38341 z"
       style="fill:#000000;fill-opacity:1;stroke:none" />
    <path
       sodipodi:nodetypes="cccsccc"
       style="fill:#000000;fill-opacity:1;stroke:none"
       d="m 32.78668,18.40085 c 0.66019,0.6602 0.66021,1.72321 0,2.38341 l -7.59113,7.59113 c -0.6602,0.66022 -1.72322,0.6602 -2.38341,0 -0.66022,-0.66022 -0.66021,-1.72321 0,-2.38341 l 7.59113,-7.59113 c 0.66019,-0.66021 1.72319,-0.66021 2.38341,0 z"
       id="path7201" />
    <path
       id="path7134"
       d="m 24.03247,4.3963723 c 0.933657,7e-6 1.685333,0.7516549 1.685326,1.685326 l 0,18.3852627 c 1.4e-5,0.933677 -0.751669,1.685332 -1.685326,1.685325 -0.933692,0 -1.685332,-0.751655 -1.685325,-1.685325 l 0,-18.3852627 c -1.4e-5,-0.9336641 0.75164,-1.685319 1.685325,-1.685326 z"
       style="fill:#000000;fill-opacity:1;stroke:none"
       sodipodi:nodetypes="cccsccc" />
    <g
       id="g7266"
       transform="translate(3.1112435,-0.09964649)"
       style="fill:#000000;fill-opacity:1">
      <path
         sodipodi:nodetypes="cccsccc"
         style="opacity:1;fill:#000000;fill-opacity:1;stroke:none;display:inline"
         d="m 25.932098,33.574466 c -0.93368,0 -1.68532,0.75168 -1.68531,1.68533 l 2e-5,0.008 c -3e-5,0.93369 0.75161,1.68533 1.68532,1.68533 0.93364,0 1.685319,-0.75164 1.685319,-1.68533 l -10e-6,-0.008 c 10e-6,-0.93365 -0.751669,-1.68533 -1.685339,-1.68533 z"
         id="path7348-1" />
      <path
         sodipodi:nodetypes="cccsccc"
         style="opacity:1;fill:#000000;fill-opacity:1;stroke:none;display:inline"
         d="m 20.890092,33.574466 c -0.93368,0 -1.68532,0.75168 -1.68531,1.68533 l 2e-5,0.008 c -3e-5,0.93369 0.75161,1.68533 1.68532,1.68533 0.93364,0 1.685319,-0.75164 1.685319,-1.68533 l -1e-5,-0.008 c 1e-5,-0.93365 -0.751669,-1.68533 -1.685339,-1.68533 z"
         id="path6484" />
      <path
         sodipodi:nodetypes="cccsccc"
         style="opacity:1;fill:#000000;fill-opacity:1;stroke:none;display:inline"
         d="m 15.845376,33.574466 c -0.93368,0 -1.68532,0.75168 -1.68531,1.68533 l 2e-5,0.008 c -3e-5,0.93369 0.75161,1.68533 1.68532,1.68533 0.93364,0 1.685319,-0.75164 1.685319,-1.68533 l -10e-6,-0.008 c 10e-6,-0.93365 -0.751669,-1.68533 -1.685339,-1.68533 z"
         id="path6488" />
    </g>
  </g>
</svg>
