<?xml version="1.0" encoding="UTF-8" standalone="no"?>
<!-- Created with Inkscape (http://www.inkscape.org/) -->
<svg
   xmlns:dc="http://purl.org/dc/elements/1.1/"
   xmlns:cc="http://creativecommons.org/ns#"
   xmlns:rdf="http://www.w3.org/1999/02/22-rdf-syntax-ns#"
   xmlns:svg="http://www.w3.org/2000/svg"
   xmlns="http://www.w3.org/2000/svg"
   xmlns:sodipodi="http://sodipodi.sourceforge.net/DTD/sodipodi-0.dtd"
   xmlns:inkscape="http://www.inkscape.org/namespaces/inkscape"
   width="48"
   height="48"
   id="svg2"
   sodipodi:version="0.32"
   inkscape:version="0.46+devel r20679"
   sodipodi:docname="edit-copy.svg"
   inkscape:output_extension="org.inkscape.output.svg.inkscape"
   inkscape:export-filename="/home/hbons/Desktop/Intel/svn/moblin-ui-docs/in progress/draft visual UI/icons/icons.png"
   inkscape:export-xdpi="60.476192"
   inkscape:export-ydpi="60.476192"
   version="1.0">
  <sodipodi:namedview
     id="base"
     pagecolor="#ffffff"
     bordercolor="#dcdcdc"
     borderopacity="1"
     gridtolerance="10000"
     guidetolerance="10"
     objecttolerance="10"
     inkscape:pageopacity="0"
     inkscape:pageshadow="2"
     inkscape:zoom="11.313708"
     inkscape:cx="38.84528"
     inkscape:cy="22.631377"
     inkscape:document-units="px"
     inkscape:current-layer="layer1"
     showgrid="false"
     inkscape:window-width="1280"
     inkscape:window-height="750"
     inkscape:window-x="0"
     inkscape:window-y="0"
     inkscape:snap-intersection-line-segments="false"
     inkscape:snap-bbox="true"
     inkscape:snap-nodes="false"
     inkscape:bbox-paths="true"
     inkscape:showpageshadow="false"
     showguides="true"
     inkscape:guide-bbox="true"
     inkscape:bbox-nodes="true"
     inkscape:snap-global="false">
    <inkscape:grid
       enabled="true"
       visible="true"
       id="grid4079"
       type="xygrid"
       empspacing="5" />
    <sodipodi:guide
       id="guide7317"
       position="566.05335,854.14667"
       orientation="1,0" />
  </sodipodi:namedview>
  <defs
     id="defs4">
    <inkscape:perspective
       sodipodi:type="inkscape:persp3d"
       inkscape:vp_x="0 : 24 : 1"
       inkscape:vp_y="0 : 1000 : 0"
       inkscape:vp_z="48 : 24 : 1"
       inkscape:persp3d-origin="24 : 16 : 1"
       id="perspective22" />
    <inkscape:perspective
       id="perspective5539"
       inkscape:persp3d-origin="0.5 : 0.33333333 : 1"
       inkscape:vp_z="1 : 0.5 : 1"
       inkscape:vp_y="0 : 1000 : 0"
       inkscape:vp_x="0 : 0.5 : 1"
       sodipodi:type="inkscape:persp3d" />
    <inkscape:perspective
       sodipodi:type="inkscape:persp3d"
       inkscape:vp_x="0 : 0.5 : 1"
       inkscape:vp_y="0 : 1000 : 0"
       inkscape:vp_z="1 : 0.5 : 1"
       inkscape:persp3d-origin="0.5 : 0.33333333 : 1"
       id="perspective6334" />
    <inkscape:perspective
       sodipodi:type="inkscape:persp3d"
       inkscape:vp_x="0 : 0.5 : 1"
       inkscape:vp_y="0 : 1000 : 0"
       inkscape:vp_z="1 : 0.5 : 1"
       inkscape:persp3d-origin="0.5 : 0.33333333 : 1"
       id="perspective5534" />
    <inkscape:perspective
       sodipodi:type="inkscape:persp3d"
       inkscape:vp_x="0 : 0.5 : 1"
       inkscape:vp_y="0 : 1000 : 0"
       inkscape:vp_z="1 : 0.5 : 1"
       inkscape:persp3d-origin="0.5 : 0.33333333 : 1"
       id="perspective6327" />
    <inkscape:perspective
       id="perspective17"
       inkscape:persp3d-origin="24 : 16 : 1"
       inkscape:vp_z="48 : 24 : 1"
       inkscape:vp_y="0 : 1000 : 0"
       inkscape:vp_x="0 : 24 : 1"
       sodipodi:type="inkscape:persp3d" />
    <inkscape:perspective
       id="perspective13"
       inkscape:persp3d-origin="24 : 16 : 1"
       inkscape:vp_z="48 : 24 : 1"
       inkscape:vp_y="0 : 1000 : 0"
       inkscape:vp_x="0 : 24 : 1"
       sodipodi:type="inkscape:persp3d" />
    <inkscape:perspective
       id="perspective6395"
       inkscape:persp3d-origin="0.5 : 0.33333333 : 1"
       inkscape:vp_z="1 : 0.5 : 1"
       inkscape:vp_y="0 : 1000 : 0"
       inkscape:vp_x="0 : 0.5 : 1"
       sodipodi:type="inkscape:persp3d" />
    <inkscape:perspective
       id="perspective5562"
       inkscape:persp3d-origin="0.5 : 0.33333333 : 1"
       inkscape:vp_z="1 : 0.5 : 1"
       inkscape:vp_y="0 : 1000 : 0"
       inkscape:vp_x="0 : 0.5 : 1"
       sodipodi:type="inkscape:persp3d" />
  </defs>
  <metadata
     id="metadata7">
    <rdf:RDF>
      <cc:Work
         rdf:about="">
        <dc:format>image/svg+xml</dc:format>
        <dc:type
           rdf:resource="http://purl.org/dc/dcmitype/StillImage" />
        <dc:title />
      </cc:Work>
    </rdf:RDF>
  </metadata>
  <g
     style="display:inline"
     id="layer1"
     inkscape:groupmode="layer"
     inkscape:label="Layer 1">
    <path
       id="path5547"
       d="m 44.7301,15.604435 c -0.93367,0 -1.68535,0.75166 -1.68535,1.685341 l 0,26.979525 c 0,0 3.37067,0 3.37067,0 l 0,-26.979525 c 0,-0.93368 -0.75163,-1.68534 -1.68532,-1.68534 z"
       style="fill:#000000;fill-opacity:1;stroke:none;display:inline"
       sodipodi:nodetypes="cccccc" />
    <path
       sodipodi:nodetypes="cccsccc"
       id="path6359"
       d="m 39.595366,24.061066 c 8e-6,0.933659 -0.751654,1.685333 -1.685339,1.685342 l -10.773933,-2e-6 c -0.933663,0 -1.685325,-0.75169 -1.685325,-1.685324 0,-0.933721 0.751654,-1.685347 1.685333,-1.685333 l 10.773939,-7e-6 c 0.933657,-7e-6 1.685318,0.751626 1.685325,1.685324 z"
       style="fill:#000000;fill-opacity:1;stroke:none" />
    <path
       style="fill:#000000;fill-opacity:1;stroke:none"
       d="m 39.599199,30.702887 c 8e-6,0.933659 -0.751654,1.685333 -1.685339,1.685341 l -10.783185,-10e-7 c -0.933663,0 -1.685325,-0.751689 -1.685325,-1.685324 0,-0.93372 0.751654,-1.685347 1.685333,-1.685333 l 10.783191,-7e-6 c 0.933657,-7e-6 1.685318,0.751626 1.685325,1.685325 z"
       id="path6361"
       sodipodi:nodetypes="cccsccc" />
    <path
       sodipodi:nodetypes="cccsccc"
       id="path6363"
       d="m 39.606864,37.448187 c 8e-6,0.933658 -0.751654,1.685333 -1.685339,1.685341 l -10.73665,0 c -0.933663,0 -1.685325,-0.751691 -1.685325,-1.685325 0,-0.93372 0.751654,-1.685347 1.685333,-1.685333 l 10.736656,-7e-6 c 0.933657,-7e-6 1.685318,0.751626 1.685325,1.685325 z"
       style="fill:#000000;fill-opacity:1;stroke:none" />
    <path
       style="fill:#000000;fill-opacity:1;stroke:none"
       d="m 46.412968,44.254154 c 8e-6,0.933659 -0.751654,1.685336 -1.685339,1.685344 l -24.280767,-0.01054 c -0.933663,0 -1.71378,-0.75169 -1.71378,-1.685325 0,-0.93372 0.780109,-1.685347 1.713788,-1.685333 l 24.280773,0.01053 c 0.933657,-7e-6 1.685319,0.751626 1.685325,1.685325 z"
       id="path6410"
       sodipodi:nodetypes="cccsccc" />
    <path
       sodipodi:nodetypes="cccccc"
       style="fill:#000000;fill-opacity:1;stroke:none;display:inline"
       d="m 20.41747,15.639523 c -0.93367,0 -1.68535,0.751661 -1.68535,1.68534 l 0,26.949806 c 0,0 3.37067,0 3.37067,0 l 0,-26.949806 c 0,-0.933679 -0.75163,-1.68534 -1.68532,-1.68534 z"
       id="path5535" />
    <path
       sodipodi:nodetypes="cccsccc"
       id="path5543"
       d="m 46.412968,17.292116 c 8e-6,0.933658 -0.751654,1.685335 -1.685339,1.685343 l -24.280767,-0.01054 c -0.933663,0 -1.71378,-0.75169 -1.71378,-1.685325 0,-0.93372 0.780109,-1.685347 1.713788,-1.685333 l 24.280773,0.01053 c 0.933657,-7e-6 1.685319,0.751626 1.685325,1.685325 z"
       style="fill:#000000;fill-opacity:1;stroke:none" />
    <path
       style="fill:#000000;fill-opacity:1;stroke:none;display:inline"
       d="m 27.59375,2.46875 c -0.93367,0 -1.6875,0.75382 -1.6875,1.6875 l 0,9.71875 3.375,0 0,-9.71875 c 0,-0.9336799 -0.75381,-1.6875 -1.6875,-1.6875 z"
       id="path6375"
       sodipodi:nodetypes="cccccc" />
    <path
       style="fill:#000000;fill-opacity:1;stroke:none;display:inline"
       d="m 3.3125,29.40625 c -0.933679,-1.4e-5 -1.71875,0.75378 -1.71875,1.6875 0,0.933635 0.785087,1.6875 1.71875,1.6875 l 13.65625,0.03125 0,-3.375 L 3.3125,29.40625 z"
       id="path6377"
       sodipodi:nodetypes="cscccc" />
    <path
       id="path6379"
       d="m 3.2699299,2.4994293 c -0.93367,0 -1.68535,0.75166 -1.68535,1.68534 l 0,26.9498067 c 0,0 3.3706703,0 3.3706703,0 l 0,-26.9498068 c 0,-0.9336799 -0.7516303,-1.6853399 -1.6853203,-1.6853399 z"
       style="fill:#000000;fill-opacity:1;stroke:none;display:inline"
       sodipodi:nodetypes="cccccc" />
    <path
       style="fill:#000000;fill-opacity:1;stroke:none;display:inline"
       d="M 29.265428,3.7563573 C 29.265436,4.690015 28.513774,5.441692 27.580089,5.4417 L 3.2993219,5.43116 c -0.933663,0 -1.71378,-0.75169 -1.71378,-1.6853247 0,-0.93372 0.780109,-1.685347 1.713788,-1.685333 l 24.2807731,0.01053 c 0.933657,-7e-6 1.685319,0.751626 1.685325,1.685325 z"
       id="path6381"
       sodipodi:nodetypes="cccsccc" />
    <path
       style="fill:#000000;fill-opacity:1;stroke:none;display:inline"
       d="m 22.621268,10.56325 c 8e-6,0.933657 -0.751654,1.685332 -1.685339,1.68534 l -10.773933,0 c -0.9336627,0 -1.6853247,-0.75169 -1.6853247,-1.685326 0,-0.9337201 0.751654,-1.6853471 1.6853327,-1.6853331 l 10.773939,-7e-6 c 0.933657,-7e-6 1.685318,0.751626 1.685325,1.6853261 z"
       id="path6383"
       sodipodi:nodetypes="cccsccc" />
    <path
       style="fill:#000000;fill-opacity:1;stroke:none;display:inline"
       d="m 10.158299,15.483772 c -0.9336786,-1.5e-5 -1.6874996,0.753779 -1.6874996,1.6875 0,0.933634 0.753837,1.6875 1.6874996,1.6875 l 6.8125,0 0,-1.53125 c 0,0.01042 -9.44e-4,0.02079 0,-0.03125 0,0.01096 -9.91e-4,-0.0086 0,-0.0625 a 1.739457,1.739457 0 0 1 0,-0.03125 c 0.0161,-0.443205 0.130179,-0.616386 0.125,-0.59375 0.0663,-0.314665 0.120234,-0.471354 0.15625,-0.5625 0.07844,-0.198499 0.166658,-0.388299 0.28125,-0.5625 l -7.375,0 z m 0,6.75 c -0.9336786,-1.5e-5 -1.6874996,0.753779 -1.6874996,1.6875 0,0.933634 0.753837,1.6875 1.6874996,1.6875 l 6.78125,0 c 0.01052,0 0.02078,1.91e-4 0.03125,0 l 0,-3.375 c -0.01047,-1.92e-4 -0.02073,0 -0.03125,0 l -6.78125,0 z"
       id="path6385" />
  </g>
</svg>
