<?xml version="1.0" encoding="UTF-8" standalone="no"?>
<!-- Created with Inkscape (http://www.inkscape.org/) -->
<svg
   xmlns:dc="http://purl.org/dc/elements/1.1/"
   xmlns:cc="http://creativecommons.org/ns#"
   xmlns:rdf="http://www.w3.org/1999/02/22-rdf-syntax-ns#"
   xmlns:svg="http://www.w3.org/2000/svg"
   xmlns="http://www.w3.org/2000/svg"
   xmlns:sodipodi="http://sodipodi.sourceforge.net/DTD/sodipodi-0.dtd"
   xmlns:inkscape="http://www.inkscape.org/namespaces/inkscape"
   width="48"
   height="48"
   id="svg2"
   sodipodi:version="0.32"
   inkscape:version="0.46+devel"
   sodipodi:docname="edit-find.svg"
   inkscape:output_extension="org.inkscape.output.svg.inkscape"
   inkscape:export-filename="/home/hbons/Desktop/Intel/svn/moblin-ui-docs/in progress/draft visual UI/icons/icons.png"
   inkscape:export-xdpi="60.476192"
   inkscape:export-ydpi="60.476192"
   version="1.0">
  <sodipodi:namedview
     id="base"
     pagecolor="#ffffff"
     bordercolor="#dcdcdc"
     borderopacity="1"
     gridtolerance="10000"
     guidetolerance="10"
     objecttolerance="10"
     inkscape:pageopacity="0"
     inkscape:pageshadow="2"
     inkscape:zoom="5.6568542"
     inkscape:cx="57.377955"
     inkscape:cy="25.80187"
     inkscape:document-units="px"
     inkscape:current-layer="layer1"
     showgrid="false"
     inkscape:window-width="1280"
     inkscape:window-height="750"
     inkscape:window-x="0"
     inkscape:window-y="0"
     inkscape:snap-intersection-line-segments="false"
     inkscape:snap-bbox="true"
     inkscape:snap-nodes="false"
     inkscape:bbox-paths="true"
     inkscape:showpageshadow="false"
     showguides="false"
     inkscape:guide-bbox="true"
     inkscape:bbox-nodes="true"
     inkscape:snap-global="false">
    <inkscape:grid
       enabled="true"
       visible="true"
       id="grid4079"
       type="xygrid"
       empspacing="5" />
    <sodipodi:guide
       id="guide7317"
       position="566.05335,854.14667"
       orientation="1,0" />
  </sodipodi:namedview>
  <defs
     id="defs4">
    <inkscape:perspective
       sodipodi:type="inkscape:persp3d"
       inkscape:vp_x="0 : 24 : 1"
       inkscape:vp_y="0 : 1000 : 0"
       inkscape:vp_z="48 : 24 : 1"
       inkscape:persp3d-origin="24 : 16 : 1"
       id="perspective22" />
    <inkscape:perspective
       id="perspective5539"
       inkscape:persp3d-origin="0.5 : 0.33333333 : 1"
       inkscape:vp_z="1 : 0.5 : 1"
       inkscape:vp_y="0 : 1000 : 0"
       inkscape:vp_x="0 : 0.5 : 1"
       sodipodi:type="inkscape:persp3d" />
    <inkscape:perspective
       sodipodi:type="inkscape:persp3d"
       inkscape:vp_x="0 : 0.5 : 1"
       inkscape:vp_y="0 : 1000 : 0"
       inkscape:vp_z="1 : 0.5 : 1"
       inkscape:persp3d-origin="0.5 : 0.33333333 : 1"
       id="perspective6334" />
    <inkscape:perspective
       sodipodi:type="inkscape:persp3d"
       inkscape:vp_x="0 : 0.5 : 1"
       inkscape:vp_y="0 : 1000 : 0"
       inkscape:vp_z="1 : 0.5 : 1"
       inkscape:persp3d-origin="0.5 : 0.33333333 : 1"
       id="perspective5534" />
    <inkscape:perspective
       sodipodi:type="inkscape:persp3d"
       inkscape:vp_x="0 : 0.5 : 1"
       inkscape:vp_y="0 : 1000 : 0"
       inkscape:vp_z="1 : 0.5 : 1"
       inkscape:persp3d-origin="0.5 : 0.33333333 : 1"
       id="perspective6327" />
    <inkscape:perspective
       id="perspective17"
       inkscape:persp3d-origin="24 : 16 : 1"
       inkscape:vp_z="48 : 24 : 1"
       inkscape:vp_y="0 : 1000 : 0"
       inkscape:vp_x="0 : 24 : 1"
       sodipodi:type="inkscape:persp3d" />
    <inkscape:perspective
       sodipodi:type="inkscape:persp3d"
       inkscape:vp_x="0 : 0.5 : 1"
       inkscape:vp_y="0 : 1000 : 0"
       inkscape:vp_z="1 : 0.5 : 1"
       inkscape:persp3d-origin="0.5 : 0.33333333 : 1"
       id="perspective6334-3" />
    <inkscape:perspective
       sodipodi:type="inkscape:persp3d"
       inkscape:vp_x="0 : 0.5 : 1"
       inkscape:vp_y="0 : 1000 : 0"
       inkscape:vp_z="1 : 0.5 : 1"
       inkscape:persp3d-origin="0.5 : 0.33333333 : 1"
       id="perspective5534-5" />
    <inkscape:perspective
       sodipodi:type="inkscape:persp3d"
       inkscape:vp_x="0 : 0.5 : 1"
       inkscape:vp_y="0 : 1000 : 0"
       inkscape:vp_z="1 : 0.5 : 1"
       inkscape:persp3d-origin="0.5 : 0.33333333 : 1"
       id="perspective6327-1" />
    <inkscape:perspective
       id="perspective17-8"
       inkscape:persp3d-origin="24 : 16 : 1"
       inkscape:vp_z="48 : 24 : 1"
       inkscape:vp_y="0 : 1000 : 0"
       inkscape:vp_x="0 : 24 : 1"
       sodipodi:type="inkscape:persp3d" />
  </defs>
  <metadata
     id="metadata7">
    <rdf:RDF>
      <cc:Work
         rdf:about="">
        <dc:format>image/svg+xml</dc:format>
        <dc:type
           rdf:resource="http://purl.org/dc/dcmitype/StillImage" />
        <dc:title />
      </cc:Work>
    </rdf:RDF>
  </metadata>
  <g
     style="display:inline"
     id="layer1"
     inkscape:groupmode="layer"
     inkscape:label="Layer 1">
    <g
       id="g5533"
       transform="translate(2.5434175,-3.0898067)">
      <path
         id="path6515"
         d="m 32.682734,5.526013 c 0,-0.93365 -0.75168,-1.68534 -1.68535,-1.68533 L 8.4178037,3.927991 c 0,0 0,3.37066 0,3.37066 L 30.997384,7.211343 c 0.93367,0 1.68535,-0.75163 1.68535,-1.68533 z"
         style="fill:#000000;fill-opacity:1;stroke:none;display:inline"
         sodipodi:nodetypes="cccccc" />
      <path
         id="path7326-1"
         d="m 27.294559,15.594135 c 0,0.93365 0.75166,1.68534 1.68533,1.68533 l 10.551968,-0.06706 c 0.93368,-10e-6 1.68532,-0.75169 1.68532,-1.68534 0,-0.93369 -0.75164,-1.68532 -1.68532,-1.68531 l -10.551968,0.06706 c -0.93367,0 -1.68533,0.75163 -1.68533,1.68532 z"
         style="fill:#000000;fill-opacity:1;stroke:none;display:inline"
         sodipodi:nodetypes="cccsccc" />
      <path
         sodipodi:nodetypes="cccsccc"
         style="fill:#000000;fill-opacity:1;stroke:none;display:inline"
         d="m 28.963056,3.8548124 c -0.93365,0 -1.68534,0.75166 -1.68533,1.68533 l -10e-6,9.9264696 c 10e-6,0.93368 0.75169,1.68532 1.68534,1.68532 0.93369,0 1.68532,-0.75164 1.68531,-1.68532 l 10e-6,-9.9264696 c 0,-0.93367 -0.75163,-1.68533 -1.68532,-1.68533 z"
         id="path5553" />
      <path
         sodipodi:nodetypes="cccccc"
         style="fill:#000000;fill-opacity:1;stroke:none;display:inline"
         d="m 39.566525,12.288353 c -0.93367,0 -1.68535,0.75166 -1.68535,1.68534 l 0,28.483169 c 0,0 3.37067,0 3.37067,0 l 0,-28.483169 c 0,-0.93368 -0.75163,-1.68534 -1.68532,-1.68534 z"
         id="path5547" />
      <path
         id="path5557"
         d="m 30.156397,4.3377944 c -0.66019,0.6601901 -0.660211,1.7232192 0,2.3834164 l 8.224654,8.2246662 c 0.660219,0.660205 1.723227,0.660176 2.383416,-1.4e-5 0.660218,-0.660218 0.660212,-1.72319 -7e-6,-2.383395 L 32.539806,4.3378015 c -0.660204,-0.6602044 -1.723191,-0.6602256 -2.383409,-7.1e-6 z"
         style="fill:#000000;fill-opacity:1;stroke:none;display:inline"
         sodipodi:nodetypes="cccsccc" />
      <path
         sodipodi:nodetypes="cccccccccscc"
         id="path5538"
         d="m 8.4375,3.90625 c -0.9336695,0 -1.6875,0.75382 -1.6875,1.6875 l 0,13.09375 c 1.0567692,-0.663254 2.20775,-1.160533 3.375,-1.53125 l 0,-11.5625 c 0,-0.93368 -0.75381,-1.6875 -1.6875,-1.6875 z m 20.65625,36.875 3.375,3.375 7.125,0 c 0.93368,0 1.65624,-0.75384 1.65625,-1.6875 0,-0.9337 -0.72257,-1.6875 -1.65625,-1.6875 l -10.5,0 z"
         style="fill:#000000;fill-opacity:1;stroke:none;display:inline" />
      <path
         id="path5543"
         d="m 13.68336,18.1875 c -3.313122,0.224684 -6.5351515,1.717211 -8.8750005,4.40625 -4.67969857,5.378079 -4.08004517,13.586235 1.3125,18.28125 4.7184775,4.108137 11.5935775,4.207855 16.3750005,0.5625 l 0.03125,0 8.40625,8.40625 c 0.660204,0.660248 1.714767,0.660233 2.375,0 0.660182,-0.660182 0.660225,-1.746025 0,-2.40625 l -8.40625,-8.40625 c 4.126596,-5.372793 3.378414,-13.168036 -1.8125,-17.6875 -2.696272,-2.347507 -6.093128,-3.380934 -9.40625,-3.15625 z m 0.25,3.34375 c 2.447246,-0.163245 4.961222,0.627147 6.96875,2.375 4.015058,3.495706 4.421803,9.526964 0.9375,13.53125 -3.484303,4.004287 -9.516192,4.401956 -13.5312505,0.90625 C 4.2933024,34.848044 3.8553062,28.816787 7.3396095,24.8125 9.0817615,22.810356 11.486114,21.694495 13.93336,21.53125 z"
         style="fill:#000000;fill-opacity:1;stroke:none;display:inline" />
    </g>
  </g>
</svg>
