<?xml version="1.0" encoding="UTF-8" standalone="no"?>
<!-- Created with Inkscape (http://www.inkscape.org/) -->
<svg
   xmlns:dc="http://purl.org/dc/elements/1.1/"
   xmlns:cc="http://creativecommons.org/ns#"
   xmlns:rdf="http://www.w3.org/1999/02/22-rdf-syntax-ns#"
   xmlns:svg="http://www.w3.org/2000/svg"
   xmlns="http://www.w3.org/2000/svg"
   xmlns:sodipodi="http://sodipodi.sourceforge.net/DTD/sodipodi-0.dtd"
   xmlns:inkscape="http://www.inkscape.org/namespaces/inkscape"
   width="48"
   height="48"
   id="svg2"
   sodipodi:version="0.32"
   inkscape:version="0.46+devel r20679"
   sodipodi:docname="edit-cut.svg"
   inkscape:output_extension="org.inkscape.output.svg.inkscape"
   inkscape:export-filename="/home/hbons/Desktop/Intel/svn/moblin-ui-docs/in progress/draft visual UI/icons/icons.png"
   inkscape:export-xdpi="60.476192"
   inkscape:export-ydpi="60.476192"
   version="1.0">
  <sodipodi:namedview
     id="base"
     pagecolor="#ffffff"
     bordercolor="#dcdcdc"
     borderopacity="1"
     gridtolerance="10000"
     guidetolerance="10"
     objecttolerance="10"
     inkscape:pageopacity="0"
     inkscape:pageshadow="2"
     inkscape:zoom="1"
     inkscape:cx="31.975832"
     inkscape:cy="23.265192"
     inkscape:document-units="px"
     inkscape:current-layer="layer1"
     showgrid="false"
     inkscape:window-width="1280"
     inkscape:window-height="750"
     inkscape:window-x="0"
     inkscape:window-y="0"
     inkscape:snap-intersection-line-segments="false"
     inkscape:snap-bbox="true"
     inkscape:snap-nodes="false"
     inkscape:bbox-paths="true"
     inkscape:showpageshadow="false"
     showguides="false"
     inkscape:guide-bbox="true"
     inkscape:bbox-nodes="true"
     inkscape:snap-global="false">
    <inkscape:grid
       enabled="true"
       visible="true"
       id="grid4079"
       type="xygrid"
       empspacing="5" />
    <sodipodi:guide
       id="guide7317"
       position="566.05335,854.14667"
       orientation="1,0" />
  </sodipodi:namedview>
  <defs
     id="defs4" />
  <metadata
     id="metadata7">
    <rdf:RDF>
      <cc:Work
         rdf:about="">
        <dc:format>image/svg+xml</dc:format>
        <dc:type
           rdf:resource="http://purl.org/dc/dcmitype/StillImage" />
        <dc:title />
      </cc:Work>
    </rdf:RDF>
  </metadata>
  <g
     style="display:inline"
     id="layer1"
     inkscape:groupmode="layer"
     inkscape:label="Layer 1">
    <g
       id="g4107"
       transform="translate(-0.09126,0)">
      <rect
         transform="matrix(0.5,0.8660254,-0.8660254,0.5,0,0)"
         style="fill:#000000;fill-opacity:1;stroke:none"
         id="rect5570"
         width="21.112432"
         height="3.3710001"
         x="8.2162867"
         y="-13.451446"
         rx="1.6854998"
         ry="1.6855" />
      <path
         sodipodi:open="true"
         sodipodi:end="7.4092725"
         sodipodi:start="5.716335"
         transform="matrix(-0.29752029,0,0,-0.25838461,10.491204,54.401551)"
         d="m -6.4227312,167.09859 c 6.81182759,10.70144 3.6550412,24.91511 -7.0463978,31.72693 -0.832117,0.52967 -1.56351,0.93474 -2.453962,1.35908"
         sodipodi:ry="22.98097"
         sodipodi:rx="22.98097"
         sodipodi:cy="179.43886"
         sodipodi:cx="-25.809397"
         id="path5538"
         style="fill:none;stroke:#000000;stroke-width:12.15814114;stroke-linecap:round;stroke-miterlimit:4;stroke-opacity:1;stroke-dasharray:none;stroke-dashoffset:0;display:inline"
         sodipodi:type="arc" />
      <path
         sodipodi:open="true"
         sodipodi:end="6.7791855"
         sodipodi:start="1.4022865"
         sodipodi:type="arc"
         style="fill:none;stroke:#000000;stroke-width:10.22238159;stroke-linecap:round;stroke-miterlimit:4;stroke-opacity:1;stroke-dasharray:none;stroke-dashoffset:0;display:inline"
         id="path2889"
         sodipodi:cx="-25.809397"
         sodipodi:cy="179.43886"
         sodipodi:rx="22.98097"
         sodipodi:ry="22.98097"
         d="m -21.955178,202.09432 c -12.505816,2.12753 -24.382153,-6.29543 -26.509682,-18.80124 -2.127528,-12.50582 6.295429,-24.38216 18.801245,-26.50968 12.505816,-2.12753 24.3821527,6.29542 26.5096812,18.80124 0.9000301,5.29046 0.1101104,10.07135 -2.443857,14.79113"
         transform="matrix(-0.32992304,0,0,-0.32961027,23.202997,95.888786)" />
      <path
         sodipodi:type="arc"
         style="fill:#000000;fill-opacity:1;stroke:none;display:inline"
         id="path6398"
         sodipodi:cx="-25.809397"
         sodipodi:cy="179.43886"
         sodipodi:rx="22.98097"
         sodipodi:ry="22.98097"
         d="m -2.8284264,179.43886 c 0,12.68549 -10.2954746,22.98097 -22.9809706,22.98097 -12.685495,0 -22.98097,-10.29548 -22.98097,-22.98097 0,-12.6855 10.295475,-22.98097 22.98097,-22.98097 12.685496,0 22.9809706,10.29547 22.9809706,22.98097 z"
         transform="matrix(0.07683339,0.04435605,0.04431722,-0.07675318,25.748904,51.661201)" />
      <path
         transform="matrix(0.32992304,0,0,-0.32961027,24.979107,96.092567)"
         d="m -23.142004,202.2645 c -12.599756,1.4724 -24.020636,-7.55849 -25.493037,-20.15825 -1.4724,-12.59975 7.558496,-24.02064 20.158252,-25.49304 12.599755,-1.4724 24.0206355,7.5585 25.4930361,20.15826 0.5993668,5.12895 -0.3380346,9.67437 -2.9176812,14.14772"
         sodipodi:ry="22.98097"
         sodipodi:rx="22.98097"
         sodipodi:cy="179.43886"
         sodipodi:cx="-25.809397"
         id="path2970"
         style="fill:none;stroke:#000000;stroke-width:10.22238159;stroke-linecap:round;stroke-miterlimit:4;stroke-opacity:1;stroke-dasharray:none;stroke-dashoffset:0;display:inline"
         sodipodi:type="arc"
         sodipodi:start="1.4544645"
         sodipodi:end="6.806274"
         sodipodi:open="true" />
      <path
         transform="matrix(-0.07683339,0.04435605,-0.04431722,-0.07675318,22.4332,51.864982)"
         d="m -2.8284264,179.43886 c 0,12.68549 -10.2954746,22.98097 -22.9809706,22.98097 -12.685495,0 -22.98097,-10.29548 -22.98097,-22.98097 0,-12.6855 10.295475,-22.98097 22.98097,-22.98097 12.685496,0 22.9809706,10.29547 22.9809706,22.98097 z"
         sodipodi:ry="22.98097"
         sodipodi:rx="22.98097"
         sodipodi:cy="179.43886"
         sodipodi:cx="-25.809397"
         id="path2972"
         style="fill:#000000;fill-opacity:1;stroke:none;display:inline"
         sodipodi:type="arc" />
      <path
         sodipodi:nodetypes="ccsccsc"
         id="rect3002"
         d="m 14.283166,-6.7631426 17.234734,0.023066 c 0.933767,0 1.6855,0.751733 1.6855,1.6855 0,0.9337671 -0.751733,1.6855001 -1.6855,1.6855001 l -17.234734,-0.023066 c -0.933767,0 -1.6855,-0.751733 -1.6855,-1.6855001 0,-0.933767 0.751733,-1.6855 1.6855,-1.6855 z"
         style="fill:#000000;fill-opacity:1;stroke:none;display:inline"
         transform="matrix(0.5,0.8660254,-0.8660254,0.5,0,0)" />
      <rect
         ry="1.6855"
         rx="1.6854998"
         y="28.138781"
         x="-15.803066"
         height="3.3710001"
         width="21.112432"
         id="rect3070"
         style="fill:#000000;fill-opacity:1;stroke:none"
         transform="matrix(-0.5,0.8660254,0.8660254,0.5,0,0)" />
      <rect
         transform="matrix(0.5,-0.8660254,0.8660254,0.5,0,0)"
         style="fill:#000000;fill-opacity:1;stroke:none;display:inline"
         id="rect3002-8"
         width="8.7438679"
         height="3.3710001"
         x="-18.434713"
         y="28.130501"
         rx="1.6854999"
         ry="1.6855" />
      <path
         sodipodi:nodetypes="ccsccsc"
         id="rect3094"
         d="m -9.5602362,34.826118 17.0753812,0.02807 c 0.9337669,0 1.6854997,0.751733 1.6854997,1.6855 0,0.933768 -0.7517328,1.685501 -1.6854997,1.685501 l -17.0753812,-0.02807 c -0.9337668,0 -1.6854998,-0.751733 -1.6854998,-1.685501 0,-0.933767 0.751733,-1.6855 1.6854998,-1.6855 z"
         style="fill:#000000;fill-opacity:1;stroke:none;display:inline"
         transform="matrix(-0.5,0.8660254,0.8660254,0.5,0,0)" />
      <path
         transform="matrix(-0.5,-0.8660254,-0.8660254,0.5,0,0)"
         style="fill:#000000;fill-opacity:1;stroke:none;display:inline"
         d="m -40.42108,-13.400283 4.978574,-0.04673 c 0.933767,0 1.6855,0.751733 1.6855,1.6855 0,0.933767 -0.751733,1.6855 -1.6855,1.6855 l -4.978574,0.04673 c -0.933767,0 -1.6855,-0.751733 -1.6855,-1.6855 0,-0.933767 0.751733,-1.6855 1.6855,-1.6855 z"
         id="rect3096"
         sodipodi:nodetypes="ccsccsc" />
      <path
         sodipodi:type="arc"
         style="fill:none;stroke:#000000;stroke-width:12.15814114;stroke-linecap:round;stroke-miterlimit:4;stroke-opacity:1;stroke-dasharray:none;stroke-dashoffset:0;display:inline"
         id="path3914"
         sodipodi:cx="-25.809397"
         sodipodi:cy="179.43886"
         sodipodi:rx="22.98097"
         sodipodi:ry="22.98097"
         d="m -6.4227312,167.09859 c 6.81182759,10.70144 3.6550412,24.91511 -7.0463978,31.72693 -0.832117,0.52967 -1.56351,0.93474 -2.453962,1.35908"
         transform="matrix(0.29752029,0,0,-0.25838461,37.535338,54.401551)"
         sodipodi:start="5.716335"
         sodipodi:end="7.4092725"
         sodipodi:open="true" />
      <path
         sodipodi:nodetypes="cccc"
         id="rect4104"
         d="m 24.051191,28.065672 2.476687,4.275068 -5.037663,0.116367 2.560976,-4.391435 z"
         style="fill:#000000;fill-opacity:1;stroke:none" />
    </g>
  </g>
</svg>
