<?xml version="1.0" encoding="UTF-8" standalone="no"?>
<!-- Created with Inkscape (http://www.inkscape.org/) -->
<svg
   xmlns:dc="http://purl.org/dc/elements/1.1/"
   xmlns:cc="http://creativecommons.org/ns#"
   xmlns:rdf="http://www.w3.org/1999/02/22-rdf-syntax-ns#"
   xmlns:svg="http://www.w3.org/2000/svg"
   xmlns="http://www.w3.org/2000/svg"
   xmlns:sodipodi="http://sodipodi.sourceforge.net/DTD/sodipodi-0.dtd"
   xmlns:inkscape="http://www.inkscape.org/namespaces/inkscape"
   width="48"
   height="48"
   id="svg2"
   sodipodi:version="0.32"
   inkscape:version="0.46+devel"
   sodipodi:docname="folder-new.svg"
   inkscape:output_extension="org.inkscape.output.svg.inkscape"
   inkscape:export-filename="/home/hbons/Desktop/Intel/icons.png"
   inkscape:export-xdpi="90"
   inkscape:export-ydpi="90"
   version="1.0">
  <defs
     id="defs4" />
  <sodipodi:namedview
     id="base"
     pagecolor="#ffffff"
     bordercolor="#666666"
     borderopacity="1.0"
     gridtolerance="10000"
     guidetolerance="10"
     objecttolerance="10"
     inkscape:pageopacity="0.0"
     inkscape:pageshadow="2"
     inkscape:zoom="8"
     inkscape:cx="50.655835"
     inkscape:cy="18.710426"
     inkscape:document-units="px"
     inkscape:current-layer="layer1"
     showgrid="false"
     inkscape:window-width="1280"
     inkscape:window-height="750"
     inkscape:window-x="0"
     inkscape:window-y="0"
     inkscape:snap-intersection-line-segments="false"
     inkscape:snap-bbox="false"
     inkscape:snap-nodes="true"
     inkscape:bbox-paths="true">
    <inkscape:grid
       type="xygrid"
       id="grid4079"
       visible="true"
       enabled="true"
       empspacing="5" />
  </sodipodi:namedview>
  <metadata
     id="metadata7">
    <rdf:RDF>
      <cc:Work
         rdf:about="">
        <dc:format>image/svg+xml</dc:format>
        <dc:type
           rdf:resource="http://purl.org/dc/dcmitype/StillImage" />
        <dc:title />
      </cc:Work>
    </rdf:RDF>
  </metadata>
  <g
     inkscape:label="Layer 1"
     inkscape:groupmode="layer"
     id="layer1"
     transform="translate(-9.3897648,-13.175828)">
    <path
       style="fill:#000000;fill-opacity:1;stroke:none"
       d="m 80.768048,22.123748 c -0.933767,0 -1.6875,0.753733 -1.6875,1.6875 l 0,2 c 0,0.933767 0.753733,1.6875 1.6875,1.6875 0.933767,0 1.6875,-0.753733 1.6875,-1.6875 l 0,-2 c 0,-0.933767 -0.753733,-1.6875 -1.6875,-1.6875 z m -4.34375,2.625 c -0.430846,0 -0.888614,0.169863 -1.21875,0.5 -0.660273,0.660273 -0.660273,1.714727 0,2.375 l 0.84375,0.84375 c 0.660273,0.660273 1.714727,0.660273 2.375,0 0.660273,-0.660273 0.660273,-1.714727 0,-2.375 l -0.8125,-0.84375 c -0.330136,-0.330137 -0.756654,-0.5 -1.1875,-0.5 z m 8.6875,0 c -0.430846,0 -0.857364,0.169863 -1.1875,0.5 l -0.84375,0.84375 c -0.660273,0.660273 -0.660273,1.714727 0,2.375 0.660273,0.660273 1.745977,0.660273 2.40625,0 l 0.8125,-0.84375 c 0.660273,-0.660273 0.660273,-1.714727 0,-2.375 -0.330136,-0.330137 -0.756654,-0.5 -1.1875,-0.5 z m -11.34375,4.375 c -0.933767,0 -1.6875,0.722483 -1.6875,1.65625 0,0.933767 0.753733,1.6875 1.6875,1.6875 l 2.03125,0 c 0.933767,0 1.6875,-0.753733 1.6875,-1.6875 0,-0.933767 -0.753733,-1.65625 -1.6875,-1.65625 l -2.03125,0 z m 11.96875,0 c -0.933767,0 -1.6875,0.722483 -1.6875,1.65625 0,0.933767 0.753733,1.6875 1.6875,1.6875 l 2,0 c 0.933767,0 1.6875,-0.753733 1.6875,-1.6875 0,-0.933767 -0.753733,-1.65625 -1.6875,-1.65625 l -2,0 z m -8.5,3.5 c -0.430846,0 -0.857364,0.169864 -1.1875,0.5 l -0.84375,0.84375 c -0.660273,0.660273 -0.660273,1.714727 0,2.375 0.660273,0.660273 1.745977,0.660273 2.40625,0 l 0.8125,-0.84375 c 0.660273,-0.660273 0.660273,-1.714727 0,-2.375 -0.330136,-0.330136 -0.756654,-0.5 -1.1875,-0.5 z m 7.0625,0 c -0.430846,0 -0.888614,0.169864 -1.21875,0.5 -0.660273,0.660273 -0.660273,1.714727 0,2.375 l 0.84375,0.84375 c 0.660273,0.660273 1.714727,0.660273 2.375,0 0.660273,-0.660273 0.660273,-1.714727 0,-2.375 l -0.8125,-0.84375 c -0.330136,-0.330136 -0.756654,-0.5 -1.1875,-0.5 z m -3.53125,1.46875 c -0.933767,0 -1.6875,0.753733 -1.6875,1.6875 l 0,2 c 0,0.933767 0.753733,1.6875 1.6875,1.6875 0.933767,0 1.6875,-0.753733 1.6875,-1.6875 l 0,-2 c 0,-0.933767 -0.753733,-1.6875 -1.6875,-1.6875 z"
       id="rect5853-4"
       sodipodi:nodetypes="cccsccccsccsccccccsccsccsccscccsccscccccsccsccsccsccccccsccc" />
    <path
       sodipodi:type="inkscape:offset"
       inkscape:radius="1.7192161"
       inkscape:original="M 57.1875 7.40625 C 56.253733 7.40625 55.5 8.159983 55.5 9.09375 L 55.5 11.09375 C 55.5 12.027517 56.253733 12.78125 57.1875 12.78125 C 58.121267 12.78125 58.875 12.027517 58.875 11.09375 L 58.875 9.09375 C 58.875 8.159983 58.121267 7.40625 57.1875 7.40625 z M 52.84375 10.03125 C 52.412904 10.03125 51.955136 10.201113 51.625 10.53125 C 50.964727 11.191523 50.964727 12.245977 51.625 12.90625 L 52.46875 13.75 C 53.129023 14.410273 54.183477 14.410273 54.84375 13.75 C 55.504023 13.089727 55.504023 12.035273 54.84375 11.375 L 54.03125 10.53125 C 53.701114 10.201113 53.274596 10.03125 52.84375 10.03125 z M 61.53125 10.03125 C 61.100404 10.03125 60.673886 10.201113 60.34375 10.53125 L 59.5 11.375 C 58.839727 12.035273 58.839727 13.089727 59.5 13.75 C 60.160273 14.410273 61.245977 14.410273 61.90625 13.75 L 62.71875 12.90625 C 63.379023 12.245977 63.379023 11.191523 62.71875 10.53125 C 62.388614 10.201113 61.962096 10.03125 61.53125 10.03125 z M 50.1875 14.40625 C 49.253733 14.40625 48.5 15.128733 48.5 16.0625 C 48.5 16.996267 49.253733 17.75 50.1875 17.75 L 52.21875 17.75 C 53.152517 17.75 53.90625 16.996267 53.90625 16.0625 C 53.90625 15.128733 53.152517 14.40625 52.21875 14.40625 L 50.1875 14.40625 z M 62.15625 14.40625 C 61.222483 14.40625 60.46875 15.128733 60.46875 16.0625 C 60.46875 16.996267 61.222483 17.75 62.15625 17.75 L 64.15625 17.75 C 65.090017 17.75 65.84375 16.996267 65.84375 16.0625 C 65.84375 15.128733 65.090017 14.40625 64.15625 14.40625 L 62.15625 14.40625 z M 53.65625 17.90625 C 53.225404 17.90625 52.798886 18.076114 52.46875 18.40625 L 51.625 19.25 C 50.964727 19.910273 50.964727 20.964727 51.625 21.625 C 52.285273 22.285273 53.370977 22.285273 54.03125 21.625 L 54.84375 20.78125 C 55.504023 20.120977 55.504023 19.066523 54.84375 18.40625 C 54.513614 18.076114 54.087096 17.90625 53.65625 17.90625 z M 60.71875 17.90625 C 60.287904 17.90625 59.830136 18.076114 59.5 18.40625 C 58.839727 19.066523 58.839727 20.120977 59.5 20.78125 L 60.34375 21.625 C 61.004023 22.285273 62.058477 22.285273 62.71875 21.625 C 63.379023 20.964727 63.379023 19.910273 62.71875 19.25 L 61.90625 18.40625 C 61.576114 18.076114 61.149596 17.90625 60.71875 17.90625 z M 57.1875 19.375 C 56.253733 19.375 55.5 20.128733 55.5 21.0625 L 55.5 23.0625 C 55.5 23.996267 56.253733 24.75 57.1875 24.75 C 58.121267 24.75 58.875 23.996267 58.875 23.0625 L 58.875 21.0625 C 58.875 20.128733 58.121267 19.375 57.1875 19.375 z "
       style="opacity:0.84946241;fill:#a7a7a7;fill-opacity:1;stroke:none"
       id="path6693"
       d="m 57.1875,5.6875 c -1.659435,0 -2.997408,1.2566441 -3.28125,2.84375 -0.348209,-0.1185912 -0.695754,-0.21875 -1.0625,-0.21875 -0.882719,0 -1.753977,0.3164749 -2.4375,1 -0.925304,0.925304 -1.134439,2.284596 -0.75,3.46875 -1.581897,0.264477 -2.875,1.609942 -2.875,3.28125 0,1.670014 1.273273,3.010104 2.875,3.28125 -0.39859,1.190859 -0.182983,2.567017 0.75,3.5 0.940153,0.940153 2.308838,1.173666 3.5,0.78125 0.283842,1.587106 1.621815,2.84375 3.28125,2.84375 1.670014,0 3.010104,-1.273273 3.28125,-2.875 1.184154,0.384439 2.543446,0.175304 3.46875,-0.75 0.932983,-0.932983 1.14859,-2.309141 0.75,-3.5 1.601727,-0.271146 2.875,-1.611236 2.875,-3.28125 0,-1.660631 -1.275806,-3.00415 -2.84375,-3.28125 0.389853,-1.183119 0.150596,-2.536904 -0.78125,-3.46875 -0.645166,-0.6451675 -1.523531,-1 -2.40625,-1 -0.366746,0 -0.714291,0.1001588 -1.0625,0.21875 C 60.184908,6.9441441 58.846935,5.6875 57.1875,5.6875 z m -0.71875,8.65625 c 0.239801,0.05491 0.464092,0.15625 0.71875,0.15625 0.244079,0 0.456948,-0.105682 0.6875,-0.15625 0.13155,0.212145 0.223749,0.442499 0.40625,0.625 0.182832,0.182832 0.414072,0.273814 0.625,0.40625 -0.05163,0.229616 -0.15625,0.443421 -0.15625,0.6875 0,0.254658 0.101335,0.478949 0.15625,0.71875 -0.208495,0.13254 -0.44015,0.2214 -0.625,0.40625 -0.182501,0.182501 -0.2747,0.412855 -0.40625,0.625 -0.230552,-0.05057 -0.443421,-0.15625 -0.6875,-0.15625 -0.254658,0 -0.478949,0.101335 -0.71875,0.15625 -0.131265,-0.208387 -0.226062,-0.444812 -0.40625,-0.625 -0.17163,-0.17163 -0.393741,-0.276559 -0.59375,-0.40625 0.05492,-0.239801 0.15625,-0.464092 0.15625,-0.71875 0,-0.254658 -0.100192,-0.479962 -0.15625,-0.71875 0.198492,-0.126713 0.421816,-0.203066 0.59375,-0.375 0.182501,-0.182501 0.2747,-0.412855 0.40625,-0.625 z"
       transform="translate(23.584128,14.732152)" />
    <g
       id="g6742"
       transform="translate(-0.98234876,0)">
      <rect
         transform="scale(1,-1)"
         style="fill:#000000;fill-opacity:1;stroke:none"
         id="rect5820"
         width="36.627216"
         height="3.3710001"
         x="15.031672"
         y="-56.150887"
         rx="1.6854998"
         ry="1.6855" />
      <rect
         ry="1.6855"
         rx="1.6855001"
         y="-21.588636"
         x="15.409928"
         height="3.3710001"
         width="12.659883"
         id="rect6653"
         style="fill:#000000;fill-opacity:1;stroke:none"
         transform="scale(1,-1)" />
      <path
         sodipodi:open="true"
         sodipodi:type="arc"
         style="fill:none;stroke:#000000;stroke-width:20.53379822;stroke-linecap:round;stroke-miterlimit:4;stroke-opacity:1;stroke-dasharray:none;stroke-dashoffset:0;display:inline"
         id="path6419-7"
         sodipodi:cx="-25.809397"
         sodipodi:cy="179.43886"
         sodipodi:rx="22.98097"
         sodipodi:ry="22.98097"
         d="m -25.809396,202.41983 c -12.685496,0 -22.980971,-10.29548 -22.980971,-22.98097 0,0 0,0 0,0"
         transform="matrix(0.16424416,0,0,-0.16405989,20.950167,53.092631)"
         sodipodi:start="1.5707963"
         sodipodi:end="3.1415927" />
      <path
         sodipodi:end="3.1415927"
         sodipodi:start="1.5707963"
         transform="matrix(0.16424416,0,0,0.16405989,20.936924,21.228137)"
         d="m -25.809396,202.41983 c -12.685496,0 -22.980971,-10.29548 -22.980971,-22.98097 0,0 0,0 0,0"
         sodipodi:ry="22.98097"
         sodipodi:rx="22.98097"
         sodipodi:cy="179.43886"
         sodipodi:cx="-25.809397"
         id="path5901"
         style="fill:none;stroke:#000000;stroke-width:20.53379822;stroke-linecap:round;stroke-miterlimit:4;stroke-opacity:1;stroke-dasharray:none;stroke-dashoffset:0;display:inline"
         sodipodi:type="arc"
         sodipodi:open="true" />
      <path
         id="rect5825"
         transform="translate(9.3897648,13.175828)"
         d="m 20.75,11.9375 c -0.933767,0 -1.6875,0.753733 -1.6875,1.6875 0,0.933767 0.753733,1.6875 1.6875,1.6875 l 11.1875,0 c -0.363363,-1.149414 -0.175738,-2.45924 0.6875,-3.375 l -11.875,0 z m 25.40625,13.53125 c -0.915205,0.865325 -2.224792,1.050164 -3.375,0.6875 l 0,10.5625 c 0,0.933767 0.753733,1.6875 1.6875,1.6875 0.933767,0 1.6875,-0.753733 1.6875,-1.6875 l 0,-11.25 z"
         style="fill:#000000;fill-opacity:1;stroke:none" />
      <rect
         transform="matrix(0,-1,1,0,0,0)"
         style="fill:#000000;fill-opacity:1;stroke:none"
         id="rect5829"
         width="29.778616"
         height="3.3710001"
         x="-51.91803"
         y="11.247901"
         rx="1.6855"
         ry="1.6855" />
      <path
         sodipodi:open="true"
         sodipodi:type="arc"
         style="fill:none;stroke:#000000;stroke-width:20.53379822;stroke-linecap:round;stroke-miterlimit:4;stroke-opacity:1;stroke-dasharray:none;stroke-dashoffset:0;display:inline"
         id="path5831"
         sodipodi:cx="-25.809397"
         sodipodi:cy="179.43886"
         sodipodi:rx="22.98097"
         sodipodi:ry="22.98097"
         d="m -25.809396,202.41983 c -12.685496,0 -22.980971,-10.29548 -22.980971,-22.98097 0,0 0,0 0,0"
         transform="matrix(-0.16424416,0,0,0.16405989,45.842605,21.259025)"
         sodipodi:start="1.5707963"
         sodipodi:end="3.1415927" />
      <path
         sodipodi:end="3.1415927"
         sodipodi:start="1.5707963"
         transform="matrix(-0.16424416,0,0,-0.16405989,22.160678,53.092631)"
         d="m -25.809396,202.41983 c -12.685496,0 -22.980971,-10.29548 -22.980971,-22.98097 0,0 0,0 0,0"
         sodipodi:ry="22.98097"
         sodipodi:rx="22.98097"
         sodipodi:cy="179.43886"
         sodipodi:cx="-25.809397"
         id="path5839"
         style="fill:none;stroke:#000000;stroke-width:20.53379822;stroke-linecap:round;stroke-miterlimit:4;stroke-opacity:1;stroke-dasharray:none;stroke-dashoffset:0;display:inline"
         sodipodi:type="arc"
         sodipodi:open="true" />
      <rect
         ry="1.6855"
         rx="1.6854998"
         y="28.453478"
         x="-28.476114"
         height="3.3710001"
         width="6.4400616"
         id="rect5853"
         style="fill:#000000;fill-opacity:1;stroke:none"
         transform="matrix(0,-1,1,0,0,0)" />
      <path
         style="fill:#000000;fill-opacity:1;stroke:none"
         d="m 48.849918,23.115387 c -0.933767,0 -1.6875,0.753733 -1.6875,1.6875 l 0,2 c 0,0.933767 0.753733,1.6875 1.6875,1.6875 0.933767,0 1.6875,-0.753733 1.6875,-1.6875 l 0,-2 c 0,-0.933767 -0.753733,-1.6875 -1.6875,-1.6875 z m -4.34375,2.625 c -0.430846,0 -0.888614,0.169863 -1.21875,0.5 -0.660273,0.660273 -0.660273,1.714727 0,2.375 l 0.84375,0.84375 c 0.660273,0.660273 1.714727,0.660273 2.375,0 0.660273,-0.660273 0.660273,-1.714727 0,-2.375 l -0.8125,-0.84375 c -0.330136,-0.330137 -0.756654,-0.5 -1.1875,-0.5 z m 8.6875,0 c -0.430846,0 -0.857364,0.169863 -1.1875,0.5 l -0.84375,0.84375 c -0.660273,0.660273 -0.660273,1.714727 0,2.375 0.660273,0.660273 1.745977,0.660273 2.40625,0 l 0.8125,-0.84375 c 0.660273,-0.660273 0.660273,-1.714727 0,-2.375 -0.330136,-0.330137 -0.756654,-0.5 -1.1875,-0.5 z m -11.34375,4.375 c -0.933767,0 -1.6875,0.722483 -1.6875,1.65625 0,0.933767 0.753733,1.6875 1.6875,1.6875 l 2.03125,0 c 0.933767,0 1.6875,-0.753733 1.6875,-1.6875 0,-0.933767 -0.753733,-1.65625 -1.6875,-1.65625 l -2.03125,0 z m 11.96875,0 c -0.933767,0 -1.6875,0.722483 -1.6875,1.65625 0,0.933767 0.753733,1.6875 1.6875,1.6875 l 2,0 c 0.933767,0 1.6875,-0.753733 1.6875,-1.6875 0,-0.933767 -0.753733,-1.65625 -1.6875,-1.65625 l -2,0 z m -8.5,3.5 c -0.430846,0 -0.857364,0.169864 -1.1875,0.5 l -0.84375,0.84375 c -0.660273,0.660273 -0.660273,1.714727 0,2.375 0.660273,0.660273 1.745977,0.660273 2.40625,0 l 0.8125,-0.84375 c 0.660273,-0.660273 0.660273,-1.714727 0,-2.375 -0.330136,-0.330136 -0.756654,-0.5 -1.1875,-0.5 z m 7.0625,0 c -0.430846,0 -0.888614,0.169864 -1.21875,0.5 -0.660273,0.660273 -0.660273,1.714727 0,2.375 l 0.84375,0.84375 c 0.660273,0.660273 1.714727,0.660273 2.375,0 0.660273,-0.660273 0.660273,-1.714727 0,-2.375 l -0.8125,-0.84375 c -0.330136,-0.330136 -0.756654,-0.5 -1.1875,-0.5 z m -3.53125,1.46875 c -0.933767,0 -1.6875,0.753733 -1.6875,1.6875 l 0,2 c 0,0.933767 0.753733,1.6875 1.6875,1.6875 0.933767,0 1.6875,-0.753733 1.6875,-1.6875 l 0,-2 c 0,-0.933767 -0.753733,-1.6875 -1.6875,-1.6875 z"
         id="path6730"
         sodipodi:nodetypes="cccsccccsccsccccccsccsccsccscccsccscccccsccsccsccsccccccsccc" />
    </g>
  </g>
</svg>
