<?xml version="1.0" encoding="UTF-8" standalone="no"?>
<!-- Created with Inkscape (http://www.inkscape.org/) -->
<svg
   xmlns:dc="http://purl.org/dc/elements/1.1/"
   xmlns:cc="http://creativecommons.org/ns#"
   xmlns:rdf="http://www.w3.org/1999/02/22-rdf-syntax-ns#"
   xmlns:svg="http://www.w3.org/2000/svg"
   xmlns="http://www.w3.org/2000/svg"
   xmlns:sodipodi="http://sodipodi.sourceforge.net/DTD/sodipodi-0.dtd"
   xmlns:inkscape="http://www.inkscape.org/namespaces/inkscape"
   width="48"
   height="48"
   id="svg2"
   sodipodi:version="0.32"
   inkscape:version="0.46+devel"
   sodipodi:docname="format-justify-fill.svg"
   inkscape:output_extension="org.inkscape.output.svg.inkscape"
   inkscape:export-filename="/home/hbons/Desktop/Intel/svn/moblin-ui-docs/in progress/draft visual UI/icons/icons.png"
   inkscape:export-xdpi="60.476192"
   inkscape:export-ydpi="60.476192"
   version="1.0">
  <sodipodi:namedview
     id="base"
     pagecolor="#ffffff"
     bordercolor="#dcdcdc"
     borderopacity="1"
     gridtolerance="10000"
     guidetolerance="10"
     objecttolerance="10"
     inkscape:pageopacity="0"
     inkscape:pageshadow="2"
     inkscape:zoom="1"
     inkscape:cx="166.95406"
     inkscape:cy="-60.929085"
     inkscape:document-units="px"
     inkscape:current-layer="layer1"
     showgrid="false"
     inkscape:window-width="1280"
     inkscape:window-height="750"
     inkscape:window-x="0"
     inkscape:window-y="0"
     inkscape:snap-intersection-line-segments="false"
     inkscape:snap-bbox="true"
     inkscape:snap-nodes="false"
     inkscape:bbox-paths="true"
     inkscape:showpageshadow="false"
     showguides="false"
     inkscape:guide-bbox="true"
     inkscape:bbox-nodes="true"
     inkscape:snap-global="false">
    <inkscape:grid
       enabled="true"
       visible="true"
       id="grid4079"
       type="xygrid"
       empspacing="5" />
    <sodipodi:guide
       id="guide7317"
       position="566.05335,854.14667"
       orientation="1,0" />
  </sodipodi:namedview>
  <defs
     id="defs4">
    <inkscape:perspective
       sodipodi:type="inkscape:persp3d"
       inkscape:vp_x="0 : 24 : 1"
       inkscape:vp_y="0 : 1000 : 0"
       inkscape:vp_z="48 : 24 : 1"
       inkscape:persp3d-origin="24 : 16 : 1"
       id="perspective22" />
    <inkscape:perspective
       id="perspective5539"
       inkscape:persp3d-origin="0.5 : 0.33333333 : 1"
       inkscape:vp_z="1 : 0.5 : 1"
       inkscape:vp_y="0 : 1000 : 0"
       inkscape:vp_x="0 : 0.5 : 1"
       sodipodi:type="inkscape:persp3d" />
    <inkscape:perspective
       sodipodi:type="inkscape:persp3d"
       inkscape:vp_x="0 : 0.5 : 1"
       inkscape:vp_y="0 : 1000 : 0"
       inkscape:vp_z="1 : 0.5 : 1"
       inkscape:persp3d-origin="0.5 : 0.33333333 : 1"
       id="perspective6334" />
    <inkscape:perspective
       sodipodi:type="inkscape:persp3d"
       inkscape:vp_x="0 : 0.5 : 1"
       inkscape:vp_y="0 : 1000 : 0"
       inkscape:vp_z="1 : 0.5 : 1"
       inkscape:persp3d-origin="0.5 : 0.33333333 : 1"
       id="perspective5534" />
    <inkscape:perspective
       sodipodi:type="inkscape:persp3d"
       inkscape:vp_x="0 : 0.5 : 1"
       inkscape:vp_y="0 : 1000 : 0"
       inkscape:vp_z="1 : 0.5 : 1"
       inkscape:persp3d-origin="0.5 : 0.33333333 : 1"
       id="perspective6327" />
    <inkscape:perspective
       id="perspective17"
       inkscape:persp3d-origin="24 : 16 : 1"
       inkscape:vp_z="48 : 24 : 1"
       inkscape:vp_y="0 : 1000 : 0"
       inkscape:vp_x="0 : 24 : 1"
       sodipodi:type="inkscape:persp3d" />
    <inkscape:perspective
       id="perspective13"
       inkscape:persp3d-origin="24 : 16 : 1"
       inkscape:vp_z="48 : 24 : 1"
       inkscape:vp_y="0 : 1000 : 0"
       inkscape:vp_x="0 : 24 : 1"
       sodipodi:type="inkscape:persp3d" />
  </defs>
  <metadata
     id="metadata7">
    <rdf:RDF>
      <cc:Work
         rdf:about="">
        <dc:format>image/svg+xml</dc:format>
        <dc:type
           rdf:resource="http://purl.org/dc/dcmitype/StillImage" />
        <dc:title />
      </cc:Work>
    </rdf:RDF>
  </metadata>
  <g
     style="display:inline"
     id="layer1"
     inkscape:groupmode="layer"
     inkscape:label="Layer 1">
    <path
       sodipodi:nodetypes="cccccc"
       style="fill:#000000;fill-opacity:1;stroke:none;display:inline"
       d="m 41.21144,5.4729768 c 0,-0.93365 -0.75168,-1.68534 -1.68535,-1.68533 L 8.4118685,3.8749548 c 0,0 0,3.37066 0,3.37066 L 39.52609,7.1583068 c 0.93367,0 1.68535,-0.75163 1.68535,-1.68533 z"
       id="path6515" />
    <path
       id="path5547"
       d="m 39.560589,3.7830751 c -0.93367,0 -1.68535,0.75166 -1.68535,1.68534 l 0,37.0783139 c 0,0 3.37067,0 3.37067,0 l 0,-37.0783139 c 0,-0.93368 -0.75163,-1.68534 -1.68532,-1.68534 z"
       style="fill:#000000;fill-opacity:1;stroke:none;display:inline"
       sodipodi:nodetypes="cccccc" />
    <path
       sodipodi:nodetypes="cccccc"
       style="fill:#000000;fill-opacity:1;stroke:none;display:inline"
       d="m 8.4394403,3.8679871 c -0.9336695,0 -1.6853495,0.75166 -1.6853495,1.68534 l 0,36.9834399 c 0,0 3.3706702,0 3.3706702,0 l 0,-36.9834399 c 0,-0.93368 -0.7516307,-1.68534 -1.6853207,-1.68534 z"
       id="path5540" />
    <path
       style="fill:#000000;fill-opacity:1;stroke:none"
       d="m 34.414358,13.893483 c 8e-6,0.933658 -0.751654,1.685333 -1.685339,1.685341 l -17.543965,-10e-7 c -0.933663,0 -1.685325,-0.75169 -1.685325,-1.685325 0,-0.93372 0.751654,-1.685347 1.685333,-1.685333 l 17.543971,-7e-6 c 0.933657,-7e-6 1.685319,0.751626 1.685325,1.685325 z"
       id="path5522"
       sodipodi:nodetypes="cccsccc" />
    <path
       sodipodi:nodetypes="cccsccc"
       id="path6359"
       d="m 34.425855,20.642616 c 8e-6,0.933658 -0.751654,1.685333 -1.685339,1.685341 l -17.50564,-1e-6 c -0.933663,0 -1.685325,-0.75169 -1.685325,-1.685325 0,-0.93372 0.751654,-1.685347 1.685333,-1.685333 l 17.505646,-7e-6 c 0.933657,-7e-6 1.685318,0.751626 1.685325,1.685325 z"
       style="fill:#000000;fill-opacity:1;stroke:none" />
    <path
       style="fill:#000000;fill-opacity:1;stroke:none"
       d="m 34.429688,27.284437 c 8e-6,0.933658 -0.751654,1.685333 -1.685339,1.685341 l -17.509473,-1e-6 c -0.933663,0 -1.685325,-0.75169 -1.685325,-1.685325 0,-0.93372 0.751654,-1.685347 1.685333,-1.685333 l 17.509479,-7e-6 c 0.933657,-7e-6 1.685318,0.751626 1.685325,1.685325 z"
       id="path6361"
       sodipodi:nodetypes="cccsccc" />
    <path
       sodipodi:nodetypes="cccsccc"
       id="path6363"
       d="m 34.437353,34.029737 c 8e-6,0.933658 -0.751654,1.685333 -1.685339,1.685341 l -17.517138,-10e-7 c -0.933663,0 -1.685325,-0.75169 -1.685325,-1.685325 0,-0.93372 0.751654,-1.685347 1.685333,-1.685333 l 17.517144,-7e-6 c 0.933657,-7e-6 1.685318,0.751626 1.685325,1.685325 z"
       style="fill:#000000;fill-opacity:1;stroke:none" />
    <path
       style="fill:#000000;fill-opacity:1;stroke:none"
       d="m 41.243457,42.531581 c 8e-6,0.933658 -0.751654,1.685336 -1.685339,1.685344 L 8.4747093,44.206384 c -0.9336631,0 -1.7137804,-0.75169 -1.7137804,-1.685325 0,-0.93372 0.7801094,-1.685347 1.7137884,-1.685333 l 31.0834147,0.01053 c 0.933657,-7e-6 1.685319,0.751626 1.685325,1.685325 z"
       id="path6410"
       sodipodi:nodetypes="cccsccc" />
  </g>
</svg>
