<?xml version="1.0" encoding="UTF-8" standalone="no"?>
<!-- Created with Inkscape (http://www.inkscape.org/) -->
<svg
   xmlns:dc="http://purl.org/dc/elements/1.1/"
   xmlns:cc="http://creativecommons.org/ns#"
   xmlns:rdf="http://www.w3.org/1999/02/22-rdf-syntax-ns#"
   xmlns:svg="http://www.w3.org/2000/svg"
   xmlns="http://www.w3.org/2000/svg"
   xmlns:sodipodi="http://sodipodi.sourceforge.net/DTD/sodipodi-0.dtd"
   xmlns:inkscape="http://www.inkscape.org/namespaces/inkscape"
   width="48"
   height="48"
   id="svg2"
   sodipodi:version="0.32"
   inkscape:version="0.46+devel"
   sodipodi:docname="format-indent-less.svg"
   inkscape:output_extension="org.inkscape.output.svg.inkscape"
   inkscape:export-filename="/home/hbons/Desktop/Intel/svn/moblin-ui-docs/in progress/draft visual UI/icons/icons.png"
   inkscape:export-xdpi="60.476192"
   inkscape:export-ydpi="60.476192"
   version="1.0">
  <sodipodi:namedview
     id="base"
     pagecolor="#ffffff"
     bordercolor="#dcdcdc"
     borderopacity="1"
     gridtolerance="10000"
     guidetolerance="10"
     objecttolerance="10"
     inkscape:pageopacity="0"
     inkscape:pageshadow="2"
     inkscape:zoom="11.313708"
     inkscape:cx="35.285888"
     inkscape:cy="21.805536"
     inkscape:document-units="px"
     inkscape:current-layer="layer1"
     showgrid="false"
     inkscape:window-width="1280"
     inkscape:window-height="750"
     inkscape:window-x="0"
     inkscape:window-y="0"
     inkscape:snap-intersection-line-segments="false"
     inkscape:snap-bbox="true"
     inkscape:snap-nodes="false"
     inkscape:bbox-paths="true"
     inkscape:showpageshadow="false"
     showguides="false"
     inkscape:guide-bbox="true"
     inkscape:bbox-nodes="true"
     inkscape:snap-global="false">
    <inkscape:grid
       enabled="true"
       visible="true"
       id="grid4079"
       type="xygrid"
       empspacing="5" />
    <sodipodi:guide
       id="guide7317"
       position="566.05335,854.14667"
       orientation="1,0" />
  </sodipodi:namedview>
  <defs
     id="defs4" />
  <metadata
     id="metadata7">
    <rdf:RDF>
      <cc:Work
         rdf:about="">
        <dc:format>image/svg+xml</dc:format>
        <dc:type
           rdf:resource="http://purl.org/dc/dcmitype/StillImage" />
        <dc:title></dc:title>
      </cc:Work>
    </rdf:RDF>
  </metadata>
  <g
     style="display:inline"
     id="layer1"
     inkscape:groupmode="layer"
     inkscape:label="Layer 1">
    <path
       sodipodi:nodetypes="cccccc"
       style="fill:#000000;fill-opacity:1;stroke:none;display:inline"
       d="m 41.21144,5.4729768 c 0,-0.93365 -0.75168,-1.68534 -1.68535,-1.68533 L 8.4118685,3.8749548 c 0,0 0,3.37066 0,3.37066 L 39.52609,7.1583068 c 0.93367,0 1.68535,-0.75163 1.68535,-1.68533 z"
       id="path6515" />
    <path
       id="path5547"
       d="m 39.560589,3.7830751 c -0.93367,0 -1.68535,0.75166 -1.68535,1.68534 l 0,37.0783139 c 0,0 3.37067,0 3.37067,0 l 0,-37.0783139 c 0,-0.93368 -0.75163,-1.68534 -1.68532,-1.68534 z"
       style="fill:#000000;fill-opacity:1;stroke:none;display:inline"
       sodipodi:nodetypes="cccccc" />
    <path
       sodipodi:nodetypes="cccccc"
       style="fill:#000000;fill-opacity:1;stroke:none;display:inline"
       d="m 8.4394403,3.8679871 c -0.9336695,0 -1.6853495,0.75166 -1.6853495,1.68534 l 0,36.9834399 c 0,0 3.3706702,0 3.3706702,0 l 0,-36.9834399 c 0,-0.93368 -0.7516307,-1.68534 -1.6853207,-1.68534 z"
       id="path5540" />
    <path
       style="fill:#000000;fill-opacity:1;stroke:none"
       d="m 21.4375,12.21875 c 0.242851,0.399809 0.424126,0.83797 0.46875,1.3125 0.08757,0.708746 -0.0896,1.4403 -0.4375,2.0625 l 11.25,0 c 0.933685,-8e-6 1.687508,-0.753842 1.6875,-1.6875 -6e-6,-0.933699 -0.753843,-1.687507 -1.6875,-1.6875 l -11.28125,0 z m 0.0625,6.75 c 0.128539,0.220144 0.211633,0.462608 0.28125,0.71875 0.278762,0.882313 0.13757,1.831039 -0.3125,2.625 l 11.28125,0 c 0.933685,-8e-6 1.687508,-0.722592 1.6875,-1.65625 -7e-6,-0.933699 -0.753843,-1.687507 -1.6875,-1.6875 l -11.25,0 z"
       id="path5522" />
    <path
       style="fill:#000000;fill-opacity:1;stroke:none"
       d="m 34.429688,27.284437 c 8e-6,0.933658 -0.751654,1.685333 -1.685339,1.685341 l -17.509473,-1e-6 c -0.933663,0 -1.685325,-0.75169 -1.685325,-1.685325 0,-0.93372 0.751654,-1.685347 1.685333,-1.685333 l 17.509479,-7e-6 c 0.933657,-7e-6 1.685318,0.751626 1.685325,1.685325 z"
       id="path6361"
       sodipodi:nodetypes="cccsccc" />
    <path
       sodipodi:nodetypes="cccsccc"
       id="path6363"
       d="m 34.437353,34.029737 c 8e-6,0.933658 -0.751654,1.685333 -1.685339,1.685341 l -17.517138,-10e-7 c -0.933663,0 -1.685325,-0.75169 -1.685325,-1.685325 0,-0.93372 0.751654,-1.685347 1.685333,-1.685333 l 17.517144,-7e-6 c 0.933657,-7e-6 1.685318,0.751626 1.685325,1.685325 z"
       style="fill:#000000;fill-opacity:1;stroke:none" />
    <path
       style="fill:#000000;fill-opacity:1;stroke:none"
       d="m 41.243457,42.531581 c 8e-6,0.933658 -0.751654,1.685336 -1.685339,1.685344 L 8.4747093,44.206384 c -0.9336631,0 -1.7137804,-0.75169 -1.7137804,-1.685325 0,-0.93372 0.7801094,-1.685347 1.7137884,-1.685333 l 31.0834147,0.01053 c 0.933657,-7e-6 1.685319,0.751626 1.685325,1.685325 z"
       id="path6410"
       sodipodi:nodetypes="cccsccc" />
    <path
       style="fill:#000000;fill-opacity:1;stroke:none"
       d="m 18.542625,12.25 c 0.4308,-2e-6 0.88863,0.16988 1.21875,0.5 0.660179,0.66018 0.660199,1.7148 0,2.375 l -2.21875,2.15625 2.21875,2.15625 c 0.660199,0.6602 0.660179,1.74607 0,2.40625 -0.66024,0.66024 -1.746049,0.660221 -2.40625,0 L 13.980125,18.5 c -0.0057,-0.0057 0.0056,-0.02548 0,-0.03125 -0.07681,-0.07681 -0.15981,-0.16355 -0.21875,-0.25 -0.0053,-0.0079 0.0051,-0.02324 0,-0.03125 -0.05664,-0.0856 -0.116887,-0.157702 -0.15625,-0.25 -0.0038,-0.0093 0.0036,-0.0219 0,-0.03125 -0.03748,-0.0921 -0.07329,-0.185133 -0.09375,-0.28125 -0.002,-0.01051 0.0018,-0.02071 0,-0.03125 -0.01859,-0.09562 -0.02941,-0.184227 -0.03125,-0.28125 0,-0.0097 -1.68e-4,-0.02154 0,-0.03125 1e-6,-0.09799 0.01417,-0.215696 0.03125,-0.3125 0.0019,-0.0097 -0.0021,-0.02154 0,-0.03125 0.01874,-0.09639 0.05799,-0.188636 0.09375,-0.28125 0.0035,-0.0086 -0.0037,-0.02269 0,-0.03125 0.03776,-0.09279 0.101214,-0.163681 0.15625,-0.25 0.0044,-0.0066 -0.0045,-0.02467 0,-0.03125 0.05751,-0.08692 0.143425,-0.141248 0.21875,-0.21875 0.0057,-0.0059 -0.0058,-0.02541 0,-0.03125 l 3.375,-3.34375 c 0.3301,-0.330111 0.7567,-0.499998 1.1875,-0.5 z"
       id="path5535" />
  </g>
</svg>
