<?xml version="1.0" encoding="UTF-8" standalone="no"?>
<!-- Created with Inkscape (http://www.inkscape.org/) -->
<svg
   xmlns:dc="http://purl.org/dc/elements/1.1/"
   xmlns:cc="http://creativecommons.org/ns#"
   xmlns:rdf="http://www.w3.org/1999/02/22-rdf-syntax-ns#"
   xmlns:svg="http://www.w3.org/2000/svg"
   xmlns="http://www.w3.org/2000/svg"
   xmlns:sodipodi="http://sodipodi.sourceforge.net/DTD/sodipodi-0.dtd"
   xmlns:inkscape="http://www.inkscape.org/namespaces/inkscape"
   width="48"
   height="48"
   id="svg2"
   sodipodi:version="0.32"
   inkscape:version="0.46+devel"
   sodipodi:docname="format-indent-more.svg"
   inkscape:output_extension="org.inkscape.output.svg.inkscape"
   inkscape:export-filename="/home/hbons/Desktop/Intel/svn/moblin-ui-docs/in progress/draft visual UI/icons/icons.png"
   inkscape:export-xdpi="60.476192"
   inkscape:export-ydpi="60.476192"
   version="1.0">
  <sodipodi:namedview
     id="base"
     pagecolor="#ffffff"
     bordercolor="#dcdcdc"
     borderopacity="1"
     gridtolerance="10000"
     guidetolerance="10"
     objecttolerance="10"
     inkscape:pageopacity="0"
     inkscape:pageshadow="2"
     inkscape:zoom="11.313708"
     inkscape:cx="40.092231"
     inkscape:cy="20.780732"
     inkscape:document-units="px"
     inkscape:current-layer="layer1"
     showgrid="false"
     inkscape:window-width="1280"
     inkscape:window-height="750"
     inkscape:window-x="0"
     inkscape:window-y="0"
     inkscape:snap-intersection-line-segments="false"
     inkscape:snap-bbox="true"
     inkscape:snap-nodes="false"
     inkscape:bbox-paths="true"
     inkscape:showpageshadow="false"
     showguides="false"
     inkscape:guide-bbox="true"
     inkscape:bbox-nodes="true"
     inkscape:snap-global="false">
    <inkscape:grid
       enabled="true"
       visible="true"
       id="grid4079"
       type="xygrid"
       empspacing="5" />
    <sodipodi:guide
       id="guide7317"
       position="566.05335,854.14667"
       orientation="1,0" />
  </sodipodi:namedview>
  <defs
     id="defs4">
    <inkscape:perspective
       sodipodi:type="inkscape:persp3d"
       inkscape:vp_x="0 : 24 : 1"
       inkscape:vp_y="0 : 1000 : 0"
       inkscape:vp_z="48 : 24 : 1"
       inkscape:persp3d-origin="24 : 16 : 1"
       id="perspective22" />
    <inkscape:perspective
       id="perspective5539"
       inkscape:persp3d-origin="0.5 : 0.33333333 : 1"
       inkscape:vp_z="1 : 0.5 : 1"
       inkscape:vp_y="0 : 1000 : 0"
       inkscape:vp_x="0 : 0.5 : 1"
       sodipodi:type="inkscape:persp3d" />
    <inkscape:perspective
       sodipodi:type="inkscape:persp3d"
       inkscape:vp_x="0 : 0.5 : 1"
       inkscape:vp_y="0 : 1000 : 0"
       inkscape:vp_z="1 : 0.5 : 1"
       inkscape:persp3d-origin="0.5 : 0.33333333 : 1"
       id="perspective6334" />
    <inkscape:perspective
       sodipodi:type="inkscape:persp3d"
       inkscape:vp_x="0 : 0.5 : 1"
       inkscape:vp_y="0 : 1000 : 0"
       inkscape:vp_z="1 : 0.5 : 1"
       inkscape:persp3d-origin="0.5 : 0.33333333 : 1"
       id="perspective5534" />
    <inkscape:perspective
       sodipodi:type="inkscape:persp3d"
       inkscape:vp_x="0 : 0.5 : 1"
       inkscape:vp_y="0 : 1000 : 0"
       inkscape:vp_z="1 : 0.5 : 1"
       inkscape:persp3d-origin="0.5 : 0.33333333 : 1"
       id="perspective6327" />
    <inkscape:perspective
       id="perspective17"
       inkscape:persp3d-origin="24 : 16 : 1"
       inkscape:vp_z="48 : 24 : 1"
       inkscape:vp_y="0 : 1000 : 0"
       inkscape:vp_x="0 : 24 : 1"
       sodipodi:type="inkscape:persp3d" />
    <inkscape:perspective
       id="perspective13"
       inkscape:persp3d-origin="24 : 16 : 1"
       inkscape:vp_z="48 : 24 : 1"
       inkscape:vp_y="0 : 1000 : 0"
       inkscape:vp_x="0 : 24 : 1"
       sodipodi:type="inkscape:persp3d" />
  </defs>
  <metadata
     id="metadata7">
    <rdf:RDF>
      <cc:Work
         rdf:about="">
        <dc:format>image/svg+xml</dc:format>
        <dc:type
           rdf:resource="http://purl.org/dc/dcmitype/StillImage" />
        <dc:title></dc:title>
      </cc:Work>
    </rdf:RDF>
  </metadata>
  <g
     style="display:inline"
     id="layer1"
     inkscape:groupmode="layer"
     inkscape:label="Layer 1">
    <path
       sodipodi:nodetypes="cccccc"
       style="fill:#000000;fill-opacity:1;stroke:none;display:inline"
       d="m 41.21144,5.4729768 c 0,-0.93365 -0.75168,-1.68534 -1.68535,-1.68533 L 8.4118685,3.8749548 c 0,0 0,3.37066 0,3.37066 L 39.52609,7.1583068 c 0.93367,0 1.68535,-0.75163 1.68535,-1.68533 z"
       id="path6515" />
    <path
       id="path5547"
       d="m 39.560589,3.7830751 c -0.93367,0 -1.68535,0.75166 -1.68535,1.68534 l 0,37.0783139 c 0,0 3.37067,0 3.37067,0 l 0,-37.0783139 c 0,-0.93368 -0.75163,-1.68534 -1.68532,-1.68534 z"
       style="fill:#000000;fill-opacity:1;stroke:none;display:inline"
       sodipodi:nodetypes="cccccc" />
    <path
       sodipodi:nodetypes="cccccc"
       style="fill:#000000;fill-opacity:1;stroke:none;display:inline"
       d="m 8.4394403,3.8679871 c -0.9336695,0 -1.6853495,0.75166 -1.6853495,1.68534 l 0,36.9834399 c 0,0 3.3706702,0 3.3706702,0 l 0,-36.9834399 c 0,-0.93368 -0.7516307,-1.68534 -1.6853207,-1.68534 z"
       id="path5540" />
    <path
       style="fill:#000000;fill-opacity:1;stroke:none"
       d="M 18.53125 12.21875 C 18.425063 12.218748 18.318723 12.231346 18.21875 12.25 C 19.068912 13.083967 19.930606 13.916552 20.78125 14.75 C 21.047518 14.99172 21.283138 15.195748 21.46875 15.59375 L 32.71875 15.59375 C 33.652435 15.593742 34.406258 14.839908 34.40625 13.90625 C 34.406244 12.972551 33.652407 12.218743 32.71875 12.21875 L 18.53125 12.21875 z M 21.46875 18.96875 C 21.372914 19.141694 21.285651 19.311524 21.15625 19.46875 C 20.224426 20.424816 19.261626 21.341637 18.3125 22.28125 C 18.374713 22.287895 18.435906 22.3125 18.5 22.3125 L 32.75 22.3125 C 33.683685 22.312492 34.437508 21.589908 34.4375 20.65625 C 34.437493 19.722551 33.683657 18.968743 32.75 18.96875 L 21.46875 18.96875 z "
       id="path5522" />
    <path
       style="fill:#000000;fill-opacity:1;stroke:none"
       d="m 34.429688,27.284437 c 8e-6,0.933658 -0.751654,1.685333 -1.685339,1.685341 l -17.509473,-1e-6 c -0.933663,0 -1.685325,-0.75169 -1.685325,-1.685325 0,-0.93372 0.751654,-1.685347 1.685333,-1.685333 l 17.509479,-7e-6 c 0.933657,-7e-6 1.685318,0.751626 1.685325,1.685325 z"
       id="path6361"
       sodipodi:nodetypes="cccsccc" />
    <path
       sodipodi:nodetypes="cccsccc"
       id="path6363"
       d="m 34.437353,34.029737 c 8e-6,0.933658 -0.751654,1.685333 -1.685339,1.685341 l -17.517138,-10e-7 c -0.933663,0 -1.685325,-0.75169 -1.685325,-1.685325 0,-0.93372 0.751654,-1.685347 1.685333,-1.685333 l 17.517144,-7e-6 c 0.933657,-7e-6 1.685318,0.751626 1.685325,1.685325 z"
       style="fill:#000000;fill-opacity:1;stroke:none" />
    <path
       style="fill:#000000;fill-opacity:1;stroke:none"
       d="m 41.243457,42.531581 c 8e-6,0.933658 -0.751654,1.685336 -1.685339,1.685344 L 8.4747093,44.206384 c -0.9336631,0 -1.7137804,-0.75169 -1.7137804,-1.685325 0,-0.93372 0.7801094,-1.685347 1.7137884,-1.685333 l 31.0834147,0.01053 c 0.933657,-7e-6 1.685319,0.751626 1.685325,1.685325 z"
       id="path6410"
       sodipodi:nodetypes="cccsccc" />
    <path
       style="fill:#000000;fill-opacity:1;stroke:none"
       d="M 15.1875 12.25 C 14.7567 12.249998 14.29887 12.41988 13.96875 12.75 C 13.308571 13.41018 13.308551 14.4648 13.96875 15.125 L 16.1875 17.28125 L 13.96875 19.4375 C 13.308551 20.0977 13.308571 21.18357 13.96875 21.84375 C 14.62899 22.50399 15.714799 22.503971 16.375 21.84375 L 19.75 18.5 C 19.755713 18.494287 19.744386 18.474523 19.75 18.46875 C 19.826814 18.391935 19.90981 18.3052 19.96875 18.21875 C 19.974005 18.210808 19.963644 18.195509 19.96875 18.1875 C 20.02539 18.101901 20.085637 18.029798 20.125 17.9375 C 20.128786 17.928197 20.121388 17.915605 20.125 17.90625 C 20.162477 17.814146 20.198293 17.721117 20.21875 17.625 C 20.220793 17.614492 20.216909 17.604287 20.21875 17.59375 C 20.237338 17.49813 20.24816 17.409523 20.25 17.3125 C 20.25 17.302789 20.250168 17.29096 20.25 17.28125 C 20.249999 17.183261 20.235829 17.065554 20.21875 16.96875 C 20.216857 16.959014 20.220816 16.947209 20.21875 16.9375 C 20.200011 16.84111 20.160759 16.748864 20.125 16.65625 C 20.121497 16.64764 20.128652 16.633564 20.125 16.625 C 20.08724 16.532205 20.023786 16.461319 19.96875 16.375 C 19.964368 16.368378 19.973235 16.350325 19.96875 16.34375 C 19.911238 16.256834 19.825325 16.202502 19.75 16.125 C 19.744261 16.119095 19.755842 16.099592 19.75 16.09375 L 16.375 12.75 C 16.0449 12.419889 15.6183 12.250002 15.1875 12.25 z "
       id="path5535" />
  </g>
</svg>
