<?xml version="1.0" encoding="UTF-8" standalone="no"?>
<!-- Created with Inkscape (http://www.inkscape.org/) -->
<svg
   xmlns:dc="http://purl.org/dc/elements/1.1/"
   xmlns:cc="http://creativecommons.org/ns#"
   xmlns:rdf="http://www.w3.org/1999/02/22-rdf-syntax-ns#"
   xmlns:svg="http://www.w3.org/2000/svg"
   xmlns="http://www.w3.org/2000/svg"
   xmlns:sodipodi="http://sodipodi.sourceforge.net/DTD/sodipodi-0.dtd"
   xmlns:inkscape="http://www.inkscape.org/namespaces/inkscape"
   width="48"
   height="48"
   id="svg2"
   sodipodi:version="0.32"
   inkscape:version="0.46+devel"
   sodipodi:docname="mail-reply-sender.svg"
   inkscape:output_extension="org.inkscape.output.svg.inkscape"
   inkscape:export-filename="/home/hbons/Desktop/Intel/svn/moblin-ui-docs/in progress/draft visual UI/icons/icons.png"
   inkscape:export-xdpi="60.476192"
   inkscape:export-ydpi="60.476192"
   version="1.0">
  <sodipodi:namedview
     id="base"
     pagecolor="#ffffff"
     bordercolor="#dcdcdc"
     borderopacity="1"
     gridtolerance="10000"
     guidetolerance="10"
     objecttolerance="10"
     inkscape:pageopacity="0"
     inkscape:pageshadow="2"
     inkscape:zoom="16"
     inkscape:cx="32.360746"
     inkscape:cy="18.02631"
     inkscape:document-units="px"
     inkscape:current-layer="layer1"
     showgrid="false"
     inkscape:window-width="1280"
     inkscape:window-height="750"
     inkscape:window-x="0"
     inkscape:window-y="0"
     inkscape:snap-intersection-line-segments="false"
     inkscape:snap-bbox="true"
     inkscape:snap-nodes="false"
     inkscape:bbox-paths="true"
     inkscape:showpageshadow="false"
     showguides="false"
     inkscape:guide-bbox="true"
     inkscape:bbox-nodes="true"
     inkscape:snap-global="false">
    <inkscape:grid
       enabled="true"
       visible="true"
       id="grid4079"
       type="xygrid"
       empspacing="5" />
    <sodipodi:guide
       id="guide7317"
       position="566.05335,854.14667"
       orientation="1,0" />
  </sodipodi:namedview>
  <defs
     id="defs4" />
  <metadata
     id="metadata7">
    <rdf:RDF>
      <cc:Work
         rdf:about="">
        <dc:format>image/svg+xml</dc:format>
        <dc:type
           rdf:resource="http://purl.org/dc/dcmitype/StillImage" />
        <dc:title />
      </cc:Work>
    </rdf:RDF>
  </metadata>
  <g
     style="display:inline"
     id="layer1"
     inkscape:groupmode="layer"
     inkscape:label="Layer 1">
    <g
       id="g5840"
       transform="matrix(-1,0,0,1,48.000001,-3.0722593e-7)">
      <rect
         transform="scale(-1,1)"
         style="fill:#000000;fill-opacity:1;stroke:none"
         id="rect6405"
         width="35.493431"
         height="3.3710001"
         x="-41.283432"
         y="1.7398044"
         rx="1.6854999"
         ry="1.6855" />
      <path
         id="rect5867"
         d="m 40.206801,31.707505 c 0.933767,0 1.6875,0.753733 1.6875,1.6875 0,0.933767 -0.753733,1.6875 -1.6875,1.6875 l -2.3125,0 -3.34375,-3.375 5.65625,0 z m -11.6875,0 c -0.576079,1.039999 -0.564647,2.339248 0.03125,3.375 l -7.5625,0 c -1.255149,-0.498618 -2.293165,-1.377834 -3.1875,-2.71875 -0.140406,-0.210517 -0.258734,-0.437709 -0.375,-0.65625 l 11.09375,0 z m -18.25,0 c 0.281274,1.160756 0.720177,2.290119 1.3125,3.375 l -3.40625,0 c -0.933767,0 -1.6875,-0.753733 -1.6875,-1.6875 0,-0.933767 0.753733,-1.6875 1.6875,-1.6875 l 2.09375,0 z"
         style="fill:#000000;fill-opacity:1;stroke:none" />
      <rect
         transform="matrix(0,1,1,0,0,0)"
         style="fill:#000000;fill-opacity:1;stroke:none"
         id="rect5869"
         width="25.41851"
         height="3.3710001"
         x="5.6720958"
         y="42.246571"
         rx="1.6854998"
         ry="1.6855" />
      <rect
         ry="1.6855"
         rx="1.6855"
         y="2.3834291"
         x="5.6401591"
         height="3.3710001"
         width="25.548773"
         id="rect5871"
         style="fill:#000000;fill-opacity:1;stroke:none"
         transform="matrix(0,1,1,0,0,0)" />
      <path
         sodipodi:nodetypes="ccccccscccccscccccccccccccc"
         id="rect5883"
         d="m 40.1255,6.8206855 c 0.247325,0 0.4375,0.158925 0.4375,0.40625 l 0,2.0625 -9.15625,9.1562505 -2.375,2.375 -1.21875,1.21875 c -0.660273,0.660273 -1.714727,0.660273 -2.375,0 -0.660273,-0.660273 -0.660273,-1.714727 0,-2.375 l 12.84375,-12.8437505 1.84375,0 z m -30.375,0 12.875,12.8437505 c 0.660273,0.660273 0.660273,1.714727 0,2.375 -0.660273,0.660273 -1.714727,0.660273 -2.375,0 l -1.25,-1.21875 -2.375,-2.375 -9.125,-9.1250005 0,-2.09375 c 0,-0.247325 0.158925,-0.40625 0.40625,-0.40625 l 1.84375,0 z m 22.84375,12.8437505 7.96875,7.96875 0,2 c 0,0.247325 -0.190175,0.4375 -0.4375,0.4375 l -1.875,0 -8.03125,-8.03125 2.375,-2.375 z"
         style="fill:#000000;fill-opacity:1;stroke:none" />
      <path
         sodipodi:end="3.1415927"
         sodipodi:start="1.5707963"
         transform="matrix(0.11613816,-0.11613816,0.11600786,0.11600786,6.218499,-5.7035434)"
         d="m -25.809396,202.41983 c -12.685496,0 -22.980971,-10.29548 -22.980971,-22.98097 0,0 0,0 0,0"
         sodipodi:ry="22.98097"
         sodipodi:rx="22.98097"
         sodipodi:cy="179.43886"
         sodipodi:cx="-25.809397"
         id="path5885"
         style="fill:none;stroke:#000000;stroke-width:20.53379822;stroke-linecap:round;stroke-miterlimit:4;stroke-opacity:1;stroke-dasharray:none;stroke-dashoffset:0;display:inline"
         sodipodi:type="arc"
         sodipodi:open="true" />
      <path
         sodipodi:open="true"
         sodipodi:type="arc"
         style="fill:none;stroke:#000000;stroke-width:20.5358448;stroke-linecap:round;stroke-miterlimit:4;stroke-opacity:1;stroke-dasharray:none;stroke-dashoffset:0;display:inline"
         id="path6692"
         sodipodi:cx="-25.809397"
         sodipodi:cy="179.43886"
         sodipodi:rx="22.98097"
         sodipodi:ry="22.98097"
         d="m -9.5593967,195.68886 c -8.9700003,8.97 -23.5300003,8.97 -32.5000003,0 0,0 0,0 0,0"
         transform="matrix(-0.11613816,-0.11613816,0.11600786,-0.11600786,16.315728,25.00252)"
         sodipodi:start="0.78539816"
         sodipodi:end="2.3561945" />
      <path
         sodipodi:end="2.3561945"
         sodipodi:start="0.78539816"
         transform="matrix(0.11613816,-0.11613816,-0.11600786,-0.11600786,31.678301,25.00252)"
         d="m -9.5593967,195.68886 c -8.9700003,8.97 -23.5300003,8.97 -32.5000003,0 0,0 0,0 0,0"
         sodipodi:ry="22.98097"
         sodipodi:rx="22.98097"
         sodipodi:cy="179.43886"
         sodipodi:cx="-25.809397"
         id="path6694"
         style="fill:none;stroke:#000000;stroke-width:20.53379822;stroke-linecap:round;stroke-miterlimit:4;stroke-opacity:1;stroke-dasharray:none;stroke-dashoffset:0;display:inline"
         sodipodi:type="arc"
         sodipodi:open="true" />
      <path
         sodipodi:end="2.3561945"
         sodipodi:start="0.78539816"
         transform="matrix(-0.11613816,0.11613816,0.11600786,0.11600786,16.315728,11.811342)"
         d="m -9.5593967,195.68886 c -8.9700003,8.97 -23.5300003,8.97 -32.5000003,0 0,0 0,0 0,0"
         sodipodi:ry="22.98097"
         sodipodi:rx="22.98097"
         sodipodi:cy="179.43886"
         sodipodi:cx="-25.809397"
         id="path6696"
         style="fill:none;stroke:#000000;stroke-width:20.53379822;stroke-linecap:round;stroke-miterlimit:4;stroke-opacity:1;stroke-dasharray:none;stroke-dashoffset:0;display:inline"
         sodipodi:type="arc"
         sodipodi:open="true" />
      <path
         sodipodi:open="true"
         sodipodi:type="arc"
         style="fill:none;stroke:#000000;stroke-width:20.53379822;stroke-linecap:round;stroke-miterlimit:4;stroke-opacity:1;stroke-dasharray:none;stroke-dashoffset:0;display:inline"
         id="path6698"
         sodipodi:cx="-25.809397"
         sodipodi:cy="179.43886"
         sodipodi:rx="22.98097"
         sodipodi:ry="22.98097"
         d="m -9.5593967,195.68886 c -8.9700003,8.97 -23.5300003,8.97 -32.5000003,0 0,0 0,0 0,0"
         transform="matrix(0.11613816,0.11613816,-0.11600786,0.11600786,31.65391,11.811342)"
         sodipodi:start="0.78539816"
         sodipodi:end="2.3561945" />
      <path
         style="fill:#000000;fill-opacity:1;stroke:none"
         d="m 30.272131,45.779058 c -0.6602,-0.66019 -0.66021,-1.72321 0,-2.38343 l 5.59113,-5.59113 c 0.6602,-0.6602 1.72323,-0.66018 2.38341,0 0.66024,0.66024 0.66022,1.72322 0,2.38342 l -5.59113,5.59114 c -0.66019,0.6602 -1.72318,0.66022 -2.38341,0 z"
         id="path7193"
         sodipodi:nodetypes="cccsccc" />
      <path
         id="path7201"
         d="m 30.272131,32.205708 c 0.6602,-0.66019 1.72321,-0.66021 2.38341,0 l 5.59113,5.59113 c 0.66022,0.6602 0.6602,1.72322 0,2.38341 -0.66022,0.66022 -1.72321,0.66021 -2.38341,0 l -5.59113,-5.59113 c -0.66021,-0.66019 -0.66021,-1.72319 0,-2.38341 z"
         style="fill:#000000;fill-opacity:1;stroke:none"
         sodipodi:nodetypes="cccsccc" />
      <path
         sodipodi:nodetypes="cccsccc"
         id="path5522"
         d="m 22.184949,38.990084 c -8e-6,-0.933657 0.751654,-1.685333 1.685339,-1.68534 l 13.186215,0 c 0.933664,0 1.685326,0.75169 1.685326,1.685325 0,0.933721 -0.751655,1.685347 -1.685333,1.685333 l -13.186222,7e-6 c -0.933657,7e-6 -1.685318,-0.751626 -1.685325,-1.685325 z"
         style="fill:#000000;fill-opacity:1;stroke:none" />
      <path
         sodipodi:nodetypes="cscscscc"
         id="path5531"
         d="m 15.25,19.4375 c -4.153196,4.093842 -4.973758,10.729049 -1.625,15.75 2.310737,3.464598 6.015893,5.464685 10.15625,5.46875 0.766981,0.0068 1.497865,-0.58615 1.65625,-1.34375 0.198477,-0.984073 -0.661452,-2.038703 -1.65625,-2.03125 -3.125339,-0.0031 -5.630742,-1.353504 -7.375,-3.96875 -2.458391,-3.685978 -1.847978,-8.520435 1.21875,-11.5 l -2.375,-2.375 z"
         style="font-size:medium;font-style:normal;font-variant:normal;font-weight:normal;font-stretch:normal;text-indent:0;text-align:start;text-decoration:none;line-height:normal;letter-spacing:normal;word-spacing:normal;text-transform:none;direction:ltr;block-progression:tb;writing-mode:lr-tb;text-anchor:start;color:#000000;fill:#000000;fill-opacity:1;stroke:none;stroke-width:7.28176975;marker:none;visibility:visible;display:inline;overflow:visible;enable-background:accumulate;font-family:Bitstream Vera Sans;-inkscape-font-specification:Bitstream Vera Sans" />
    </g>
  </g>
</svg>
