<?xml version="1.0" encoding="UTF-8" standalone="no"?>
<!-- Created with Inkscape (http://www.inkscape.org/) -->
<svg
   xmlns:dc="http://purl.org/dc/elements/1.1/"
   xmlns:cc="http://creativecommons.org/ns#"
   xmlns:rdf="http://www.w3.org/1999/02/22-rdf-syntax-ns#"
   xmlns:svg="http://www.w3.org/2000/svg"
   xmlns="http://www.w3.org/2000/svg"
   xmlns:sodipodi="http://sodipodi.sourceforge.net/DTD/sodipodi-0.dtd"
   xmlns:inkscape="http://www.inkscape.org/namespaces/inkscape"
   width="48"
   height="48"
   id="svg2"
   sodipodi:version="0.32"
   inkscape:version="0.46+devel"
   sodipodi:docname="mail-mark-junk.svg"
   inkscape:output_extension="org.inkscape.output.svg.inkscape"
   inkscape:export-filename="/home/hbons/Desktop/Intel/svn/moblin-ui-docs/in progress/draft visual UI/icons/icons.png"
   inkscape:export-xdpi="60.476192"
   inkscape:export-ydpi="60.476192"
   version="1.0">
  <sodipodi:namedview
     id="base"
     pagecolor="#ffffff"
     bordercolor="#dcdcdc"
     borderopacity="1"
     gridtolerance="10000"
     guidetolerance="10"
     objecttolerance="10"
     inkscape:pageopacity="0"
     inkscape:pageshadow="2"
     inkscape:zoom="8"
     inkscape:cx="48.440454"
     inkscape:cy="23.869472"
     inkscape:document-units="px"
     inkscape:current-layer="layer1"
     showgrid="false"
     inkscape:window-width="1280"
     inkscape:window-height="750"
     inkscape:window-x="0"
     inkscape:window-y="0"
     inkscape:snap-intersection-line-segments="false"
     inkscape:snap-bbox="true"
     inkscape:snap-nodes="false"
     inkscape:bbox-paths="true"
     inkscape:showpageshadow="false"
     showguides="false"
     inkscape:guide-bbox="true"
     inkscape:bbox-nodes="true"
     inkscape:snap-global="false">
    <inkscape:grid
       enabled="true"
       visible="true"
       id="grid4079"
       type="xygrid"
       empspacing="5" />
    <sodipodi:guide
       id="guide7317"
       position="566.05335,854.14667"
       orientation="1,0" />
  </sodipodi:namedview>
  <defs
     id="defs4" />
  <metadata
     id="metadata7">
    <rdf:RDF>
      <cc:Work
         rdf:about="">
        <dc:format>image/svg+xml</dc:format>
        <dc:type
           rdf:resource="http://purl.org/dc/dcmitype/StillImage" />
        <dc:title></dc:title>
      </cc:Work>
    </rdf:RDF>
  </metadata>
  <g
     style="display:inline"
     id="layer1"
     inkscape:groupmode="layer"
     inkscape:label="Layer 1">
    <g
       id="g9307"
       transform="translate(-0.32341878,-0.01233958)">
      <rect
         transform="scale(-1,1)"
         style="fill:#000000;fill-opacity:1;stroke:none"
         id="rect6405"
         width="35.493431"
         height="3.3710001"
         x="-39.566448"
         y="1.739804"
         rx="1.6854999"
         ry="1.6855" />
      <path
         id="rect5867"
         d="m 42.21875,5.6875 c -0.933767,0 -1.6875,0.7224831 -1.6875,1.65625 l 0,12.625 c 1.184877,0.473807 2.320734,1.09949 3.375,1.90625 l 0,-14.53125 c 0,-0.9337669 -0.753733,-1.65625 -1.6875,-1.65625 z M 5.65625,31.71875 c -0.4864054,0 -0.875,0.753733 -0.875,1.6875 0,0.933767 0.3885946,1.6875 0.875,1.6875 l 10.09375,0 4.96875,0 c -0.133377,-1.121463 -0.157188,-2.250418 -0.03125,-3.375 l -5.625,0 -9.40625,0 z"
         style="fill:#000000;fill-opacity:1;stroke:none" />
      <rect
         ry="1.6855"
         rx="1.6855"
         y="0.66644251"
         x="5.6401587"
         height="3.3710001"
         width="25.548773"
         id="rect5871"
         style="fill:#000000;fill-opacity:1;stroke:none"
         transform="matrix(0,1,1,0,0,0)" />
      <path
         sodipodi:nodetypes="ccccccscccccsccccccc"
         id="rect5883"
         d="m 38.408513,6.8206852 c 0.247325,0 0.4375,0.158925 0.4375,0.40625 l 0,2.0625 -9.15625,9.1562508 -2.375,2.375 -1.21875,1.21875 c -0.660273,0.660273 -1.714727,0.660273 -2.375,0 -0.660273,-0.660273 -0.660273,-1.714727 0,-2.375 l 12.84375,-12.8437508 1.84375,0 z m -30.3749996,0 12.8749996,12.8437508 c 0.660273,0.660273 0.660273,1.714727 0,2.375 -0.660273,0.660273 -1.714727,0.660273 -2.375,0 l -1.25,-1.21875 -2.375,-2.375 -9.1249996,-9.1250008 0,-2.09375 c 0,-0.247325 0.158925,-0.40625 0.40625,-0.40625 l 1.84375,0 z"
         style="fill:#000000;fill-opacity:1;stroke:none" />
      <path
         sodipodi:end="3.1415927"
         sodipodi:start="1.5707963"
         transform="matrix(0.11613816,-0.11613816,0.11600786,0.11600786,4.5015124,-5.7035437)"
         d="m -25.809396,202.41983 c -12.685496,0 -22.980971,-10.29548 -22.980971,-22.98097 0,0 0,0 0,0"
         sodipodi:ry="22.98097"
         sodipodi:rx="22.98097"
         sodipodi:cy="179.43886"
         sodipodi:cx="-25.809397"
         id="path5885"
         style="fill:none;stroke:#000000;stroke-width:20.53379822;stroke-linecap:round;stroke-miterlimit:4;stroke-opacity:1;stroke-dasharray:none;stroke-dashoffset:0;display:inline"
         sodipodi:type="arc"
         sodipodi:open="true" />
      <path
         sodipodi:open="true"
         sodipodi:type="arc"
         style="fill:none;stroke:#000000;stroke-width:20.5358448;stroke-linecap:round;stroke-miterlimit:4;stroke-opacity:1;stroke-dasharray:none;stroke-dashoffset:0;display:inline"
         id="path6692"
         sodipodi:cx="-25.809397"
         sodipodi:cy="179.43886"
         sodipodi:rx="22.98097"
         sodipodi:ry="22.98097"
         d="m -9.5593967,195.68886 c -8.9700003,8.97 -23.5300003,8.97 -32.5000003,0 0,0 0,0 0,0"
         transform="matrix(-0.11613816,-0.11613816,0.11600786,-0.11600786,14.598741,25.00252)"
         sodipodi:start="0.78539816"
         sodipodi:end="2.3561945" />
      <path
         sodipodi:end="2.3561945"
         sodipodi:start="0.78539816"
         transform="matrix(0.11613816,-0.11613816,-0.11600786,-0.11600786,29.961314,25.00252)"
         d="m -9.5593967,195.68886 c -8.9700003,8.97 -23.5300003,8.97 -32.5000003,0 0,0 0,0 0,0"
         sodipodi:ry="22.98097"
         sodipodi:rx="22.98097"
         sodipodi:cy="179.43886"
         sodipodi:cx="-25.809397"
         id="path6694"
         style="fill:none;stroke:#000000;stroke-width:20.53379822;stroke-linecap:round;stroke-miterlimit:4;stroke-opacity:1;stroke-dasharray:none;stroke-dashoffset:0;display:inline"
         sodipodi:type="arc"
         sodipodi:open="true" />
      <path
         sodipodi:open="true"
         sodipodi:type="arc"
         style="fill:none;stroke:#000000;stroke-width:20.53379822;stroke-linecap:round;stroke-miterlimit:4;stroke-opacity:1;stroke-dasharray:none;stroke-dashoffset:0;display:inline"
         id="path6698"
         sodipodi:cx="-25.809397"
         sodipodi:cy="179.43886"
         sodipodi:rx="22.98097"
         sodipodi:ry="22.98097"
         d="m -9.5593967,195.68886 c -8.9700003,8.97 -23.5300003,8.97 -32.5000003,0 0,0 0,0 0,0"
         transform="matrix(0.11613816,0.11613816,-0.11600786,0.11600786,29.936923,11.811342)"
         sodipodi:start="0.78539816"
         sodipodi:end="2.3561945" />
      <path
         sodipodi:nodetypes="ccccccc"
         id="path5555"
         d="m 13.76122,19.664436 -7.9687502,7.96875 0,2 c 0,0.247325 0.190175,0.4375 0.4375,0.4375 l 1.875,0 8.0312502,-8.03125 -2.375,-2.375 z"
         style="fill:#000000;fill-opacity:1;stroke:none" />
      <g
         transform="matrix(1.1369331,0,0,1.1369331,121.43153,31.362411)"
         id="g5599" />
      <g
         transform="translate(-37.228625,-1.435777)"
         id="g6914">
        <g
           id="g6224"
           transform="matrix(1.1877472,0,0,1,43.621405,7.914052)">
          <rect
             transform="scale(1,-1)"
             style="fill:#000000;fill-opacity:1;stroke:none"
             id="rect6216"
             width="13.229733"
             height="3.3710001"
             x="17.533806"
             y="-28.601393"
             rx="1.4190731"
             ry="1.6855" />
        </g>
        <path
           id="path6896"
           sodipodi:type="arc"
           style="fill:none;stroke:#000000;stroke-width:6.90288687;stroke-linecap:round;stroke-miterlimit:4;stroke-opacity:1;stroke-dasharray:none;stroke-dashoffset:0;display:inline"
           sodipodi:cx="-25.809397"
           sodipodi:cy="179.43886"
           sodipodi:rx="22.98097"
           sodipodi:ry="22.98097"
           d="m -2.8284264,179.43886 c 0,12.68549 -10.2954746,22.98097 -22.9809706,22.98097 -12.685495,0 -22.98097,-10.29548 -22.98097,-22.98097 0,-12.6855 10.295475,-22.98097 22.98097,-22.98097 12.685496,0 22.9809706,10.29547 22.9809706,22.98097 z"
           transform="matrix(-0.36881551,-0.32110887,-0.32006143,0.36782609,120.21648,-39.459975)" />
      </g>
      <g
         style="opacity:0.86021507;fill:#919191;fill-opacity:1;stroke:none"
         id="g6921"
         transform="matrix(1.3011952,0,0,1.3011952,6.9917224,-1.5198841)">
        <g
           style="fill:#919191;fill-opacity:1;stroke:none"
           transform="matrix(1.1877472,0,0,1,43.621405,7.914052)"
           id="g6923" />
      </g>
      <g
         style="fill:none;stroke:#868686;stroke-opacity:1"
         id="g8516"
         transform="translate(-37.228625,-1.435777)">
        <g
           style="fill:none;stroke:#868686;stroke-opacity:1"
           transform="matrix(1.1877472,0,0,1,43.621405,7.914052)"
           id="g8518" />
      </g>
    </g>
  </g>
</svg>
