<?xml version="1.0" encoding="UTF-8" standalone="no"?>
<!-- Created with Inkscape (http://www.inkscape.org/) -->
<svg
   xmlns:dc="http://purl.org/dc/elements/1.1/"
   xmlns:cc="http://creativecommons.org/ns#"
   xmlns:rdf="http://www.w3.org/1999/02/22-rdf-syntax-ns#"
   xmlns:svg="http://www.w3.org/2000/svg"
   xmlns="http://www.w3.org/2000/svg"
   xmlns:sodipodi="http://sodipodi.sourceforge.net/DTD/sodipodi-0.dtd"
   xmlns:inkscape="http://www.inkscape.org/namespaces/inkscape"
   width="48"
   height="48"
   id="svg2"
   sodipodi:version="0.32"
   inkscape:version="0.46+devel"
   sodipodi:docname="media-skip-backward.svg"
   inkscape:output_extension="org.inkscape.output.svg.inkscape"
   inkscape:export-filename="/home/hbons/Desktop/Intel/svn/moblin-ui-docs/in progress/draft visual UI/icons/icons.png"
   inkscape:export-xdpi="60.476192"
   inkscape:export-ydpi="60.476192"
   version="1.0">
  <sodipodi:namedview
     id="base"
     pagecolor="#ffffff"
     bordercolor="#dcdcdc"
     borderopacity="1"
     gridtolerance="10000"
     guidetolerance="10"
     objecttolerance="10"
     inkscape:pageopacity="0"
     inkscape:pageshadow="2"
     inkscape:zoom="4"
     inkscape:cx="43.385568"
     inkscape:cy="33.598614"
     inkscape:document-units="px"
     inkscape:current-layer="layer1"
     showgrid="false"
     inkscape:window-width="1280"
     inkscape:window-height="750"
     inkscape:window-x="0"
     inkscape:window-y="0"
     inkscape:snap-intersection-line-segments="false"
     inkscape:snap-bbox="true"
     inkscape:snap-nodes="false"
     inkscape:bbox-paths="true"
     inkscape:showpageshadow="false"
     showguides="false"
     inkscape:guide-bbox="true"
     inkscape:bbox-nodes="true"
     inkscape:snap-global="false">
    <inkscape:grid
       enabled="true"
       visible="true"
       id="grid4079"
       type="xygrid"
       empspacing="5" />
    <sodipodi:guide
       id="guide7317"
       position="566.05335,854.14667"
       orientation="1,0" />
  </sodipodi:namedview>
  <defs
     id="defs4">
    <inkscape:perspective
       sodipodi:type="inkscape:persp3d"
       inkscape:vp_x="0 : 24 : 1"
       inkscape:vp_y="0 : 1000 : 0"
       inkscape:vp_z="48 : 24 : 1"
       inkscape:persp3d-origin="24 : 16 : 1"
       id="perspective13" />
    <inkscape:perspective
       id="perspective5528"
       inkscape:persp3d-origin="0.5 : 0.33333333 : 1"
       inkscape:vp_z="1 : 0.5 : 1"
       inkscape:vp_y="0 : 1000 : 0"
       inkscape:vp_x="0 : 0.5 : 1"
       sodipodi:type="inkscape:persp3d" />
    <inkscape:perspective
       sodipodi:type="inkscape:persp3d"
       inkscape:vp_x="0 : 0.5 : 1"
       inkscape:vp_y="0 : 1000 : 0"
       inkscape:vp_z="1 : 0.5 : 1"
       inkscape:persp3d-origin="0.5 : 0.33333333 : 1"
       id="perspective5661-5" />
    <inkscape:perspective
       sodipodi:type="inkscape:persp3d"
       inkscape:vp_x="0 : 0.5 : 1"
       inkscape:vp_y="0 : 1000 : 0"
       inkscape:vp_z="1 : 0.5 : 1"
       inkscape:persp3d-origin="0.5 : 0.33333333 : 1"
       id="perspective5661" />
    <inkscape:perspective
       sodipodi:type="inkscape:persp3d"
       inkscape:vp_x="0 : 24 : 1"
       inkscape:vp_y="0 : 1000 : 0"
       inkscape:vp_z="48 : 24 : 1"
       inkscape:persp3d-origin="24 : 16 : 1"
       id="perspective18-6" />
    <inkscape:perspective
       sodipodi:type="inkscape:persp3d"
       inkscape:vp_x="0 : 0.5 : 1"
       inkscape:vp_y="0 : 1000 : 0"
       inkscape:vp_z="1 : 0.5 : 1"
       inkscape:persp3d-origin="0.5 : 0.33333333 : 1"
       id="perspective5592" />
    <inkscape:perspective
       sodipodi:type="inkscape:persp3d"
       inkscape:vp_x="0 : 0.5 : 1"
       inkscape:vp_y="0 : 1000 : 0"
       inkscape:vp_z="1 : 0.5 : 1"
       inkscape:persp3d-origin="0.5 : 0.33333333 : 1"
       id="perspective5534" />
    <inkscape:perspective
       id="perspective18"
       inkscape:persp3d-origin="24 : 16 : 1"
       inkscape:vp_z="48 : 24 : 1"
       inkscape:vp_y="0 : 1000 : 0"
       inkscape:vp_x="0 : 24 : 1"
       sodipodi:type="inkscape:persp3d" />
    <inkscape:perspective
       sodipodi:type="inkscape:persp3d"
       inkscape:vp_x="0 : 24 : 1"
       inkscape:vp_y="0 : 1000 : 0"
       inkscape:vp_z="48 : 24 : 1"
       inkscape:persp3d-origin="24 : 16 : 1"
       id="perspective18-9" />
    <inkscape:perspective
       id="perspective5534-6"
       inkscape:persp3d-origin="0.5 : 0.33333333 : 1"
       inkscape:vp_z="1 : 0.5 : 1"
       inkscape:vp_y="0 : 1000 : 0"
       inkscape:vp_x="0 : 0.5 : 1"
       sodipodi:type="inkscape:persp3d" />
    <inkscape:perspective
       id="perspective5592-4"
       inkscape:persp3d-origin="0.5 : 0.33333333 : 1"
       inkscape:vp_z="1 : 0.5 : 1"
       inkscape:vp_y="0 : 1000 : 0"
       inkscape:vp_x="0 : 0.5 : 1"
       sodipodi:type="inkscape:persp3d" />
    <inkscape:perspective
       id="perspective18-6-5"
       inkscape:persp3d-origin="24 : 16 : 1"
       inkscape:vp_z="48 : 24 : 1"
       inkscape:vp_y="0 : 1000 : 0"
       inkscape:vp_x="0 : 24 : 1"
       sodipodi:type="inkscape:persp3d" />
    <inkscape:perspective
       id="perspective5661-7"
       inkscape:persp3d-origin="0.5 : 0.33333333 : 1"
       inkscape:vp_z="1 : 0.5 : 1"
       inkscape:vp_y="0 : 1000 : 0"
       inkscape:vp_x="0 : 0.5 : 1"
       sodipodi:type="inkscape:persp3d" />
    <inkscape:perspective
       id="perspective5661-5-6"
       inkscape:persp3d-origin="0.5 : 0.33333333 : 1"
       inkscape:vp_z="1 : 0.5 : 1"
       inkscape:vp_y="0 : 1000 : 0"
       inkscape:vp_x="0 : 0.5 : 1"
       sodipodi:type="inkscape:persp3d" />
    <inkscape:perspective
       sodipodi:type="inkscape:persp3d"
       inkscape:vp_x="0 : 0.5 : 1"
       inkscape:vp_y="0 : 1000 : 0"
       inkscape:vp_z="1 : 0.5 : 1"
       inkscape:persp3d-origin="0.5 : 0.33333333 : 1"
       id="perspective5528-3" />
    <inkscape:perspective
       id="perspective13-3"
       inkscape:persp3d-origin="24 : 16 : 1"
       inkscape:vp_z="48 : 24 : 1"
       inkscape:vp_y="0 : 1000 : 0"
       inkscape:vp_x="0 : 24 : 1"
       sodipodi:type="inkscape:persp3d" />
  </defs>
  <metadata
     id="metadata7">
    <rdf:RDF>
      <cc:Work
         rdf:about="">
        <dc:format>image/svg+xml</dc:format>
        <dc:type
           rdf:resource="http://purl.org/dc/dcmitype/StillImage" />
        <dc:title />
      </cc:Work>
    </rdf:RDF>
  </metadata>
  <g
     style="display:inline"
     id="layer1"
     inkscape:groupmode="layer"
     inkscape:label="Layer 1">
    <g
       id="g5607"
       transform="translate(-0.97594835,0.05425226)">
      <g
         transform="matrix(-1,0,0,1,59.403479,2.0063395)"
         id="g5561">
        <path
           id="path5541"
           d="m 13.793291,10.427982 c -0.93365,0 -1.68533,0.751649 -1.68532,1.685309 l -10e-6,19.498661 c 10e-6,0.93367 0.75168,1.68531 1.68533,1.68532 0.9337,0 1.68534,-0.75165 1.68533,-1.68532 l 10e-6,-19.498661 c 0,-0.93366 -0.75164,-1.685309 -1.68534,-1.685309 z"
           style="fill:#000000;fill-opacity:1;stroke:none;display:inline"
           sodipodi:nodetypes="cccsccc" />
        <path
           sodipodi:nodetypes="cccccc"
           style="fill:#000000;fill-opacity:1;stroke:none;display:inline"
           d="m 12.34974,11.220085 c -0.466825,0.808564 -0.191718,1.835363 0.61686,2.302185 l 17.160683,9.907735 c 2.252439,0.705841 3.081043,-1.367513 1.68533,-2.919076 L 14.651931,10.603192 C 13.843357,10.136363 12.81659,10.411477 12.34974,11.220085 z"
           id="path6322" />
        <path
           id="path6324"
           d="m 12.34974,32.767236 c -0.466825,-0.808565 -0.191718,-1.835363 0.61686,-2.302185 l 17.160683,-9.907735 c 2.252439,-0.705841 3.081043,1.367513 1.68533,2.919076 l -17.160682,9.907737 c -0.808574,0.466829 -1.835341,0.191715 -2.302191,-0.616893 z"
           style="fill:#000000;fill-opacity:1;stroke:none;display:inline"
           sodipodi:nodetypes="cccccc" />
        <path
           sodipodi:nodetypes="cccsccc"
           style="fill:#000000;fill-opacity:1;stroke:none;display:inline"
           d="m 31.066649,10.427982 c -0.93365,0 -1.68533,0.751649 -1.68532,1.685309 l -10e-6,19.498661 c 10e-6,0.93367 0.75168,1.68531 1.68533,1.68532 0.9337,0 1.68534,-0.75165 1.68533,-1.68532 l 1e-5,-19.498661 c 0,-0.93366 -0.75164,-1.685309 -1.68534,-1.685309 z"
           id="path5531" />
        <path
           id="path5533"
           d="m 29.623098,11.220085 c -0.466825,0.808564 -0.191718,1.835363 0.61686,2.302185 l 17.160683,9.907735 c 2.252439,0.705841 3.081043,-1.367513 1.68533,-2.919076 L 31.925289,10.603192 c -0.808574,-0.466829 -1.835341,-0.191715 -2.302191,0.616893 z"
           style="fill:#000000;fill-opacity:1;stroke:none;display:inline"
           sodipodi:nodetypes="cccccc" />
        <path
           sodipodi:nodetypes="cccccc"
           style="fill:#000000;fill-opacity:1;stroke:none;display:inline"
           d="m 29.623098,32.767236 c -0.466825,-0.808565 -0.191718,-1.835363 0.61686,-2.302185 l 17.160683,-9.907735 c 2.252439,-0.705841 3.081043,1.367513 1.68533,2.919076 l -17.160682,9.907737 c -0.808574,0.466829 -1.835341,0.191715 -2.302191,-0.616893 z"
           id="path5535" />
      </g>
      <path
         sodipodi:nodetypes="cccsccc"
         style="fill:#000000;fill-opacity:1;stroke:none;display:inline"
         d="m 4.3417187,35.438496 c 0.93365,0 1.68533,-0.751649 1.68532,-1.685309 l 10e-6,-19.794099 c -10e-6,-0.93367 -0.75168,-1.68531 -1.68533,-1.68532 -0.9337,0 -1.68534,0.75165 -1.68533,1.68532 l -1e-5,19.794099 c 0,0.93366 0.75164,1.685309 1.68534,1.685309 z"
         id="path5533-2" />
      <path
         id="path5535-8"
         d="m 12.658282,33.92272 c 0,-0.93365 -0.751649,-1.68533 -1.685309,-1.68532 l -6.6195523,-1e-5 c -0.93367,1e-5 -1.68531,0.75168 -1.68532,1.68533 0,0.9337 0.75165,1.68534 1.68532,1.68533 l 6.6195523,1e-5 c 0.93366,0 1.685309,-0.75164 1.685309,-1.68534 z"
         style="fill:#000000;fill-opacity:1;stroke:none;display:inline"
         sodipodi:nodetypes="cccsccc" />
      <path
         id="path5539"
         d="m 11.044861,35.430831 c 0.93365,0 1.68533,-0.751649 1.68532,-1.685309 l 10e-6,-19.786434 c -10e-6,-0.93367 -0.75168,-1.68531 -1.68533,-1.68532 -0.9337,0 -1.6853393,0.75165 -1.6853293,1.68532 l -10e-6,19.786434 c 0,0.93366 0.7516393,1.685309 1.6853393,1.685309 z"
         style="fill:#000000;fill-opacity:1;stroke:none;display:inline"
         sodipodi:nodetypes="cccsccc" />
      <path
         sodipodi:nodetypes="cccsccc"
         style="fill:#000000;fill-opacity:1;stroke:none;display:inline"
         d="m 12.658282,13.992039 c 0,-0.93365 -0.751649,-1.68533 -1.685309,-1.68532 l -6.6195523,-10e-6 c -0.93367,10e-6 -1.68531,0.75168 -1.68532,1.68533 0,0.9337 0.75165,1.68534 1.68532,1.68533 l 6.6195523,10e-6 c 0.93366,0 1.685309,-0.75164 1.685309,-1.68534 z"
         id="path5542" />
    </g>
  </g>
</svg>
