<?xml version="1.0" encoding="UTF-8" standalone="no"?>
<!-- Created with Inkscape (http://www.inkscape.org/) -->
<svg
   xmlns:dc="http://purl.org/dc/elements/1.1/"
   xmlns:cc="http://creativecommons.org/ns#"
   xmlns:rdf="http://www.w3.org/1999/02/22-rdf-syntax-ns#"
   xmlns:svg="http://www.w3.org/2000/svg"
   xmlns="http://www.w3.org/2000/svg"
   xmlns:sodipodi="http://sodipodi.sourceforge.net/DTD/sodipodi-0.dtd"
   xmlns:inkscape="http://www.inkscape.org/namespaces/inkscape"
   width="48"
   height="48"
   id="svg2"
   sodipodi:version="0.32"
   inkscape:version="0.46+devel"
   sodipodi:docname="media-eject.svg"
   inkscape:output_extension="org.inkscape.output.svg.inkscape"
   inkscape:export-filename="/home/hbons/Desktop/Intel/svn/moblin-ui-docs/in progress/draft visual UI/icons/icons.png"
   inkscape:export-xdpi="60.476192"
   inkscape:export-ydpi="60.476192"
   version="1.0">
  <sodipodi:namedview
     id="base"
     pagecolor="#ffffff"
     bordercolor="#dcdcdc"
     borderopacity="1"
     gridtolerance="10000"
     guidetolerance="10"
     objecttolerance="10"
     inkscape:pageopacity="0"
     inkscape:pageshadow="2"
     inkscape:zoom="8"
     inkscape:cx="32.621008"
     inkscape:cy="19.397081"
     inkscape:document-units="px"
     inkscape:current-layer="layer1"
     showgrid="false"
     inkscape:window-width="1280"
     inkscape:window-height="750"
     inkscape:window-x="0"
     inkscape:window-y="0"
     inkscape:snap-intersection-line-segments="false"
     inkscape:snap-bbox="true"
     inkscape:snap-nodes="false"
     inkscape:bbox-paths="true"
     inkscape:showpageshadow="false"
     showguides="false"
     inkscape:guide-bbox="true"
     inkscape:bbox-nodes="true"
     inkscape:snap-global="false">
    <inkscape:grid
       enabled="true"
       visible="true"
       id="grid4079"
       type="xygrid"
       empspacing="5" />
    <sodipodi:guide
       id="guide7317"
       position="566.05335,854.14667"
       orientation="1,0" />
  </sodipodi:namedview>
  <defs
     id="defs4">
    <inkscape:perspective
       sodipodi:type="inkscape:persp3d"
       inkscape:vp_x="0 : 24 : 1"
       inkscape:vp_y="0 : 1000 : 0"
       inkscape:vp_z="48 : 24 : 1"
       inkscape:persp3d-origin="24 : 16 : 1"
       id="perspective13" />
    <inkscape:perspective
       id="perspective5528"
       inkscape:persp3d-origin="0.5 : 0.33333333 : 1"
       inkscape:vp_z="1 : 0.5 : 1"
       inkscape:vp_y="0 : 1000 : 0"
       inkscape:vp_x="0 : 0.5 : 1"
       sodipodi:type="inkscape:persp3d" />
    <inkscape:perspective
       sodipodi:type="inkscape:persp3d"
       inkscape:vp_x="0 : 0.5 : 1"
       inkscape:vp_y="0 : 1000 : 0"
       inkscape:vp_z="1 : 0.5 : 1"
       inkscape:persp3d-origin="0.5 : 0.33333333 : 1"
       id="perspective5661-5" />
    <inkscape:perspective
       sodipodi:type="inkscape:persp3d"
       inkscape:vp_x="0 : 0.5 : 1"
       inkscape:vp_y="0 : 1000 : 0"
       inkscape:vp_z="1 : 0.5 : 1"
       inkscape:persp3d-origin="0.5 : 0.33333333 : 1"
       id="perspective5661" />
    <inkscape:perspective
       sodipodi:type="inkscape:persp3d"
       inkscape:vp_x="0 : 24 : 1"
       inkscape:vp_y="0 : 1000 : 0"
       inkscape:vp_z="48 : 24 : 1"
       inkscape:persp3d-origin="24 : 16 : 1"
       id="perspective18-6" />
    <inkscape:perspective
       sodipodi:type="inkscape:persp3d"
       inkscape:vp_x="0 : 0.5 : 1"
       inkscape:vp_y="0 : 1000 : 0"
       inkscape:vp_z="1 : 0.5 : 1"
       inkscape:persp3d-origin="0.5 : 0.33333333 : 1"
       id="perspective5592" />
    <inkscape:perspective
       sodipodi:type="inkscape:persp3d"
       inkscape:vp_x="0 : 0.5 : 1"
       inkscape:vp_y="0 : 1000 : 0"
       inkscape:vp_z="1 : 0.5 : 1"
       inkscape:persp3d-origin="0.5 : 0.33333333 : 1"
       id="perspective5534" />
    <inkscape:perspective
       id="perspective18"
       inkscape:persp3d-origin="24 : 16 : 1"
       inkscape:vp_z="48 : 24 : 1"
       inkscape:vp_y="0 : 1000 : 0"
       inkscape:vp_x="0 : 24 : 1"
       sodipodi:type="inkscape:persp3d" />
  </defs>
  <metadata
     id="metadata7">
    <rdf:RDF>
      <cc:Work
         rdf:about="">
        <dc:format>image/svg+xml</dc:format>
        <dc:type
           rdf:resource="http://purl.org/dc/dcmitype/StillImage" />
        <dc:title></dc:title>
      </cc:Work>
    </rdf:RDF>
  </metadata>
  <g
     style="display:inline"
     id="layer1"
     inkscape:groupmode="layer"
     inkscape:label="Layer 1">
    <g
       id="g5544"
       transform="translate(0.00760429,1.2165429)">
      <path
         sodipodi:nodetypes="cccsccc"
         style="fill:#000000;fill-opacity:1;stroke:none;display:inline"
         d="m 8.3124107,23.131025 c 0,0.93365 0.751649,1.68533 1.685309,1.68532 l 27.9916073,1e-5 c 0.93367,-1e-5 1.68531,-0.75168 1.68532,-1.68533 0,-0.9337 -0.75165,-1.68534 -1.68532,-1.68533 l -27.9916073,-10e-6 c -0.93366,0 -1.685309,0.75164 -1.685309,1.68534 z"
         id="path5541" />
      <path
         id="path6322"
         d="m 8.8190858,24.268972 c 0.66019,0.66019 1.7232042,0.660212 2.3833952,8e-6 L 25.21413,10.257344 c 0.660198,-0.660211 0.660176,-1.723212 -7e-6,-2.383409 -0.660225,-0.660226 -1.723212,-0.660219 -2.383409,-7e-6 L 8.8190638,21.885563 c -0.660197,0.660198 -0.660204,1.723183 2.2e-5,2.383409 z"
         style="fill:#000000;fill-opacity:1;stroke:none;display:inline"
         sodipodi:nodetypes="cccsccc" />
      <path
         sodipodi:nodetypes="cccsccc"
         style="fill:#000000;fill-opacity:1;stroke:none;display:inline"
         d="m 39.19242,24.268972 c -0.66019,0.66019 -1.723204,0.660212 -2.383395,8e-6 L 22.797376,10.257344 c -0.660198,-0.660211 -0.660176,-1.723212 7e-6,-2.383409 0.660225,-0.660226 1.723212,-0.660219 2.383409,-7e-6 l 14.01165,14.011635 c 0.660197,0.660198 0.660204,1.723183 -2.2e-5,2.383409 z"
         id="path6324" />
      <path
         sodipodi:nodetypes="cccsccc"
         style="fill:#000000;fill-opacity:1;stroke:none;display:inline"
         d="m 8.3124107,29.799675 c 0,0.93365 0.751649,1.68533 1.685309,1.68532 l 27.9916073,10e-6 c 0.93367,-10e-6 1.68531,-0.75168 1.68532,-1.68533 0,-0.9337 -0.75165,-1.68534 -1.68532,-1.68533 l -27.9916073,-10e-6 c -0.93366,0 -1.685309,0.75164 -1.685309,1.68534 z"
         id="path5533" />
      <path
         id="path5535"
         d="m 9.982542,38.116238 c 0.93365,0 1.68533,-0.751649 1.68532,-1.685309 l 10e-6,-6.619552 c -10e-6,-0.93367 -0.75168,-1.68531 -1.68533,-1.68532 -0.9337002,0 -1.6853402,0.75165 -1.6853302,1.68532 l -10e-6,6.619552 c 0,0.93366 0.75164,1.685309 1.6853402,1.685309 z"
         style="fill:#000000;fill-opacity:1;stroke:none;display:inline"
         sodipodi:nodetypes="cccsccc" />
      <path
         id="path5539"
         d="m 8.3124107,36.502817 c 0,0.93365 0.751649,1.68533 1.685309,1.68532 l 27.9916073,1e-5 c 0.93367,-1e-5 1.68531,-0.75168 1.68532,-1.68533 0,-0.9337 -0.75165,-1.68534 -1.68532,-1.68533 l -27.9916073,-1e-5 c -0.93366,0 -1.685309,0.75164 -1.685309,1.68534 z"
         style="fill:#000000;fill-opacity:1;stroke:none;display:inline"
         sodipodi:nodetypes="cccsccc" />
      <path
         sodipodi:nodetypes="cccsccc"
         style="fill:#000000;fill-opacity:1;stroke:none;display:inline"
         d="m 37.956376,38.116238 c 0.93365,0 1.68533,-0.751649 1.68532,-1.685309 l 10e-6,-6.619552 c -10e-6,-0.93367 -0.75168,-1.68531 -1.68533,-1.68532 -0.9337,0 -1.68534,0.75165 -1.68533,1.68532 l -10e-6,6.619552 c 0,0.93366 0.75164,1.685309 1.68534,1.685309 z"
         id="path5542" />
    </g>
  </g>
</svg>
