<?xml version="1.0" encoding="UTF-8" standalone="no"?>
<!-- Created with Inkscape (http://www.inkscape.org/) -->
<svg
   xmlns:dc="http://purl.org/dc/elements/1.1/"
   xmlns:cc="http://creativecommons.org/ns#"
   xmlns:rdf="http://www.w3.org/1999/02/22-rdf-syntax-ns#"
   xmlns:svg="http://www.w3.org/2000/svg"
   xmlns="http://www.w3.org/2000/svg"
   xmlns:sodipodi="http://sodipodi.sourceforge.net/DTD/sodipodi-0.dtd"
   xmlns:inkscape="http://www.inkscape.org/namespaces/inkscape"
   width="48"
   height="48"
   id="svg2"
   sodipodi:version="0.32"
   inkscape:version="0.46+devel"
   sodipodi:docname="system-log-out.svg"
   inkscape:output_extension="org.inkscape.output.svg.inkscape"
   inkscape:export-filename="/home/hbons/Desktop/Intel/svn/moblin-ui-docs/in progress/draft visual UI/icons/icons.png"
   inkscape:export-xdpi="60.476192"
   inkscape:export-ydpi="60.476192"
   version="1.0">
  <sodipodi:namedview
     id="base"
     pagecolor="#ffffff"
     bordercolor="#dcdcdc"
     borderopacity="1"
     gridtolerance="10000"
     guidetolerance="10"
     objecttolerance="10"
     inkscape:pageopacity="0"
     inkscape:pageshadow="2"
     inkscape:zoom="11.313708"
     inkscape:cx="32.49462"
     inkscape:cy="20.608724"
     inkscape:document-units="px"
     inkscape:current-layer="layer1"
     showgrid="false"
     inkscape:window-width="1280"
     inkscape:window-height="750"
     inkscape:window-x="0"
     inkscape:window-y="0"
     inkscape:snap-intersection-line-segments="false"
     inkscape:snap-bbox="true"
     inkscape:snap-nodes="false"
     inkscape:bbox-paths="true"
     inkscape:showpageshadow="false"
     showguides="false"
     inkscape:guide-bbox="true"
     inkscape:bbox-nodes="true"
     inkscape:snap-global="false">
    <inkscape:grid
       enabled="true"
       visible="true"
       id="grid4079"
       type="xygrid"
       empspacing="5" />
    <sodipodi:guide
       id="guide7317"
       position="566.05335,854.14667"
       orientation="1,0" />
  </sodipodi:namedview>
  <defs
     id="defs4" />
  <metadata
     id="metadata7">
    <rdf:RDF>
      <cc:Work
         rdf:about="">
        <dc:format>image/svg+xml</dc:format>
        <dc:type
           rdf:resource="http://purl.org/dc/dcmitype/StillImage" />
        <dc:title />
      </cc:Work>
    </rdf:RDF>
  </metadata>
  <g
     style="display:inline"
     id="layer1"
     inkscape:groupmode="layer"
     inkscape:label="Layer 1">
    <g
       id="g5986"
       transform="translate(3.3086639,2.6173196e-7)">
      <path
         sodipodi:end="5.4977871"
         sodipodi:start="0.78539816"
         sodipodi:open="true"
         sodipodi:type="arc"
         style="fill:none;stroke:#000000;stroke-width:2.51438713;stroke-linecap:round;stroke-linejoin:miter;stroke-miterlimit:4;stroke-opacity:1;stroke-dasharray:none"
         id="path5897"
         sodipodi:cx="-17.969851"
         sodipodi:cy="-1.7168026"
         sodipodi:rx="10.97561"
         sodipodi:ry="10.97561"
         d="m -10.208922,6.0441255 c -4.284033,4.2840325 -11.237824,4.2840325 -15.521857,0 -4.284032,-4.2840323 -4.284032,-11.2378238 0,-15.5218562 4.284033,-4.2840323 11.237824,-4.2840323 15.521856,-3e-7"
         transform="matrix(1.3387935,0,0,1.3425785,41.566335,26.304942)" />
      <g
         transform="translate(0,-0.28929525)"
         id="g5981">
        <path
           sodipodi:nodetypes="cccsccc"
           id="path7193"
           d="m 31.7819,17.502624 c -0.6602,0.66019 -0.66021,1.72321 0,2.38343 l 5.59113,5.59113 c 0.6602,0.6602 1.72323,0.66018 2.38341,0 0.66024,-0.66024 0.66022,-1.72322 0,-2.38342 l -5.59113,-5.59114 c -0.66019,-0.6602 -1.72318,-0.66022 -2.38341,0 z"
           style="fill:#000000;fill-opacity:1;stroke:none" />
        <path
           sodipodi:nodetypes="cccsccc"
           style="fill:#000000;fill-opacity:1;stroke:none"
           d="m 31.7819,31.075974 c 0.6602,0.66019 1.72321,0.66021 2.38341,0 l 5.59113,-5.59113 c 0.66022,-0.6602 0.6602,-1.72322 0,-2.38341 -0.66022,-0.66022 -1.72321,-0.66021 -2.38341,0 l -5.59113,5.59113 c -0.66021,0.66019 -0.66021,1.72319 0,2.38341 z"
           id="path7201" />
        <path
           style="fill:#000000;fill-opacity:1;stroke:none"
           d="m 20.543629,24.291598 c -8e-6,0.933657 0.751654,1.685333 1.685339,1.68534 l 14.337304,0 c 0.933664,0 1.685326,-0.75169 1.685326,-1.685325 0,-0.933721 -0.751655,-1.685347 -1.685333,-1.685333 l -14.337311,-7e-6 c -0.933657,-7e-6 -1.685318,0.751626 -1.685325,1.685325 z"
           id="path5522"
           sodipodi:nodetypes="cccsccc" />
      </g>
    </g>
  </g>
</svg>
