<?xml version="1.0" encoding="UTF-8" standalone="no"?>
<!-- Created with Inkscape (http://www.inkscape.org/) -->
<svg
   xmlns:dc="http://purl.org/dc/elements/1.1/"
   xmlns:cc="http://creativecommons.org/ns#"
   xmlns:rdf="http://www.w3.org/1999/02/22-rdf-syntax-ns#"
   xmlns:svg="http://www.w3.org/2000/svg"
   xmlns="http://www.w3.org/2000/svg"
   xmlns:sodipodi="http://sodipodi.sourceforge.net/DTD/sodipodi-0.dtd"
   xmlns:inkscape="http://www.inkscape.org/namespaces/inkscape"
   width="48"
   height="48"
   id="svg2"
   sodipodi:version="0.32"
   inkscape:version="0.46+devel"
   sodipodi:docname="tab-new.svg"
   inkscape:output_extension="org.inkscape.output.svg.inkscape"
   inkscape:export-filename="/home/hbons/Desktop/Intel/icons.png"
   inkscape:export-xdpi="90"
   inkscape:export-ydpi="90"
   version="1.0">
  <defs
     id="defs4" />
  <sodipodi:namedview
     id="base"
     pagecolor="#ffffff"
     bordercolor="#666666"
     borderopacity="1.0"
     gridtolerance="10000"
     guidetolerance="10"
     objecttolerance="10"
     inkscape:pageopacity="0.0"
     inkscape:pageshadow="2"
     inkscape:zoom="8"
     inkscape:cx="52.523344"
     inkscape:cy="22.554874"
     inkscape:document-units="px"
     inkscape:current-layer="layer1"
     showgrid="false"
     inkscape:window-width="1280"
     inkscape:window-height="750"
     inkscape:window-x="0"
     inkscape:window-y="0"
     inkscape:snap-intersection-line-segments="false"
     inkscape:snap-bbox="false"
     inkscape:snap-nodes="true"
     inkscape:bbox-paths="true"
     showguides="true"
     inkscape:guide-bbox="true">
    <inkscape:grid
       type="xygrid"
       id="grid4079"
       visible="true"
       enabled="true"
       empspacing="5" />
  </sodipodi:namedview>
  <metadata
     id="metadata7">
    <rdf:RDF>
      <cc:Work
         rdf:about="">
        <dc:format>image/svg+xml</dc:format>
        <dc:type
           rdf:resource="http://purl.org/dc/dcmitype/StillImage" />
        <dc:title />
      </cc:Work>
    </rdf:RDF>
  </metadata>
  <g
     inkscape:label="Layer 1"
     inkscape:groupmode="layer"
     id="layer1"
     transform="translate(-9.3897648,-13.175828)">
    <g
       id="g7256"
       transform="translate(2e-7,-2.4909644)">
      <path
         sodipodi:end="3.1415927"
         sodipodi:start="1.5707963"
         transform="matrix(0,0.16424416,-0.16405989,0,49.828366,39.030575)"
         d="m -25.809396,202.41983 c -12.685496,0 -22.980971,-10.29548 -22.980971,-22.98097 0,0 0,0 0,0"
         sodipodi:ry="22.98097"
         sodipodi:rx="22.98097"
         sodipodi:cy="179.43886"
         sodipodi:cx="-25.809397"
         id="path5901"
         style="fill:none;stroke:#000000;stroke-width:20.53379822;stroke-linecap:round;stroke-miterlimit:4;stroke-opacity:1;stroke-dasharray:none;stroke-dashoffset:0;display:inline"
         sodipodi:type="arc"
         sodipodi:open="true" />
      <rect
         transform="matrix(0,-1,1,0,0,0)"
         style="fill:#000000;fill-opacity:1;stroke:none"
         id="rect5829"
         width="15.11573"
         height="3.3710001"
         x="-47.948914"
         y="14.950651"
         rx="1.6855001"
         ry="1.6855" />
      <path
         sodipodi:open="true"
         sodipodi:type="arc"
         style="fill:none;stroke:#000000;stroke-width:20.53379822;stroke-linecap:round;stroke-miterlimit:4;stroke-opacity:1;stroke-dasharray:none;stroke-dashoffset:0;display:inline"
         id="path5831"
         sodipodi:cx="-25.809397"
         sodipodi:cy="179.43886"
         sodipodi:rx="22.98097"
         sodipodi:ry="22.98097"
         d="m -25.809396,202.41983 c -12.685496,0 -22.980971,-10.29548 -22.980971,-22.98097 0,0 0,0 0,0"
         transform="matrix(-0.16424416,0,0,0.16405989,8.5957332,17.10281)"
         sodipodi:start="1.5707963"
         sodipodi:end="3.1415927" />
      <path
         sodipodi:end="3.1415927"
         sodipodi:start="1.5707963"
         transform="matrix(0.16424416,0,0,0.16405989,58.183796,17.10281)"
         d="m -25.809396,202.41983 c -12.685496,0 -22.980971,-10.29548 -22.980971,-22.98097 0,0 0,0 0,0"
         sodipodi:ry="22.98097"
         sodipodi:rx="22.98097"
         sodipodi:cy="179.43886"
         sodipodi:cx="-25.809397"
         id="path5863"
         style="fill:none;stroke:#000000;stroke-width:20.53379822;stroke-linecap:round;stroke-miterlimit:4;stroke-opacity:1;stroke-dasharray:none;stroke-dashoffset:0;display:inline"
         sodipodi:type="arc"
         sodipodi:open="true" />
      <path
         sodipodi:nodetypes="cscccccccscc"
         id="rect5825"
         d="m 20.446429,29.334409 c -0.933767,0 -1.6875,0.753733 -1.6875,1.6875 0,0.933767 0.753733,1.6875 1.6875,1.6875 l 17.187495,0 c -0.36336,-1.149414 -0.17573,-2.45924 0.6875,-3.375 l -17.874995,0 z m 31.406245,13.53125 c -0.9152,0.865325 -2.22479,1.050164 -3.375,0.6875 l 0,2.5625 c 0,0.933767 0.75374,1.6875 1.6875,1.6875 0.93377,0 1.6875,-0.753733 1.6875,-1.6875 l 0,-3.25 z"
         style="fill:#000000;fill-opacity:1;stroke:none" />
      <path
         style="fill:#000000;fill-opacity:1;stroke:none"
         d="m 45.156584,27.336468 c -0.93377,0 -1.6875,0.753733 -1.6875,1.6875 l 0,2 c 0,0.933767 0.75373,1.6875 1.6875,1.6875 0.93377,0 1.6875,-0.753733 1.6875,-1.6875 l 0,-2 c 0,-0.933767 -0.75373,-1.6875 -1.6875,-1.6875 z m -4.34375,2.625 c -0.43085,0 -0.88862,0.169863 -1.21875,0.5 -0.66028,0.660273 -0.66028,1.714727 0,2.375 l 0.84375,0.84375 c 0.66027,0.660273 1.71472,0.660273 2.375,0 0.66027,-0.660273 0.66027,-1.714727 0,-2.375 l -0.8125,-0.84375 c -0.33014,-0.330137 -0.75666,-0.5 -1.1875,-0.5 z m 8.6875,0 c -0.43085,0 -0.85737,0.169863 -1.1875,0.5 l -0.84375,0.84375 c -0.66028,0.660273 -0.66028,1.714727 0,2.375 0.66027,0.660273 1.74597,0.660273 2.40625,0 l 0.8125,-0.84375 c 0.66027,-0.660273 0.66027,-1.714727 0,-2.375 -0.33014,-0.330137 -0.75666,-0.5 -1.1875,-0.5 z m -11.34375,4.375 c -0.93377,0 -1.687502,0.722483 -1.687502,1.65625 0,0.933767 0.753732,1.6875 1.687502,1.6875 l 2.03125,0 c 0.93377,0 1.6875,-0.753733 1.6875,-1.6875 0,-0.933767 -0.75373,-1.65625 -1.6875,-1.65625 l -2.03125,0 z m 11.96875,0 c -0.93377,0 -1.6875,0.722483 -1.6875,1.65625 0,0.933767 0.75373,1.6875 1.6875,1.6875 l 2,0 c 0.93377,0 1.6875,-0.753733 1.6875,-1.6875 0,-0.933767 -0.75373,-1.65625 -1.6875,-1.65625 l -2,0 z m -8.5,3.5 c -0.43085,0 -0.85737,0.169864 -1.1875,0.5 l -0.84375,0.84375 c -0.66028,0.660273 -0.66028,1.714727 0,2.375 0.66027,0.660273 1.74597,0.660273 2.40625,0 l 0.8125,-0.84375 c 0.66027,-0.660273 0.66027,-1.714727 0,-2.375 -0.33014,-0.330136 -0.75666,-0.5 -1.1875,-0.5 z m 7.0625,0 c -0.43085,0 -0.88862,0.169864 -1.21875,0.5 -0.66028,0.660273 -0.66028,1.714727 0,2.375 l 0.84375,0.84375 c 0.66027,0.660273 1.71472,0.660273 2.375,0 0.66027,-0.660273 0.66027,-1.714727 0,-2.375 l -0.8125,-0.84375 c -0.33014,-0.330136 -0.75666,-0.5 -1.1875,-0.5 z m -3.53125,1.46875 c -0.93377,0 -1.6875,0.753733 -1.6875,1.6875 l 0,2 c 0,0.933767 0.75373,1.6875 1.6875,1.6875 0.93377,0 1.6875,-0.753733 1.6875,-1.6875 l 0,-2 c 0,-0.933767 -0.75373,-1.6875 -1.6875,-1.6875 z"
         id="path6730-3"
         sodipodi:nodetypes="cccsccccsccsccccccsccsccsccscccsccscccccsccsccsccsccccccsccc" />
    </g>
  </g>
</svg>
