<?xml version="1.0" encoding="UTF-8" standalone="no"?>
<!-- Created with Inkscape (http://www.inkscape.org/) -->
<svg
   xmlns:dc="http://purl.org/dc/elements/1.1/"
   xmlns:cc="http://creativecommons.org/ns#"
   xmlns:rdf="http://www.w3.org/1999/02/22-rdf-syntax-ns#"
   xmlns:svg="http://www.w3.org/2000/svg"
   xmlns="http://www.w3.org/2000/svg"
   xmlns:sodipodi="http://sodipodi.sourceforge.net/DTD/sodipodi-0.dtd"
   xmlns:inkscape="http://www.inkscape.org/namespaces/inkscape"
   width="48"
   height="48"
   id="svg2"
   sodipodi:version="0.32"
   inkscape:version="0.46+devel r20711"
   sodipodi:docname="document-save-as.svg"
   inkscape:output_extension="org.inkscape.output.svg.inkscape"
   inkscape:export-filename="/home/hbons/Desktop/Intel/icons.png"
   inkscape:export-xdpi="90"
   inkscape:export-ydpi="90"
   version="1.0">
  <defs
     id="defs4">
    <inkscape:perspective
       sodipodi:type="inkscape:persp3d"
       inkscape:vp_x="0 : 24 : 1"
       inkscape:vp_y="0 : 1000 : 0"
       inkscape:vp_z="48 : 24 : 1"
       inkscape:persp3d-origin="24 : 16 : 1"
       id="perspective23" />
    <inkscape:perspective
       id="perspective17"
       inkscape:persp3d-origin="24 : 16 : 1"
       inkscape:vp_z="48 : 24 : 1"
       inkscape:vp_y="0 : 1000 : 0"
       inkscape:vp_x="0 : 24 : 1"
       sodipodi:type="inkscape:persp3d" />
    <inkscape:perspective
       sodipodi:type="inkscape:persp3d"
       inkscape:vp_x="0 : 24 : 1"
       inkscape:vp_y="0 : 1000 : 0"
       inkscape:vp_z="48 : 24 : 1"
       inkscape:persp3d-origin="24 : 16 : 1"
       id="perspective2870" />
    <inkscape:perspective
       sodipodi:type="inkscape:persp3d"
       inkscape:vp_x="0 : 24 : 1"
       inkscape:vp_y="0 : 1000 : 0"
       inkscape:vp_z="48 : 24 : 1"
       inkscape:persp3d-origin="24 : 16 : 1"
       id="perspective14" />
    <inkscape:perspective
       id="perspective21"
       inkscape:persp3d-origin="24 : 16 : 1"
       inkscape:vp_z="48 : 24 : 1"
       inkscape:vp_y="0 : 1000 : 0"
       inkscape:vp_x="0 : 24 : 1"
       sodipodi:type="inkscape:persp3d" />
    <inkscape:perspective
       id="perspective2879"
       inkscape:persp3d-origin="24 : 16 : 1"
       inkscape:vp_z="48 : 24 : 1"
       inkscape:vp_y="0 : 1000 : 0"
       inkscape:vp_x="0 : 24 : 1"
       sodipodi:type="inkscape:persp3d" />
    <inkscape:perspective
       id="perspective23-9"
       inkscape:persp3d-origin="24 : 16 : 1"
       inkscape:vp_z="48 : 24 : 1"
       inkscape:vp_y="0 : 1000 : 0"
       inkscape:vp_x="0 : 24 : 1"
       sodipodi:type="inkscape:persp3d" />
    <inkscape:perspective
       sodipodi:type="inkscape:persp3d"
       inkscape:vp_x="0 : 0.5 : 1"
       inkscape:vp_y="0 : 1000 : 0"
       inkscape:vp_z="1 : 0.5 : 1"
       inkscape:persp3d-origin="0.5 : 0.33333333 : 1"
       id="perspective2911" />
    <inkscape:perspective
       sodipodi:type="inkscape:persp3d"
       inkscape:vp_x="0 : 24 : 1"
       inkscape:vp_y="0 : 1000 : 0"
       inkscape:vp_z="48 : 24 : 1"
       inkscape:persp3d-origin="24 : 16 : 1"
       id="perspective2870-6" />
    <inkscape:perspective
       sodipodi:type="inkscape:persp3d"
       inkscape:vp_x="0 : 24 : 1"
       inkscape:vp_y="0 : 1000 : 0"
       inkscape:vp_z="48 : 24 : 1"
       inkscape:persp3d-origin="24 : 16 : 1"
       id="perspective14-3" />
    <inkscape:perspective
       id="perspective21-5"
       inkscape:persp3d-origin="24 : 16 : 1"
       inkscape:vp_z="48 : 24 : 1"
       inkscape:vp_y="0 : 1000 : 0"
       inkscape:vp_x="0 : 24 : 1"
       sodipodi:type="inkscape:persp3d" />
    <inkscape:perspective
       id="perspective2879-6"
       inkscape:persp3d-origin="24 : 16 : 1"
       inkscape:vp_z="48 : 24 : 1"
       inkscape:vp_y="0 : 1000 : 0"
       inkscape:vp_x="0 : 24 : 1"
       sodipodi:type="inkscape:persp3d" />
    <inkscape:perspective
       id="perspective23-4"
       inkscape:persp3d-origin="24 : 16 : 1"
       inkscape:vp_z="48 : 24 : 1"
       inkscape:vp_y="0 : 1000 : 0"
       inkscape:vp_x="0 : 24 : 1"
       sodipodi:type="inkscape:persp3d" />
  </defs>
  <sodipodi:namedview
     id="base"
     pagecolor="#ffffff"
     bordercolor="#666666"
     borderopacity="1.0"
     gridtolerance="10000"
     guidetolerance="10"
     objecttolerance="10"
     inkscape:pageopacity="0.0"
     inkscape:pageshadow="2"
     inkscape:zoom="8"
     inkscape:cx="46.050526"
     inkscape:cy="23.63663"
     inkscape:document-units="px"
     inkscape:current-layer="layer1"
     showgrid="false"
     inkscape:window-width="1280"
     inkscape:window-height="752"
     inkscape:window-x="0"
     inkscape:window-y="0"
     inkscape:snap-intersection-line-segments="false"
     inkscape:snap-bbox="false"
     inkscape:snap-nodes="true"
     inkscape:bbox-paths="true">
    <inkscape:grid
       type="xygrid"
       id="grid4079"
       visible="true"
       enabled="true"
       empspacing="5" />
  </sodipodi:namedview>
  <metadata
     id="metadata7">
    <rdf:RDF>
      <cc:Work
         rdf:about="">
        <dc:format>image/svg+xml</dc:format>
        <dc:type
           rdf:resource="http://purl.org/dc/dcmitype/StillImage" />
        <dc:title></dc:title>
      </cc:Work>
    </rdf:RDF>
  </metadata>
  <g
     inkscape:label="Layer 1"
     inkscape:groupmode="layer"
     id="layer1"
     transform="translate(-9.3897648,-13.175828)">
    <path
       sodipodi:nodetypes="cccsccc"
       id="path7193"
       d="m 24.208741,28.859116 c 0.66019,-0.6602 1.72321,-0.66021 2.38343,0 l 7.59113,7.59113 c 0.6602,0.6602 0.66018,1.72323 0,2.38341 -0.66024,0.66024 -1.72322,0.66022 -2.38342,0 l -7.59114,-7.59113 c -0.6602,-0.66019 -0.66022,-1.72318 0,-2.38341 z"
       style="fill:#000000;fill-opacity:1;stroke:none" />
    <path
       sodipodi:nodetypes="cccsccc"
       style="fill:#000000;fill-opacity:1;stroke:none"
       d="m 41.782091,28.859116 c 0.66019,0.6602 0.66021,1.72321 0,2.38341 l -7.59113,7.59113 c -0.6602,0.66022 -1.72322,0.6602 -2.38341,0 -0.66022,-0.66022 -0.66021,-1.72321 0,-2.38341 l 7.59113,-7.59113 c 0.66019,-0.66021 1.72319,-0.66021 2.38341,0 z"
       id="path7201" />
    <path
       id="path7134"
       d="m 33.027881,18.18513 c 0.933657,7e-6 1.685333,0.751655 1.685326,1.685326 l 0,15.054771 c 1.4e-5,0.933677 -0.751669,1.685332 -1.685326,1.685325 -0.933692,0 -1.685332,-0.751655 -1.685325,-1.685325 l 0,-15.054771 c -1.4e-5,-0.933664 0.75164,-1.685319 1.685325,-1.685326 z"
       style="fill:#000000;fill-opacity:1;stroke:none"
       sodipodi:nodetypes="cccsccc" />
    <path
       id="path7348-1"
       d="m 38.236634,45.915451 c -0.93368,0 -1.68532,0.75168 -1.68531,1.68533 l 2e-5,0.008 c -3e-5,0.93369 0.75161,1.68533 1.68532,1.68533 0.93364,0 1.685319,-0.75164 1.685319,-1.68533 l -10e-6,-0.008 c 10e-6,-0.93365 -0.751669,-1.68533 -1.685339,-1.68533 z"
       style="fill:#000000;fill-opacity:1;stroke:none;display:inline"
       sodipodi:nodetypes="cccsccc" />
    <path
       id="path6484"
       d="m 33.194628,45.915451 c -0.93368,0 -1.68532,0.75168 -1.68531,1.68533 l 2e-5,0.008 c -3e-5,0.93369 0.75161,1.68533 1.68532,1.68533 0.93364,0 1.685319,-0.75164 1.685319,-1.68533 l -10e-6,-0.008 c 10e-6,-0.93365 -0.751669,-1.68533 -1.685339,-1.68533 z"
       style="fill:#000000;fill-opacity:1;stroke:none;display:inline"
       sodipodi:nodetypes="cccsccc" />
    <path
       id="path6488"
       d="m 28.149912,45.915451 c -0.93368,0 -1.68532,0.75168 -1.68531,1.68533 l 2e-5,0.008 c -3e-5,0.93369 0.75161,1.68533 1.68532,1.68533 0.93364,0 1.685319,-0.75164 1.685319,-1.68533 l -10e-6,-0.008 c 10e-6,-0.93365 -0.751669,-1.68533 -1.685339,-1.68533 z"
       style="fill:#000000;fill-opacity:1;stroke:none;display:inline"
       sodipodi:nodetypes="cccsccc" />
  </g>
</svg>
