<?xml version="1.0" encoding="UTF-8" standalone="no"?>
<!-- Created with Inkscape (http://www.inkscape.org/) -->

<svg
   xmlns:dc="http://purl.org/dc/elements/1.1/"
   xmlns:cc="http://creativecommons.org/ns#"
   xmlns:rdf="http://www.w3.org/1999/02/22-rdf-syntax-ns#"
   xmlns:svg="http://www.w3.org/2000/svg"
   xmlns="http://www.w3.org/2000/svg"
   xmlns:sodipodi="http://sodipodi.sourceforge.net/DTD/sodipodi-0.dtd"
   xmlns:inkscape="http://www.inkscape.org/namespaces/inkscape"
   width="48"
   height="48"
   id="svg2"
   sodipodi:version="0.32"
   inkscape:version="0.46+devel r21202"
   sodipodi:docname="document-save-as.svg"
   inkscape:output_extension="org.inkscape.output.svg.inkscape"
   inkscape:export-filename="/home/hbons/Desktop/Intel/icons.png"
   inkscape:export-xdpi="90"
   inkscape:export-ydpi="90"
   version="1.0">
  <defs
     id="defs4">
    <inkscape:perspective
       sodipodi:type="inkscape:persp3d"
       inkscape:vp_x="0 : 24 : 1"
       inkscape:vp_y="0 : 1000 : 0"
       inkscape:vp_z="48 : 24 : 1"
       inkscape:persp3d-origin="24 : 16 : 1"
       id="perspective17" />
    <inkscape:perspective
       sodipodi:type="inkscape:persp3d"
       inkscape:vp_x="0 : 0.5 : 1"
       inkscape:vp_y="0 : 1000 : 0"
       inkscape:vp_z="1 : 0.5 : 1"
       inkscape:persp3d-origin="0.5 : 0.33333333 : 1"
       id="perspective2773" />
    <inkscape:perspective
       sodipodi:type="inkscape:persp3d"
       inkscape:vp_x="0 : 0.5 : 1"
       inkscape:vp_y="0 : 1000 : 0"
       inkscape:vp_z="1 : 0.5 : 1"
       inkscape:persp3d-origin="0.5 : 0.33333333 : 1"
       id="perspective2871" />
    <inkscape:perspective
       id="perspective15"
       inkscape:persp3d-origin="24 : 16 : 1"
       inkscape:vp_z="48 : 24 : 1"
       inkscape:vp_y="0 : 1000 : 0"
       inkscape:vp_x="0 : 24 : 1"
       sodipodi:type="inkscape:persp3d" />
    <inkscape:perspective
       id="perspective2803"
       inkscape:persp3d-origin="0.5 : 0.33333333 : 1"
       inkscape:vp_z="1 : 0.5 : 1"
       inkscape:vp_y="0 : 1000 : 0"
       inkscape:vp_x="0 : 0.5 : 1"
       sodipodi:type="inkscape:persp3d" />
    <inkscape:perspective
       id="perspective3614"
       inkscape:persp3d-origin="0.5 : 0.33333333 : 1"
       inkscape:vp_z="1 : 0.5 : 1"
       inkscape:vp_y="0 : 1000 : 0"
       inkscape:vp_x="0 : 0.5 : 1"
       sodipodi:type="inkscape:persp3d" />
    <inkscape:perspective
       sodipodi:type="inkscape:persp3d"
       inkscape:vp_x="0 : 0.5 : 1"
       inkscape:vp_y="0 : 1000 : 0"
       inkscape:vp_z="1 : 0.5 : 1"
       inkscape:persp3d-origin="0.5 : 0.33333333 : 1"
       id="perspective2798" />
    <inkscape:perspective
       sodipodi:type="inkscape:persp3d"
       inkscape:vp_x="0 : 24 : 1"
       inkscape:vp_y="0 : 1000 : 0"
       inkscape:vp_z="48 : 24 : 1"
       inkscape:persp3d-origin="24 : 16 : 1"
       id="perspective15-6" />
    <inkscape:perspective
       id="perspective2871-6"
       inkscape:persp3d-origin="0.5 : 0.33333333 : 1"
       inkscape:vp_z="1 : 0.5 : 1"
       inkscape:vp_y="0 : 1000 : 0"
       inkscape:vp_x="0 : 0.5 : 1"
       sodipodi:type="inkscape:persp3d" />
    <inkscape:perspective
       id="perspective2773-2"
       inkscape:persp3d-origin="0.5 : 0.33333333 : 1"
       inkscape:vp_z="1 : 0.5 : 1"
       inkscape:vp_y="0 : 1000 : 0"
       inkscape:vp_x="0 : 0.5 : 1"
       sodipodi:type="inkscape:persp3d" />
    <inkscape:perspective
       id="perspective13"
       inkscape:persp3d-origin="24 : 16 : 1"
       inkscape:vp_z="48 : 24 : 1"
       inkscape:vp_y="0 : 1000 : 0"
       inkscape:vp_x="0 : 24 : 1"
       sodipodi:type="inkscape:persp3d" />
  </defs>
  <sodipodi:namedview
     id="base"
     pagecolor="#ffffff"
     bordercolor="#666666"
     borderopacity="1.0"
     gridtolerance="10000"
     guidetolerance="10"
     objecttolerance="10"
     inkscape:pageopacity="0.0"
     inkscape:pageshadow="2"
     inkscape:zoom="22.627417"
     inkscape:cx="18.585404"
     inkscape:cy="20.418869"
     inkscape:document-units="px"
     inkscape:current-layer="layer1"
     showgrid="true"
     inkscape:window-width="1280"
     inkscape:window-height="750"
     inkscape:window-x="0"
     inkscape:window-y="0"
     inkscape:snap-intersection-line-segments="false"
     inkscape:snap-bbox="false"
     inkscape:snap-nodes="true"
     inkscape:bbox-paths="true">
    <inkscape:grid
       type="xygrid"
       id="grid4079"
       visible="true"
       enabled="true"
       empspacing="5" />
  </sodipodi:namedview>
  <metadata
     id="metadata7">
    <rdf:RDF>
      <cc:Work
         rdf:about="">
        <dc:format>image/svg+xml</dc:format>
        <dc:type
           rdf:resource="http://purl.org/dc/dcmitype/StillImage" />
        <dc:title />
      </cc:Work>
    </rdf:RDF>
  </metadata>
  <g
     inkscape:label="Layer 1"
     inkscape:groupmode="layer"
     id="layer1"
     transform="translate(-9.3897648,-13.175828)">
    <g
       id="g2805"
       transform="translate(-0.01068439,5.9952575)">
      <g
         transform="matrix(0,1,1,0,9.4289034,5.4917005)"
         id="g2823">
        <path
           sodipodi:nodetypes="cccsccc"
           id="rect2789-4"
           d="m -24.460862,9.6583822 c 0.831,0 1.5,0.6689998 1.5,1.4999998 L -23,32.501579 c 0,0.831 -0.669,1.5 -1.5,1.5 -0.831,0 -1.5,-0.669 -1.5,-1.5 l 0.03914,-21.343197 c 0,-0.831 0.669,-1.4999998 1.5,-1.4999998 z"
           style="fill:#000000;fill-opacity:1;stroke:none;display:inline"
           transform="matrix(0,-1,1,0,0,0)" />
        <path
           sodipodi:nodetypes="cccsccc"
           id="rect2819"
           d="m 5.6568542,25.630006 c 0.831,0 1.5,0.669 1.5,1.5 l 0,13.173152 c 0,0.831 -0.669,1.5 -1.5,1.5 -0.831,0 -1.5,-0.669 -1.5,-1.5 l 0,-13.173152 c 0,-0.831 0.669,-1.5 1.5,-1.5 z"
           style="fill:#000000;fill-opacity:1;stroke:none;display:inline"
           transform="matrix(0.70710678,-0.70710678,0.70710678,0.70710678,0,0)" />
        <path
           sodipodi:nodetypes="cccsccc"
           id="rect2821"
           d="m 40.305088,-9.0182279 c 0.831,0 1.5,0.669 1.5,1.5 l 0,13.1731523 c 0,0.831 -0.669,1.5 -1.5,1.5 -0.831,0 -1.5,-0.669 -1.5,-1.5 l 0,-13.1731523 c 0,-0.831 0.669,-1.5 1.5,-1.5 z"
           style="fill:#000000;fill-opacity:1;stroke:none;display:inline"
           transform="matrix(0.70710678,0.70710678,0.70710678,-0.70710678,0,0)" />
      </g>
      <path
         transform="matrix(0.6,0,0,0.6,24.030415,30.171762)"
         d="M 19,27.5 C 19,28.880712 17.880712,30 16.5,30 15.119288,30 14,28.880712 14,27.5 14,26.119288 15.119288,25 16.5,25 c 1.380712,0 2.5,1.119288 2.5,2.5 z"
         sodipodi:ry="2.5"
         sodipodi:rx="2.5"
         sodipodi:cy="27.5"
         sodipodi:cx="16.5"
         id="path2799"
         style="fill:#000000;fill-opacity:1;stroke:none"
         sodipodi:type="arc" />
      <path
         sodipodi:type="arc"
         style="fill:#000000;fill-opacity:1;stroke:none"
         id="path2801"
         sodipodi:cx="16.5"
         sodipodi:cy="27.5"
         sodipodi:rx="2.5"
         sodipodi:ry="2.5"
         d="M 19,27.5 C 19,28.880712 17.880712,30 16.5,30 15.119288,30 14,28.880712 14,27.5 14,26.119288 15.119288,25 16.5,25 c 1.380712,0 2.5,1.119288 2.5,2.5 z"
         transform="matrix(0.6,0,0,0.6,17.989765,30.171762)" />
      <path
         transform="matrix(0.6,0,0,0.6,29.989616,30.175828)"
         d="M 19,27.5 C 19,28.880712 17.880712,30 16.5,30 15.119288,30 14,28.880712 14,27.5 14,26.119288 15.119288,25 16.5,25 c 1.380712,0 2.5,1.119288 2.5,2.5 z"
         sodipodi:ry="2.5"
         sodipodi:rx="2.5"
         sodipodi:cy="27.5"
         sodipodi:cx="16.5"
         id="path2803"
         style="fill:#000000;fill-opacity:1;stroke:none"
         sodipodi:type="arc" />
    </g>
  </g>
</svg>
