<?xml version="1.0" encoding="UTF-8" standalone="no"?>
<!-- Created with Inkscape (http://www.inkscape.org/) -->
<svg
   xmlns:dc="http://purl.org/dc/elements/1.1/"
   xmlns:cc="http://creativecommons.org/ns#"
   xmlns:rdf="http://www.w3.org/1999/02/22-rdf-syntax-ns#"
   xmlns:svg="http://www.w3.org/2000/svg"
   xmlns="http://www.w3.org/2000/svg"
   xmlns:sodipodi="http://sodipodi.sourceforge.net/DTD/sodipodi-0.dtd"
   xmlns:inkscape="http://www.inkscape.org/namespaces/inkscape"
   width="48"
   height="48"
   id="svg2"
   sodipodi:version="0.32"
   inkscape:version="0.46+devel r20711"
   sodipodi:docname="mail-reply-sender.svg"
   inkscape:output_extension="org.inkscape.output.svg.inkscape"
   inkscape:export-filename="/home/hbons/Desktop/Intel/svn/moblin-ui-docs/in progress/draft visual UI/icons/icons.png"
   inkscape:export-xdpi="60.476192"
   inkscape:export-ydpi="60.476192"
   version="1.0">
  <sodipodi:namedview
     id="base"
     pagecolor="#ffffff"
     bordercolor="#dcdcdc"
     borderopacity="1"
     gridtolerance="10000"
     guidetolerance="10"
     objecttolerance="10"
     inkscape:pageopacity="0"
     inkscape:pageshadow="2"
     inkscape:zoom="1"
     inkscape:cx="39.928918"
     inkscape:cy="17.788886"
     inkscape:document-units="px"
     inkscape:current-layer="layer1"
     showgrid="false"
     inkscape:window-width="1278"
     inkscape:window-height="750"
     inkscape:window-x="0"
     inkscape:window-y="0"
     inkscape:snap-intersection-line-segments="false"
     inkscape:snap-bbox="true"
     inkscape:snap-nodes="false"
     inkscape:bbox-paths="true"
     inkscape:showpageshadow="false"
     showguides="false"
     inkscape:guide-bbox="true"
     inkscape:bbox-nodes="true"
     inkscape:snap-global="false">
    <inkscape:grid
       enabled="true"
       visible="true"
       id="grid4079"
       type="xygrid"
       empspacing="5" />
    <sodipodi:guide
       id="guide7317"
       position="566.05335,854.14667"
       orientation="1,0" />
  </sodipodi:namedview>
  <defs
     id="defs4">
    <inkscape:perspective
       sodipodi:type="inkscape:persp3d"
       inkscape:vp_x="0 : 24 : 1"
       inkscape:vp_y="0 : 1000 : 0"
       inkscape:vp_z="48 : 24 : 1"
       inkscape:persp3d-origin="24 : 16 : 1"
       id="perspective24" />
    <inkscape:perspective
       sodipodi:type="inkscape:persp3d"
       inkscape:vp_x="0 : 0.5 : 1"
       inkscape:vp_y="0 : 1000 : 0"
       inkscape:vp_z="1 : 0.5 : 1"
       inkscape:persp3d-origin="0.5 : 0.33333333 : 1"
       id="perspective2921" />
    <inkscape:perspective
       sodipodi:type="inkscape:persp3d"
       inkscape:vp_x="0 : 0.5 : 1"
       inkscape:vp_y="0 : 1000 : 0"
       inkscape:vp_z="1 : 0.5 : 1"
       inkscape:persp3d-origin="0.5 : 0.33333333 : 1"
       id="perspective2895" />
    <inkscape:perspective
       sodipodi:type="inkscape:persp3d"
       inkscape:vp_x="0 : 0.5 : 1"
       inkscape:vp_y="0 : 1000 : 0"
       inkscape:vp_z="1 : 0.5 : 1"
       inkscape:persp3d-origin="0.5 : 0.33333333 : 1"
       id="perspective2867" />
    <inkscape:perspective
       id="perspective27"
       inkscape:persp3d-origin="24 : 16 : 1"
       inkscape:vp_z="48 : 24 : 1"
       inkscape:vp_y="0 : 1000 : 0"
       inkscape:vp_x="0 : 24 : 1"
       sodipodi:type="inkscape:persp3d" />
    <inkscape:perspective
       id="perspective3001"
       inkscape:persp3d-origin="0.5 : 0.33333333 : 1"
       inkscape:vp_z="1 : 0.5 : 1"
       inkscape:vp_y="0 : 1000 : 0"
       inkscape:vp_x="0 : 0.5 : 1"
       sodipodi:type="inkscape:persp3d" />
  </defs>
  <metadata
     id="metadata7">
    <rdf:RDF>
      <cc:Work
         rdf:about="">
        <dc:format>image/svg+xml</dc:format>
        <dc:type
           rdf:resource="http://purl.org/dc/dcmitype/StillImage" />
        <dc:title></dc:title>
      </cc:Work>
    </rdf:RDF>
  </metadata>
  <g
     style="display:inline"
     id="layer1"
     inkscape:groupmode="layer"
     inkscape:label="Layer 1">
    <g
       transform="matrix(1.1369331,0,0,1.1369331,123.17507,34.694396)"
       id="g2914" />
    <g
       style="opacity:0.86021507;fill:#919191;fill-opacity:1;stroke:none"
       id="g2916"
       transform="matrix(1.3011952,0,0,1.3011952,8.7352697,1.8121009)">
      <g
         style="fill:#919191;fill-opacity:1;stroke:none"
         transform="matrix(1.1877472,0,0,1,43.621405,7.914052)"
         id="g2918" />
    </g>
    <g
       style="fill:none;stroke:#868686;stroke-opacity:1"
       id="g2920"
       transform="translate(-35.485078,1.896208)">
      <g
         style="fill:none;stroke:#868686;stroke-opacity:1"
         transform="matrix(1.1877472,0,0,1,43.621405,7.914052)"
         id="g2922" />
    </g>
    <rect
       ry="1.6855"
       rx="1.6854999"
       y="1.6679945"
       x="-45.495152"
       height="3.3710001"
       width="43.089561"
       id="rect2981"
       style="fill:#000000;fill-opacity:1;stroke:none"
       transform="scale(-1,1)" />
    <rect
       transform="matrix(0,1,1,0,0,0)"
       style="fill:#000000;fill-opacity:1;stroke:none"
       id="rect2983"
       width="33.233528"
       height="3.3710001"
       x="1.6701603"
       y="2.4099898"
       rx="1.6854999"
       ry="1.6855" />
    <path
       style="fill:#000000;fill-opacity:1;stroke:none;display:inline"
       d="m 43.90691,1.6484261 c -0.933767,0 -1.6875,0.7537371 -1.6875,1.687504 l 0,19.9192189 3.375,-0.01946 0,-19.8997629 c 0,-0.9337669 -0.753733,-1.6875 -1.6875,-1.6875 z M 4.1256599,31.64843 c -0.9337669,0 -1.6875,0.753733 -1.6875,1.6875 0,0.933767 0.7537331,1.65625 1.6875,1.65625 l 18.3871951,0 -3.365854,-3.34375 -15.0213411,0 z"
       id="rect2985"
       sodipodi:nodetypes="cccccccscccc" />
    <path
       style="fill:#000000;fill-opacity:1;stroke:none;display:inline"
       d="m 10.81316,8.3486348 c -0.430846,0 -0.8573638,0.169864 -1.1875001,0.5 -0.6602729,0.660273 -0.6602729,1.7459772 0,2.4062502 4.8230571,4.808989 9.6421791,9.621924 14.4687501,14.427387 l 14.5,-14.427387 c 0.660273,-0.660273 0.660273,-1.7459772 0,-2.4062502 -0.660273,-0.660273 -1.745977,-0.660273 -2.40625,0 L 24.12566,20.942385 12.03191,8.8486348 c -0.330137,-0.330137 -0.787904,-0.5 -1.21875,-0.5 z"
       id="path2989"
       sodipodi:nodetypes="cscccscccc" />
    <path
       style="fill:#000000;fill-opacity:1;stroke:none;display:inline"
       d="m 15.53191,19.536135 -5.9062501,5.875 c -0.6602729,0.660273 -0.6602729,1.745977 0,2.40625 0.6602731,0.660273 1.7459771,0.660273 2.4062501,0 l 5.875,-5.90625 -2.375,-2.375 z"
       id="path2991"
       sodipodi:nodetypes="ccsccc" />
    <rect
       ry="1.6855"
       rx="1.6854999"
       y="3.8083723"
       x="-56.343269"
       height="3.3710001"
       width="19.460337"
       id="rect3035"
       style="fill:#000000;fill-opacity:1;stroke:none"
       transform="matrix(-0.70710678,-0.70710678,-0.70710678,0.70710678,0,0)" />
    <rect
       transform="matrix(0.70710678,-0.70710678,-0.70710678,-0.70710678,0,0)"
       style="fill:#000000;fill-opacity:1;stroke:none"
       id="rect3041"
       width="19.651833"
       height="3.3710001"
       x="-7.2043457"
       y="-40.263588"
       rx="1.6854999"
       ry="1.6855" />
    <rect
       ry="1.6855"
       rx="1.6854999"
       y="-36.533199"
       x="-44.121006"
       height="3.3710001"
       width="10.199853"
       id="rect3945"
       style="fill:#000000;fill-opacity:1;stroke:none"
       transform="matrix(0,-1,-1,0,0,0)" />
    <rect
       transform="scale(1,-1)"
       style="fill:#000000;fill-opacity:1;stroke:none"
       id="rect3949"
       width="11.990551"
       height="3.3710001"
       x="33.50116"
       y="-37.242142"
       rx="1.6854999"
       ry="1.6855" />
    <rect
       transform="matrix(0,1,-1,0,0,0)"
       style="fill:#000000;fill-opacity:1;stroke:none"
       id="rect3957"
       width="10.199853"
       height="3.3710001"
       x="18.050348"
       y="-36.533199"
       rx="1.6854999"
       ry="1.6855" />
    <rect
       ry="1.6855"
       rx="1.6854999"
       y="24.929213"
       x="33.50116"
       height="3.3710001"
       width="11.990551"
       id="rect3959"
       style="fill:#000000;fill-opacity:1;stroke:none" />
    <rect
       transform="matrix(0,1,-1,0,0,0)"
       style="fill:#000000;fill-opacity:1;stroke:none"
       id="rect3963"
       width="12.031816"
       height="3.3710001"
       x="25.07926"
       y="-45.579891"
       rx="1.6854999"
       ry="1.6855" />
  </g>
</svg>
