<?xml version="1.0" encoding="UTF-8" standalone="no"?>
<!-- Created with Inkscape (http://www.inkscape.org/) -->
<svg
   xmlns:dc="http://purl.org/dc/elements/1.1/"
   xmlns:cc="http://creativecommons.org/ns#"
   xmlns:rdf="http://www.w3.org/1999/02/22-rdf-syntax-ns#"
   xmlns:svg="http://www.w3.org/2000/svg"
   xmlns="http://www.w3.org/2000/svg"
   xmlns:sodipodi="http://sodipodi.sourceforge.net/DTD/sodipodi-0.dtd"
   xmlns:inkscape="http://www.inkscape.org/namespaces/inkscape"
   width="48"
   height="48"
   id="svg2"
   sodipodi:version="0.32"
   inkscape:version="0.46+devel r20711"
   sodipodi:docname="mail-message-new.svg"
   inkscape:output_extension="org.inkscape.output.svg.inkscape"
   inkscape:export-filename="/home/hbons/Desktop/Intel/svn/moblin-ui-docs/in progress/draft visual UI/icons/icons.png"
   inkscape:export-xdpi="60.476192"
   inkscape:export-ydpi="60.476192"
   version="1.0">
  <sodipodi:namedview
     id="base"
     pagecolor="#ffffff"
     bordercolor="#dcdcdc"
     borderopacity="1"
     gridtolerance="10000"
     guidetolerance="10"
     objecttolerance="10"
     inkscape:pageopacity="0"
     inkscape:pageshadow="2"
     inkscape:zoom="16"
     inkscape:cx="30.931693"
     inkscape:cy="19.951502"
     inkscape:document-units="px"
     inkscape:current-layer="layer1"
     showgrid="false"
     inkscape:window-width="1278"
     inkscape:window-height="750"
     inkscape:window-x="0"
     inkscape:window-y="0"
     inkscape:snap-intersection-line-segments="false"
     inkscape:snap-bbox="true"
     inkscape:snap-nodes="false"
     inkscape:bbox-paths="true"
     inkscape:showpageshadow="false"
     showguides="false"
     inkscape:guide-bbox="true"
     inkscape:bbox-nodes="true"
     inkscape:snap-global="false">
    <inkscape:grid
       enabled="true"
       visible="true"
       id="grid4079"
       type="xygrid"
       empspacing="5" />
    <sodipodi:guide
       id="guide7317"
       position="566.05335,854.14667"
       orientation="1,0" />
  </sodipodi:namedview>
  <defs
     id="defs4">
    <inkscape:perspective
       sodipodi:type="inkscape:persp3d"
       inkscape:vp_x="0 : 24 : 1"
       inkscape:vp_y="0 : 1000 : 0"
       inkscape:vp_z="48 : 24 : 1"
       inkscape:persp3d-origin="24 : 16 : 1"
       id="perspective24" />
    <inkscape:perspective
       sodipodi:type="inkscape:persp3d"
       inkscape:vp_x="0 : 0.5 : 1"
       inkscape:vp_y="0 : 1000 : 0"
       inkscape:vp_z="1 : 0.5 : 1"
       inkscape:persp3d-origin="0.5 : 0.33333333 : 1"
       id="perspective2921" />
    <inkscape:perspective
       sodipodi:type="inkscape:persp3d"
       inkscape:vp_x="0 : 0.5 : 1"
       inkscape:vp_y="0 : 1000 : 0"
       inkscape:vp_z="1 : 0.5 : 1"
       inkscape:persp3d-origin="0.5 : 0.33333333 : 1"
       id="perspective2895" />
    <inkscape:perspective
       sodipodi:type="inkscape:persp3d"
       inkscape:vp_x="0 : 0.5 : 1"
       inkscape:vp_y="0 : 1000 : 0"
       inkscape:vp_z="1 : 0.5 : 1"
       inkscape:persp3d-origin="0.5 : 0.33333333 : 1"
       id="perspective2867" />
    <inkscape:perspective
       id="perspective27"
       inkscape:persp3d-origin="24 : 16 : 1"
       inkscape:vp_z="48 : 24 : 1"
       inkscape:vp_y="0 : 1000 : 0"
       inkscape:vp_x="0 : 24 : 1"
       sodipodi:type="inkscape:persp3d" />
    <inkscape:perspective
       id="perspective3001"
       inkscape:persp3d-origin="0.5 : 0.33333333 : 1"
       inkscape:vp_z="1 : 0.5 : 1"
       inkscape:vp_y="0 : 1000 : 0"
       inkscape:vp_x="0 : 0.5 : 1"
       sodipodi:type="inkscape:persp3d" />
    <inkscape:perspective
       id="perspective4127"
       inkscape:persp3d-origin="24 : 16 : 1"
       inkscape:vp_z="48 : 24 : 1"
       inkscape:vp_y="0 : 1000 : 0"
       inkscape:vp_x="0 : 24 : 1"
       sodipodi:type="inkscape:persp3d" />
    <inkscape:perspective
       id="perspective16"
       inkscape:persp3d-origin="24 : 16 : 1"
       inkscape:vp_z="48 : 24 : 1"
       inkscape:vp_y="0 : 1000 : 0"
       inkscape:vp_x="0 : 24 : 1"
       sodipodi:type="inkscape:persp3d" />
    <inkscape:perspective
       id="perspective4341"
       inkscape:persp3d-origin="0.5 : 0.33333333 : 1"
       inkscape:vp_z="1 : 0.5 : 1"
       inkscape:vp_y="0 : 1000 : 0"
       inkscape:vp_x="0 : 0.5 : 1"
       sodipodi:type="inkscape:persp3d" />
    <inkscape:perspective
       id="perspective2909"
       inkscape:persp3d-origin="0.5 : 0.33333333 : 1"
       inkscape:vp_z="1 : 0.5 : 1"
       inkscape:vp_y="0 : 1000 : 0"
       inkscape:vp_x="0 : 0.5 : 1"
       sodipodi:type="inkscape:persp3d" />
    <inkscape:perspective
       id="perspective2895-8"
       inkscape:persp3d-origin="0.5 : 0.33333333 : 1"
       inkscape:vp_z="1 : 0.5 : 1"
       inkscape:vp_y="0 : 1000 : 0"
       inkscape:vp_x="0 : 0.5 : 1"
       sodipodi:type="inkscape:persp3d" />
  </defs>
  <metadata
     id="metadata7">
    <rdf:RDF>
      <cc:Work
         rdf:about="">
        <dc:format>image/svg+xml</dc:format>
        <dc:type
           rdf:resource="http://purl.org/dc/dcmitype/StillImage" />
        <dc:title />
      </cc:Work>
    </rdf:RDF>
  </metadata>
  <g
     style="display:inline"
     id="layer1"
     inkscape:groupmode="layer"
     inkscape:label="Layer 1">
    <g
       id="g2918"
       transform="matrix(1.545491,0,0,1.3011952,64.137754,14.215405)"
       style="opacity:0.86021507;fill:#919191;fill-opacity:1;stroke:none" />
    <g
       id="g2922"
       transform="matrix(1.1877472,0,0,1,6.778848,11.915838)"
       style="fill:none;stroke:#868686;stroke-opacity:1" />
    <rect
       ry="1.6855"
       rx="1.6854999"
       y="3.7735722"
       x="-44.137672"
       height="3.3710001"
       width="43.089561"
       id="rect2981"
       style="fill:#000000;fill-opacity:1;stroke:none"
       transform="scale(-1,1)" />
    <rect
       transform="matrix(0,1,1,0,0,0)"
       style="fill:#000000;fill-opacity:1;stroke:none"
       id="rect2983"
       width="33.233528"
       height="3.3710001"
       x="3.775738"
       y="1.0525109"
       rx="1.6854999"
       ry="1.6855" />
    <path
       style="fill:#000000;fill-opacity:1;stroke:none;display:inline"
       d="m 42.556511,3.7540077 c -0.933767,0 -1.6875,0.7537331 -1.6875,1.6875 l 0,16.1875003 c 1.242435,0.529412 2.373006,1.27505 3.375,2.15625 l 0,-18.3437503 c 0,-0.9337669 -0.753733,-1.6875 -1.6875,-1.6875 z M 2.7752608,33.754008 c -0.9337669,0 -1.6875,0.753733 -1.6875,1.6875 0,0.933767 0.7537331,1.65625 1.6875,1.65625 l 21.2812502,0 c -0.345908,-1.067303 -0.547244,-2.175562 -0.59375,-3.34375 l -20.6875002,0 z"
       id="rect2985" />
    <path
       style="fill:#000000;fill-opacity:1;stroke:none;display:inline"
       d="m 9.455681,10.454212 c -0.430846,0 -0.8573637,0.169864 -1.1875,0.5 -0.6602729,0.660273 -0.6602729,1.745977 0,2.406251 4.823057,4.808989 9.642179,9.621924 14.46875,14.427387 l 14.5,-14.427387 c 0.660273,-0.660274 0.660273,-1.745978 0,-2.406251 -0.660273,-0.660273 -1.745977,-0.660273 -2.40625,0 l -12.0625,12.093751 -12.09375,-12.093751 c -0.330137,-0.330137 -0.787904,-0.5 -1.21875,-0.5 z"
       id="path2989"
       sodipodi:nodetypes="cscccscccc" />
    <path
       style="fill:#000000;fill-opacity:1;stroke:none;display:inline"
       d="m 14.174431,21.641713 -5.90625,5.875 c -0.6602729,0.660273 -0.6602729,1.745977 0,2.40625 0.660273,0.660273 1.745977,0.660273 2.40625,0 l 5.875,-5.90625 -2.375,-2.375 z"
       id="path2991"
       sodipodi:nodetypes="ccsccc" />
    <path
       style="fill:#000000;fill-opacity:1;stroke:none;display:inline"
       d="m 35.953037,24.777814 c -4.641565,0 -8.406251,3.764686 -8.406251,8.40625 0,4.641564 3.764686,8.40625 8.406251,8.40625 4.641564,0 8.40625,-3.764686 8.40625,-8.40625 0,-4.641564 -3.764686,-8.40625 -8.40625,-8.40625 z m -0.15625,1.22848 c 0.93373,4e-6 1.687524,0.753799 1.6875,1.6875 l 0,3.61527 3.484163,0 c 0.933696,-1.1e-5 1.68749,0.753883 1.6875,1.6875 -4e-6,0.93373 -0.753798,1.687524 -1.6875,1.6875 l -3.452913,0 0,3.577534 c 6e-6,0.933644 -0.753819,1.687497 -1.6875,1.6875 -0.933657,7e-6 -1.68751,-0.753856 -1.687501,-1.6875 l 0,-3.577534 -3.554624,0 c -0.933644,6e-6 -1.687497,-0.753819 -1.6875,-1.6875 -7e-6,-0.933657 0.753856,-1.687509 1.6875,-1.6875 l 3.523374,0 0,-3.61527 c -1.1e-5,-0.933695 0.753884,-1.68749 1.687501,-1.6875 z"
       id="path2881-0"
       sodipodi:nodetypes="cssscccccscccscccscccc" />
    <path
       sodipodi:type="arc"
       style="fill:none;stroke:#000000;stroke-width:3.98141599;stroke-linecap:round;stroke-linejoin:miter;stroke-miterlimit:4;stroke-opacity:1;stroke-dasharray:none;display:inline"
       id="path4171-6"
       sodipodi:cx="-17.969851"
       sodipodi:cy="-1.7168026"
       sodipodi:rx="10.97561"
       sodipodi:ry="10.97561"
       d="m -6.9942408,-1.7168026 a 10.97561,10.97561 0 1 1 -21.9512192,0 10.97561,10.97561 0 1 1 21.9512192,0 z"
       transform="matrix(0.84539338,0,0,0.84797623,51.007311,34.455808)" />
  </g>
</svg>
