<?xml version="1.0" encoding="UTF-8" standalone="no"?>
<!-- Created with Inkscape (http://www.inkscape.org/) -->
<svg
   xmlns:dc="http://purl.org/dc/elements/1.1/"
   xmlns:cc="http://creativecommons.org/ns#"
   xmlns:rdf="http://www.w3.org/1999/02/22-rdf-syntax-ns#"
   xmlns:svg="http://www.w3.org/2000/svg"
   xmlns="http://www.w3.org/2000/svg"
   xmlns:sodipodi="http://sodipodi.sourceforge.net/DTD/sodipodi-0.dtd"
   xmlns:inkscape="http://www.inkscape.org/namespaces/inkscape"
   width="48"
   height="48"
   id="svg2"
   sodipodi:version="0.32"
   inkscape:version="0.46+devel r20711"
   sodipodi:docname="synchronize.svg"
   inkscape:output_extension="org.inkscape.output.svg.inkscape"
   inkscape:export-filename="/home/hbons/Desktop/Intel/svn/moblin-ui-docs/in progress/draft visual UI/icons/icons.png"
   inkscape:export-xdpi="60.476192"
   inkscape:export-ydpi="60.476192"
   version="1.0">
  <sodipodi:namedview
     id="base"
     pagecolor="#ffffff"
     bordercolor="#dcdcdc"
     borderopacity="1"
     gridtolerance="10000"
     guidetolerance="10"
     objecttolerance="10"
     inkscape:pageopacity="0"
     inkscape:pageshadow="2"
     inkscape:zoom="8"
     inkscape:cx="33.35213"
     inkscape:cy="27.233637"
     inkscape:document-units="px"
     inkscape:current-layer="layer1"
     showgrid="false"
     inkscape:window-width="1278"
     inkscape:window-height="750"
     inkscape:window-x="0"
     inkscape:window-y="0"
     inkscape:snap-intersection-line-segments="false"
     inkscape:snap-bbox="true"
     inkscape:snap-nodes="false"
     inkscape:bbox-paths="true"
     inkscape:showpageshadow="false"
     showguides="false"
     inkscape:guide-bbox="true"
     inkscape:bbox-nodes="true"
     inkscape:snap-global="false">
    <inkscape:grid
       enabled="true"
       visible="true"
       id="grid4079"
       type="xygrid"
       empspacing="5" />
    <sodipodi:guide
       id="guide7317"
       position="566.05335,854.14667"
       orientation="1,0" />
  </sodipodi:namedview>
  <defs
     id="defs4">
    <inkscape:perspective
       sodipodi:type="inkscape:persp3d"
       inkscape:vp_x="0 : 24 : 1"
       inkscape:vp_y="0 : 1000 : 0"
       inkscape:vp_z="48 : 24 : 1"
       inkscape:persp3d-origin="24 : 16 : 1"
       id="perspective14" />
    <inkscape:perspective
       id="perspective5546"
       inkscape:persp3d-origin="0.5 : 0.33333333 : 1"
       inkscape:vp_z="1 : 0.5 : 1"
       inkscape:vp_y="0 : 1000 : 0"
       inkscape:vp_x="0 : 0.5 : 1"
       sodipodi:type="inkscape:persp3d" />
  </defs>
  <metadata
     id="metadata7">
    <rdf:RDF>
      <cc:Work
         rdf:about="">
        <dc:format>image/svg+xml</dc:format>
        <dc:type
           rdf:resource="http://purl.org/dc/dcmitype/StillImage" />
        <dc:title></dc:title>
      </cc:Work>
    </rdf:RDF>
  </metadata>
  <g
     style="display:inline"
     id="layer1"
     inkscape:groupmode="layer"
     inkscape:label="Layer 1">
    <path
       style="fill:#000000;fill-opacity:1;stroke:none;display:inline"
       d="m 18.626344,38.292026 c 0.933664,0 1.685318,-0.751682 1.685298,-1.685338 l -8e-6,-8.749554 c 2.1e-5,-0.933699 -0.751612,-1.685332 -1.685332,-1.685333 -0.933643,8e-6 -1.685319,0.751641 -1.685305,1.685347 l 1e-6,8.749547 c -7e-6,0.933642 0.751675,1.685325 1.685346,1.685331 z"
       id="path7153-4"
       sodipodi:nodetypes="cccsccc" />
    <path
       id="path7155-6"
       d="m 20.328364,36.602252 c 0,0.933663 -0.751683,1.685318 -1.685333,1.685291 l -8.7495529,-8e-6 c -0.933685,7e-6 -1.685319,-0.751626 -1.685333,-1.685333 1e-6,-0.933635 0.751634,-1.68531 1.68534,-1.685297 l 8.7495459,10e-7 c 0.933642,-8e-6 1.685325,0.751676 1.685333,1.685346 z"
       style="fill:#000000;fill-opacity:1;stroke:none;display:inline"
       sodipodi:nodetypes="cccsccc" />
    <path
       sodipodi:type="arc"
       style="fill:none;stroke:#000000;stroke-width:5.62985039;stroke-linecap:round;stroke-miterlimit:4;stroke-opacity:1;stroke-dasharray:none;stroke-dashoffset:0;display:inline"
       id="path5526"
       sodipodi:cx="-25.809397"
       sodipodi:cy="179.43886"
       sodipodi:rx="22.98097"
       sodipodi:ry="22.98097"
       d="m -15.626933,158.83686 a 22.98097,22.98097 0 0 1 -1.584632,41.91402"
       transform="matrix(-0.5783472,-0.1550885,0.15482823,-0.57827738,-17.961737,123.71267)"
       sodipodi:start="5.1714231"
       sodipodi:end="7.470525"
       sodipodi:open="true" />
    <path
       sodipodi:nodetypes="cccsccc"
       id="path5530"
       d="m 30.708891,9.664152 c -0.933664,0 -1.685318,0.751682 -1.685298,1.685338 l 8e-6,8.749554 c -2.1e-5,0.933699 0.751612,1.685332 1.685332,1.685333 0.933643,-8e-6 1.685319,-0.751641 1.685305,-1.685347 l -1e-6,-8.749547 c 7e-6,-0.933642 -0.751675,-1.685325 -1.685346,-1.685331 z"
       style="fill:#000000;fill-opacity:1;stroke:none;display:inline" />
    <path
       sodipodi:nodetypes="cccsccc"
       style="fill:#000000;fill-opacity:1;stroke:none;display:inline"
       d="m 29.006871,11.353926 c 0,-0.933663 0.751683,-1.685318 1.685333,-1.685291 l 8.749553,8e-6 c 0.933685,-7e-6 1.685319,0.751626 1.685333,1.685333 -1e-6,0.933635 -0.751634,1.68531 -1.68534,1.685297 l -8.749546,-10e-7 c -0.933642,8e-6 -1.685325,-0.751676 -1.685333,-1.685346 z"
       id="path5532" />
    <path
       sodipodi:open="true"
       sodipodi:end="7.470525"
       sodipodi:start="5.1714231"
       transform="matrix(0.5783472,0.1550885,-0.15482823,0.57827738,67.296972,-75.756492)"
       d="m -15.626933,158.83686 a 22.98097,22.98097 0 0 1 -1.584632,41.91402"
       sodipodi:ry="22.98097"
       sodipodi:rx="22.98097"
       sodipodi:cy="179.43886"
       sodipodi:cx="-25.809397"
       id="path5534"
       style="fill:none;stroke:#000000;stroke-width:5.62985039;stroke-linecap:round;stroke-miterlimit:4;stroke-opacity:1;stroke-dasharray:none;stroke-dashoffset:0;display:inline"
       sodipodi:type="arc" />
  </g>
</svg>
