<?xml version="1.0" encoding="UTF-8" standalone="no"?>
<!-- Created with Inkscape (http://www.inkscape.org/) -->

<svg
   xmlns:dc="http://purl.org/dc/elements/1.1/"
   xmlns:cc="http://creativecommons.org/ns#"
   xmlns:rdf="http://www.w3.org/1999/02/22-rdf-syntax-ns#"
   xmlns:svg="http://www.w3.org/2000/svg"
   xmlns="http://www.w3.org/2000/svg"
   xmlns:sodipodi="http://sodipodi.sourceforge.net/DTD/sodipodi-0.dtd"
   xmlns:inkscape="http://www.inkscape.org/namespaces/inkscape"
   width="48"
   height="48"
   id="svg2"
   sodipodi:version="0.32"
   inkscape:version="0.46+devel r20974"
   sodipodi:docname="view-fullscreen.svg"
   inkscape:output_extension="org.inkscape.output.svg.inkscape"
   inkscape:export-filename="/home/hbons/Desktop/Intel/svn/moblin-ui-docs/in progress/draft visual UI/icons/icons.png"
   inkscape:export-xdpi="60.476192"
   inkscape:export-ydpi="60.476192"
   version="1.0">
  <sodipodi:namedview
     id="base"
     pagecolor="#ffffff"
     bordercolor="#dcdcdc"
     borderopacity="1"
     gridtolerance="10000"
     guidetolerance="10"
     objecttolerance="10"
     inkscape:pageopacity="0"
     inkscape:pageshadow="2"
     inkscape:zoom="32"
     inkscape:cx="33.00703"
     inkscape:cy="18.77997"
     inkscape:document-units="px"
     inkscape:current-layer="layer1"
     showgrid="true"
     inkscape:window-width="1278"
     inkscape:window-height="750"
     inkscape:window-x="0"
     inkscape:window-y="0"
     inkscape:snap-intersection-line-segments="false"
     inkscape:snap-bbox="true"
     inkscape:snap-nodes="false"
     inkscape:bbox-paths="true"
     inkscape:showpageshadow="false"
     showguides="false"
     inkscape:guide-bbox="true"
     inkscape:bbox-nodes="true"
     inkscape:snap-global="false">
    <inkscape:grid
       enabled="true"
       visible="true"
       id="grid4079"
       type="xygrid"
       empspacing="5" />
    <sodipodi:guide
       id="guide7317"
       position="566.05335,854.14667"
       orientation="1,0" />
  </sodipodi:namedview>
  <defs
     id="defs4">
    <inkscape:perspective
       sodipodi:type="inkscape:persp3d"
       inkscape:vp_x="0 : 24 : 1"
       inkscape:vp_y="0 : 1000 : 0"
       inkscape:vp_z="48 : 24 : 1"
       inkscape:persp3d-origin="24 : 16 : 1"
       id="perspective13" />
    <inkscape:perspective
       sodipodi:type="inkscape:persp3d"
       inkscape:vp_x="0 : 0.5 : 1"
       inkscape:vp_y="0 : 1000 : 0"
       inkscape:vp_z="1 : 0.5 : 1"
       inkscape:persp3d-origin="0.5 : 0.33333333 : 1"
       id="perspective2798" />
    <inkscape:perspective
       sodipodi:type="inkscape:persp3d"
       inkscape:vp_x="0 : 24 : 1"
       inkscape:vp_y="0 : 1000 : 0"
       inkscape:vp_z="48 : 24 : 1"
       inkscape:persp3d-origin="24 : 16 : 1"
       id="perspective15" />
    <inkscape:perspective
       id="perspective2871"
       inkscape:persp3d-origin="0.5 : 0.33333333 : 1"
       inkscape:vp_z="1 : 0.5 : 1"
       inkscape:vp_y="0 : 1000 : 0"
       inkscape:vp_x="0 : 0.5 : 1"
       sodipodi:type="inkscape:persp3d" />
    <inkscape:perspective
       id="perspective2773"
       inkscape:persp3d-origin="0.5 : 0.33333333 : 1"
       inkscape:vp_z="1 : 0.5 : 1"
       inkscape:vp_y="0 : 1000 : 0"
       inkscape:vp_x="0 : 0.5 : 1"
       sodipodi:type="inkscape:persp3d" />
    <inkscape:perspective
       id="perspective13-9"
       inkscape:persp3d-origin="24 : 16 : 1"
       inkscape:vp_z="48 : 24 : 1"
       inkscape:vp_y="0 : 1000 : 0"
       inkscape:vp_x="0 : 24 : 1"
       sodipodi:type="inkscape:persp3d" />
  </defs>
  <metadata
     id="metadata7">
    <rdf:RDF>
      <cc:Work
         rdf:about="">
        <dc:format>image/svg+xml</dc:format>
        <dc:type
           rdf:resource="http://purl.org/dc/dcmitype/StillImage" />
        <dc:title />
      </cc:Work>
    </rdf:RDF>
  </metadata>
  <g
     style="display:inline"
     id="layer1"
     inkscape:groupmode="layer"
     inkscape:label="Layer 1">
    <g
       id="g2835"
       transform="translate(2.0044485,1.9778605)">
      <g
         id="g2803">
        <path
           sodipodi:nodetypes="cccsccc"
           id="rect2819"
           d="m 19.168459,8.5342098 c 0,-0.831 -0.669,-1.5 -1.5,-1.5 l -9.173152,0 c -0.831,0 -1.5,0.669 -1.5,1.5 0,0.831 0.669,1.5000002 1.5,1.5000002 l 9.173152,0 c 0.831,0 1.5,-0.6690002 1.5,-1.5000002 z"
           style="fill:#000000;fill-opacity:1;stroke:none;display:inline" />
        <path
           sodipodi:nodetypes="cccsccc"
           id="rect2821"
           d="m 8.493377,19.209292 c -0.831,0 -1.5,-0.669 -1.5,-1.5 l 0,-9.1731524 c 0,-0.831 0.669,-1.5 1.5,-1.5 0.831,0 1.5,0.669 1.5,1.5 l 0,9.1731524 c 0,0.831 -0.669,1.5 -1.5,1.5 z"
           style="fill:#000000;fill-opacity:1;stroke:none;display:inline" />
        <path
           style="fill:#000000;fill-opacity:1;stroke:none;display:inline"
           d="m 18.027392,18.04291 c -0.587605,0.587606 -1.533714,0.587606 -2.12132,0 L 7.436326,9.5731642 c -0.5876058,-0.587606 -0.5876058,-1.5337149 0,-2.1213206 0.5876057,-0.5876058 1.5337146,-0.5876058 2.1213203,0 L 18.027392,15.92159 c 0.587606,0.587606 0.587606,1.533714 0,2.12132 z"
           id="path2801"
           sodipodi:nodetypes="cccsccc" />
      </g>
      <path
         sodipodi:nodetypes="cccsccc"
         id="path2810"
         d="m 24.822644,8.5342098 c 0,-0.831 0.669,-1.5 1.5,-1.5 l 9.173152,0 c 0.831,0 1.5,0.669 1.5,1.5 0,0.831 -0.669,1.5000002 -1.5,1.5000002 l -9.173152,0 c -0.831,0 -1.5,-0.6690002 -1.5,-1.5000002 z"
         style="fill:#000000;fill-opacity:1;stroke:none;display:inline" />
      <path
         sodipodi:nodetypes="cccsccc"
         id="path2812"
         d="m 35.497726,19.209292 c 0.831,0 1.5,-0.669 1.5,-1.5 l 0,-9.1731524 c 0,-0.831 -0.669,-1.5 -1.5,-1.5 -0.831,0 -1.5,0.669 -1.5,1.5 l 0,9.1731524 c 0,0.831 0.669,1.5 1.5,1.5 z"
         style="fill:#000000;fill-opacity:1;stroke:none;display:inline" />
      <path
         style="fill:#000000;fill-opacity:1;stroke:none;display:inline"
         d="m 25.963711,18.04291 c 0.587605,0.587606 1.533714,0.587606 2.12132,0 l 8.469746,-8.4697458 c 0.587606,-0.587606 0.587606,-1.5337149 0,-2.1213206 -0.587606,-0.5876058 -1.533715,-0.5876058 -2.12132,0 L 25.963711,15.92159 c -0.587606,0.587606 -0.587606,1.533714 0,2.12132 z"
         id="path2814"
         sodipodi:nodetypes="cccsccc" />
      <g
         transform="matrix(1,0,0,-1,0,44.044279)"
         id="g2816">
        <path
           style="fill:#000000;fill-opacity:1;stroke:none;display:inline"
           d="m 19.168459,8.5342098 c 0,-0.831 -0.669,-1.5 -1.5,-1.5 l -9.173152,0 c -0.831,0 -1.5,0.669 -1.5,1.5 0,0.831 0.669,1.5000002 1.5,1.5000002 l 9.173152,0 c 0.831,0 1.5,-0.6690002 1.5,-1.5000002 z"
           id="path2818"
           sodipodi:nodetypes="cccsccc" />
        <path
           style="fill:#000000;fill-opacity:1;stroke:none;display:inline"
           d="m 8.493377,19.209292 c -0.831,0 -1.5,-0.669 -1.5,-1.5 l 0,-9.1731524 c 0,-0.831 0.669,-1.5 1.5,-1.5 0.831,0 1.5,0.669 1.5,1.5 l 0,9.1731524 c 0,0.831 -0.669,1.5 -1.5,1.5 z"
           id="path2820"
           sodipodi:nodetypes="cccsccc" />
        <path
           sodipodi:nodetypes="cccsccc"
           id="path2822"
           d="m 18.027392,18.04291 c -0.587605,0.587606 -1.533714,0.587606 -2.12132,0 L 7.436326,9.5731642 c -0.5876058,-0.587606 -0.5876058,-1.5337149 0,-2.1213206 0.5876057,-0.5876058 1.5337146,-0.5876058 2.1213203,0 L 18.027392,15.92159 c 0.587606,0.587606 0.587606,1.533714 0,2.12132 z"
           style="fill:#000000;fill-opacity:1;stroke:none;display:inline" />
      </g>
      <g
         id="g2824"
         transform="matrix(-1,0,0,-1,43.985683,44.044279)">
        <path
           sodipodi:nodetypes="cccsccc"
           id="path2826"
           d="m 19.168459,8.5342098 c 0,-0.831 -0.669,-1.5 -1.5,-1.5 l -9.173152,0 c -0.831,0 -1.5,0.669 -1.5,1.5 0,0.831 0.669,1.5000002 1.5,1.5000002 l 9.173152,0 c 0.831,0 1.5,-0.6690002 1.5,-1.5000002 z"
           style="fill:#000000;fill-opacity:1;stroke:none;display:inline" />
        <path
           sodipodi:nodetypes="cccsccc"
           id="path2828"
           d="m 8.493377,19.209292 c -0.831,0 -1.5,-0.669 -1.5,-1.5 l 0,-9.1731524 c 0,-0.831 0.669,-1.5 1.5,-1.5 0.831,0 1.5,0.669 1.5,1.5 l 0,9.1731524 c 0,0.831 -0.669,1.5 -1.5,1.5 z"
           style="fill:#000000;fill-opacity:1;stroke:none;display:inline" />
        <path
           style="fill:#000000;fill-opacity:1;stroke:none;display:inline"
           d="m 18.027392,18.04291 c -0.587605,0.587606 -1.533714,0.587606 -2.12132,0 L 7.436326,9.5731642 c -0.5876058,-0.587606 -0.5876058,-1.5337149 0,-2.1213206 0.5876057,-0.5876058 1.5337146,-0.5876058 2.1213203,0 L 18.027392,15.92159 c 0.587606,0.587606 0.587606,1.533714 0,2.12132 z"
           id="path2830"
           sodipodi:nodetypes="cccsccc" />
      </g>
    </g>
  </g>
</svg>
