<?xml version="1.0" encoding="UTF-8" standalone="no"?>
<!-- Created with Inkscape (http://www.inkscape.org/) -->
<svg
   xmlns:dc="http://purl.org/dc/elements/1.1/"
   xmlns:cc="http://creativecommons.org/ns#"
   xmlns:rdf="http://www.w3.org/1999/02/22-rdf-syntax-ns#"
   xmlns:svg="http://www.w3.org/2000/svg"
   xmlns="http://www.w3.org/2000/svg"
   xmlns:sodipodi="http://sodipodi.sourceforge.net/DTD/sodipodi-0.dtd"
   xmlns:inkscape="http://www.inkscape.org/namespaces/inkscape"
   width="48"
   height="48"
   id="svg2"
   sodipodi:version="0.32"
   inkscape:version="0.46+devel r20711"
   sodipodi:docname="battery-caution.svg"
   inkscape:output_extension="org.inkscape.output.svg.inkscape"
   inkscape:export-filename="/home/hbons/Desktop/Intel/icons.png"
   inkscape:export-xdpi="90"
   inkscape:export-ydpi="90"
   version="1.0">
  <defs
     id="defs4">
    <inkscape:perspective
       sodipodi:type="inkscape:persp3d"
       inkscape:vp_x="0 : 24 : 1"
       inkscape:vp_y="0 : 1000 : 0"
       inkscape:vp_z="48 : 24 : 1"
       inkscape:persp3d-origin="24 : 16 : 1"
       id="perspective28" />
  </defs>
  <sodipodi:namedview
     id="base"
     pagecolor="#ffffff"
     bordercolor="#666666"
     borderopacity="1.0"
     gridtolerance="10000"
     guidetolerance="10"
     objecttolerance="10"
     inkscape:pageopacity="0.0"
     inkscape:pageshadow="2"
     inkscape:zoom="11.313708"
     inkscape:cx="35.79629"
     inkscape:cy="20.279481"
     inkscape:document-units="px"
     inkscape:current-layer="layer1"
     showgrid="false"
     inkscape:window-width="1280"
     inkscape:window-height="750"
     inkscape:window-x="0"
     inkscape:window-y="0"
     inkscape:snap-intersection-line-segments="false"
     inkscape:snap-bbox="false"
     inkscape:snap-nodes="true"
     inkscape:bbox-paths="true">
    <inkscape:grid
       type="xygrid"
       id="grid4079"
       visible="true"
       enabled="true"
       empspacing="5" />
  </sodipodi:namedview>
  <metadata
     id="metadata7">
    <rdf:RDF>
      <cc:Work
         rdf:about="">
        <dc:format>image/svg+xml</dc:format>
        <dc:type
           rdf:resource="http://purl.org/dc/dcmitype/StillImage" />
        <dc:title />
      </cc:Work>
    </rdf:RDF>
  </metadata>
  <g
     inkscape:label="Layer 1"
     inkscape:groupmode="layer"
     id="layer1"
     transform="translate(-9.3897648,-13.175828)">
    <rect
       ry="1.6855"
       rx="1.6855"
       y="43.573792"
       x="17.386068"
       height="3.3710001"
       width="26.435703"
       id="rect5744"
       style="fill:#000000;fill-opacity:1;stroke:none"
       transform="matrix(0,1,1,0,0,0)" />
    <rect
       ry="1.6855"
       rx="1.6855"
       y="13.170116"
       x="21.271614"
       height="3.3710001"
       width="18.92378"
       id="rect5824"
       style="fill:#000000;fill-opacity:1;stroke:none"
       transform="matrix(0,1,1,0,0,0)" />
    <rect
       transform="scale(1,-1)"
       style="fill:#000000;fill-opacity:1;stroke:none"
       id="rect6653"
       width="29.903097"
       height="3.3710001"
       x="17.009838"
       y="-20.687103"
       rx="1.6855001"
       ry="1.6855" />
    <path
       sodipodi:nodetypes="cssssssssccccccccsscc"
       id="rect5813"
       d="m 53.609414,25.613351 c 0,-0.476221 -0.21577,-0.881544 -0.53125,-1.1875 -0.07114,-0.06899 -0.13628,-0.131876 -0.21875,-0.1875 -0.01168,-0.0083 -0.01935,-0.02322 -0.03125,-0.03125 -0.0792,-0.05053 -0.162433,-0.08808 -0.25,-0.125 -0.05755,-0.02604 -0.126673,-0.04295 -0.1875,-0.0625 -0.04405,-0.01282 -0.07952,-0.05324 -0.125,-0.0625 -0.01837,-0.0044 -0.0439,0.0038 -0.0625,0 -0.09124,-0.01517 -0.185577,-0.03125 -0.28125,-0.03125 -0.01052,0 -0.02077,-1.9e-4 -0.03125,0 l -3.25,0 0,3.375 1.59375,0 0,6.625 -1.59375,0 0,3.375 3.25,0 c 0.630293,0 1.148295,-0.333942 1.4375,-0.84375 0.03936,-0.05835 0.06183,-0.124216 0.09375,-0.1875 0.115206,-0.228371 0.1875,-0.475816 0.1875,-0.75 l 0,-9.90625 z"
       style="fill:#000000;fill-opacity:1;stroke:none" />
    <path
       sodipodi:end="3.1415927"
       sodipodi:start="1.5707963"
       transform="matrix(0.16424416,0,0,-0.16405989,22.875844,52.191097)"
       d="M -25.809396,202.41983 A 22.98097,22.98097 0 0 1 -48.790367,179.43886"
       sodipodi:ry="22.98097"
       sodipodi:rx="22.98097"
       sodipodi:cy="179.43886"
       sodipodi:cx="-25.809397"
       id="path6419-7"
       style="fill:none;stroke:#000000;stroke-width:20.53379822;stroke-linecap:round;stroke-miterlimit:4;stroke-opacity:1;stroke-dasharray:none;stroke-dashoffset:0;display:inline"
       sodipodi:type="arc"
       sodipodi:open="true" />
    <path
       sodipodi:open="true"
       sodipodi:type="arc"
       style="fill:none;stroke:#000000;stroke-width:20.53379822;stroke-linecap:round;stroke-miterlimit:4;stroke-opacity:1;stroke-dasharray:none;stroke-dashoffset:0;display:inline"
       id="path5901"
       sodipodi:cx="-25.809397"
       sodipodi:cy="179.43886"
       sodipodi:rx="22.98097"
       sodipodi:ry="22.98097"
       d="M -25.809396,202.41983 A 22.98097,22.98097 0 0 1 -48.790367,179.43886"
       transform="matrix(0.16424416,0,0,0.16405989,22.875844,8.9878477)"
       sodipodi:start="1.5707963"
       sodipodi:end="3.1415927" />
    <path
       style="fill:#000000;fill-opacity:1;stroke:none;display:inline"
       d="m 21.885627,40.505216 -3.067888,0 c -0.933767,0 -1.6855,0.751733 -1.6855,1.6855 0,0.933767 0.751733,1.6855 1.6855,1.6855 l 1.125728,0 c 0,0 1.94216,-3.371 1.94216,-3.371 z"
       id="rect7029"
       sodipodi:nodetypes="ccsccc" />
    <g
       id="g5599"
       transform="matrix(1.1369331,0,0,1.1369331,168.79579,27.556098)" />
    <g
       id="g7206"
       transform="translate(-40.067913,20.611894)">
      <rect
         style="fill:#000000;fill-opacity:1;stroke:none"
         id="rect5926"
         width="30.968025"
         height="3.3710001"
         x="-86.668579"
         y="33.071972"
         rx="1.6855"
         ry="1.6855"
         transform="scale(-1,1)" />
      <rect
         transform="matrix(-0.5,0.8660254,0.8660254,0.5,0,0)"
         ry="1.6855"
         rx="1.6855"
         y="65.295464"
         x="-27.952528"
         height="3.3710001"
         width="30.968025"
         id="rect7190"
         style="fill:#000000;fill-opacity:1;stroke:none" />
      <rect
         style="fill:#000000;fill-opacity:1;stroke:none"
         id="rect7192"
         width="30.968025"
         height="3.3710001"
         x="43.202225"
         y="-57.948185"
         rx="1.6855"
         ry="1.6855"
         transform="matrix(0.5,0.8660254,-0.8660254,0.5,0,0)" />
    </g>
    <path
       sodipodi:nodetypes="ccsccc"
       id="path7233"
       d="m 40.3123,40.514991 4.926517,0 c 0.933767,0 1.6855,0.751733 1.6855,1.6855 0,0.933767 -0.751733,1.6855 -1.6855,1.6855 l -2.984357,0 c 0,0 -1.94216,-3.371 -1.94216,-3.371 z"
       style="fill:#000000;fill-opacity:1;stroke:none;display:inline" />
    <path
       style="fill:#000000;fill-opacity:1;stroke:none"
       d="M 21.9375,20.34375 9.46875,41.8125 l 25.375,-0.71875 -12.90625,-20.75 z m -0.21875,4.97832 c 0.93364,0 1.65625,0.7538 1.65625,1.6875 l 0,5.731707 c 10e-6,0.93365 -0.72258,1.65625 -1.65625,1.65625 -0.93368,0 -1.68751,-0.7226 -1.6875,-1.65625 l 0,-5.731707 c -3e-5,-0.9337 0.75379,-1.6875 1.6875,-1.6875 z m 0,10.856707 c 0.93364,0 1.65625,0.75381 1.65625,1.6875 10e-6,0.93365 -0.72258,1.6875 -1.65625,1.6875 -0.93368,0 -1.68751,-0.75385 -1.6875,-1.6875 -3e-5,-0.93369 0.75379,-1.6875 1.6875,-1.6875 z"
       transform="translate(9.3897648,13.175828)"
       id="rect2879"
       sodipodi:nodetypes="cccccccsccccsssc" />
  </g>
</svg>
