<?xml version="1.0" encoding="UTF-8" standalone="no"?>
<!-- Created with Inkscape (http://www.inkscape.org/) -->

<svg
   xmlns:dc="http://purl.org/dc/elements/1.1/"
   xmlns:cc="http://creativecommons.org/ns#"
   xmlns:rdf="http://www.w3.org/1999/02/22-rdf-syntax-ns#"
   xmlns:svg="http://www.w3.org/2000/svg"
   xmlns="http://www.w3.org/2000/svg"
   xmlns:sodipodi="http://sodipodi.sourceforge.net/DTD/sodipodi-0.dtd"
   xmlns:inkscape="http://www.inkscape.org/namespaces/inkscape"
   width="48"
   height="48"
   id="svg2"
   sodipodi:version="0.32"
   inkscape:version="0.46+devel r20974"
   sodipodi:docname="dialog-warning.svg"
   inkscape:output_extension="org.inkscape.output.svg.inkscape"
   inkscape:export-filename="/home/hbons/Desktop/Intel/svn/moblin-ui-docs/in progress/draft visual UI/icons/icons.png"
   inkscape:export-xdpi="60.476192"
   inkscape:export-ydpi="60.476192"
   version="1.0">
  <sodipodi:namedview
     id="base"
     pagecolor="#ffffff"
     bordercolor="#dcdcdc"
     borderopacity="1"
     gridtolerance="10000"
     guidetolerance="10"
     objecttolerance="10"
     inkscape:pageopacity="0"
     inkscape:pageshadow="2"
     inkscape:zoom="8"
     inkscape:cx="39.082481"
     inkscape:cy="21.531983"
     inkscape:document-units="px"
     inkscape:current-layer="layer1"
     showgrid="true"
     inkscape:window-width="1278"
     inkscape:window-height="750"
     inkscape:window-x="0"
     inkscape:window-y="0"
     inkscape:snap-intersection-line-segments="false"
     inkscape:snap-bbox="true"
     inkscape:snap-nodes="false"
     inkscape:bbox-paths="true"
     inkscape:showpageshadow="false"
     showguides="false"
     inkscape:guide-bbox="true"
     inkscape:bbox-nodes="true"
     inkscape:snap-global="false">
    <inkscape:grid
       enabled="true"
       visible="true"
       id="grid4079"
       type="xygrid"
       empspacing="5" />
    <sodipodi:guide
       id="guide7317"
       position="566.05335,854.14667"
       orientation="1,0" />
  </sodipodi:namedview>
  <defs
     id="defs4">
    <inkscape:perspective
       sodipodi:type="inkscape:persp3d"
       inkscape:vp_x="0 : 24 : 1"
       inkscape:vp_y="0 : 1000 : 0"
       inkscape:vp_z="48 : 24 : 1"
       inkscape:persp3d-origin="24 : 16 : 1"
       id="perspective15" />
    <inkscape:perspective
       id="perspective2861"
       inkscape:persp3d-origin="0.5 : 0.33333333 : 1"
       inkscape:vp_z="1 : 0.5 : 1"
       inkscape:vp_y="0 : 1000 : 0"
       inkscape:vp_x="0 : 0.5 : 1"
       sodipodi:type="inkscape:persp3d" />
    <inkscape:perspective
       sodipodi:type="inkscape:persp3d"
       inkscape:vp_x="0 : 24 : 1"
       inkscape:vp_y="0 : 1000 : 0"
       inkscape:vp_z="48 : 24 : 1"
       inkscape:persp3d-origin="24 : 16 : 1"
       id="perspective15-4" />
    <inkscape:perspective
       id="perspective2861-6"
       inkscape:persp3d-origin="0.5 : 0.33333333 : 1"
       inkscape:vp_z="1 : 0.5 : 1"
       inkscape:vp_y="0 : 1000 : 0"
       inkscape:vp_x="0 : 0.5 : 1"
       sodipodi:type="inkscape:persp3d" />
    <inkscape:perspective
       id="perspective17"
       inkscape:persp3d-origin="24 : 16 : 1"
       inkscape:vp_z="48 : 24 : 1"
       inkscape:vp_y="0 : 1000 : 0"
       inkscape:vp_x="0 : 24 : 1"
       sodipodi:type="inkscape:persp3d" />
    <inkscape:perspective
       sodipodi:type="inkscape:persp3d"
       inkscape:vp_x="0 : 24 : 1"
       inkscape:vp_y="0 : 1000 : 0"
       inkscape:vp_z="48 : 24 : 1"
       inkscape:persp3d-origin="24 : 16 : 1"
       id="perspective3851" />
    <inkscape:perspective
       sodipodi:type="inkscape:persp3d"
       inkscape:vp_x="0 : 24 : 1"
       inkscape:vp_y="0 : 1000 : 0"
       inkscape:vp_z="48 : 24 : 1"
       inkscape:persp3d-origin="24 : 16 : 1"
       id="perspective3747" />
  </defs>
  <metadata
     id="metadata7">
    <rdf:RDF>
      <cc:Work
         rdf:about="">
        <dc:format>image/svg+xml</dc:format>
        <dc:type
           rdf:resource="http://purl.org/dc/dcmitype/StillImage" />
        <dc:title></dc:title>
      </cc:Work>
    </rdf:RDF>
  </metadata>
  <g
     style="display:inline"
     id="layer1"
     inkscape:groupmode="layer"
     inkscape:label="Layer 1">
    <path
       sodipodi:type="arc"
       style="fill:none;stroke:#000000;stroke-width:4.30893183;stroke-linecap:round;stroke-miterlimit:4;stroke-opacity:1;stroke-dasharray:none;stroke-dashoffset:0;display:inline"
       id="path2876"
       sodipodi:cx="-25.809397"
       sodipodi:cy="179.43886"
       sodipodi:rx="22.98097"
       sodipodi:ry="22.98097"
       d="m -2.8284264,179.43886 a 22.98097,22.98097 0 1 1 -45.9619406,0 22.98097,22.98097 0 1 1 45.9619406,0 z"
       transform="matrix(0,-0.69622822,0.69622821,0,-101.42096,6.5136643)" />
    <path
       sodipodi:type="arc"
       style="fill:none;stroke:#000000;stroke-width:17.23572731;stroke-linecap:round;stroke-miterlimit:4;stroke-opacity:1;stroke-dasharray:none;stroke-dashoffset:0;display:inline"
       id="path3829"
       sodipodi:cx="-25.809397"
       sodipodi:cy="179.43886"
       sodipodi:rx="22.98097"
       sodipodi:ry="22.98097"
       d="m -25.809396,202.41983 a 22.98097,22.98097 0 1 1 0,-45.96194"
       transform="matrix(0,-0.17405705,0.17405706,0,-7.7322253,21.003183)"
       sodipodi:start="1.5707963"
       sodipodi:end="4.712389"
       sodipodi:open="true" />
    <path
       sodipodi:open="true"
       sodipodi:end="4.712389"
       sodipodi:start="1.5707963"
       transform="matrix(0,0.17405705,0.17405706,0,-7.7240953,19.875512)"
       d="m -25.809396,202.41983 a 22.98097,22.98097 0 1 1 0,-45.96194"
       sodipodi:ry="22.98097"
       sodipodi:rx="22.98097"
       sodipodi:cy="179.43886"
       sodipodi:cx="-25.809397"
       id="path2791"
       style="fill:none;stroke:#000000;stroke-width:17.23572731;stroke-linecap:round;stroke-miterlimit:4;stroke-opacity:1;stroke-dasharray:none;stroke-dashoffset:0;display:inline"
       sodipodi:type="arc" />
    <rect
       style="fill:#000000;fill-opacity:0.99366491;stroke:none"
       id="rect2793"
       width="24.839617"
       height="3"
       x="-37.13316"
       y="-28.953592"
       rx="1.6854998"
       ry="1.6855"
       transform="matrix(0,-1,-1,0,0,0)" />
    <rect
       ry="1.6855"
       rx="1.6854998"
       y="-21.036673"
       x="-36.07164"
       height="3"
       width="23.231483"
       id="rect2795"
       style="fill:#000000;fill-opacity:0.99366491;stroke:none"
       transform="matrix(0,-1,-1,0,0,0)" />
    <path
       sodipodi:type="inkscape:offset"
       inkscape:radius="1.8441064"
       inkscape:original="M 23.5 10.03125 C 22.757201 10.03125 22.018277 10.09555 21.40625 10.1875 C 15.352172 11.097034 10.51065 15.67748 9.3125 21.65625 C 9.2436123 22 9.176889 22.464062 9.15625 22.6875 L 9.125 23.09375 L 9.28125 22.65625 C 9.7964238 21.255226 10.787297 20.161133 12.09375 19.53125 C 13.227711 18.984531 12.209577 19.01542 22.84375 19 C 28.034375 18.9925 32.365625 18.98397 32.46875 18.96875 C 32.759336 18.92585 33.671545 19.0446 34.15625 19.1875 C 35.131759 19.475108 36.208475 20.182155 36.84375 20.96875 C 37.202945 21.413505 37.620897 22.154544 37.75 22.5625 C 37.79152 22.693705 37.83063 22.79437 37.84375 22.78125 C 37.88509 22.73991 37.694839 21.619982 37.53125 20.96875 C 36.10746 15.300764 31.401296 11.059996 25.59375 10.1875 C 24.981723 10.095552 24.242799 10.03125 23.5 10.03125 z M 9.125 25.90625 L 9.15625 26.3125 C 9.252035 27.302271 9.6596004 28.857456 10.09375 29.90625 C 10.835919 31.699141 11.787212 33.154791 13.15625 34.5625 C 15.489405 36.961556 18.455168 38.426071 21.75 38.84375 C 22.631202 38.955463 24.859602 38.91885 25.71875 38.78125 C 29.470006 38.180456 32.809979 36.172589 35.09375 33.125 C 36.556215 31.173406 37.512816 28.821111 37.84375 26.375 C 37.87878 26.116089 37.87862 26.132362 37.6875 26.59375 C 37.148255 27.895573 36.059204 28.976812 34.78125 29.53125 C 34.030342 29.857029 33.607752 29.9465 32.8125 29.9375 C 32.417187 29.933 31.995312 29.9365 31.875 29.9375 C 31.754687 29.9385 27.648437 29.95423 22.75 29.96875 C 12.966649 29.99775 13.394553 30.01448 12.4375 29.625 C 10.95593 29.022071 9.8366095 27.863593 9.28125 26.34375 L 9.125 25.90625 z "
       style="fill:#000000;fill-opacity:0.99366491;stroke:none"
       id="path2802"
       d="m 23.5,8.1875 c -0.849222,0 -1.672225,0.081916 -2.375,0.1875 C 14.314237,9.3982144 8.8505609,14.541949 7.5,21.28125 c -0.08664,0.432332 -0.154889,0.896953 -0.1875,1.25 L 7.28125,22.9375 A 1.8442908,1.8442908 0 0 0 7.9375,24.5 1.8442908,1.8442908 0 0 0 7.28125,26.0625 l 0.03125,0.40625 a 1.8442908,1.8442908 0 0 0 0,0.03125 c 0.1262562,1.304637 0.5379417,2.857802 1.0625,4.125 0.8202491,1.981512 1.954402,3.661626 3.46875,5.21875 2.616191,2.690087 5.996093,4.375798 9.6875,4.84375 1.315892,0.16682 3.168374,0.114517 4.46875,-0.09375 4.21599,-0.675225 7.994404,-2.947993 10.5625,-6.375 1.657483,-2.211837 2.720575,-4.835414 3.09375,-7.59375 0.0084,-0.06237 0.01935,-0.07889 0.03125,-0.25 0.003,-0.04278 0.03456,-0.111772 0.03125,-0.21875 -0.0017,-0.05349 -0.0151,-0.112819 -0.03125,-0.21875 -0.0081,-0.05297 -0.0099,-0.10705 -0.03125,-0.1875 -0.02132,-0.08045 -0.124793,-0.312053 -0.125,-0.3125 -2.07e-4,-4.47e-4 -0.312246,-0.468469 -0.3125,-0.46875 -2.34e-4,-2.59e-4 -0.559805,-0.402978 -0.65625,-0.46875 4.6e-4,-1.9e-4 0.59334,-0.40584 0.59375,-0.40625 3.23e-4,-3.23e-4 0.249705,-0.312046 0.25,-0.3125 2.95e-4,-4.54e-4 0.09331,-0.180744 0.125,-0.25 0.06338,-0.138512 0.07335,-0.231819 0.09375,-0.3125 0.0408,-0.161361 0.05692,-0.241672 0.0625,-0.3125 0.01116,-0.141656 0.0027,-0.220405 0,-0.28125 -0.0053,-0.121689 -0.02083,-0.194758 -0.03125,-0.28125 -0.02085,-0.172984 -0.02762,-0.359079 -0.0625,-0.5625 -0.06975,-0.406842 -0.179755,-0.845958 -0.28125,-1.25 C 37.707731,14.142801 32.405976,9.3561804 25.875,8.375 25.172233,8.2694197 24.349225,8.1875 23.5,8.1875 z m 9.25,12.59375 c -0.373732,0.05517 -8.97e-4,0.02993 0.25,0.0625 0.250897,0.03257 0.55073,0.103104 0.625,0.125 0.542214,0.15986 1.446525,0.741795 1.78125,1.15625 0.169431,0.209789 0.616255,1.071115 0.59375,1 0.03008,0.09506 0.03728,0.176742 0.09375,0.3125 0.02823,0.06788 0.06159,0.115426 0.1875,0.3125 0.06295,0.09854 0.10139,0.263579 0.46875,0.53125 0.09184,0.06692 0.374444,0.187266 0.375,0.1875 8.5e-5,3.6e-5 0.06882,0.02558 0.09375,0.03125 -0.137055,0.04762 -0.281071,0.09365 -0.28125,0.09375 -4e-4,2.25e-4 -0.238959,0.154079 -0.3125,0.21875 -0.07354,0.06467 -0.115449,0.141343 -0.15625,0.1875 -0.0816,0.09231 -0.123241,0.1379 -0.15625,0.1875 -0.264074,0.3968 -0.185056,0.357737 -0.21875,0.4375 -0.03369,0.07976 -0.07865,0.13811 -0.125,0.25 -0.341459,0.824335 -1.080438,1.610473 -1.90625,1.96875 -0.632255,0.274302 -0.569179,0.257351 -1.21875,0.25 -0.421128,-0.0048 -0.848372,-0.001 -0.96875,0 0.06768,-5.63e-4 -4.227456,0.01673 -9.125,0.03125 -4.892806,0.0145 -7.258898,0.03796 -8.40625,0 -1.147352,-0.03796 -0.659885,0.0087 -1.21875,-0.21875 C 12.10696,27.491956 11.384893,26.772079 11,25.71875 l 0.03125,0 -0.15625,-0.4375 A 1.8442908,1.8442908 0 0 0 10.3125,24.5 1.8442908,1.8442908 0 0 0 10.875,23.71875 l 0.15625,-0.4375 -0.03125,0 c 0.358161,-0.974026 1.023715,-1.668251 1.90625,-2.09375 0.749226,-0.361226 0.0056,-0.225302 1.09375,-0.28125 1.08817,-0.05595 3.524963,-0.05479 8.84375,-0.0625 2.595582,-0.0038 4.972261,0.005 6.71875,0 0.873244,-0.0025 1.588122,-0.02817 2.09375,-0.03125 0.252814,-0.0015 0.447978,0.0018 0.59375,0 0.07289,-8.97e-4 0.136442,0.0012 0.1875,0 0.05106,-0.0012 -0.148937,0.03685 0.3125,-0.03125 z"
       transform="matrix(0,-1,-1,0,47.992328,47.992327)" />
    <path
       transform="matrix(0,-0.17405705,0.17405706,0,-7.7322253,28.984212)"
       d="m -2.8284264,179.43886 a 22.98097,22.98097 0 1 1 -45.9619406,0 22.98097,22.98097 0 1 1 45.9619406,0 z"
       sodipodi:ry="22.98097"
       sodipodi:rx="22.98097"
       sodipodi:cy="179.43886"
       sodipodi:cx="-25.809397"
       id="path2769"
       style="fill:none;stroke:#000000;stroke-width:17.23572731;stroke-linecap:round;stroke-miterlimit:4;stroke-opacity:1;stroke-dasharray:none;stroke-dashoffset:0;display:inline"
       sodipodi:type="arc" />
  </g>
</svg>
