<?xml version="1.0" encoding="UTF-8" standalone="no"?>
<!-- Created with Inkscape (http://www.inkscape.org/) -->
<svg
   xmlns:dc="http://purl.org/dc/elements/1.1/"
   xmlns:cc="http://creativecommons.org/ns#"
   xmlns:rdf="http://www.w3.org/1999/02/22-rdf-syntax-ns#"
   xmlns:svg="http://www.w3.org/2000/svg"
   xmlns="http://www.w3.org/2000/svg"
   xmlns:sodipodi="http://sodipodi.sourceforge.net/DTD/sodipodi-0.dtd"
   xmlns:inkscape="http://www.inkscape.org/namespaces/inkscape"
   width="48"
   height="48"
   id="svg2"
   sodipodi:version="0.32"
   inkscape:version="0.46+devel r20711"
   sodipodi:docname="private.svg"
   inkscape:output_extension="org.inkscape.output.svg.inkscape"
   inkscape:export-filename="/home/hbons/Desktop/private.png"
   inkscape:export-xdpi="60.476192"
   inkscape:export-ydpi="60.476192"
   version="1.0">
  <sodipodi:namedview
     id="base"
     pagecolor="#ffffff"
     bordercolor="#dcdcdc"
     borderopacity="1"
     gridtolerance="10000"
     guidetolerance="10"
     objecttolerance="10"
     inkscape:pageopacity="0"
     inkscape:pageshadow="2"
     inkscape:zoom="1"
     inkscape:cx="33.854104"
     inkscape:cy="29.276396"
     inkscape:document-units="px"
     inkscape:current-layer="layer1"
     showgrid="false"
     inkscape:window-width="1278"
     inkscape:window-height="749"
     inkscape:window-x="0"
     inkscape:window-y="0"
     inkscape:snap-intersection-line-segments="false"
     inkscape:snap-bbox="true"
     inkscape:snap-nodes="false"
     inkscape:bbox-paths="true"
     inkscape:showpageshadow="false"
     showguides="true"
     inkscape:guide-bbox="true"
     inkscape:bbox-nodes="true"
     inkscape:snap-global="false">
    <inkscape:grid
       enabled="true"
       visible="true"
       id="grid4079"
       type="xygrid"
       empspacing="5" />
    <sodipodi:guide
       id="guide7317"
       position="566.05335,854.14667"
       orientation="1,0" />
    <sodipodi:guide
       orientation="1,0"
       position="-61.75,86.25"
       id="guide5529" />
  </sodipodi:namedview>
  <defs
     id="defs4">
    <inkscape:perspective
       sodipodi:type="inkscape:persp3d"
       inkscape:vp_x="0 : 24 : 1"
       inkscape:vp_y="0 : 1000 : 0"
       inkscape:vp_z="48 : 24 : 1"
       inkscape:persp3d-origin="24 : 16 : 1"
       id="perspective14" />
    <inkscape:perspective
       id="perspective5541"
       inkscape:persp3d-origin="0.5 : 0.33333333 : 1"
       inkscape:vp_z="1 : 0.5 : 1"
       inkscape:vp_y="0 : 1000 : 0"
       inkscape:vp_x="0 : 0.5 : 1"
       sodipodi:type="inkscape:persp3d" />
    <inkscape:perspective
       sodipodi:type="inkscape:persp3d"
       inkscape:vp_x="0 : 0.5 : 1"
       inkscape:vp_y="0 : 1000 : 0"
       inkscape:vp_z="1 : 0.5 : 1"
       inkscape:persp3d-origin="0.5 : 0.33333333 : 1"
       id="perspective6390" />
    <inkscape:perspective
       sodipodi:type="inkscape:persp3d"
       inkscape:vp_x="0 : 0.5 : 1"
       inkscape:vp_y="0 : 1000 : 0"
       inkscape:vp_z="1 : 0.5 : 1"
       inkscape:persp3d-origin="0.5 : 0.33333333 : 1"
       id="perspective5570" />
    <inkscape:perspective
       sodipodi:type="inkscape:persp3d"
       inkscape:vp_x="0 : 0.5 : 1"
       inkscape:vp_y="0 : 1000 : 0"
       inkscape:vp_z="1 : 0.5 : 1"
       inkscape:persp3d-origin="0.5 : 0.33333333 : 1"
       id="perspective6334" />
    <inkscape:perspective
       sodipodi:type="inkscape:persp3d"
       inkscape:vp_x="0 : 0.5 : 1"
       inkscape:vp_y="0 : 1000 : 0"
       inkscape:vp_z="1 : 0.5 : 1"
       inkscape:persp3d-origin="0.5 : 0.33333333 : 1"
       id="perspective5534" />
    <inkscape:perspective
       sodipodi:type="inkscape:persp3d"
       inkscape:vp_x="0 : 0.5 : 1"
       inkscape:vp_y="0 : 1000 : 0"
       inkscape:vp_z="1 : 0.5 : 1"
       inkscape:persp3d-origin="0.5 : 0.33333333 : 1"
       id="perspective6327" />
    <inkscape:perspective
       id="perspective17"
       inkscape:persp3d-origin="24 : 16 : 1"
       inkscape:vp_z="48 : 24 : 1"
       inkscape:vp_y="0 : 1000 : 0"
       inkscape:vp_x="0 : 24 : 1"
       sodipodi:type="inkscape:persp3d" />
    <inkscape:perspective
       id="perspective18"
       inkscape:persp3d-origin="24 : 16 : 1"
       inkscape:vp_z="48 : 24 : 1"
       inkscape:vp_y="0 : 1000 : 0"
       inkscape:vp_x="0 : 24 : 1"
       sodipodi:type="inkscape:persp3d" />
  </defs>
  <metadata
     id="metadata7">
    <rdf:RDF>
      <cc:Work
         rdf:about="">
        <dc:format>image/svg+xml</dc:format>
        <dc:type
           rdf:resource="http://purl.org/dc/dcmitype/StillImage" />
        <dc:title />
      </cc:Work>
    </rdf:RDF>
  </metadata>
  <g
     style="display:inline"
     id="layer1"
     inkscape:groupmode="layer"
     inkscape:label="Layer 1">
    <g
       id="g2890"
       transform="matrix(-1,0,0,1,48.266033,1.614916)">
      <path
         style="font-size:medium;font-style:normal;font-variant:normal;font-weight:normal;font-stretch:normal;text-indent:0;text-align:start;text-decoration:none;line-height:normal;letter-spacing:normal;word-spacing:normal;text-transform:none;direction:ltr;block-progression:tb;writing-mode:lr-tb;text-anchor:start;color:#000000;fill:#000000;fill-opacity:1;stroke:none;stroke-width:5.62985039;marker:none;visibility:visible;display:inline;overflow:visible;enable-background:accumulate;font-family:Bitstream Vera Sans;-inkscape-font-specification:Bitstream Vera Sans"
         d="m 23.375,12.09375 c -1.849581,0.07549 -3.644385,0.487812 -5.3125,1.1875 l 2.625,2.625 c 0.90402,-0.256748 1.853593,-0.400584 2.8125,-0.4375 1.187193,-0.0457 2.414544,0.08166 3.625,0.40625 4.213768,1.129957 7.159535,3.997398 8.40625,8.125 -0.509302,1.686187 -1.327995,3.141957 -2.375,4.375 l 2.40625,2.40625 c 1.547168,-1.739467 2.694201,-3.867655 3.34375,-6.25 a 1.68588,1.6851214 2.3920182e-4 0 0 0.03125,-0.0625 1.6851214,1.68588 2.3929009e-4 0 0 0.03125,-0.09375 1.68588,1.6851214 2.3920182e-4 0 0 0,-0.0625 1.6851214,1.68588 2.3929009e-4 0 0 0,-0.09375 A 1.68588,1.6851214 2.3920182e-4 0 0 39,24.125 a 1.6851214,1.68588 2.3929009e-4 0 0 0,-0.09375 1.68588,1.6851214 2.3920182e-4 0 0 0,-0.0625 1.6851214,1.68588 2.3929009e-4 0 0 0,-0.09375 1.68588,1.6851214 2.3920182e-4 0 0 -0.03125,-0.09375 1.6851214,1.68588 2.3929009e-4 0 0 0,-0.09375 1.68588,1.6851214 2.3920182e-4 0 0 0,-0.0625 1.6851214,1.68588 2.3929009e-4 0 0 -0.03125,-0.09375 c -0.006,-0.02233 -0.02518,-0.04022 -0.03125,-0.0625 C 37.436073,18.076596 33.403468,14.073983 28,12.625 26.459224,12.211828 24.892692,12.031806 23.375,12.09375 z M 12.5,17.25 c -1.520033,1.696076 -2.6823427,3.735404 -3.34375,6.0625 a 1.6851214,1.68588 2.3929009e-4 0 0 -0.0625,0.15625 c -0.00611,0.02242 -0.025235,0.04003 -0.03125,0.0625 a 1.6851214,1.68588 2.3929009e-4 0 0 0,0.09375 1.68588,1.6851214 2.3920182e-4 0 0 -0.03125,0.0625 1.6851214,1.68588 2.3929009e-4 0 0 0,0.09375 A 1.68588,1.6851214 2.3920182e-4 0 0 9,23.875 a 1.6851214,1.68588 2.3929009e-4 0 0 0,0.09375 1.68588,1.6851214 2.3920182e-4 0 0 0,0.0625 1.6851214,1.68588 2.3929009e-4 0 0 0,0.09375 1.68588,1.6851214 2.3920182e-4 0 0 0.03125,0.09375 1.6851214,1.68588 2.3929009e-4 0 0 0,0.09375 1.68588,1.6851214 2.3920182e-4 0 0 0.03125,0.0625 1.6851214,1.68588 2.3929009e-4 0 0 0,0.09375 1.68588,1.6851214 2.3920182e-4 0 0 0.09375,0.21875 C 11.452099,32.765219 19.859566,37.557924 28,35.375 c 0.675434,-0.181123 1.338483,-0.3976 1.96875,-0.65625 l -2.625,-2.65625 c -0.07355,0.02101 -0.14441,0.04257 -0.21875,0.0625 C 20.810305,33.818337 14.364917,30.199342 12.46875,24 12.977408,22.336989 13.803786,20.864129 14.875,19.625 L 12.5,17.25 z M 24,18.53125 c -0.219289,0 -0.44333,0.0055 -0.65625,0.03125 l 6.09375,6.09375 C 29.463233,24.443508 29.46875,24.219043 29.46875,24 29.46875,21.007461 26.995901,18.53125 24,18.53125 z m -5.40625,4.78125 c -0.02872,0.224502 -0.0625,0.455905 -0.0625,0.6875 0,2.99254 2.472849,5.46875 5.46875,5.46875 0.231856,0 0.462814,-0.03375 0.6875,-0.0625 L 18.59375,23.3125 z"
         transform="translate(0.26603307,-1.614916)"
         id="path5531" />
    </g>
    <path
       id="path6449"
       d="m 36.051876,11.931251 c -0.660191,-0.660191 -1.723206,-0.660212 -2.383395,-8e-6 L 12.125106,33.474604 c -0.660196,0.660212 -0.660176,1.723212 6e-6,2.38341 0.660227,0.660225 1.723213,0.660218 2.38341,7e-6 l 21.543375,-21.54336 c 0.660198,-0.660197 0.660205,-1.723185 -2.1e-5,-2.38341 z"
       style="fill:#000000;fill-opacity:1;stroke:none;display:inline"
       sodipodi:nodetypes="cccsccc" />
  </g>
</svg>
