<?xml version="1.0" encoding="UTF-8" standalone="no"?>
<!-- Created with Inkscape (http://www.inkscape.org/) -->
<svg
   xmlns:dc="http://purl.org/dc/elements/1.1/"
   xmlns:cc="http://creativecommons.org/ns#"
   xmlns:rdf="http://www.w3.org/1999/02/22-rdf-syntax-ns#"
   xmlns:svg="http://www.w3.org/2000/svg"
   xmlns="http://www.w3.org/2000/svg"
   xmlns:sodipodi="http://sodipodi.sourceforge.net/DTD/sodipodi-0.dtd"
   xmlns:inkscape="http://www.inkscape.org/namespaces/inkscape"
   width="48"
   height="48"
   id="svg2"
   sodipodi:version="0.32"
   inkscape:version="0.46+devel"
   sodipodi:docname="software-update-urgent.svg"
   inkscape:output_extension="org.inkscape.output.svg.inkscape"
   inkscape:export-filename="/home/hbons/Desktop/Intel/svn/moblin-ui-docs/in progress/draft visual UI/icons/icons.png"
   inkscape:export-xdpi="60.476192"
   inkscape:export-ydpi="60.476192"
   version="1.0">
  <sodipodi:namedview
     id="base"
     pagecolor="#ffffff"
     bordercolor="#dcdcdc"
     borderopacity="1"
     gridtolerance="10000"
     guidetolerance="10"
     objecttolerance="10"
     inkscape:pageopacity="0"
     inkscape:pageshadow="2"
     inkscape:zoom="4"
     inkscape:cx="44.418206"
     inkscape:cy="29.520083"
     inkscape:document-units="px"
     inkscape:current-layer="layer1"
     showgrid="false"
     inkscape:window-width="1280"
     inkscape:window-height="750"
     inkscape:window-x="0"
     inkscape:window-y="0"
     inkscape:snap-intersection-line-segments="false"
     inkscape:snap-bbox="true"
     inkscape:snap-nodes="false"
     inkscape:bbox-paths="true"
     inkscape:showpageshadow="false"
     showguides="false"
     inkscape:guide-bbox="true"
     inkscape:bbox-nodes="true"
     inkscape:snap-global="false">
    <inkscape:grid
       enabled="true"
       visible="true"
       id="grid4079"
       type="xygrid"
       empspacing="5" />
    <sodipodi:guide
       id="guide7317"
       position="566.05335,854.14667"
       orientation="1,0" />
  </sodipodi:namedview>
  <defs
     id="defs4" />
  <metadata
     id="metadata7">
    <rdf:RDF>
      <cc:Work
         rdf:about="">
        <dc:format>image/svg+xml</dc:format>
        <dc:type
           rdf:resource="http://purl.org/dc/dcmitype/StillImage" />
        <dc:title />
      </cc:Work>
    </rdf:RDF>
  </metadata>
  <g
     style="display:inline"
     id="layer1"
     inkscape:groupmode="layer"
     inkscape:label="Layer 1">
    <path
       transform="matrix(0.93592372,0,0,0.93592372,43.729741,34.739331)"
       d="m -6.9280969,2.6778257 -8.2411721,0.1185716 -5.911232,5.7435464 -5.911232,-5.7435459 -8.241173,-0.118572 -0.118572,-8.241172 -5.743546,-5.9112328 5.743546,-5.911231 0.118572,-8.241173 8.241172,-0.118572 5.911232,-5.743546 5.911232,5.743545 8.241173,0.118572 0.1185716,8.241173 5.7435464,5.911232 -5.7435459,5.9112315 -0.118572,8.2411732 z"
       inkscape:randomized="0"
       inkscape:rounded="0"
       inkscape:flatsided="false"
       sodipodi:arg2="1.1780972"
       sodipodi:arg1="0.78539816"
       sodipodi:r2="15.446794"
       sodipodi:r1="20.014523"
       sodipodi:cy="-11.474579"
       sodipodi:cx="-21.080502"
       sodipodi:sides="8"
       id="path7121"
       style="fill:none;stroke:#000000;stroke-width:3.60178947;stroke-miterlimit:4;stroke-opacity:1;stroke-dasharray:none;display:inline"
       sodipodi:type="star" />
    <g
       id="g5952"
       transform="translate(0.2663325,1.2682025)">
      <path
         style="fill:#000000;fill-opacity:1;stroke:none;display:inline"
         d="m 23.733648,25.334443 c -0.93368,0 -1.68532,-0.75167 -1.68531,-1.68532 l 2e-5,-6.98111 c -3e-5,-0.9337 0.75161,-1.685321 1.68532,-1.685321 0.93364,0 1.685319,0.751621 1.685319,1.685321 l -10e-6,6.98111 c 10e-6,0.93365 -0.751669,1.68532 -1.685339,1.68532 z"
         id="path7330-1"
         sodipodi:nodetypes="cccsccc" />
      <path
         sodipodi:nodetypes="cccsccc"
         style="fill:#000000;fill-opacity:1;stroke:none;display:inline"
         d="m 23.733648,30.480903 c -0.93368,0 -1.68532,-0.75168 -1.68531,-1.68533 l 2e-5,-0.008 c -3e-5,-0.93369 0.75161,-1.68533 1.68532,-1.68533 0.93364,0 1.685319,0.75164 1.685319,1.68533 l -10e-6,0.008 c 10e-6,0.93365 -0.751669,1.68533 -1.685339,1.68533 z"
         id="path7348-1" />
    </g>
  </g>
</svg>
