<?xml version="1.0" encoding="UTF-8" standalone="no"?>
<!-- Created with Inkscape (http://www.inkscape.org/) -->
<svg
   xmlns:dc="http://purl.org/dc/elements/1.1/"
   xmlns:cc="http://creativecommons.org/ns#"
   xmlns:rdf="http://www.w3.org/1999/02/22-rdf-syntax-ns#"
   xmlns:svg="http://www.w3.org/2000/svg"
   xmlns="http://www.w3.org/2000/svg"
   xmlns:sodipodi="http://sodipodi.sourceforge.net/DTD/sodipodi-0.dtd"
   xmlns:inkscape="http://www.inkscape.org/namespaces/inkscape"
   width="48"
   height="48"
   id="svg2"
   sodipodi:version="0.32"
   inkscape:version="0.46+devel r20711"
   sodipodi:docname="weather-clear.svg"
   inkscape:output_extension="org.inkscape.output.svg.inkscape"
   inkscape:export-filename="/home/hbons/Desktop/Intel/svn/moblin-ui-docs/in progress/draft visual UI/icons/icons.png"
   inkscape:export-xdpi="60.476192"
   inkscape:export-ydpi="60.476192"
   version="1.0">
  <sodipodi:namedview
     id="base"
     pagecolor="#ffffff"
     bordercolor="#dcdcdc"
     borderopacity="1"
     gridtolerance="10000"
     guidetolerance="10"
     objecttolerance="10"
     inkscape:pageopacity="0"
     inkscape:pageshadow="2"
     inkscape:zoom="11.313708"
     inkscape:cx="39.518656"
     inkscape:cy="22.678735"
     inkscape:document-units="px"
     inkscape:current-layer="layer1"
     showgrid="false"
     inkscape:window-width="1278"
     inkscape:window-height="750"
     inkscape:window-x="0"
     inkscape:window-y="0"
     inkscape:snap-intersection-line-segments="false"
     inkscape:snap-bbox="true"
     inkscape:snap-nodes="false"
     inkscape:bbox-paths="true"
     inkscape:showpageshadow="false"
     showguides="false"
     inkscape:guide-bbox="true"
     inkscape:bbox-nodes="true"
     inkscape:snap-global="false">
    <inkscape:grid
       enabled="true"
       visible="true"
       id="grid4079"
       type="xygrid"
       empspacing="5" />
    <sodipodi:guide
       id="guide7317"
       position="566.05335,854.14667"
       orientation="1,0" />
  </sodipodi:namedview>
  <defs
     id="defs4">
    <inkscape:perspective
       sodipodi:type="inkscape:persp3d"
       inkscape:vp_x="0 : 24 : 1"
       inkscape:vp_y="0 : 1000 : 0"
       inkscape:vp_z="48 : 24 : 1"
       inkscape:persp3d-origin="24 : 16 : 1"
       id="perspective11" />
  </defs>
  <metadata
     id="metadata7">
    <rdf:RDF>
      <cc:Work
         rdf:about="">
        <dc:format>image/svg+xml</dc:format>
        <dc:type
           rdf:resource="http://purl.org/dc/dcmitype/StillImage" />
        <dc:title />
      </cc:Work>
    </rdf:RDF>
  </metadata>
  <g
     style="display:inline"
     id="layer1"
     inkscape:groupmode="layer"
     inkscape:label="Layer 1">
    <path
       style="fill:#000000;fill-opacity:1;stroke:none;display:inline"
       d="m 24,1.59375 c -0.9337,0 -1.68751,0.75383 -1.6875,1.6875 l 0,4.5625 c 1.121945,-0.1123867 2.250117,-0.1200852 3.375,0 l 0,-4.5625 C 25.68749,2.34758 24.93365,1.593759 24,1.59375 z M 9.40625,7.65625 c -0.4307993,2e-6 -0.8573875,0.1698872 -1.1875,0.5 -0.660191,0.6601902 -0.660205,1.7148099 0,2.375 l 3.1875,3.1875 c 0.109284,-0.133989 0.198206,-0.274899 0.3125,-0.40625 0.638326,-0.733589 1.329572,-1.379182 2.0625,-1.96875 l -3.1875,-3.1875 c -0.330099,-0.3300987 -0.7567007,-0.500002 -1.1875,-0.5 z m 29.1875,0 c -0.430799,0 -0.857402,0.1698942 -1.1875,0.5 L 34.1875,11.375 c 0.157313,0.127075 0.315001,0.241138 0.46875,0.375 0.70834,0.616718 1.330948,1.295896 1.90625,2 l 3.21875,-3.21875 c 0.660198,-0.6602113 0.660184,-1.7148034 0,-2.375 -0.330112,-0.3301128 -0.756701,-0.5 -1.1875,-0.5 z M 3.34375,22.25 c -0.93366,0 -1.6875,0.7538 -1.6875,1.6875 0,0.93365 0.75384,1.68751 1.6875,1.6875 l 4.5,0 c -0.1164993,-1.118552 -0.1146262,-2.254265 0,-3.375 l -4.5,0 z m 36.78125,0 c 0.124011,1.117053 0.138299,2.254278 0.03125,3.375 l 4.5,0 c 0.93367,-10e-6 1.687491,-0.75385 1.6875,-1.6875 0,-0.9337 -0.75383,-1.68751 -1.6875,-1.6875 l -4.53125,0 z m -28.75,11.9375 -3.15625,3.15625 c -0.6601973,0.660197 -0.6602256,1.746025 0,2.40625 0.6601902,0.660191 1.7148099,0.660205 2.375,0 L 13.75,36.5625 C 13.617662,36.454338 13.473548,36.363009 13.34375,36.25 12.612709,35.613517 11.964629,34.917019 11.375,34.1875 z m 25.28125,0.03125 c -0.125268,0.155106 -0.243072,0.317133 -0.375,0.46875 -0.620028,0.712561 -1.321986,1.329294 -2.03125,1.90625 L 37.40625,39.75 c 0.660211,0.660198 1.714803,0.660184 2.375,0 0.660226,-0.660225 0.660212,-1.746053 0,-2.40625 l -3.125,-3.125 z M 25.6875,40.125 c -1.121258,0.113381 -2.250744,0.150523 -3.375,0.03125 l 0,4.4375 c 0,0.93366 0.7538,1.6875 1.6875,1.6875 0.93365,0 1.68751,-0.75384 1.6875,-1.6875 l 0,-4.46875 z"
       id="path5579"
       sodipodi:nodetypes="cccccccsccsccccccsccsccscccccccsccccsccsccsccscccccscc" />
    <path
       id="path2842"
       sodipodi:type="arc"
       style="fill:none;stroke:#000000;stroke-width:6.89409781;stroke-linecap:round;stroke-miterlimit:4;stroke-opacity:1;stroke-dasharray:none;stroke-dashoffset:0;display:inline"
       sodipodi:cx="-25.809397"
       sodipodi:cy="179.43886"
       sodipodi:rx="22.98097"
       sodipodi:ry="22.98097"
       d="m -2.8284264,179.43886 a 22.98097,22.98097 0 1 1 -45.9619406,0 22.98097,22.98097 0 1 1 45.9619406,0 z"
       transform="matrix(-0.36928573,-0.32151826,-0.32046948,0.36829505,71.973637,-50.384637)" />
  </g>
</svg>
