<?xml version="1.0" encoding="UTF-8" standalone="no"?>
<!-- Created with Inkscape (http://www.inkscape.org/) -->
<svg
   xmlns:dc="http://purl.org/dc/elements/1.1/"
   xmlns:cc="http://creativecommons.org/ns#"
   xmlns:rdf="http://www.w3.org/1999/02/22-rdf-syntax-ns#"
   xmlns:svg="http://www.w3.org/2000/svg"
   xmlns="http://www.w3.org/2000/svg"
   xmlns:sodipodi="http://sodipodi.sourceforge.net/DTD/sodipodi-0.dtd"
   xmlns:inkscape="http://www.inkscape.org/namespaces/inkscape"
   width="48"
   height="48"
   id="svg2"
   sodipodi:version="0.32"
   inkscape:version="0.46+devel r20711"
   sodipodi:docname="edit-undo.svg"
   inkscape:output_extension="org.inkscape.output.svg.inkscape"
   inkscape:export-filename="/home/hbons/Desktop/Intel/svn/moblin-ui-docs/in progress/draft visual UI/icons/icons.png"
   inkscape:export-xdpi="60.476192"
   inkscape:export-ydpi="60.476192"
   version="1.0">
  <sodipodi:namedview
     id="base"
     pagecolor="#ffffff"
     bordercolor="#dcdcdc"
     borderopacity="1"
     gridtolerance="10000"
     guidetolerance="10"
     objecttolerance="10"
     inkscape:pageopacity="0"
     inkscape:pageshadow="2"
     inkscape:zoom="5.6568542"
     inkscape:cx="33.570565"
     inkscape:cy="26.813238"
     inkscape:document-units="px"
     inkscape:current-layer="layer1"
     showgrid="false"
     inkscape:window-width="1278"
     inkscape:window-height="750"
     inkscape:window-x="0"
     inkscape:window-y="0"
     inkscape:snap-intersection-line-segments="false"
     inkscape:snap-bbox="true"
     inkscape:snap-nodes="false"
     inkscape:bbox-paths="true"
     inkscape:showpageshadow="false"
     showguides="true"
     inkscape:guide-bbox="true"
     inkscape:bbox-nodes="true"
     inkscape:snap-global="false">
    <inkscape:grid
       enabled="true"
       visible="true"
       id="grid4079"
       type="xygrid"
       empspacing="5" />
    <sodipodi:guide
       id="guide7317"
       position="566.05335,854.14667"
       orientation="1,0" />
  </sodipodi:namedview>
  <defs
     id="defs4">
    <inkscape:perspective
       sodipodi:type="inkscape:persp3d"
       inkscape:vp_x="0 : 24 : 1"
       inkscape:vp_y="0 : 1000 : 0"
       inkscape:vp_z="48 : 24 : 1"
       inkscape:persp3d-origin="24 : 16 : 1"
       id="perspective13" />
    <inkscape:perspective
       sodipodi:type="inkscape:persp3d"
       inkscape:vp_x="0 : 0.5 : 1"
       inkscape:vp_y="0 : 1000 : 0"
       inkscape:vp_z="1 : 0.5 : 1"
       inkscape:persp3d-origin="0.5 : 0.33333333 : 1"
       id="perspective6334" />
    <inkscape:perspective
       sodipodi:type="inkscape:persp3d"
       inkscape:vp_x="0 : 0.5 : 1"
       inkscape:vp_y="0 : 1000 : 0"
       inkscape:vp_z="1 : 0.5 : 1"
       inkscape:persp3d-origin="0.5 : 0.33333333 : 1"
       id="perspective5534" />
    <inkscape:perspective
       sodipodi:type="inkscape:persp3d"
       inkscape:vp_x="0 : 0.5 : 1"
       inkscape:vp_y="0 : 1000 : 0"
       inkscape:vp_z="1 : 0.5 : 1"
       inkscape:persp3d-origin="0.5 : 0.33333333 : 1"
       id="perspective6327" />
    <inkscape:perspective
       id="perspective17"
       inkscape:persp3d-origin="24 : 16 : 1"
       inkscape:vp_z="48 : 24 : 1"
       inkscape:vp_y="0 : 1000 : 0"
       inkscape:vp_x="0 : 24 : 1"
       sodipodi:type="inkscape:persp3d" />
  </defs>
  <metadata
     id="metadata7">
    <rdf:RDF>
      <cc:Work
         rdf:about="">
        <dc:format>image/svg+xml</dc:format>
        <dc:type
           rdf:resource="http://purl.org/dc/dcmitype/StillImage" />
        <dc:title />
      </cc:Work>
    </rdf:RDF>
  </metadata>
  <g
     style="display:inline"
     id="layer1"
     inkscape:groupmode="layer"
     inkscape:label="Layer 1">
    <g
       id="g2877"
       transform="translate(-0.02860791,0.00323142)">
      <path
         style="fill:#ffffff;fill-opacity:1;stroke:none"
         d="m 20.851666,7.7138966 c 0.6602,0.66019 0.66021,1.72321 0,2.3834304 l -7.59113,7.59113 c -0.6602,0.6602 -1.72323,0.66018 -2.38341,0 -0.66024,-0.66024 -0.66022,-1.72322 0,-2.38342 l 7.59113,-7.5911404 c 0.66019,-0.6602 1.72318,-0.66022 2.38341,0 z"
         id="path7193"
         sodipodi:nodetypes="cccsccc" />
      <path
         id="path7201"
         d="m 20.851666,25.287247 c -0.6602,0.66019 -1.72321,0.66021 -2.38341,0 l -7.59113,-7.59113 c -0.66022,-0.6602 -0.6602,-1.72322 0,-2.38341 0.66022,-0.66022 1.72321,-0.66021 2.38341,0 l 7.59113,7.59113 c 0.66021,0.66019 0.66021,1.72319 0,2.38341 z"
         style="fill:#ffffff;fill-opacity:1;stroke:none"
         sodipodi:nodetypes="cccsccc" />
      <path
         sodipodi:nodetypes="cccsccc"
         id="path5522"
         d="m 29.34197,16.502871 c 8e-6,0.933657 -0.751654,1.685333 -1.685339,1.68534 l -15.589337,0 c -0.933664,0 -1.685326,-0.75169 -1.685326,-1.685325 0,-0.933721 0.751655,-1.685347 1.685333,-1.685333 l 15.589344,-7e-6 c 0.933657,-7e-6 1.685318,0.751626 1.685325,1.685325 z"
         style="fill:#ffffff;fill-opacity:1;stroke:none" />
      <path
         style="fill:#ffffff;fill-opacity:1;stroke:none"
         d="m 28.843325,39.071977 c 8e-6,0.933657 -0.751654,1.685333 -1.685339,1.68534 l -10.418605,0 c -0.933664,0 -1.685326,-0.75169 -1.685326,-1.685325 0,-0.933721 0.751655,-1.685347 1.685333,-1.685333 l 10.418612,-7e-6 c 0.933657,-7e-6 1.685318,0.751626 1.685325,1.685325 z"
         id="path5547"
         sodipodi:nodetypes="cccsccc" />
      <path
         sodipodi:open="true"
         sodipodi:end="3.3785836"
         sodipodi:start="1.8325957"
         transform="matrix(-0.06599717,0.33817495,0.33715335,0.06571614,-34.088475,21.361399)"
         d="m -31.757309,201.63677 c -12.059726,-3.23139 -19.32196,-15.45718 -16.390713,-27.59336"
         sodipodi:ry="22.98097"
         sodipodi:rx="22.98097"
         sodipodi:cy="179.43886"
         sodipodi:cx="-25.809397"
         style="fill:none;stroke:#ffffff;stroke-width:9.79770088;stroke-linecap:round;stroke-miterlimit:4;stroke-opacity:1;stroke-dasharray:none;stroke-dashoffset:0;display:inline"
         sodipodi:type="arc"
         id="path2857" />
      <path
         id="path2859"
         sodipodi:type="arc"
         style="fill:none;stroke:#ffffff;stroke-width:9.79770088;stroke-linecap:round;stroke-miterlimit:4;stroke-opacity:1;stroke-dasharray:none;stroke-dashoffset:0;display:inline"
         sodipodi:cx="-25.809397"
         sodipodi:cy="179.43886"
         sodipodi:rx="22.98097"
         sodipodi:ry="22.98097"
         d="M -31.757309,201.63677 C -44.010557,198.35352 -51.290557,185.74419 -48.00731,173.49095"
         transform="matrix(-0.06599717,-0.33817495,0.33715335,-0.06571614,-34.088475,34.236141)"
         sodipodi:start="1.8325957"
         sodipodi:end="3.403392"
         sodipodi:open="true" />
      <path
         style="fill:#ffffff;fill-opacity:1;stroke:none"
         d="m 35.970378,33.511334 c -0.933657,8e-6 -1.685333,-0.751654 -1.68534,-1.685339 l 0,-8.239742 c 0,-0.933664 0.75169,-1.685326 1.685325,-1.685326 0.933721,0 1.685347,0.751655 1.685333,1.685333 l 7e-6,8.239749 c 7e-6,0.933657 -0.751626,1.685318 -1.685325,1.685325 z"
         id="path2861"
         sodipodi:nodetypes="cccsccc" />
    </g>
  </g>
</svg>
