<?xml version="1.0" encoding="UTF-8" standalone="no"?>
<!-- Created with Inkscape (http://www.inkscape.org/) -->
<svg
   xmlns:dc="http://purl.org/dc/elements/1.1/"
   xmlns:cc="http://creativecommons.org/ns#"
   xmlns:rdf="http://www.w3.org/1999/02/22-rdf-syntax-ns#"
   xmlns:svg="http://www.w3.org/2000/svg"
   xmlns="http://www.w3.org/2000/svg"
   xmlns:sodipodi="http://sodipodi.sourceforge.net/DTD/sodipodi-0.dtd"
   xmlns:inkscape="http://www.inkscape.org/namespaces/inkscape"
   width="48"
   height="48"
   id="svg2"
   sodipodi:version="0.32"
   inkscape:version="0.46+devel"
   sodipodi:docname="go-first.svg"
   inkscape:output_extension="org.inkscape.output.svg.inkscape"
   inkscape:export-filename="/home/hbons/Desktop/Intel/svn/moblin-ui-docs/in progress/draft visual UI/icons/icons.png"
   inkscape:export-xdpi="60.476192"
   inkscape:export-ydpi="60.476192"
   version="1.0">
  <sodipodi:namedview
     id="base"
     pagecolor="#ffffff"
     bordercolor="#dcdcdc"
     borderopacity="1"
     gridtolerance="10000"
     guidetolerance="10"
     objecttolerance="10"
     inkscape:pageopacity="0"
     inkscape:pageshadow="2"
     inkscape:zoom="8"
     inkscape:cx="31.52282"
     inkscape:cy="16.298808"
     inkscape:document-units="px"
     inkscape:current-layer="layer1"
     showgrid="false"
     inkscape:window-width="1280"
     inkscape:window-height="750"
     inkscape:window-x="0"
     inkscape:window-y="0"
     inkscape:snap-intersection-line-segments="false"
     inkscape:snap-bbox="true"
     inkscape:snap-nodes="false"
     inkscape:bbox-paths="true"
     inkscape:showpageshadow="false"
     showguides="false"
     inkscape:guide-bbox="true"
     inkscape:bbox-nodes="true"
     inkscape:snap-global="false">
    <inkscape:grid
       enabled="true"
       visible="true"
       id="grid4079"
       type="xygrid"
       empspacing="5" />
    <sodipodi:guide
       id="guide7317"
       position="566.05335,854.14667"
       orientation="1,0" />
  </sodipodi:namedview>
  <defs
     id="defs4">
    <inkscape:perspective
       sodipodi:type="inkscape:persp3d"
       inkscape:vp_x="0 : 24 : 1"
       inkscape:vp_y="0 : 1000 : 0"
       inkscape:vp_z="48 : 24 : 1"
       inkscape:persp3d-origin="24 : 16 : 1"
       id="perspective13" />
  </defs>
  <metadata
     id="metadata7">
    <rdf:RDF>
      <cc:Work
         rdf:about="">
        <dc:format>image/svg+xml</dc:format>
        <dc:type
           rdf:resource="http://purl.org/dc/dcmitype/StillImage" />
        <dc:title />
      </cc:Work>
    </rdf:RDF>
  </metadata>
  <g
     style="display:inline"
     id="layer1"
     inkscape:groupmode="layer"
     inkscape:label="Layer 1">
    <g
       id="g6294"
       transform="translate(0.3977805,-2.5e-7)">
      <path
         style="fill:#ffffff;fill-opacity:1;stroke:none"
         d="m 26.84902,13.213329 c 0.6602,0.66019 0.66021,1.72321 0,2.38343 l -9.59113,9.59113 c -0.6602,0.6602 -1.72323,0.66018 -2.38341,0 -0.66024,-0.66024 -0.66022,-1.72322 0,-2.38342 l 9.59113,-9.59114 c 0.66019,-0.6602 1.72318,-0.66022 2.38341,0 z"
         id="path7193"
         sodipodi:nodetypes="cccsccc" />
      <path
         id="path7201"
         d="m 26.84902,34.786679 c -0.6602,0.66019 -1.72321,0.66021 -2.38341,0 l -9.59113,-9.59113 c -0.66022,-0.6602 -0.6602,-1.72322 0,-2.38341 0.66022,-0.66022 1.72321,-0.66021 2.38341,0 l 9.59113,9.59113 c 0.66021,0.66019 0.66021,1.72319 0,2.38341 z"
         style="fill:#ffffff;fill-opacity:1;stroke:none"
         sodipodi:nodetypes="cccsccc" />
      <path
         sodipodi:nodetypes="cccsccc"
         id="path5522"
         d="m 36.087291,24.002303 c 8e-6,0.933657 -0.751654,1.685333 -1.685339,1.68534 l -18.337304,0 c -0.933664,0 -1.685326,-0.75169 -1.685326,-1.685325 0,-0.933721 0.751655,-1.685347 1.685333,-1.685333 l 18.337311,-7e-6 c 0.933657,-7e-6 1.685318,0.751626 1.685325,1.685325 z"
         style="fill:#ffffff;fill-opacity:1;stroke:none" />
      <path
         sodipodi:nodetypes="cccsccc"
         id="path5520"
         d="m 12.802473,12.718172 c 0.933657,-7e-6 1.685333,0.751654 1.68534,1.685339 l 0,19.207995 c 0,0.933664 -0.75169,1.685326 -1.685325,1.685326 -0.933721,0 -1.685347,-0.751655 -1.685333,-1.685333 l -7e-6,-19.208002 c -7e-6,-0.933657 0.751626,-1.685318 1.685325,-1.685325 z"
         style="fill:#ffffff;fill-opacity:1;stroke:none" />
    </g>
  </g>
</svg>
