<?xml version="1.0" encoding="UTF-8" standalone="no"?>
<!-- Created with Inkscape (http://www.inkscape.org/) -->
<svg
   xmlns:dc="http://purl.org/dc/elements/1.1/"
   xmlns:cc="http://creativecommons.org/ns#"
   xmlns:rdf="http://www.w3.org/1999/02/22-rdf-syntax-ns#"
   xmlns:svg="http://www.w3.org/2000/svg"
   xmlns="http://www.w3.org/2000/svg"
   xmlns:sodipodi="http://sodipodi.sourceforge.net/DTD/sodipodi-0.dtd"
   xmlns:inkscape="http://www.inkscape.org/namespaces/inkscape"
   width="48"
   height="48"
   id="svg2"
   sodipodi:version="0.32"
   inkscape:version="0.46+devel r20711"
   sodipodi:docname="list-add.svg"
   inkscape:output_extension="org.inkscape.output.svg.inkscape"
   inkscape:export-filename="/home/hbons/Desktop/Intel/svn/moblin-ui-docs/in progress/draft visual UI/icons/icons.png"
   inkscape:export-xdpi="60.476192"
   inkscape:export-ydpi="60.476192"
   version="1.0">
  <sodipodi:namedview
     id="base"
     pagecolor="#ffffff"
     bordercolor="#dcdcdc"
     borderopacity="1"
     gridtolerance="10000"
     guidetolerance="10"
     objecttolerance="10"
     inkscape:pageopacity="0"
     inkscape:pageshadow="2"
     inkscape:zoom="1"
     inkscape:cx="27.542172"
     inkscape:cy="19.089637"
     inkscape:document-units="px"
     inkscape:current-layer="layer1"
     showgrid="false"
     inkscape:window-width="1278"
     inkscape:window-height="750"
     inkscape:window-x="0"
     inkscape:window-y="1"
     inkscape:snap-intersection-line-segments="false"
     inkscape:snap-bbox="true"
     inkscape:snap-nodes="false"
     inkscape:bbox-paths="true"
     inkscape:showpageshadow="false"
     showguides="false"
     inkscape:guide-bbox="true"
     inkscape:bbox-nodes="true"
     inkscape:snap-global="true">
    <inkscape:grid
       enabled="true"
       visible="true"
       id="grid4079"
       type="xygrid"
       empspacing="5" />
    <sodipodi:guide
       id="guide7317"
       position="566.05335,854.14667"
       orientation="1,0" />
  </sodipodi:namedview>
  <defs
     id="defs4">
    <inkscape:perspective
       sodipodi:type="inkscape:persp3d"
       inkscape:vp_x="0 : 24 : 1"
       inkscape:vp_y="0 : 1000 : 0"
       inkscape:vp_z="48 : 24 : 1"
       inkscape:persp3d-origin="24 : 16 : 1"
       id="perspective26" />
  </defs>
  <metadata
     id="metadata7">
    <rdf:RDF>
      <cc:Work
         rdf:about="">
        <dc:format>image/svg+xml</dc:format>
        <dc:type
           rdf:resource="http://purl.org/dc/dcmitype/StillImage" />
        <dc:title></dc:title>
      </cc:Work>
    </rdf:RDF>
  </metadata>
  <g
     style="display:inline"
     id="layer1"
     inkscape:groupmode="layer"
     inkscape:label="Layer 1">
    <g
       id="g2917"
       transform="translate(0.527859,-10e-7)">
      <rect
         style="fill:#ffffff;fill-opacity:1;stroke:none"
         id="rect5825"
         width="8.7982321"
         height="3.3710001"
         x="12.998256"
         y="25.675653"
         rx="1.6855001"
         ry="1.6855" />
      <rect
         style="fill:#ffffff;fill-opacity:1;stroke:none"
         id="rect5835"
         width="9.2480965"
         height="3.3710001"
         x="12.548391"
         y="18.953348"
         rx="1.6855001"
         ry="1.6855" />
      <g
         transform="matrix(0.2303436,0,0,0.2303436,10.587413,18.47845)"
         style="display:inline"
         id="layer1-0"
         inkscape:label="Layer 1">
        <path
           sodipodi:open="true"
           sodipodi:end="8.6393798"
           sodipodi:start="5.4977871"
           transform="matrix(-0.48065798,-0.41848594,-0.41711933,0.47937029,77.759243,-72.879145)"
           d="m -9.5593975,163.18886 c 8.97000043,8.97 8.97000107,23.53 1.5e-6,32.5 -8.97,8.97 -23.53,8.97 -32.5,0 0,0 -10e-7,0 -10e-7,0"
           sodipodi:ry="22.98097"
           sodipodi:rx="22.98097"
           sodipodi:cy="179.43886"
           sodipodi:cx="-25.809397"
           style="fill:none;stroke:#ffffff;stroke-width:22.9946537;stroke-linecap:round;stroke-miterlimit:4;stroke-opacity:1;stroke-dasharray:none;stroke-dashoffset:0;display:inline"
           sodipodi:type="arc"
           id="path5562" />
      </g>
      <g
         inkscape:label="Layer 1"
         id="g2893"
         style="display:inline"
         transform="matrix(-0.2303436,0,0,0.2303436,36.356869,18.485147)">
        <path
           id="path2895"
           sodipodi:type="arc"
           style="fill:none;stroke:#ffffff;stroke-width:22.9946537;stroke-linecap:round;stroke-miterlimit:4;stroke-opacity:1;stroke-dasharray:none;stroke-dashoffset:0;display:inline"
           sodipodi:cx="-25.809397"
           sodipodi:cy="179.43886"
           sodipodi:rx="22.98097"
           sodipodi:ry="22.98097"
           d="m -9.5593975,163.18886 c 8.97000043,8.97 8.97000107,23.53 1.5e-6,32.5 -8.97,8.97 -23.53,8.97 -32.5,0 0,0 -10e-7,0 -10e-7,0"
           transform="matrix(-0.48065798,-0.41848594,-0.41711933,0.47937029,77.759243,-72.879145)"
           sodipodi:start="5.4977871"
           sodipodi:end="8.6393798"
           sodipodi:open="true" />
      </g>
      <rect
         transform="matrix(0,1,-1,0,0,0)"
         ry="1.6855"
         rx="1.6855001"
         y="-21.796488"
         x="13.788909"
         height="3.3710001"
         width="8.5354395"
         id="rect2897"
         style="fill:#ffffff;fill-opacity:1;stroke:none" />
      <rect
         transform="matrix(0,1,-1,0,0,0)"
         ry="1.6855"
         rx="1.6855003"
         y="-28.518793"
         x="13.076251"
         height="3.3710001"
         width="9.2480974"
         id="rect2899"
         style="fill:#ffffff;fill-opacity:1;stroke:none" />
      <g
         inkscape:label="Layer 1"
         id="g2901"
         style="display:inline"
         transform="matrix(0,0.2303436,-0.2303436,0,28.993692,11.115273)">
        <path
           id="path2903"
           sodipodi:type="arc"
           style="fill:none;stroke:#ffffff;stroke-width:22.9946537;stroke-linecap:round;stroke-miterlimit:4;stroke-opacity:1;stroke-dasharray:none;stroke-dashoffset:0;display:inline"
           sodipodi:cx="-25.809397"
           sodipodi:cy="179.43886"
           sodipodi:rx="22.98097"
           sodipodi:ry="22.98097"
           d="m -9.5593975,163.18886 c 8.97000043,8.97 8.97000107,23.53 1.5e-6,32.5 -8.97,8.97 -23.53,8.97 -32.5,0 0,0 -10e-7,0 -10e-7,0"
           transform="matrix(-0.48065798,-0.41848594,-0.41711933,0.47937029,77.759243,-72.879145)"
           sodipodi:start="5.4977871"
           sodipodi:end="8.6393798"
           sodipodi:open="true" />
      </g>
      <g
         transform="matrix(0,-0.2303436,-0.2303436,0,28.986995,36.884729)"
         style="display:inline"
         id="g2905"
         inkscape:label="Layer 1">
        <path
           sodipodi:open="true"
           sodipodi:end="8.6393798"
           sodipodi:start="5.4977871"
           transform="matrix(-0.48065798,-0.41848594,-0.41711933,0.47937029,77.759243,-72.879145)"
           d="m -9.5593975,163.18886 c 8.97000043,8.97 8.97000107,23.53 1.5e-6,32.5 -8.97,8.97 -23.53,8.97 -32.5,0 0,0 -10e-7,0 -10e-7,0"
           sodipodi:ry="22.98097"
           sodipodi:rx="22.98097"
           sodipodi:cy="179.43886"
           sodipodi:cx="-25.809397"
           style="fill:none;stroke:#ffffff;stroke-width:22.9946537;stroke-linecap:round;stroke-miterlimit:4;stroke-opacity:1;stroke-dasharray:none;stroke-dashoffset:0;display:inline"
           sodipodi:type="arc"
           id="path2907" />
      </g>
      <rect
         ry="1.6855"
         rx="1.6855001"
         y="18.953348"
         x="25.147793"
         height="3.3710001"
         width="9.2480965"
         id="rect2909"
         style="fill:#ffffff;fill-opacity:1;stroke:none" />
      <rect
         style="fill:#ffffff;fill-opacity:1;stroke:none"
         id="rect2911"
         width="8.5354395"
         height="3.3710001"
         x="25.675653"
         y="-21.796488"
         rx="1.6855001"
         ry="1.6855"
         transform="matrix(0,1,-1,0,0,0)" />
      <rect
         transform="matrix(0,1,-1,0,0,0)"
         ry="1.6855"
         rx="1.6855"
         y="-28.518795"
         x="26.152618"
         height="3.3710001"
         width="8.7522421"
         id="rect2913"
         style="fill:#ffffff;fill-opacity:1;stroke:none" />
      <rect
         ry="1.6855"
         rx="1.6855001"
         y="25.675653"
         x="25.147795"
         height="3.3710001"
         width="9.191186"
         id="rect2915"
         style="fill:#ffffff;fill-opacity:1;stroke:none" />
    </g>
  </g>
</svg>
