<?xml version="1.0" encoding="UTF-8" standalone="no"?>
<!-- Created with Inkscape (http://www.inkscape.org/) -->
<svg
   xmlns:dc="http://purl.org/dc/elements/1.1/"
   xmlns:cc="http://creativecommons.org/ns#"
   xmlns:rdf="http://www.w3.org/1999/02/22-rdf-syntax-ns#"
   xmlns:svg="http://www.w3.org/2000/svg"
   xmlns="http://www.w3.org/2000/svg"
   xmlns:sodipodi="http://sodipodi.sourceforge.net/DTD/sodipodi-0.dtd"
   xmlns:inkscape="http://www.inkscape.org/namespaces/inkscape"
   width="48"
   height="48"
   id="svg2"
   sodipodi:version="0.32"
   inkscape:version="0.46+devel r20711"
   sodipodi:docname="media-seek-forward.svg"
   inkscape:output_extension="org.inkscape.output.svg.inkscape"
   inkscape:export-filename="/home/hbons/Desktop/Intel/svn/moblin-ui-docs/in progress/draft visual UI/icons/icons.png"
   inkscape:export-xdpi="60.476192"
   inkscape:export-ydpi="60.476192"
   version="1.0">
  <sodipodi:namedview
     id="base"
     pagecolor="#ffffff"
     bordercolor="#dcdcdc"
     borderopacity="1"
     gridtolerance="10000"
     guidetolerance="10"
     objecttolerance="10"
     inkscape:pageopacity="0"
     inkscape:pageshadow="2"
     inkscape:zoom="1"
     inkscape:cx="35.701244"
     inkscape:cy="25.18828"
     inkscape:document-units="px"
     inkscape:current-layer="layer1"
     showgrid="false"
     inkscape:window-width="1278"
     inkscape:window-height="750"
     inkscape:window-x="0"
     inkscape:window-y="0"
     inkscape:snap-intersection-line-segments="false"
     inkscape:snap-bbox="true"
     inkscape:snap-nodes="false"
     inkscape:bbox-paths="true"
     inkscape:showpageshadow="false"
     showguides="false"
     inkscape:guide-bbox="true"
     inkscape:bbox-nodes="true"
     inkscape:snap-global="false">
    <inkscape:grid
       enabled="true"
       visible="true"
       id="grid4079"
       type="xygrid"
       empspacing="5" />
    <sodipodi:guide
       id="guide7317"
       position="566.05335,854.14667"
       orientation="1,0" />
  </sodipodi:namedview>
  <defs
     id="defs4">
    <inkscape:perspective
       sodipodi:type="inkscape:persp3d"
       inkscape:vp_x="0 : 24 : 1"
       inkscape:vp_y="0 : 1000 : 0"
       inkscape:vp_z="48 : 24 : 1"
       inkscape:persp3d-origin="24 : 16 : 1"
       id="perspective13" />
    <inkscape:perspective
       id="perspective5528"
       inkscape:persp3d-origin="0.5 : 0.33333333 : 1"
       inkscape:vp_z="1 : 0.5 : 1"
       inkscape:vp_y="0 : 1000 : 0"
       inkscape:vp_x="0 : 0.5 : 1"
       sodipodi:type="inkscape:persp3d" />
    <inkscape:perspective
       sodipodi:type="inkscape:persp3d"
       inkscape:vp_x="0 : 0.5 : 1"
       inkscape:vp_y="0 : 1000 : 0"
       inkscape:vp_z="1 : 0.5 : 1"
       inkscape:persp3d-origin="0.5 : 0.33333333 : 1"
       id="perspective5661-5" />
    <inkscape:perspective
       sodipodi:type="inkscape:persp3d"
       inkscape:vp_x="0 : 0.5 : 1"
       inkscape:vp_y="0 : 1000 : 0"
       inkscape:vp_z="1 : 0.5 : 1"
       inkscape:persp3d-origin="0.5 : 0.33333333 : 1"
       id="perspective5661" />
    <inkscape:perspective
       sodipodi:type="inkscape:persp3d"
       inkscape:vp_x="0 : 24 : 1"
       inkscape:vp_y="0 : 1000 : 0"
       inkscape:vp_z="48 : 24 : 1"
       inkscape:persp3d-origin="24 : 16 : 1"
       id="perspective18-6" />
    <inkscape:perspective
       sodipodi:type="inkscape:persp3d"
       inkscape:vp_x="0 : 0.5 : 1"
       inkscape:vp_y="0 : 1000 : 0"
       inkscape:vp_z="1 : 0.5 : 1"
       inkscape:persp3d-origin="0.5 : 0.33333333 : 1"
       id="perspective5592" />
    <inkscape:perspective
       sodipodi:type="inkscape:persp3d"
       inkscape:vp_x="0 : 0.5 : 1"
       inkscape:vp_y="0 : 1000 : 0"
       inkscape:vp_z="1 : 0.5 : 1"
       inkscape:persp3d-origin="0.5 : 0.33333333 : 1"
       id="perspective5534" />
    <inkscape:perspective
       id="perspective18"
       inkscape:persp3d-origin="24 : 16 : 1"
       inkscape:vp_z="48 : 24 : 1"
       inkscape:vp_y="0 : 1000 : 0"
       inkscape:vp_x="0 : 24 : 1"
       sodipodi:type="inkscape:persp3d" />
  </defs>
  <metadata
     id="metadata7">
    <rdf:RDF>
      <cc:Work
         rdf:about="">
        <dc:format>image/svg+xml</dc:format>
        <dc:type
           rdf:resource="http://purl.org/dc/dcmitype/StillImage" />
        <dc:title />
      </cc:Work>
    </rdf:RDF>
  </metadata>
  <g
     style="display:inline"
     id="layer1"
     inkscape:groupmode="layer"
     inkscape:label="Layer 1">
    <g
       id="g3637"
       transform="matrix(-1,0,0,1,48.827833,3.7266262e-7)">
      <path
         sodipodi:nodetypes="cccsccc"
         style="fill:#ffffff;fill-opacity:1;stroke:none;display:inline"
         d="m 42.881408,12.434321 c 0.93365,0 1.68533,0.75165 1.68532,1.68531 l 1e-5,19.49866 c -1e-5,0.933671 -0.75168,1.68531 -1.68533,1.685321 -0.9337,0 -1.68534,-0.75165 -1.68533,-1.685321 l -1e-5,-19.49866 c 0,-0.93366 0.75164,-1.68531 1.68534,-1.68531 z"
         id="path5541" />
      <path
         id="path6322"
         d="m 44.324959,13.226425 c 0.466825,0.808564 0.191718,1.835362 -0.61686,2.302184 l -17.160683,9.907735 c -0.808587,0.466828 -1.835361,0.191681 -2.302195,-0.616878 -0.46685,-0.808606 -0.191722,-1.835372 0.616865,-2.302198 l 17.160682,-9.907737 c 0.808574,-0.466829 1.835341,-0.191714 2.302191,0.616894 z"
         style="fill:#ffffff;fill-opacity:1;stroke:none;display:inline"
         sodipodi:nodetypes="cccsccc" />
      <path
         sodipodi:nodetypes="cccsccc"
         style="fill:#ffffff;fill-opacity:1;stroke:none;display:inline"
         d="m 44.324959,34.773575 c 0.466825,-0.808565 0.191718,-1.835363 -0.61686,-2.302185 L 26.547416,22.563655 c -0.808587,-0.466828 -1.835361,-0.191681 -2.302195,0.616878 -0.46685,0.808607 -0.191722,1.835372 0.616865,2.302198 l 17.160682,9.907737 c 0.808574,0.466829 1.835341,0.191715 2.302191,-0.616893 z"
         id="path6324" />
      <path
         id="path5531"
         d="m 23.952385,12.434321 c 0.93365,0 1.68533,0.75165 1.68532,1.68531 l 10e-6,19.49866 c -10e-6,0.933671 -0.75168,1.68531 -1.68533,1.685321 -0.9337,0 -1.68534,-0.75165 -1.68533,-1.685321 l -10e-6,-19.49866 c 0,-0.93366 0.75164,-1.68531 1.68534,-1.68531 z"
         style="fill:#ffffff;fill-opacity:1;stroke:none;display:inline"
         sodipodi:nodetypes="cccsccc" />
      <path
         sodipodi:nodetypes="cccsccc"
         style="fill:#ffffff;fill-opacity:1;stroke:none;display:inline"
         d="m 25.395936,13.226425 c 0.466825,0.808564 0.191718,1.835362 -0.61686,2.302184 L 7.618393,25.436344 C 6.809806,25.903172 5.783032,25.628025 5.316198,24.819466 4.849348,24.01086 5.124476,22.984094 5.933063,22.517268 l 17.160682,-9.907737 c 0.808574,-0.466829 1.835341,-0.191714 2.302191,0.616894 z"
         id="path5533" />
      <path
         id="path5535"
         d="m 25.395936,34.773575 c 0.466825,-0.808565 0.191718,-1.835363 -0.61686,-2.302185 L 7.618393,22.563655 C 6.809806,22.096827 5.783032,22.371974 5.316198,23.180533 4.849348,23.98914 5.124476,25.015905 5.933063,25.482731 l 17.160682,9.907737 c 0.808574,0.466829 1.835341,0.191715 2.302191,-0.616893 z"
         style="fill:#ffffff;fill-opacity:1;stroke:none;display:inline"
         sodipodi:nodetypes="cccsccc" />
      <path
         sodipodi:nodetypes="cccc"
         id="rect2854"
         d="M 8.539895,24.241499 23.962105,15.211995 24.077082,32.895414 8.539895,24.241499 z"
         style="fill:#ffffff;fill-opacity:1;stroke:none" />
      <path
         style="fill:#ffffff;fill-opacity:1;stroke:none"
         d="M 27.2811,24.241499 42.70331,15.211995 42.818287,32.895414 27.2811,24.241499 z"
         id="path3629"
         sodipodi:nodetypes="cccc" />
    </g>
  </g>
</svg>
