<?xml version="1.0" encoding="UTF-8" standalone="no"?>
<!-- Created with Inkscape (http://www.inkscape.org/) -->
<svg
   xmlns:dc="http://purl.org/dc/elements/1.1/"
   xmlns:cc="http://creativecommons.org/ns#"
   xmlns:rdf="http://www.w3.org/1999/02/22-rdf-syntax-ns#"
   xmlns:svg="http://www.w3.org/2000/svg"
   xmlns="http://www.w3.org/2000/svg"
   xmlns:sodipodi="http://sodipodi.sourceforge.net/DTD/sodipodi-0.dtd"
   xmlns:inkscape="http://www.inkscape.org/namespaces/inkscape"
   width="48"
   height="48"
   id="svg2"
   sodipodi:version="0.32"
   inkscape:version="0.46+devel r20679"
   sodipodi:docname="emblem-photos.svg"
   inkscape:output_extension="org.inkscape.output.svg.inkscape"
   inkscape:export-filename="/home/hbons/Desktop/Intel/svn/moblin-ui-docs/in progress/draft visual UI/icons/icons.png"
   inkscape:export-xdpi="60.476192"
   inkscape:export-ydpi="60.476192"
   version="1.0">
  <sodipodi:namedview
     id="base"
     pagecolor="#ffffff"
     bordercolor="#dcdcdc"
     borderopacity="1"
     gridtolerance="10000"
     guidetolerance="10"
     objecttolerance="10"
     inkscape:pageopacity="0"
     inkscape:pageshadow="2"
     inkscape:zoom="8"
     inkscape:cx="49.103435"
     inkscape:cy="16.943924"
     inkscape:document-units="px"
     inkscape:current-layer="layer1"
     showgrid="false"
     inkscape:window-width="1280"
     inkscape:window-height="750"
     inkscape:window-x="0"
     inkscape:window-y="0"
     inkscape:snap-intersection-line-segments="false"
     inkscape:snap-bbox="true"
     inkscape:snap-nodes="false"
     inkscape:bbox-paths="true"
     inkscape:showpageshadow="false"
     showguides="false"
     inkscape:guide-bbox="true"
     inkscape:bbox-nodes="true"
     inkscape:snap-global="false">
    <inkscape:grid
       enabled="true"
       visible="true"
       id="grid4079"
       type="xygrid"
       empspacing="5" />
    <sodipodi:guide
       id="guide7317"
       position="566.05335,854.14667"
       orientation="1,0" />
  </sodipodi:namedview>
  <defs
     id="defs4">
    <inkscape:perspective
       sodipodi:type="inkscape:persp3d"
       inkscape:vp_x="0 : 24 : 1"
       inkscape:vp_y="0 : 1000 : 0"
       inkscape:vp_z="48 : 24 : 1"
       inkscape:persp3d-origin="24 : 16 : 1"
       id="perspective16" />
  </defs>
  <metadata
     id="metadata7">
    <rdf:RDF>
      <cc:Work
         rdf:about="">
        <dc:format>image/svg+xml</dc:format>
        <dc:type
           rdf:resource="http://purl.org/dc/dcmitype/StillImage" />
        <dc:title />
      </cc:Work>
    </rdf:RDF>
  </metadata>
  <g
     style="display:inline"
     id="layer1"
     inkscape:groupmode="layer"
     inkscape:label="Layer 1">
    <g
       id="g8884"
       transform="translate(0.49067593,0.74558238)">
      <rect
         ry="1.6855"
         rx="1.6855003"
         y="-13.456149"
         x="10.195658"
         height="3.3710001"
         width="36.438896"
         id="rect6456"
         style="fill:#000000;fill-opacity:1;stroke:none"
         transform="matrix(0,1,-1,0,0,0)" />
      <rect
         ry="1.6855"
         rx="1.6854999"
         y="-47.143646"
         x="10.19995"
         height="3.3710001"
         width="36.434601"
         id="rect5746"
         style="fill:#000000;fill-opacity:1;stroke:none"
         transform="matrix(0,1,-1,0,0,0)" />
      <rect
         ry="1.6855"
         rx="1.6855"
         y="10.195658"
         x="10.223978"
         height="3.3710001"
         width="36.91967"
         id="rect5824"
         style="fill:#000000;fill-opacity:1;stroke:none" />
      <rect
         ry="1.6855"
         rx="1.6855"
         y="43.26355"
         x="10.223978"
         height="3.3710001"
         width="36.91967"
         id="rect5826"
         style="fill:#000000;fill-opacity:1;stroke:none" />
      <path
         style="font-size:medium;font-style:normal;font-variant:normal;font-weight:normal;font-stretch:normal;text-indent:0;text-align:start;text-decoration:none;line-height:normal;letter-spacing:normal;word-spacing:normal;text-transform:none;direction:ltr;block-progression:tb;writing-mode:lr-tb;text-anchor:start;color:#000000;fill:#000000;fill-opacity:1;stroke:none;stroke-width:3.37099981;marker:none;visibility:visible;display:inline;overflow:visible;enable-background:accumulate;font-family:Bitstream Vera Sans;-inkscape-font-specification:Bitstream Vera Sans"
         d="m 16.8125,16.9375 0,1.6875 0,16.1875 0,1.6875 1.6875,0 20.1875,0 1.6875,0 0,-1.6875 0,-16.1875 0,-1.6875 -1.6875,0 -20.1875,0 -1.6875,0 z m 3.375,3.375 16.8125,0 0,12.8125 -16.8125,0 0,-12.8125 z"
         id="rect5933" />
      <path
         sodipodi:nodetypes="cccssssscccccssssssccsccsccscccccssscc"
         id="rect8029"
         d="m 1.5625,-0.125 c -0.93376701,0 -1.6875,0.75373285 -1.6875,1.6875 l 0,33.09375 c 0,0.116721 0.04012104,0.20258 0.0625,0.3125 0.04274901,0.231223 0.12362717,0.437636 0.25,0.625 0.12092146,0.179282 0.2582181,0.316579 0.4375,0.4375 0.0116788,0.0083 0.0193508,0.02322 0.03125,0.03125 0.0792021,0.05053 0.16243251,0.08808 0.25,0.125 0.2122149,0.096 0.4386423,0.15625 0.6875,0.15625 l 1.71875,0 L 3.25,3.25 36.9375,3.212485 l 0,-1.6187349 c 1.9e-4,-0.010477 0,-0.020726 0,-0.03125 0,-0.1167209 -0.0089,-0.2025804 -0.03125,-0.3125 C 36.837323,0.91144757 36.675657,0.60596674 36.4375,0.375 36.36743,0.30492956 36.300303,0.24435494 36.21875,0.1875 c -0.0072,-0.004837 -0.024,0.004729 -0.03125,0 -0.179282,-0.12092145 -0.373911,-0.20524208 -0.59375,-0.25 C 35.48383,-0.08487896 35.366721,-0.125 35.25,-0.125 l -33.53125,0 c -0.030814,0 -0.063353,-0.001617 -0.09375,0 -0.020361,-7.2161e-4 -0.041957,0 -0.0625,0 z m 5.25,5.1875 c -0.051362,-0.00467 -0.1036299,0 -0.15625,0 C 5.8392039,5.0625 5.1570356,5.6364298 5,6.40625 L 5,40.125 c 0.1304456,0.701714 0.6938763,1.238495 1.40625,1.34375 C 6.5161696,41.491129 6.6332791,41.5 6.75,41.5 l 1.625,0 L 8.34375,8.4375 42.03125,8.5 l 0,-1.71875 c 1.9e-4,-0.010477 0,-0.020726 0,-0.03125 C 42.03125,6.6438031 42.01861,6.5381498 42,6.4375 41.9981,6.42802 42.0021,6.415666 42,6.40625 41.843347,5.6368127 41.160796,5.0625 40.34375,5.0625 l -33.53125,0 z"
         style="fill:#000000;fill-opacity:1;stroke:none" />
    </g>
  </g>
</svg>
