<?xml version="1.0" encoding="UTF-8" standalone="no"?>
<!-- Created with Inkscape (http://www.inkscape.org/) -->
<svg
   xmlns:dc="http://purl.org/dc/elements/1.1/"
   xmlns:cc="http://creativecommons.org/ns#"
   xmlns:rdf="http://www.w3.org/1999/02/22-rdf-syntax-ns#"
   xmlns:svg="http://www.w3.org/2000/svg"
   xmlns="http://www.w3.org/2000/svg"
   xmlns:sodipodi="http://sodipodi.sourceforge.net/DTD/sodipodi-0.dtd"
   xmlns:inkscape="http://www.inkscape.org/namespaces/inkscape"
   width="48"
   height="48"
   id="svg2"
   sodipodi:version="0.32"
   inkscape:version="0.46+devel r20679"
   sodipodi:docname="emblem-readonly.svg"
   inkscape:output_extension="org.inkscape.output.svg.inkscape"
   inkscape:export-filename="/home/hbons/Desktop/Intel/svn/moblin-ui-docs/in progress/draft visual UI/icons/icons.png"
   inkscape:export-xdpi="60.476192"
   inkscape:export-ydpi="60.476192"
   version="1.0">
  <sodipodi:namedview
     id="base"
     pagecolor="#ffffff"
     bordercolor="#dcdcdc"
     borderopacity="1"
     gridtolerance="10000"
     guidetolerance="10"
     objecttolerance="10"
     inkscape:pageopacity="0"
     inkscape:pageshadow="2"
     inkscape:zoom="1"
     inkscape:cx="57.014441"
     inkscape:cy="21.1073"
     inkscape:document-units="px"
     inkscape:current-layer="layer1"
     showgrid="false"
     inkscape:window-width="1280"
     inkscape:window-height="750"
     inkscape:window-x="0"
     inkscape:window-y="0"
     inkscape:snap-intersection-line-segments="false"
     inkscape:snap-bbox="true"
     inkscape:snap-nodes="false"
     inkscape:bbox-paths="true"
     inkscape:showpageshadow="false"
     showguides="false"
     inkscape:guide-bbox="true"
     inkscape:bbox-nodes="true"
     inkscape:snap-global="false">
    <inkscape:grid
       enabled="true"
       visible="true"
       id="grid4079"
       type="xygrid"
       empspacing="5" />
    <sodipodi:guide
       id="guide7317"
       position="566.05335,854.14667"
       orientation="1,0" />
  </sodipodi:namedview>
  <defs
     id="defs4" />
  <metadata
     id="metadata7">
    <rdf:RDF>
      <cc:Work
         rdf:about="">
        <dc:format>image/svg+xml</dc:format>
        <dc:type
           rdf:resource="http://purl.org/dc/dcmitype/StillImage" />
        <dc:title />
      </cc:Work>
    </rdf:RDF>
  </metadata>
  <g
     style="display:inline"
     id="layer1"
     inkscape:groupmode="layer"
     inkscape:label="Layer 1">
    <g
       id="g5664"
       transform="translate(-1.988502,-1.0833671)">
      <path
         sodipodi:nodetypes="cccsccc"
         style="fill:#000000;fill-opacity:1;stroke:none;display:inline"
         d="m 13.630739,23.008657 c 0,0.93365 0.751651,1.68533 1.685311,1.68532 l 21.284051,10e-6 c 0.93367,-10e-6 1.68531,-0.75168 1.68532,-1.68533 0,-0.9337 -0.75165,-1.68534 -1.68532,-1.68533 l -21.284051,-10e-6 c -0.93366,0 -1.685311,0.75164 -1.685311,1.68534 z"
         id="path5572" />
      <path
         sodipodi:type="arc"
         style="fill:none;stroke:#000000;stroke-width:20.53379822;stroke-linecap:round;stroke-miterlimit:4;stroke-opacity:1;stroke-dasharray:none;stroke-dashoffset:0;display:inline"
         id="path6399"
         sodipodi:cx="-25.809397"
         sodipodi:cy="179.43886"
         sodipodi:rx="22.98097"
         sodipodi:ry="22.98097"
         d="m -2.8284264,179.43886 c 0,12.68549 -10.2954746,22.98097 -22.9809696,22.98097"
         transform="matrix(0.16424416,0,0,-0.16405989,33.966622,46.140647)"
         sodipodi:start="0"
         sodipodi:end="1.5707963"
         sodipodi:open="true" />
      <path
         sodipodi:open="true"
         sodipodi:end="1.5707963"
         sodipodi:start="0"
         transform="matrix(-0.16424416,0,0,-0.16405989,17.75849,46.140647)"
         d="m -2.8284264,179.43886 c 0,12.68549 -10.2954746,22.98097 -22.9809696,22.98097"
         sodipodi:ry="22.98097"
         sodipodi:rx="22.98097"
         sodipodi:cy="179.43886"
         sodipodi:cx="-25.809397"
         id="path6401"
         style="fill:none;stroke:#000000;stroke-width:20.53379822;stroke-linecap:round;stroke-miterlimit:4;stroke-opacity:1;stroke-dasharray:none;stroke-dashoffset:0;display:inline"
         sodipodi:type="arc" />
      <rect
         style="fill:#000000;fill-opacity:1;stroke:none"
         id="rect6403"
         width="10.6387"
         height="3.3710001"
         x="20.784866"
         y="11.249172"
         rx="1.6854999"
         ry="1.6855" />
      <path
         sodipodi:nodetypes="cccsccc"
         style="fill:#000000;fill-opacity:1;stroke:none;display:inline"
         d="m 18.241685,15.327805 c -0.93365,0 -1.68533,0.686822 -1.68532,1.539956 l -10e-6,5.141393 c 10e-6,0.853144 0.75168,1.539957 1.68533,1.539966 0.9337,0 1.68534,-0.686822 1.68533,-1.539966 l 10e-6,-5.141393 c 0,-0.853134 -0.75164,-1.539956 -1.68534,-1.539956 z"
         id="path5644" />
      <path
         id="path5646"
         d="m 33.483707,15.522927 c -0.93365,0 -1.68533,0.75165 -1.68532,1.68531 l -1e-5,5.815455 c 1e-5,0.93367 0.75168,1.68531 1.68533,1.68532 0.9337,0 1.68534,-0.75165 1.68533,-1.68532 l 10e-6,-5.815455 c 0,-0.93366 -0.75164,-1.68531 -1.68534,-1.68531 z"
         style="fill:#000000;fill-opacity:1;stroke:none;display:inline"
         sodipodi:nodetypes="cccsccc" />
      <path
         sodipodi:nodetypes="cccsccc"
         style="fill:#000000;fill-opacity:1;stroke:none;display:inline"
         d="m 36.704227,21.424943 c -0.93365,0 -1.68533,0.75165 -1.68532,1.68531 l -10e-6,14.052625 c 10e-6,0.93367 0.75168,1.68531 1.68533,1.68532 0.9337,0 1.68534,-0.75165 1.68533,-1.68532 l 10e-6,-14.052625 c 0,-0.93366 -0.75164,-1.68531 -1.68534,-1.68531 z"
         id="path5648" />
      <path
         sodipodi:nodetypes="cccsccc"
         style="fill:#000000;fill-opacity:1;stroke:none;display:inline"
         d="m 15.272767,21.803482 c -0.93365,0 -1.68533,0.75165 -1.68532,1.68531 l -10e-6,13.670401 c 10e-6,0.93367 0.75168,1.68531 1.68533,1.68532 0.9337,0 1.68534,-0.75165 1.68533,-1.68532 l 10e-6,-13.670401 c 0,-0.93366 -0.75164,-1.68531 -1.68534,-1.68531 z"
         id="path5650" />
      <path
         sodipodi:nodetypes="cccsccc"
         style="fill:#000000;fill-opacity:1;stroke:none;display:inline"
         d="m 13.67147,37.186465 c 0,-0.93365 0.75165,-1.68533 1.68531,-1.68532 l 21.284052,-1e-5 c 0.93367,1e-5 1.68531,0.75168 1.68532,1.68533 0,0.9337 -0.75165,1.68534 -1.68532,1.68533 l -21.284052,1e-5 c -0.93366,0 -1.68531,-0.75164 -1.68531,-1.68534 z"
         id="path5656" />
    </g>
  </g>
</svg>
