<?xml version="1.0" encoding="UTF-8" standalone="no"?>
<!-- Created with Inkscape (http://www.inkscape.org/) -->
<svg
   xmlns:dc="http://purl.org/dc/elements/1.1/"
   xmlns:cc="http://creativecommons.org/ns#"
   xmlns:rdf="http://www.w3.org/1999/02/22-rdf-syntax-ns#"
   xmlns:svg="http://www.w3.org/2000/svg"
   xmlns="http://www.w3.org/2000/svg"
   xmlns:sodipodi="http://sodipodi.sourceforge.net/DTD/sodipodi-0.dtd"
   xmlns:inkscape="http://www.inkscape.org/namespaces/inkscape"
   width="48"
   height="48"
   id="svg2"
   sodipodi:version="0.32"
   inkscape:version="0.46+devel r20679"
   sodipodi:docname="emblem-favorite.svg"
   inkscape:output_extension="org.inkscape.output.svg.inkscape"
   inkscape:export-filename="/home/hbons/Desktop/Intel/svn/moblin-ui-docs/in progress/draft visual UI/icons/icons.png"
   inkscape:export-xdpi="60.476192"
   inkscape:export-ydpi="60.476192"
   version="1.0">
  <sodipodi:namedview
     id="base"
     pagecolor="#ffffff"
     bordercolor="#dcdcdc"
     borderopacity="1"
     gridtolerance="10000"
     guidetolerance="10"
     objecttolerance="10"
     inkscape:pageopacity="0"
     inkscape:pageshadow="2"
     inkscape:zoom="5.6568542"
     inkscape:cx="32.157409"
     inkscape:cy="22.687833"
     inkscape:document-units="px"
     inkscape:current-layer="layer1"
     showgrid="false"
     inkscape:window-width="1280"
     inkscape:window-height="750"
     inkscape:window-x="0"
     inkscape:window-y="0"
     inkscape:snap-intersection-line-segments="false"
     inkscape:snap-bbox="true"
     inkscape:snap-nodes="false"
     inkscape:bbox-paths="true"
     inkscape:showpageshadow="false"
     showguides="false"
     inkscape:guide-bbox="true"
     inkscape:bbox-nodes="true"
     inkscape:snap-global="false">
    <inkscape:grid
       enabled="true"
       visible="true"
       id="grid4079"
       type="xygrid"
       empspacing="5" />
    <sodipodi:guide
       id="guide7317"
       position="566.05335,854.14667"
       orientation="1,0" />
  </sodipodi:namedview>
  <defs
     id="defs4">
    <inkscape:perspective
       sodipodi:type="inkscape:persp3d"
       inkscape:vp_x="0 : 24 : 1"
       inkscape:vp_y="0 : 1000 : 0"
       inkscape:vp_z="48 : 24 : 1"
       inkscape:persp3d-origin="24 : 16 : 1"
       id="perspective18" />
  </defs>
  <metadata
     id="metadata7">
    <rdf:RDF>
      <cc:Work
         rdf:about="">
        <dc:format>image/svg+xml</dc:format>
        <dc:type
           rdf:resource="http://purl.org/dc/dcmitype/StillImage" />
        <dc:title />
      </cc:Work>
    </rdf:RDF>
  </metadata>
  <g
     style="display:inline"
     id="layer1"
     inkscape:groupmode="layer"
     inkscape:label="Layer 1">
    <path
       style="font-size:medium;font-style:normal;font-variant:normal;font-weight:normal;font-stretch:normal;text-indent:0;text-align:start;text-decoration:none;line-height:normal;letter-spacing:normal;word-spacing:normal;text-transform:none;direction:ltr;block-progression:tb;writing-mode:lr-tb;text-anchor:start;color:#000000;fill:#000000;fill-opacity:1;stroke:none;stroke-width:4.64675045;marker:none;visibility:visible;display:inline;overflow:visible;enable-background:accumulate;font-family:Bitstream Vera Sans;-inkscape-font-specification:Bitstream Vera Sans"
       d="m 16.28125,8.84375 c -2.468965,0 -4.939074,0.9332026 -6.8125,2.8125 -3.5700114,3.581198 -3.7330186,9.338719 -0.5,13.125 l 13.875,13.875 c 0.08253,0.08253 0.156451,0.156849 0.25,0.21875 0.0064,0.0044 0.02477,-0.0043 0.03125,0 0.558223,0.356679 1.289939,0.366452 1.84375,0 0.09355,-0.0619 0.167466,-0.136216 0.25,-0.21875 0.08253,-0.08253 0.156849,-0.156451 0.21875,-0.25 4.37908,-4.329284 8.639068,-8.829441 13.09375,-13.0625 3.746854,-3.758595 3.746854,-9.928905 0,-13.6875 -1.873426,-1.8792974 -4.343535,-2.8125 -6.8125,-2.8125 -2.468964,0 -4.939074,0.9332026 -6.8125,2.8125 -0.331448,0.332486 -0.63215,0.695726 -0.90625,1.0625 -0.2741,-0.366774 -0.574802,-0.730014 -0.90625,-1.0625 -1.873426,-1.8792974 -4.343536,-2.8125 -6.8125,-2.8125 z m 0,3.34375 c 1.603438,0 3.207919,0.610316 4.4375,1.84375 0.853363,0.856037 1.281398,1.643131 1.59375,2.8125 0.131836,0.478818 0.48533,0.891228 0.9375,1.09375 0.01028,0.01055 0.0207,0.02097 0.03125,0.03125 0.04125,0.01201 0.08296,0.02244 0.125,0.03125 0.01028,0.01055 0.0207,0.02097 0.03125,0.03125 0.04125,0.01201 0.08296,0.02244 0.125,0.03125 0.05155,0.01288 0.103715,0.02331 0.15625,0.03125 0.01042,9.7e-5 0.02083,9.7e-5 0.03125,0 0.05155,0.01288 0.103715,0.02331 0.15625,0.03125 0.01042,9.7e-5 0.02083,9.7e-5 0.03125,0 0.115246,0.0014 0.230634,-0.0091 0.34375,-0.03125 0.05253,-0.0079 0.104696,-0.01837 0.15625,-0.03125 0.107972,-0.03108 0.212833,-0.07303 0.3125,-0.125 0.45217,-0.202522 0.805664,-0.614932 0.9375,-1.09375 0.312352,-1.169369 0.740387,-1.956463 1.59375,-2.8125 2.459162,-2.466868 6.415838,-2.466868 8.875,0 2.342701,2.350042 2.464562,6.083513 0.34375,8.5625 l -12.46875,12.5 c -4.05336,-4.059726 -8.165848,-8.069092 -12.1875,-12.15625 -2.4591609,-2.466867 -2.4591609,-6.439383 0,-8.90625 1.229581,-1.233434 2.834062,-1.84375 4.4375,-1.84375 z"
       id="path5541"
       sodipodi:nodetypes="csccssssccssscsccssssssssssssssssscccsc" />
  </g>
</svg>
