<?xml version="1.0" encoding="UTF-8" standalone="no"?>
<!-- Created with Inkscape (http://www.inkscape.org/) -->
<svg
   xmlns:dc="http://purl.org/dc/elements/1.1/"
   xmlns:cc="http://creativecommons.org/ns#"
   xmlns:rdf="http://www.w3.org/1999/02/22-rdf-syntax-ns#"
   xmlns:svg="http://www.w3.org/2000/svg"
   xmlns="http://www.w3.org/2000/svg"
   xmlns:sodipodi="http://sodipodi.sourceforge.net/DTD/sodipodi-0.dtd"
   xmlns:inkscape="http://www.inkscape.org/namespaces/inkscape"
   width="48"
   height="48"
   id="svg2"
   sodipodi:version="0.32"
   inkscape:version="0.46+devel r20711"
   sodipodi:docname="gaming-ps3.svg"
   inkscape:output_extension="org.inkscape.output.svg.inkscape"
   inkscape:export-filename="/home/hbons/Desktop/Intel/svn/moblin-ui-docs/in progress/draft visual UI/icons/icons.png"
   inkscape:export-xdpi="60.476192"
   inkscape:export-ydpi="60.476192"
   version="1.0">
  <sodipodi:namedview
     id="base"
     pagecolor="#ffffff"
     bordercolor="#dcdcdc"
     borderopacity="1"
     gridtolerance="10000"
     guidetolerance="10"
     objecttolerance="10"
     inkscape:pageopacity="0"
     inkscape:pageshadow="2"
     inkscape:zoom="5.6568542"
     inkscape:cx="58.325154"
     inkscape:cy="18.479044"
     inkscape:document-units="px"
     inkscape:current-layer="layer1"
     showgrid="false"
     inkscape:window-width="1278"
     inkscape:window-height="750"
     inkscape:window-x="0"
     inkscape:window-y="0"
     inkscape:snap-intersection-line-segments="false"
     inkscape:snap-bbox="true"
     inkscape:snap-nodes="false"
     inkscape:bbox-paths="true"
     inkscape:showpageshadow="false"
     showguides="true"
     inkscape:guide-bbox="true"
     inkscape:bbox-nodes="true"
     inkscape:snap-global="false">
    <inkscape:grid
       enabled="true"
       visible="true"
       id="grid4079"
       type="xygrid"
       empspacing="5" />
    <sodipodi:guide
       id="guide7317"
       position="566.05335,854.14667"
       orientation="1,0" />
  </sodipodi:namedview>
  <defs
     id="defs4">
    <inkscape:perspective
       sodipodi:type="inkscape:persp3d"
       inkscape:vp_x="0 : 24 : 1"
       inkscape:vp_y="0 : 1000 : 0"
       inkscape:vp_z="48 : 24 : 1"
       inkscape:persp3d-origin="24 : 16 : 1"
       id="perspective21" />
    <inkscape:perspective
       id="perspective2876"
       inkscape:persp3d-origin="0.5 : 0.33333333 : 1"
       inkscape:vp_z="1 : 0.5 : 1"
       inkscape:vp_y="0 : 1000 : 0"
       inkscape:vp_x="0 : 0.5 : 1"
       sodipodi:type="inkscape:persp3d" />
  </defs>
  <metadata
     id="metadata7">
    <rdf:RDF>
      <cc:Work
         rdf:about="">
        <dc:format>image/svg+xml</dc:format>
        <dc:type
           rdf:resource="http://purl.org/dc/dcmitype/StillImage" />
        <dc:title />
      </cc:Work>
    </rdf:RDF>
  </metadata>
  <g
     style="display:inline"
     id="layer1"
     inkscape:groupmode="layer"
     inkscape:label="Layer 1">
    <path
       id="path6364-9"
       d="m 5.811328,1.0468841 c -0.93368,0 -1.685319,0.75168 -1.68531,1.68534 l 2e-5,40.0387849 c -3e-5,0.9337 0.751601,1.68534 1.68532,1.68534 0.93363,0 1.68532,-0.75164 1.68531,-1.68534 l -10e-6,-40.0387849 c 10e-6,-0.93366 -0.75167,-1.68534 -1.68533,-1.68534 z"
       style="fill:#000000;fill-opacity:1;stroke:none;display:inline"
       sodipodi:nodetypes="cccsccc" />
    <path
       sodipodi:nodetypes="cccsccc"
       style="fill:#000000;fill-opacity:1;stroke:none;display:inline"
       d="m 35.442874,1.0870005 c -0.93368,0 -1.685319,0.75168 -1.68531,1.68534 l 2e-5,21.1926205 c -3e-5,0.9337 0.751601,1.68534 1.68532,1.68534 0.93363,0 1.68532,-0.75164 1.68531,-1.68534 l -1e-5,-21.1926205 c 1e-5,-0.93366 -0.75167,-1.68534 -1.68533,-1.68534 z"
       id="path5533" />
    <path
       sodipodi:nodetypes="cccsccc"
       style="fill:#000000;fill-opacity:1;stroke:none;display:inline"
       d="m 39.664923,5.6733472 c 10e-7,-0.933681 -0.751679,-1.685319 -1.68534,-1.68531 l -2.247722,2e-5 c -0.9337,-3e-5 -1.68534,0.751601 -1.68534,1.68532 -10e-7,0.93363 0.75164,1.68532 1.68534,1.68531 l 2.247722,-1.1e-5 c 0.933661,1.1e-5 1.68534,-0.751669 1.68534,-1.685329 z"
       id="path5535" />
    <path
       id="path5571"
       d="m 39.787835,39.759908 c 10e-7,0.933681 -0.751679,1.685319 -1.68534,1.685311 l -2.587436,-2e-5 c -0.9337,3e-5 -1.68534,-0.751601 -1.68534,-1.685321 -10e-7,-0.93363 0.75164,-1.685319 1.68534,-1.685309 l 2.587436,1e-5 c 0.933661,-1e-5 1.68534,0.75167 1.68534,1.685329 z"
       style="fill:#000000;fill-opacity:1;stroke:none;display:inline"
       sodipodi:nodetypes="cccsccc" />
    <path
       id="path5577"
       d="m 42.223953,7.9653808 c -0.93368,0 -1.685319,0.7516805 -1.68531,1.6853415 l 2e-5,26.0643487 c -3e-5,0.9337 0.751601,1.68534 1.68532,1.68534 0.93363,0 1.68532,-0.75164 1.68531,-1.68534 l -10e-6,-26.0643487 c 10e-6,-0.933661 -0.75167,-1.6853415 -1.68533,-1.6853415 z"
       style="fill:#000000;fill-opacity:1;stroke:none;display:inline"
       sodipodi:nodetypes="cccsccc" />
    <path
       id="path5579"
       d="m 37.118406,2.6923172 c 10e-7,-0.93368 -0.751679,-1.685319 -1.68534,-1.68531 l -29.5772746,2e-5 c -0.9337,-3e-5 -1.68534,0.751601 -1.68534,1.68532 -1e-6,0.93363 0.75164,1.68532 1.68534,1.68531 l 29.5772746,-10e-6 c 0.933661,10e-6 1.68534,-0.75167 1.68534,-1.68533 z"
       style="fill:#000000;fill-opacity:1;stroke:none;display:inline"
       sodipodi:nodetypes="cccsccc" />
    <path
       id="path5585"
       d="m 35.456424,38.058615 c -0.93368,0 -1.685319,0.75168 -1.68531,1.68534 l 2e-5,3.31143 c -3e-5,0.9337 0.751601,1.68534 1.68532,1.68534 0.93363,0 1.68532,-0.75164 1.68531,-1.68534 l -1e-5,-3.31143 c 1e-5,-0.93366 -0.75167,-1.68534 -1.68533,-1.68534 z"
       style="fill:#000000;fill-opacity:1;stroke:none;display:inline"
       sodipodi:nodetypes="cccsccc" />
    <path
       sodipodi:nodetypes="cccsccc"
       style="fill:#000000;fill-opacity:1;stroke:none;display:inline"
       d="m 43.672859,23.964952 c 10e-7,0.933681 -0.751679,1.685319 -1.68534,1.685311 l -6.47246,-2e-5 c -0.9337,3e-5 -1.68534,-0.751601 -1.68534,-1.685321 -10e-7,-0.93363 0.75164,-1.685319 1.68534,-1.685309 l 6.47246,10e-6 c 0.933661,-10e-6 1.68534,0.75167 1.68534,1.685329 z"
       id="path5587" />
    <path
       transform="matrix(2.1612188,0,0,-2.0875347,76.615793,371.85712)"
       d="m -32.777688,157.53982 a 22.98097,22.98097 0 0 1 13.69827,-0.0744"
       sodipodi:ry="22.98097"
       sodipodi:rx="22.98097"
       sodipodi:cy="179.43886"
       sodipodi:cx="-25.809397"
       id="path7320-6"
       style="fill:none;stroke:#000000;stroke-width:1.5868988;stroke-linecap:round;stroke-miterlimit:4;stroke-opacity:1;stroke-dasharray:none;stroke-dashoffset:0;display:inline"
       sodipodi:type="arc"
       sodipodi:start="4.404319"
       sodipodi:end="5.0095952"
       sodipodi:open="true" />
    <path
       transform="matrix(0.16424416,0,0,-0.16405989,42.670282,65.403754)"
       d="m -25.809396,156.45789 a 22.98097,22.98097 0 0 1 22.9809696,22.98097"
       sodipodi:ry="22.98097"
       sodipodi:rx="22.98097"
       sodipodi:cy="179.43886"
       sodipodi:cx="-25.809397"
       id="path5585-1"
       style="fill:none;stroke:#000000;stroke-width:20.53379822;stroke-linecap:round;stroke-miterlimit:4;stroke-opacity:1;stroke-dasharray:none;stroke-dashoffset:0;display:inline"
       sodipodi:type="arc"
       sodipodi:start="4.712389"
       sodipodi:end="6.2831853"
       sodipodi:open="true" />
    <path
       sodipodi:open="true"
       sodipodi:end="6.2831853"
       sodipodi:start="4.712389"
       sodipodi:type="arc"
       style="fill:none;stroke:#000000;stroke-width:20.53379822;stroke-linecap:round;stroke-miterlimit:4;stroke-opacity:1;stroke-dasharray:none;stroke-dashoffset:0;display:inline"
       id="path2864"
       sodipodi:cx="-25.809397"
       sodipodi:cy="179.43886"
       sodipodi:rx="22.98097"
       sodipodi:ry="22.98097"
       d="m -25.809396,156.45789 a 22.98097,22.98097 0 0 1 22.9809696,22.98097"
       transform="matrix(0.16424416,0,0,0.16405989,42.670282,-20.012372)" />
    <path
       sodipodi:nodetypes="cccsccc"
       style="fill:#000000;fill-opacity:1;stroke:none;display:inline"
       d="m 30.277292,20.520257 c 1e-6,-0.93368 -0.751679,-1.685319 -1.68534,-1.68531 l -16.021521,2e-5 c -0.9337,-3e-5 -1.68534,0.751601 -1.68534,1.68532 -10e-7,0.93363 0.75164,1.68532 1.68534,1.68531 l 16.021521,-10e-6 c 0.933661,10e-6 1.68534,-0.75167 1.68534,-1.68533 z"
       id="path2866" />
  </g>
</svg>
