<?xml version="1.0" encoding="UTF-8" standalone="no"?>
<!-- Created with Inkscape (http://www.inkscape.org/) -->
<svg
   xmlns:dc="http://purl.org/dc/elements/1.1/"
   xmlns:cc="http://creativecommons.org/ns#"
   xmlns:rdf="http://www.w3.org/1999/02/22-rdf-syntax-ns#"
   xmlns:svg="http://www.w3.org/2000/svg"
   xmlns="http://www.w3.org/2000/svg"
   xmlns:sodipodi="http://sodipodi.sourceforge.net/DTD/sodipodi-0.dtd"
   xmlns:inkscape="http://www.inkscape.org/namespaces/inkscape"
   width="48"
   height="48"
   id="svg2"
   sodipodi:version="0.32"
   inkscape:version="0.46+devel r20711"
   sodipodi:docname="emblem-symbolic-link.svg"
   inkscape:output_extension="org.inkscape.output.svg.inkscape"
   inkscape:export-filename="/home/hbons/Desktop/Intel/svn/moblin-ui-docs/in progress/draft visual UI/icons/icons.png"
   inkscape:export-xdpi="60.476192"
   inkscape:export-ydpi="60.476192"
   version="1.0">
  <sodipodi:namedview
     id="base"
     pagecolor="#ffffff"
     bordercolor="#dcdcdc"
     borderopacity="1"
     gridtolerance="10000"
     guidetolerance="10"
     objecttolerance="10"
     inkscape:pageopacity="0"
     inkscape:pageshadow="2"
     inkscape:zoom="0.5"
     inkscape:cx="50.025346"
     inkscape:cy="-173.94116"
     inkscape:document-units="px"
     inkscape:current-layer="layer1"
     showgrid="false"
     inkscape:window-width="1278"
     inkscape:window-height="750"
     inkscape:window-x="0"
     inkscape:window-y="0"
     inkscape:snap-intersection-line-segments="false"
     inkscape:snap-bbox="true"
     inkscape:snap-nodes="false"
     inkscape:bbox-paths="true"
     inkscape:showpageshadow="false"
     showguides="false"
     inkscape:guide-bbox="true"
     inkscape:bbox-nodes="true"
     inkscape:snap-global="false">
    <inkscape:grid
       enabled="true"
       visible="true"
       id="grid4079"
       type="xygrid"
       empspacing="5" />
    <sodipodi:guide
       id="guide7317"
       position="566.05335,854.14667"
       orientation="1,0" />
  </sodipodi:namedview>
  <defs
     id="defs4">
    <inkscape:perspective
       sodipodi:type="inkscape:persp3d"
       inkscape:vp_x="0 : 24 : 1"
       inkscape:vp_y="0 : 1000 : 0"
       inkscape:vp_z="48 : 24 : 1"
       inkscape:persp3d-origin="24 : 16 : 1"
       id="perspective24" />
  </defs>
  <metadata
     id="metadata7">
    <rdf:RDF>
      <cc:Work
         rdf:about="">
        <dc:format>image/svg+xml</dc:format>
        <dc:type
           rdf:resource="http://purl.org/dc/dcmitype/StillImage" />
        <dc:title />
      </cc:Work>
    </rdf:RDF>
  </metadata>
  <g
     style="display:inline"
     id="layer1"
     inkscape:groupmode="layer"
     inkscape:label="Layer 1">
    <rect
       style="fill:#000000;fill-opacity:1;stroke:none"
       id="rect3628"
       width="32.22414"
       height="31.089703"
       x="7.8668027"
       y="8.3900433" />
    <path
       style="fill:#ffffff;fill-opacity:1;stroke:none;display:inline"
       d="m 31.935664,14.368422 c 0.933664,10e-7 1.685318,0.751681 1.685297,1.685338 l -7e-6,10.749553 c 2.1e-5,0.933701 -0.751612,1.685334 -1.685332,1.685332 -0.933643,-7e-6 -1.685319,-0.751639 -1.685305,-1.685345 l 0,-10.749548 c -6e-6,-0.933641 0.751676,-1.685326 1.685347,-1.68533 z"
       id="path7153-4"
       sodipodi:nodetypes="cccsccc" />
    <path
       id="path7155-6"
       d="m 33.637684,16.058195 c 0,-0.933664 -0.751683,-1.685318 -1.685333,-1.685291 l -10.749553,8e-6 c -0.933685,-7e-6 -1.685318,0.751626 -1.685333,1.685334 10e-7,0.933635 0.751634,1.685309 1.68534,1.685297 l 10.749545,-2e-6 c 0.933644,8e-6 1.685326,-0.751674 1.685334,-1.685346 z"
       style="fill:#ffffff;fill-opacity:1;stroke:none;display:inline"
       sodipodi:nodetypes="cccsccc" />
    <path
       sodipodi:nodetypes="cccsccc"
       id="path8052"
       d="m 30.903729,17.016034 c 0.660199,0.660201 0.660181,1.72322 -2.9e-5,2.383399 L 16.716826,33.586296 c -0.66021,0.660242 -1.72318,0.660242 -2.383418,1e-6 -0.660182,-0.66019 -0.660213,-1.723189 2.9e-5,-2.38341 L 28.5203,17.016023 c 0.66018,-0.660189 1.72322,-0.660191 2.383429,1.1e-5 z"
       style="fill:#ffffff;fill-opacity:1;stroke:none;display:inline" />
    <g
       id="g5599"
       transform="matrix(1.1369331,0,0,1.1369331,-79.585008,16.9503)" />
    <g
       transform="matrix(1.4473033,0,0,1.4473026,-91.602178,14.061763)"
       id="g6374"
       style="opacity:0.68279569;stroke:#707070;stroke-width:0.89643699;stroke-opacity:1">
      <g
         transform="translate(4.2092501,-3.9419057)"
         id="g6376"
         style="stroke:#707070;stroke-width:0.89643699;stroke-opacity:1" />
    </g>
    <g
       id="g3891"
       transform="translate(-0.0062994,0.02874291)">
      <rect
         ry="1.6855"
         rx="1.6855003"
         y="-8.8417501"
         x="9.919714"
         height="3.3710001"
         width="28.267931"
         id="rect6456-0"
         style="fill:#000000;fill-opacity:1;stroke:none"
         transform="matrix(0,1,-1,0,0,0)" />
      <rect
         ry="1.6855"
         rx="1.6854999"
         y="-42.529247"
         x="9.6458788"
         height="3.3710001"
         width="28.898413"
         id="rect5746-4"
         style="fill:#000000;fill-opacity:1;stroke:none"
         transform="matrix(0,1,-1,0,0,0)" />
      <rect
         ry="1.6855"
         rx="1.6855"
         y="5.7805519"
         x="9.3194952"
         height="3.3710001"
         width="29.258284"
         id="rect5824-5"
         style="fill:#000000;fill-opacity:1;stroke:none" />
      <rect
         ry="1.6855"
         rx="1.6854999"
         y="38.790962"
         x="9.4226294"
         height="3.3710001"
         width="29.006187"
         id="rect5826-4"
         style="fill:#000000;fill-opacity:1;stroke:none" />
      <path
         sodipodi:open="true"
         sodipodi:end="7.0685835"
         sodipodi:start="5.4977871"
         transform="matrix(-0.11661796,-0.11661796,0.1164873,-0.1164873,-12.941731,29.159871)"
         d="m -9.5593975,163.18886 c 8.97000043,8.97 8.97000107,23.53 1.5e-6,32.5 -5e-7,0 -8e-7,0 -1.2e-6,0"
         sodipodi:ry="22.98097"
         sodipodi:rx="22.98097"
         sodipodi:cy="179.43886"
         sodipodi:cx="-25.809397"
         id="path3851-1"
         style="fill:none;stroke:#000000;stroke-width:20.45133781;stroke-linecap:round;stroke-miterlimit:4;stroke-opacity:1;stroke-dasharray:none;stroke-dashoffset:0;display:inline"
         sodipodi:type="arc" />
      <path
         sodipodi:type="arc"
         style="fill:none;stroke:#000000;stroke-width:20.45133781;stroke-linecap:round;stroke-miterlimit:4;stroke-opacity:1;stroke-dasharray:none;stroke-dashoffset:0;display:inline"
         id="path3878"
         sodipodi:cx="-25.809397"
         sodipodi:cy="179.43886"
         sodipodi:rx="22.98097"
         sodipodi:ry="22.98097"
         d="m -9.5593975,163.18886 c 8.97000043,8.97 8.97000107,23.53 1.5e-6,32.5 -5e-7,0 -8e-7,0 -1.2e-6,0"
         transform="matrix(-0.11661796,0.11661796,0.1164873,0.1164873,-12.941731,18.792772)"
         sodipodi:start="5.4977871"
         sodipodi:end="7.0685835"
         sodipodi:open="true" />
      <path
         sodipodi:open="true"
         sodipodi:end="7.0685835"
         sodipodi:start="5.4977871"
         transform="matrix(0.11661796,0.11661796,-0.1164873,0.1164873,60.939257,18.792772)"
         d="m -9.5593975,163.18886 c 8.97000043,8.97 8.97000107,23.53 1.5e-6,32.5 -5e-7,0 -8e-7,0 -1.2e-6,0"
         sodipodi:ry="22.98097"
         sodipodi:rx="22.98097"
         sodipodi:cy="179.43886"
         sodipodi:cx="-25.809397"
         id="path3880"
         style="fill:none;stroke:#000000;stroke-width:20.45133781;stroke-linecap:round;stroke-miterlimit:4;stroke-opacity:1;stroke-dasharray:none;stroke-dashoffset:0;display:inline"
         sodipodi:type="arc" />
      <path
         sodipodi:type="arc"
         style="fill:none;stroke:#000000;stroke-width:20.45133781;stroke-linecap:round;stroke-miterlimit:4;stroke-opacity:1;stroke-dasharray:none;stroke-dashoffset:0;display:inline"
         id="path3882"
         sodipodi:cx="-25.809397"
         sodipodi:cy="179.43886"
         sodipodi:rx="22.98097"
         sodipodi:ry="22.98097"
         d="m -9.5593975,163.18886 c 8.97000043,8.97 8.97000107,23.53 1.5e-6,32.5 -5e-7,0 -8e-7,0 -1.2e-6,0"
         transform="matrix(0.11661796,-0.11661796,-0.1164873,-0.1164873,60.980575,29.157955)"
         sodipodi:start="5.4977871"
         sodipodi:end="7.0685835"
         sodipodi:open="true" />
    </g>
  </g>
</svg>
