<?xml version="1.0" encoding="UTF-8" standalone="no"?>
<!-- Created with Inkscape (http://www.inkscape.org/) -->
<svg
   xmlns:dc="http://purl.org/dc/elements/1.1/"
   xmlns:cc="http://creativecommons.org/ns#"
   xmlns:rdf="http://www.w3.org/1999/02/22-rdf-syntax-ns#"
   xmlns:svg="http://www.w3.org/2000/svg"
   xmlns="http://www.w3.org/2000/svg"
   xmlns:sodipodi="http://sodipodi.sourceforge.net/DTD/sodipodi-0.dtd"
   xmlns:inkscape="http://www.inkscape.org/namespaces/inkscape"
   width="48"
   height="48"
   id="svg2"
   sodipodi:version="0.32"
   inkscape:version="0.46+devel"
   sodipodi:docname="settings.svg"
   inkscape:output_extension="org.inkscape.output.svg.inkscape"
   inkscape:export-filename="/home/hbons/Desktop/Intel/svn/moblin-ui-docs/in progress/draft visual UI/icons/icons.png"
   inkscape:export-xdpi="60.476192"
   inkscape:export-ydpi="60.476192"
   version="1.0">
  <sodipodi:namedview
     id="base"
     pagecolor="#ffffff"
     bordercolor="#dcdcdc"
     borderopacity="1"
     gridtolerance="10000"
     guidetolerance="10"
     objecttolerance="10"
     inkscape:pageopacity="0"
     inkscape:pageshadow="2"
     inkscape:zoom="11.313708"
     inkscape:cx="24.003502"
     inkscape:cy="25.796696"
     inkscape:document-units="px"
     inkscape:current-layer="layer1"
     showgrid="false"
     inkscape:window-width="1280"
     inkscape:window-height="750"
     inkscape:window-x="0"
     inkscape:window-y="0"
     inkscape:snap-intersection-line-segments="false"
     inkscape:snap-bbox="true"
     inkscape:snap-nodes="false"
     inkscape:bbox-paths="true"
     inkscape:showpageshadow="false"
     showguides="false"
     inkscape:guide-bbox="true"
     inkscape:bbox-nodes="true"
     inkscape:snap-global="false">
    <inkscape:grid
       enabled="true"
       visible="true"
       id="grid4079"
       type="xygrid"
       empspacing="5" />
    <sodipodi:guide
       id="guide7317"
       position="566.05335,854.14667"
       orientation="1,0" />
  </sodipodi:namedview>
  <defs
     id="defs4">
    <inkscape:perspective
       sodipodi:type="inkscape:persp3d"
       inkscape:vp_x="0 : 24 : 1"
       inkscape:vp_y="0 : 1000 : 0"
       inkscape:vp_z="48 : 24 : 1"
       inkscape:persp3d-origin="24 : 16 : 1"
       id="perspective16" />
  </defs>
  <metadata
     id="metadata7">
    <rdf:RDF>
      <cc:Work
         rdf:about="">
        <dc:format>image/svg+xml</dc:format>
        <dc:type
           rdf:resource="http://purl.org/dc/dcmitype/StillImage" />
        <dc:title />
      </cc:Work>
    </rdf:RDF>
  </metadata>
  <g
     style="display:inline"
     id="layer1"
     inkscape:groupmode="layer"
     inkscape:label="Layer 1">
    <path
       transform="matrix(0.18542245,0,0,0.18522181,35.787991,-16.752577)"
       d="m -2.8284264,179.43886 a 22.98097,22.98097 0 1 1 -45.9619406,0 22.98097,22.98097 0 1 1 45.9619406,0 z"
       sodipodi:ry="22.98097"
       sodipodi:rx="22.98097"
       sodipodi:cy="179.43886"
       sodipodi:cx="-25.809397"
       id="path7233"
       style="fill:none;fill-opacity:1;stroke:#ffffff;stroke-width:18.18814087000000157;stroke-linecap:round;stroke-miterlimit:4;stroke-opacity:1;stroke-dasharray:none;stroke-dashoffset:0"
       sodipodi:type="arc" />
    <path
       transform="matrix(0.18542245,0,0,0.18522181,20.597048,-1.719403)"
       d="m -2.8284264,179.43886 a 22.98097,22.98097 0 1 1 -45.9619406,0 22.98097,22.98097 0 1 1 45.9619406,0 z"
       sodipodi:ry="22.98097"
       sodipodi:rx="22.98097"
       sodipodi:cy="179.43886"
       sodipodi:cx="-25.809397"
       id="path7237"
       style="fill:none;fill-opacity:1;stroke:#ffffff;stroke-width:18.18814087000000157;stroke-linecap:round;stroke-miterlimit:4;stroke-opacity:1;stroke-dasharray:none;stroke-dashoffset:0"
       sodipodi:type="arc" />
    <path
       sodipodi:nodetypes="cccsccc"
       style="fill:#ffffff;fill-opacity:1;stroke:none;display:inline"
       d="m 10.584632,21.921637 c 0.660214,0.66021 1.72322,0.66018 2.383402,-2e-5 l 8.309544,-8.30956 c 0.660237,-0.6602 0.660237,-1.72317 0,-2.38343 -0.660175,-0.66017 -1.723188,-0.66021 -2.383402,2e-5 l -8.309544,8.30957 c -0.660199,0.66018 -0.660199,1.72322 0,2.38342 z"
       id="path7602" />
    <path
       id="path6576"
       d="m 21.27761,21.921637 c -0.660215,0.66021 -1.72322,0.66018 -2.383403,-2e-5 l -8.309543,-8.30956 c -0.660237,-0.6602 -0.660237,-1.72317 0,-2.38343 0.660175,-0.66017 1.723188,-0.66021 2.383403,2e-5 l 8.309543,8.30957 c 0.660198,0.66018 0.660198,1.72322 0,2.38342 z"
       style="fill:#ffffff;fill-opacity:1;stroke:none;display:inline"
       sodipodi:nodetypes="cccsccc" />
    <path
       sodipodi:nodetypes="cccsccc"
       style="fill:#ffffff;fill-opacity:1;stroke:none;display:inline"
       d="m 28.760636,34.725147 c 0.660214,0.66021 1.72322,0.66017 2.383402,-2e-5 l 5.495689,-5.50294 c 0.660244,-0.66021 0.660244,-1.72318 0,-2.38343 -0.660175,-0.66016 -1.723189,-0.66021 -2.383403,2e-5 l -5.495695,5.50295 c -0.660192,0.66018 -0.660192,1.72323 7e-6,2.38342 z"
       id="path7362" />
    <path
       id="path7364"
       d="m 31.049631,34.801798 c -0.660207,0.66021 -1.72322,0.66017 -2.383395,-2e-5 l -2.755511,-2.64499 c -0.660245,-0.66021 -0.660245,-1.72318 0,-2.38343 0.660174,-0.66017 1.723188,-0.66021 2.383402,10e-6 l 2.755512,2.64501 c 0.660198,0.66018 0.660198,1.72323 -8e-6,2.38342 z"
       style="fill:#ffffff;fill-opacity:1;stroke:none;display:inline"
       sodipodi:nodetypes="cccsccc" />
  </g>
</svg>
