<?xml version="1.0" encoding="UTF-8" standalone="no"?>
<!-- Created with Inkscape (http://www.inkscape.org/) -->
<svg
   xmlns:dc="http://purl.org/dc/elements/1.1/"
   xmlns:cc="http://creativecommons.org/ns#"
   xmlns:rdf="http://www.w3.org/1999/02/22-rdf-syntax-ns#"
   xmlns:svg="http://www.w3.org/2000/svg"
   xmlns="http://www.w3.org/2000/svg"
   xmlns:sodipodi="http://sodipodi.sourceforge.net/DTD/sodipodi-0.dtd"
   xmlns:inkscape="http://www.inkscape.org/namespaces/inkscape"
   width="48"
   height="48"
   id="svg2"
   sodipodi:version="0.32"
   inkscape:version="0.46+devel"
   sodipodi:docname="last-fm.svg"
   inkscape:output_extension="org.inkscape.output.svg.inkscape"
   inkscape:export-filename="/home/hbons/Desktop/Intel/svn/moblin-ui-docs/in progress/draft visual UI/icons/icons.png"
   inkscape:export-xdpi="60.476192"
   inkscape:export-ydpi="60.476192"
   version="1.0">
  <sodipodi:namedview
     id="base"
     pagecolor="#ffffff"
     bordercolor="#dcdcdc"
     borderopacity="1"
     gridtolerance="10000"
     guidetolerance="10"
     objecttolerance="10"
     inkscape:pageopacity="0"
     inkscape:pageshadow="2"
     inkscape:zoom="1.4142136"
     inkscape:cx="237.0379"
     inkscape:cy="-21.209382"
     inkscape:document-units="px"
     inkscape:current-layer="layer1"
     showgrid="false"
     inkscape:window-width="1280"
     inkscape:window-height="749"
     inkscape:window-x="0"
     inkscape:window-y="0"
     inkscape:snap-intersection-line-segments="false"
     inkscape:snap-bbox="true"
     inkscape:snap-nodes="false"
     inkscape:bbox-paths="true"
     inkscape:showpageshadow="false"
     showguides="false"
     inkscape:guide-bbox="true"
     inkscape:bbox-nodes="true"
     inkscape:snap-global="false">
    <inkscape:grid
       enabled="true"
       visible="true"
       id="grid4079"
       type="xygrid"
       empspacing="5" />
    <sodipodi:guide
       id="guide7317"
       position="566.05335,854.14667"
       orientation="1,0" />
  </sodipodi:namedview>
  <defs
     id="defs4">
    <inkscape:perspective
       sodipodi:type="inkscape:persp3d"
       inkscape:vp_x="0 : 24 : 1"
       inkscape:vp_y="0 : 1000 : 0"
       inkscape:vp_z="48 : 24 : 1"
       inkscape:persp3d-origin="24 : 16 : 1"
       id="perspective14" />
  </defs>
  <metadata
     id="metadata7">
    <rdf:RDF>
      <cc:Work
         rdf:about="">
        <dc:format>image/svg+xml</dc:format>
        <dc:type
           rdf:resource="http://purl.org/dc/dcmitype/StillImage" />
        <dc:title />
      </cc:Work>
    </rdf:RDF>
  </metadata>
  <g
     style="display:inline"
     id="layer1"
     inkscape:groupmode="layer"
     inkscape:label="Layer 1">
    <g
       id="g8304"
       transform="translate(-1.0938709,-0.507543)"
       style="fill:#000000;fill-opacity:0.98642272">
      <path
         id="path7350-7"
         d="m 29.896206,21.578773 a 1.6830173,1.6879872 13.833979 0 1 -3.23711,0.0146 c -1.60025,-5.11153 -6.99744,-7.92123 -12.09784,-6.3098 -5.1004197,1.61142 -7.9101697,7.02659 -6.3099197,12.13813 1.60023,5.11155 6.9974397,7.92124 12.0978397,6.30981 1.40496,-0.44387 2.39573,-1.01464 3.49802,-1.99499 a 1.6873844,1.6923672 13.833979 0 1 2.23795,2.53027 c -1.40715,1.25149 -2.93791,2.11696 -4.73143,2.6836 -6.83825,2.16049 -14.1687697,-1.66395 -16.3142597,-8.51711 -2.14549,-6.85318 1.67901,-14.20812 8.5172597,-16.36859 6.83823,-2.16049 14.16877,1.66395 16.31425,8.51711 a 1.6830173,1.6879872 13.833979 0 1 0.0253,0.99689 z"
         style="font-size:medium;font-style:normal;font-variant:normal;font-weight:normal;font-stretch:normal;text-indent:0;text-align:start;text-decoration:none;line-height:normal;letter-spacing:normal;word-spacing:normal;text-transform:none;direction:ltr;block-progression:tb;writing-mode:lr-tb;text-anchor:start;color:#000000;fill:#000000;fill-opacity:0.98642272;stroke:none;stroke-width:6.82563971999999985;marker:none;visibility:visible;display:inline;overflow:visible;enable-background:accumulate;font-family:Bitstream Vera Sans;-inkscape-font-specification:Bitstream Vera Sans" />
      <path
         sodipodi:nodetypes="cccsccc"
         style="fill:#000000;fill-opacity:0.98642272;stroke:none;display:inline"
         d="m 27.773966,19.358183 c -0.90187,0.24165 -1.43336,1.16227 -1.19169,2.06409 l 3.05767,10.11673 c 0.24163,0.90189 1.1622,1.43337 2.0641,1.19171 0.90182,-0.24164 1.43336,-1.16223 1.19169,-2.0641 l -3.05766,-10.11672 c -0.24164,-0.90184 -1.16225,-1.43336 -2.06411,-1.19171 z"
         id="path6737-8-5-7" />
      <path
         id="path7320-7"
         d="m 37.472846,37.404993 c -3.2093,-0.0238 -6.26624,-1.92928 -7.57159,-5.05918 a 1.6873399,1.6842323 0 0 1 3.11772,-1.28923 c 1.03891,2.49104 3.86448,3.65106 6.36013,2.61405 2.49566,-1.03701 3.65781,-3.85737 2.61888,-6.34843 -0.65009,-1.55873 -1.74569,-2.48318 -3.39385,-2.86301 a 1.6870547,1.6839476 0 1 1 0.75715,-3.28091 c 2.61092,0.6017 4.72459,2.38543 5.75442,4.85467 1.74047,4.17319 -0.25518,9.01238 -4.43606,10.74966 -1.04522,0.4343 -2.13703,0.63031 -3.2068,0.62238 z"
         style="font-size:medium;font-style:normal;font-variant:normal;font-weight:normal;font-stretch:normal;text-indent:0;text-align:start;text-decoration:none;line-height:normal;letter-spacing:normal;word-spacing:normal;text-transform:none;direction:ltr;block-progression:tb;writing-mode:lr-tb;text-anchor:start;color:#000000;fill:#000000;fill-opacity:0.98642272;stroke:none;stroke-width:11.83579444999999986;marker:none;visibility:visible;display:inline;overflow:visible;enable-background:accumulate;font-family:Bitstream Vera Sans;-inkscape-font-specification:Bitstream Vera Sans" />
      <path
         id="path7192"
         d="m 39.531336,11.523703 c 2.54479,0.0198 4.96711,1.52967 6.00115,4.00583 a 1.6881243,1.6828809 0 1 1 -3.11586,1.2937 c -0.67669,-1.6205 -2.49817,-2.36888 -4.12371,-1.69428 -1.62555,0.67461 -2.37626,2.49042 -1.69954,4.11092 0.4811,1.15213 1.33098,1.78402 2.57567,1.91754 a 1.6895331,1.6842853 0 0 1 -0.36232,3.34915 c -2.3745,-0.25472 -4.41795,-1.77506 -5.33579,-3.97301 -1.37871,-3.30155 0.21241,-7.13634 3.52426,-8.51077 0.82795,-0.3436 1.68789,-0.50571 2.53614,-0.49908 z"
         style="font-size:medium;font-style:normal;font-variant:normal;font-weight:normal;font-stretch:normal;text-indent:0;text-align:start;text-decoration:none;line-height:normal;letter-spacing:normal;word-spacing:normal;text-transform:none;direction:ltr;block-progression:tb;writing-mode:lr-tb;text-anchor:start;color:#000000;fill:#000000;fill-opacity:0.98642272;stroke:none;stroke-width:16.01497649999999950;marker:none;visibility:visible;display:inline;overflow:visible;enable-background:accumulate;font-family:Bitstream Vera Sans;-inkscape-font-specification:Bitstream Vera Sans" />
    </g>
  </g>
</svg>
