<?xml version="1.0" encoding="UTF-8" standalone="no"?>
<!-- Created with Inkscape (http://www.inkscape.org/) -->
<svg
   xmlns:dc="http://purl.org/dc/elements/1.1/"
   xmlns:cc="http://creativecommons.org/ns#"
   xmlns:rdf="http://www.w3.org/1999/02/22-rdf-syntax-ns#"
   xmlns:svg="http://www.w3.org/2000/svg"
   xmlns="http://www.w3.org/2000/svg"
   xmlns:sodipodi="http://sodipodi.sourceforge.net/DTD/sodipodi-0.dtd"
   xmlns:inkscape="http://www.inkscape.org/namespaces/inkscape"
   width="48"
   height="48"
   id="svg2"
   sodipodi:version="0.32"
   inkscape:version="0.46+devel"
   sodipodi:docname="printer-error.svg"
   inkscape:output_extension="org.inkscape.output.svg.inkscape"
   inkscape:export-filename="/home/hbons/Desktop/Intel/svn/moblin-ui-docs/in progress/draft visual UI/icons/icons.png"
   inkscape:export-xdpi="60.476192"
   inkscape:export-ydpi="60.476192"
   version="1.0">
  <sodipodi:namedview
     id="base"
     pagecolor="#ffffff"
     bordercolor="#dcdcdc"
     borderopacity="1"
     gridtolerance="10000"
     guidetolerance="10"
     objecttolerance="10"
     inkscape:pageopacity="0"
     inkscape:pageshadow="2"
     inkscape:zoom="7.9999996"
     inkscape:cx="37.034695"
     inkscape:cy="21.618939"
     inkscape:document-units="px"
     inkscape:current-layer="layer1"
     showgrid="false"
     inkscape:window-width="1280"
     inkscape:window-height="750"
     inkscape:window-x="0"
     inkscape:window-y="0"
     inkscape:snap-intersection-line-segments="false"
     inkscape:snap-bbox="true"
     inkscape:snap-nodes="false"
     inkscape:bbox-paths="true"
     inkscape:showpageshadow="false"
     showguides="true"
     inkscape:guide-bbox="true"
     inkscape:bbox-nodes="true"
     inkscape:snap-global="false">
    <inkscape:grid
       enabled="true"
       visible="true"
       id="grid4079"
       type="xygrid"
       empspacing="5" />
    <sodipodi:guide
       id="guide7317"
       position="566.05335,854.14667"
       orientation="1,0" />
  </sodipodi:namedview>
  <defs
     id="defs4">
    <inkscape:perspective
       sodipodi:type="inkscape:persp3d"
       inkscape:vp_x="0 : 24 : 1"
       inkscape:vp_y="0 : 1000 : 0"
       inkscape:vp_z="48 : 24 : 1"
       inkscape:persp3d-origin="24 : 16 : 1"
       id="perspective28" />
  </defs>
  <metadata
     id="metadata7">
    <rdf:RDF>
      <cc:Work
         rdf:about="">
        <dc:format>image/svg+xml</dc:format>
        <dc:type
           rdf:resource="http://purl.org/dc/dcmitype/StillImage" />
        <dc:title />
      </cc:Work>
    </rdf:RDF>
  </metadata>
  <g
     style="display:inline"
     id="layer1"
     inkscape:groupmode="layer"
     inkscape:label="Layer 1">
    <g
       id="g7705"
       transform="translate(-1.6830727,-0.41646811)">
      <g
         transform="matrix(1.1369331,0,0,1.1369331,56.635121,22.608486)"
         id="g5599" />
      <rect
         style="fill:#000000;fill-opacity:1;stroke:none;display:inline"
         id="rect6524-3"
         width="16.522144"
         height="3.3710001"
         x="0.88146299"
         y="10.64282"
         rx="1.6855001"
         ry="1.6855"
         transform="matrix(0,1,1,0,0,0)" />
      <rect
         transform="scale(-1,1)"
         ry="1.6855"
         rx="1.6855"
         y="0.90336221"
         x="-37.291672"
         height="3.3710001"
         width="26.64776"
         id="rect6535"
         style="fill:#000000;fill-opacity:1;stroke:none;display:inline" />
      <rect
         style="fill:#000000;fill-opacity:1;stroke:none;display:inline"
         id="rect6547"
         width="16.522144"
         height="3.3710001"
         x="0.88146299"
         y="34.036381"
         rx="1.6855001"
         ry="1.6855"
         transform="matrix(0,1,1,0,0,0)" />
      <path
         sodipodi:open="true"
         sodipodi:end="3.1415927"
         sodipodi:start="1.5707963"
         sodipodi:type="arc"
         style="fill:none;stroke:#000000;stroke-width:10.8867569;stroke-linecap:round;stroke-miterlimit:4;stroke-opacity:1;stroke-dasharray:none;stroke-dashoffset:0;display:inline"
         id="path6551"
         sodipodi:cx="-25.809397"
         sodipodi:cy="179.43886"
         sodipodi:rx="22.98097"
         sodipodi:ry="22.98097"
         d="m -25.809396,202.41983 c -12.685496,0 -22.980971,-10.29548 -22.980971,-22.98097 0,0 0,0 0,0"
         transform="matrix(0.30976003,0,0,-0.30946291,18.981866,75.043173)" />
      <rect
         transform="scale(-1,1)"
         ry="1.6855"
         rx="1.6855"
         y="15.327129"
         x="-39.09301"
         height="3.3710001"
         width="30.120087"
         id="rect6553"
         style="fill:#000000;fill-opacity:1;stroke:none;display:inline" />
      <path
         transform="matrix(-0.30976003,0,0,-0.30946291,29.018134,75.043173)"
         d="m -25.809396,202.41983 c -12.685496,0 -22.980971,-10.29548 -22.980971,-22.98097 0,0 0,0 0,0"
         sodipodi:ry="22.98097"
         sodipodi:rx="22.98097"
         sodipodi:cy="179.43886"
         sodipodi:cx="-25.809397"
         id="path6565"
         style="fill:none;stroke:#000000;stroke-width:10.8867569;stroke-linecap:round;stroke-miterlimit:4;stroke-opacity:1;stroke-dasharray:none;stroke-dashoffset:0;display:inline"
         sodipodi:type="arc"
         sodipodi:start="1.5707963"
         sodipodi:end="3.1415927"
         sodipodi:open="true" />
      <rect
         transform="matrix(0,1,1,0,0,0)"
         ry="1.6855"
         rx="1.6855"
         y="2.2134838"
         x="17.352528"
         height="3.3710001"
         width="13.463764"
         id="rect6571"
         style="fill:#000000;fill-opacity:1;stroke:none;display:inline" />
      <path
         id="rect7357"
         d="m 44.125,17.34375 c -0.933767,0 -1.6875,0.753733 -1.6875,1.6875 l 0,2.8125 c 1.188967,0.558314 2.33323,1.285844 3.375,2.1875 l 0,-5 c 0,-0.933767 -0.753733,-1.6875 -1.6875,-1.6875 z M 9.71875,36.625 c -0.933767,0 -1.6875,0.753733 -1.6875,1.6875 0,0.933767 0.753733,1.6875 1.6875,1.6875 l 12.8125,0 c -0.393173,-1.08933 -0.622878,-2.232922 -0.75,-3.375 l -12.0625,0 z"
         style="fill:#000000;fill-opacity:1;stroke:none;display:inline" />
      <rect
         style="fill:#000000;fill-opacity:1;stroke:none;display:inline"
         id="rect7359"
         width="10.957273"
         height="3.3710001"
         x="-13.160194"
         y="27.531967"
         rx="1.6855001"
         ry="1.6855"
         transform="scale(-1,1)" />
      <path
         sodipodi:nodetypes="ccsccsc"
         id="path7369"
         d="m 15.029687,26.219431 -3.746809,9.212424 C 11.041201,36.333805 10.12052,36.865361 9.21857,36.623684 8.31662,36.382007 7.785065,35.461326 8.026742,34.559376 l 3.746809,-9.212424 c 0.241676,-0.901949 1.162358,-1.433504 2.064307,-1.191827 0.90195,0.241676 1.433505,1.162356 1.191829,2.064306 z"
         inkscape:transform-center-y="0.40050902"
         inkscape:transform-center-x="0.10731666"
         style="fill:#000000;fill-opacity:1;stroke:none" />
      <rect
         transform="matrix(0,-1,1,0,0,0)"
         ry="1.6855"
         rx="1.6854999"
         y="7.972661"
         x="-40.020641"
         height="3.3710001"
         width="6.230269"
         id="rect7373"
         style="fill:#000000;fill-opacity:1;stroke:none;display:inline" />
      <g
         transform="translate(-36.027101,0.21680217)"
         id="g6914">
        <g
           id="g6224"
           transform="matrix(1.1877472,0,0,1,43.621405,7.914052)">
          <rect
             transform="scale(1,-1)"
             style="fill:#000000;fill-opacity:1;stroke:none"
             id="rect6216"
             width="13.229733"
             height="3.3710001"
             x="17.533806"
             y="-28.601393"
             rx="1.4190731"
             ry="1.6855" />
        </g>
        <path
           id="path6896"
           sodipodi:type="arc"
           style="fill:none;stroke:#000000;stroke-width:6.90288687;stroke-linecap:round;stroke-miterlimit:4;stroke-opacity:1;stroke-dasharray:none;stroke-dashoffset:0;display:inline"
           sodipodi:cx="-25.809397"
           sodipodi:cy="179.43886"
           sodipodi:rx="22.98097"
           sodipodi:ry="22.98097"
           d="m -2.8284264,179.43886 c 0,12.68549 -10.2954746,22.98097 -22.9809706,22.98097 -12.685495,0 -22.98097,-10.29548 -22.98097,-22.98097 0,-12.6855 10.295475,-22.98097 22.98097,-22.98097 12.685496,0 22.9809706,10.29547 22.9809706,22.98097 z"
           transform="matrix(-0.36881551,-0.32110887,-0.32006143,0.36782609,120.21648,-39.459975)" />
      </g>
      <g
         style="opacity:0.86021507;fill:#919191;fill-opacity:1;stroke:none"
         id="g6921"
         transform="matrix(1.3011952,0,0,1.3011952,-57.804696,-10.273809)">
        <g
           style="fill:#919191;fill-opacity:1;stroke:none"
           transform="matrix(1.1877472,0,0,1,43.621405,7.914052)"
           id="g6923" />
      </g>
    </g>
  </g>
</svg>
