<?xml version="1.0" encoding="UTF-8" standalone="no"?>
<!-- Created with Inkscape (http://www.inkscape.org/) -->
<svg
   xmlns:dc="http://purl.org/dc/elements/1.1/"
   xmlns:cc="http://creativecommons.org/ns#"
   xmlns:rdf="http://www.w3.org/1999/02/22-rdf-syntax-ns#"
   xmlns:svg="http://www.w3.org/2000/svg"
   xmlns="http://www.w3.org/2000/svg"
   xmlns:sodipodi="http://sodipodi.sourceforge.net/DTD/sodipodi-0.dtd"
   xmlns:inkscape="http://www.inkscape.org/namespaces/inkscape"
   width="48"
   height="48"
   id="svg2"
   sodipodi:version="0.32"
   inkscape:version="0.46+devel"
   sodipodi:docname="software-update-available.svg"
   inkscape:output_extension="org.inkscape.output.svg.inkscape"
   inkscape:export-filename="/home/hbons/Desktop/Intel/svn/moblin-ui-docs/in progress/draft visual UI/icons/icons.png"
   inkscape:export-xdpi="60.476192"
   inkscape:export-ydpi="60.476192"
   version="1.0">
  <sodipodi:namedview
     id="base"
     pagecolor="#ffffff"
     bordercolor="#dcdcdc"
     borderopacity="1"
     gridtolerance="10000"
     guidetolerance="10"
     objecttolerance="10"
     inkscape:pageopacity="0"
     inkscape:pageshadow="2"
     inkscape:zoom="8"
     inkscape:cx="46.897036"
     inkscape:cy="15.854898"
     inkscape:document-units="px"
     inkscape:current-layer="layer1"
     showgrid="false"
     inkscape:window-width="1280"
     inkscape:window-height="750"
     inkscape:window-x="0"
     inkscape:window-y="0"
     inkscape:snap-intersection-line-segments="false"
     inkscape:snap-bbox="true"
     inkscape:snap-nodes="false"
     inkscape:bbox-paths="true"
     inkscape:showpageshadow="false"
     showguides="false"
     inkscape:guide-bbox="true"
     inkscape:bbox-nodes="true"
     inkscape:snap-global="false">
    <inkscape:grid
       enabled="true"
       visible="true"
       id="grid4079"
       type="xygrid"
       empspacing="5" />
    <sodipodi:guide
       id="guide7317"
       position="566.05335,854.14667"
       orientation="1,0" />
  </sodipodi:namedview>
  <defs
     id="defs4" />
  <metadata
     id="metadata7">
    <rdf:RDF>
      <cc:Work
         rdf:about="">
        <dc:format>image/svg+xml</dc:format>
        <dc:type
           rdf:resource="http://purl.org/dc/dcmitype/StillImage" />
        <dc:title />
      </cc:Work>
    </rdf:RDF>
  </metadata>
  <g
     style="display:inline"
     id="layer1"
     inkscape:groupmode="layer"
     inkscape:label="Layer 1">
    <g
       inkscape:label="Layer 1"
       id="layer1-6"
       style="display:inline"
       transform="translate(-5.0000002e-8,-3)">
      <g
         transform="translate(-1.2332992,-7.4998227e-7)"
         id="g5520">
        <path
           sodipodi:nodetypes="cccsccc"
           id="path7193"
           d="m 18.446628,26.38428 c 0.66019,-0.6602 1.72321,-0.66021 2.38343,0 l 5.59113,5.59113 c 0.6602,0.6602 0.66018,1.72323 0,2.38341 -0.66024,0.66024 -1.72322,0.66022 -2.38342,0 l -5.59114,-5.59113 c -0.6602,-0.66019 -0.66022,-1.72318 0,-2.38341 z"
           style="fill:#000000;fill-opacity:1;stroke:none" />
        <path
           sodipodi:nodetypes="cccsccc"
           style="fill:#000000;fill-opacity:1;stroke:none"
           d="m 32.019978,26.38428 c 0.66019,0.6602 0.66021,1.72321 0,2.38341 l -5.59113,5.59113 c -0.6602,0.66022 -1.72322,0.6602 -2.38341,0 -0.66022,-0.66022 -0.66021,-1.72321 0,-2.38341 l 5.59113,-5.59113 c 0.66019,-0.66021 1.72319,-0.66021 2.38341,0 z"
           id="path7201" />
        <path
           style="fill:#000000;fill-opacity:1;stroke:none"
           d="m 25.235602,19.146009 c 0.933657,-8e-6 1.685333,0.751654 1.68534,1.685339 l 0,12.337304 c 0,0.933664 -0.75169,1.685326 -1.685325,1.685326 -0.933721,0 -1.685347,-0.751655 -1.685333,-1.685333 l -7e-6,-12.337311 c -7e-6,-0.933657 0.751626,-1.685318 1.685325,-1.685325 z"
           id="path5522"
           sodipodi:nodetypes="cccsccc" />
      </g>
    </g>
    <path
       transform="matrix(0.93592372,0,0,0.93592372,43.729741,34.739331)"
       d="m -6.9280969,2.6778257 -8.2411721,0.1185716 -5.911232,5.7435464 -5.911232,-5.7435459 -8.241173,-0.118572 -0.118572,-8.241172 -5.743546,-5.9112328 5.743546,-5.911231 0.118572,-8.241173 8.241172,-0.118572 5.911232,-5.743546 5.911232,5.743545 8.241173,0.118572 0.1185716,8.241173 5.7435464,5.911232 -5.7435459,5.9112315 -0.118572,8.2411732 z"
       inkscape:randomized="0"
       inkscape:rounded="0"
       inkscape:flatsided="false"
       sodipodi:arg2="1.1780972"
       sodipodi:arg1="0.78539816"
       sodipodi:r2="15.446794"
       sodipodi:r1="20.014523"
       sodipodi:cy="-11.474579"
       sodipodi:cx="-21.080502"
       sodipodi:sides="8"
       id="path7121"
       style="fill:none;stroke:#000000;stroke-width:3.60178947;stroke-miterlimit:4;stroke-opacity:1;stroke-dasharray:none;display:inline"
       sodipodi:type="star" />
  </g>
</svg>
