<?xml version="1.0" encoding="UTF-8" standalone="no"?>
<!-- Created with Inkscape (http://www.inkscape.org/) -->
<svg
   xmlns:dc="http://purl.org/dc/elements/1.1/"
   xmlns:cc="http://creativecommons.org/ns#"
   xmlns:rdf="http://www.w3.org/1999/02/22-rdf-syntax-ns#"
   xmlns:svg="http://www.w3.org/2000/svg"
   xmlns="http://www.w3.org/2000/svg"
   xmlns:sodipodi="http://sodipodi.sourceforge.net/DTD/sodipodi-0.dtd"
   xmlns:inkscape="http://www.inkscape.org/namespaces/inkscape"
   width="48"
   height="48"
   id="svg2"
   sodipodi:version="0.32"
   inkscape:version="0.46+devel"
   sodipodi:docname="user-trash-full.svg"
   inkscape:output_extension="org.inkscape.output.svg.inkscape"
   inkscape:export-filename="/home/hbons/Desktop/Intel/icons.png"
   inkscape:export-xdpi="90"
   inkscape:export-ydpi="90"
   version="1.0">
  <defs
     id="defs4" />
  <sodipodi:namedview
     id="base"
     pagecolor="#ffffff"
     bordercolor="#666666"
     borderopacity="1.0"
     gridtolerance="10000"
     guidetolerance="10"
     objecttolerance="10"
     inkscape:pageopacity="0.0"
     inkscape:pageshadow="2"
     inkscape:zoom="8"
     inkscape:cx="46.637729"
     inkscape:cy="23.153435"
     inkscape:document-units="px"
     inkscape:current-layer="layer1"
     showgrid="false"
     inkscape:window-width="1280"
     inkscape:window-height="750"
     inkscape:window-x="0"
     inkscape:window-y="0"
     inkscape:snap-intersection-line-segments="false"
     inkscape:snap-bbox="false"
     inkscape:snap-nodes="true"
     inkscape:bbox-paths="true">
    <inkscape:grid
       type="xygrid"
       id="grid4079"
       visible="true"
       enabled="true"
       empspacing="5" />
  </sodipodi:namedview>
  <metadata
     id="metadata7">
    <rdf:RDF>
      <cc:Work
         rdf:about="">
        <dc:format>image/svg+xml</dc:format>
        <dc:type
           rdf:resource="http://purl.org/dc/dcmitype/StillImage" />
        <dc:title />
      </cc:Work>
    </rdf:RDF>
  </metadata>
  <g
     inkscape:label="Layer 1"
     inkscape:groupmode="layer"
     id="layer1"
     transform="translate(-9.3897648,-13.175828)">
    <g
       id="g6530"
       transform="translate(-2e-7,0.13794468)">
      <path
         sodipodi:nodetypes="ccccc"
         id="rect5744"
         d="m 21.037111,23.841956 24.75405,0.04599 c 0,0 1.96124,3.325009 1.96124,3.325009 l -28.648814,0 c 0,0 1.933524,-3.371 1.933524,-3.371 z"
         style="fill:#000000;fill-opacity:1;stroke:none" />
      <path
         sodipodi:nodetypes="csccccsccccscccc"
         id="rect5857"
         d="m 52.497345,35.41307 c -0.653593,0.207199 -1.314281,0.335567 -2.03125,0.34375 -0.01042,9.6e-5 -0.02083,9.6e-5 -0.03125,0 l -0.375,0 -0.9375,0 0,20.007667 c 0,0.933767 0.753733,1.6875 1.6875,1.6875 0.933767,0 1.6875,-0.753733 1.6875,-1.6875 l 0,-20.351417 z m -38.15625,0.0625 0,20.094635 c 0,0.933767 0.753733,1.6875 1.6875,1.6875 0.933767,0 1.6875,-0.753733 1.6875,-1.6875 l 0,-19.813385 -1.3125,0 c -0.710713,0 -1.411633,-0.0852 -2.0625,-0.28125 z"
         style="fill:#000000;fill-opacity:1;stroke:none" />
      <rect
         style="fill:#000000;fill-opacity:1;stroke:none"
         id="rect5863"
         width="37.406788"
         height="3.3710001"
         x="14.71191"
         y="30.704767"
         rx="1.6854999"
         ry="1.6855" />
      <path
         sodipodi:open="true"
         sodipodi:end="3.1415927"
         sodipodi:start="1.5707963"
         sodipodi:type="arc"
         style="fill:none;stroke:#000000;stroke-width:23.43480873;stroke-linecap:round;stroke-miterlimit:4;stroke-opacity:1;stroke-dasharray:none;stroke-dashoffset:0;display:inline"
         id="path7622"
         sodipodi:cx="-25.809397"
         sodipodi:cy="179.43886"
         sodipodi:rx="22.98097"
         sodipodi:ry="22.98097"
         d="m -25.809396,202.41983 c -12.685496,0 -22.980971,-10.29548 -22.980971,-22.98097 0,0 0,0 0,0"
         transform="matrix(0.14075751,0,0,0.14697271,22.890018,29.430502)" />
      <path
         sodipodi:open="true"
         sodipodi:type="arc"
         style="fill:none;stroke:#000000;stroke-width:20.5358448;stroke-linecap:round;stroke-miterlimit:4;stroke-opacity:1;stroke-dasharray:none;stroke-dashoffset:0;display:inline"
         id="path8417-2"
         sodipodi:cx="-25.809397"
         sodipodi:cy="179.43886"
         sodipodi:rx="22.98097"
         sodipodi:ry="22.98097"
         d="m -25.809396,202.41983 c -12.685496,0 -22.980971,-10.29548 -22.980971,-22.98097 0,-4.2285 0.964617,-7.8285 3.078866,-11.49049"
         transform="matrix(0.16424416,0,0,0.16405989,20.638792,-0.8094048)"
         sodipodi:start="1.5707963"
         sodipodi:end="3.6651914" />
      <path
         sodipodi:end="2.6179939"
         sodipodi:start="1.5707963"
         transform="matrix(0.16424416,0,0,-0.16405989,24.076597,52.022382)"
         d="m -25.809396,202.41983 c -8.456998,0 -15.673607,-4.16651 -19.902105,-11.49049"
         sodipodi:ry="22.98097"
         sodipodi:rx="22.98097"
         sodipodi:cy="179.43886"
         sodipodi:cx="-25.809397"
         id="path8447"
         style="fill:none;stroke:#000000;stroke-width:20.5358448;stroke-linecap:round;stroke-miterlimit:4;stroke-opacity:1;stroke-dasharray:none;stroke-dashoffset:0;display:inline"
         sodipodi:type="arc"
         sodipodi:open="true" />
      <rect
         transform="matrix(0.5,-0.8660254,0.8660254,0.5,0,0)"
         style="fill:#000000;fill-opacity:1;stroke:none"
         id="rect5863-9"
         width="9.5206213"
         height="3.3710001"
         x="-17.901279"
         y="23.003633"
         rx="1.6854999"
         ry="1.6855" />
      <path
         sodipodi:nodetypes="ccccsc"
         id="rect8481"
         d="m 20.180339,17.137106 3.043618,0 c 0,0 -2.03523,3.371 -2.03523,3.371 l -1.008388,0 c -0.933767,0 -1.6855,-0.751733 -1.6855,-1.6855 0,-0.933767 0.751733,-1.6855 1.6855,-1.6855 z"
         style="fill:#000000;fill-opacity:1;stroke:none" />
      <rect
         style="fill:#000000;fill-opacity:1;stroke:none"
         id="rect8483"
         width="31.787153"
         height="3.3710001"
         x="17.707081"
         y="57.489128"
         rx="1.6855"
         ry="1.6855" />
      <path
         transform="matrix(-0.14075751,0,0,0.14697271,43.902742,29.452182)"
         d="m -25.809396,202.41983 c -12.685496,0 -22.980971,-10.29548 -22.980971,-22.98097 0,0 0,0 0,0"
         sodipodi:ry="22.98097"
         sodipodi:rx="22.98097"
         sodipodi:cy="179.43886"
         sodipodi:cx="-25.809397"
         id="path8486"
         style="fill:none;stroke:#000000;stroke-width:23.43480873;stroke-linecap:round;stroke-miterlimit:4;stroke-opacity:1;stroke-dasharray:none;stroke-dashoffset:0;display:inline"
         sodipodi:type="arc"
         sodipodi:start="1.5707963"
         sodipodi:end="3.1415927"
         sodipodi:open="true" />
      <path
         sodipodi:end="3.6651914"
         sodipodi:start="1.5707963"
         transform="matrix(-0.16424416,0,0,0.16405989,46.140738,-0.8094048)"
         d="m -25.809396,202.41983 c -12.685496,0 -22.980971,-10.29548 -22.980971,-22.98097 0,-4.2285 0.964617,-7.8285 3.078866,-11.49049"
         sodipodi:ry="22.98097"
         sodipodi:rx="22.98097"
         sodipodi:cy="179.43886"
         sodipodi:cx="-25.809397"
         id="path8496"
         style="fill:none;stroke:#000000;stroke-width:20.5358448;stroke-linecap:round;stroke-miterlimit:4;stroke-opacity:1;stroke-dasharray:none;stroke-dashoffset:0;display:inline"
         sodipodi:type="arc"
         sodipodi:open="true" />
      <path
         sodipodi:open="true"
         sodipodi:type="arc"
         style="fill:none;stroke:#000000;stroke-width:20.5358448;stroke-linecap:round;stroke-miterlimit:4;stroke-opacity:1;stroke-dasharray:none;stroke-dashoffset:0;display:inline"
         id="path8498"
         sodipodi:cx="-25.809397"
         sodipodi:cy="179.43886"
         sodipodi:rx="22.98097"
         sodipodi:ry="22.98097"
         d="m -25.809396,202.41983 c -8.456998,0 -15.673607,-4.16651 -19.902105,-11.49049"
         transform="matrix(-0.16424416,0,0,-0.16405989,42.702933,52.022382)"
         sodipodi:start="1.5707963"
         sodipodi:end="2.6179939" />
      <rect
         ry="1.6855"
         rx="1.6854999"
         y="-34.829136"
         x="-51.291042"
         height="3.3710001"
         width="9.5206213"
         id="rect8500"
         style="fill:#000000;fill-opacity:1;stroke:none"
         transform="matrix(-0.5,-0.8660254,-0.8660254,0.5,0,0)" />
      <rect
         ry="1.6855"
         rx="1.6854999"
         y="-27.728821"
         x="-45.881325"
         height="3.3710001"
         width="13.13843"
         id="rect8500-5"
         style="fill:#000000;fill-opacity:1;stroke:none"
         transform="matrix(-0.5,-0.8660254,-0.8660254,0.5,0,0)" />
      <rect
         ry="1.6855"
         rx="1.6855"
         y="-36.026287"
         x="-27.542097"
         height="3.3710001"
         width="10.17275"
         id="rect8500-6"
         style="fill:#000000;fill-opacity:1;stroke:none"
         transform="matrix(-0.8660254,0.5,-0.5,-0.8660254,0,0)" />
      <rect
         transform="matrix(0.5,-0.8660254,0.8660254,0.5,0,0)"
         ry="1.6855"
         rx="1.6855"
         y="30.118929"
         x="-11.676218"
         height="3.3710001"
         width="14.547806"
         id="rect5745"
         style="fill:#000000;fill-opacity:1;stroke:none" />
      <path
         style="fill:#000000;fill-opacity:1;stroke:none"
         d="m 47.332442,17.137106 -3.45385,0 c 0,0 1.906987,3.371 1.906987,3.371 l 1.546863,0 c 0.933767,0 1.6855,-0.751733 1.6855,-1.6855 0,-0.933767 -0.751733,-1.6855 -1.6855,-1.6855 z"
         id="path6524"
         sodipodi:nodetypes="ccccsc" />
      <rect
         transform="matrix(-0.70710678,-0.70710678,-0.70710678,0.70710678,0,0)"
         style="fill:#000000;fill-opacity:1;stroke:none"
         id="rect6528"
         width="10.954309"
         height="3.3710001"
         x="-39.742569"
         y="-11.120526"
         rx="1.6855"
         ry="1.6855" />
    </g>
  </g>
</svg>
