<?xml version="1.0" encoding="UTF-8" standalone="no"?>
<!-- Created with Inkscape (http://www.inkscape.org/) -->
<svg
   xmlns:dc="http://purl.org/dc/elements/1.1/"
   xmlns:cc="http://creativecommons.org/ns#"
   xmlns:rdf="http://www.w3.org/1999/02/22-rdf-syntax-ns#"
   xmlns:svg="http://www.w3.org/2000/svg"
   xmlns="http://www.w3.org/2000/svg"
   xmlns:sodipodi="http://sodipodi.sourceforge.net/DTD/sodipodi-0.dtd"
   xmlns:inkscape="http://www.inkscape.org/namespaces/inkscape"
   width="48"
   height="48"
   id="svg2"
   sodipodi:version="0.32"
   inkscape:version="0.46+devel r20679"
   sodipodi:docname="camera-photo.svg"
   inkscape:output_extension="org.inkscape.output.svg.inkscape"
   inkscape:export-filename="/home/hbons/Desktop/Intel/svn/moblin-ui-docs/in progress/draft visual UI/icons/icons.png"
   inkscape:export-xdpi="60.476192"
   inkscape:export-ydpi="60.476192"
   version="1.0">
  <sodipodi:namedview
     id="base"
     pagecolor="#ffffff"
     bordercolor="#dcdcdc"
     borderopacity="1"
     gridtolerance="10000"
     guidetolerance="10"
     objecttolerance="10"
     inkscape:pageopacity="0"
     inkscape:pageshadow="2"
     inkscape:zoom="11.313708"
     inkscape:cx="27.109759"
     inkscape:cy="33.888636"
     inkscape:document-units="px"
     inkscape:current-layer="layer1"
     showgrid="false"
     inkscape:window-width="1280"
     inkscape:window-height="750"
     inkscape:window-x="0"
     inkscape:window-y="0"
     inkscape:snap-intersection-line-segments="false"
     inkscape:snap-bbox="true"
     inkscape:snap-nodes="false"
     inkscape:bbox-paths="true"
     inkscape:showpageshadow="false"
     showguides="false"
     inkscape:guide-bbox="true"
     inkscape:bbox-nodes="true"
     inkscape:snap-global="false">
    <inkscape:grid
       enabled="true"
       visible="true"
       id="grid4079"
       type="xygrid"
       empspacing="5" />
    <sodipodi:guide
       id="guide7317"
       position="566.05335,854.14667"
       orientation="1,0" />
  </sodipodi:namedview>
  <defs
     id="defs4" />
  <metadata
     id="metadata7">
    <rdf:RDF>
      <cc:Work
         rdf:about="">
        <dc:format>image/svg+xml</dc:format>
        <dc:type
           rdf:resource="http://purl.org/dc/dcmitype/StillImage" />
        <dc:title />
      </cc:Work>
    </rdf:RDF>
  </metadata>
  <g
     style="display:inline"
     id="layer1"
     inkscape:groupmode="layer"
     inkscape:label="Layer 1">
    <g
       id="g6513"
       transform="translate(1.1920929e-7,1.8553399)">
      <path
         transform="matrix(0.16424416,0,0,-0.16405989,28.163501,55.223526)"
         d="m -2.8284264,179.43886 c 0,12.68549 -10.2954746,22.98097 -22.9809706,22.98097 -12.685495,0 -22.98097,-10.29548 -22.98097,-22.98097 0,-12.6855 10.295475,-22.98097 22.98097,-22.98097 12.685496,0 22.9809706,10.29547 22.9809706,22.98097 z"
         sodipodi:ry="22.98097"
         sodipodi:rx="22.98097"
         sodipodi:cy="179.43886"
         sodipodi:cx="-25.809397"
         id="path5560"
         style="fill:none;stroke:#000000;stroke-width:20.53379822;stroke-linecap:round;stroke-miterlimit:4;stroke-opacity:1;stroke-dasharray:none;stroke-dashoffset:0;display:inline"
         sodipodi:type="arc" />
      <path
         sodipodi:type="arc"
         style="fill:none;stroke:#000000;stroke-width:7.39470673;stroke-linecap:round;stroke-miterlimit:4;stroke-opacity:1;stroke-dasharray:none;stroke-dashoffset:0;display:inline"
         id="path5555"
         sodipodi:cx="-25.809397"
         sodipodi:cy="179.43886"
         sodipodi:rx="22.98097"
         sodipodi:ry="22.98097"
         d="m -2.8284264,179.43886 c 0,12.68549 -10.2954746,22.98097 -22.9809706,22.98097 -12.685495,0 -22.98097,-10.29548 -22.98097,-22.98097 0,-12.6855 10.295475,-22.98097 22.98097,-22.98097 12.685496,0 22.9809706,10.29547 22.9809706,22.98097 z"
         transform="matrix(0.45607196,0,0,-0.45566136,35.6954,107.54815)" />
      <rect
         ry="1.6855"
         rx="1.6855"
         y="10.455079"
         x="29.507137"
         height="3.3710001"
         width="13.348864"
         id="rect6393"
         style="fill:#000000;fill-opacity:1;stroke:none" />
      <path
         sodipodi:type="arc"
         style="fill:none;stroke:#000000;stroke-width:20.53379822;stroke-linecap:round;stroke-miterlimit:4;stroke-opacity:1;stroke-dasharray:none;stroke-dashoffset:0;display:inline"
         id="path6399"
         sodipodi:cx="-25.809397"
         sodipodi:cy="179.43886"
         sodipodi:rx="22.98097"
         sodipodi:ry="22.98097"
         d="m -2.8284264,179.43886 c 0,12.68549 -10.2954746,22.98097 -22.9809696,22.98097"
         transform="matrix(0.16424416,0,0,-0.16405989,31.452765,41.241791)"
         sodipodi:start="0"
         sodipodi:end="1.5707963"
         sodipodi:open="true" />
      <path
         sodipodi:open="true"
         sodipodi:end="1.5707963"
         sodipodi:start="0"
         transform="matrix(-0.16424416,0,0,-0.16405989,16.178978,41.241791)"
         d="m -2.8284264,179.43886 c 0,12.68549 -10.2954746,22.98097 -22.9809696,22.98097"
         sodipodi:ry="22.98097"
         sodipodi:rx="22.98097"
         sodipodi:cy="179.43886"
         sodipodi:cx="-25.809397"
         id="path6401"
         style="fill:none;stroke:#000000;stroke-width:20.53379822;stroke-linecap:round;stroke-miterlimit:4;stroke-opacity:1;stroke-dasharray:none;stroke-dashoffset:0;display:inline"
         sodipodi:type="arc" />
      <rect
         style="fill:#000000;fill-opacity:1;stroke:none"
         id="rect6403"
         width="9.5124083"
         height="3.3710001"
         x="19.072737"
         y="6.350316"
         rx="1.6854999"
         ry="1.6855" />
      <rect
         style="fill:#000000;fill-opacity:1;stroke:none"
         id="rect6405"
         width="12.517187"
         height="3.3710001"
         x="5.6595597"
         y="10.455079"
         rx="1.6854999"
         ry="1.6855" />
      <path
         sodipodi:open="true"
         sodipodi:type="arc"
         style="fill:none;stroke:#000000;stroke-width:20.53379822;stroke-linecap:round;stroke-miterlimit:4;stroke-opacity:1;stroke-dasharray:none;stroke-dashoffset:0;display:inline"
         id="path6419-7"
         sodipodi:cx="-25.809397"
         sodipodi:cy="179.43886"
         sodipodi:rx="22.98097"
         sodipodi:ry="22.98097"
         d="m -25.809396,202.41983 c -12.685496,0 -22.980971,-10.29548 -22.980971,-22.98097 0,0 0,0 0,0"
         transform="matrix(0.16424416,0,0,-0.16405989,11.100198,45.35581)"
         sodipodi:start="1.5707963"
         sodipodi:end="3.1415927" />
      <path
         sodipodi:end="3.1415927"
         sodipodi:start="1.5707963"
         transform="matrix(-0.16424416,0,0,-0.16405989,36.847623,45.271494)"
         d="m -25.809396,202.41983 c -12.685496,0 -22.980971,-10.29548 -22.980971,-22.98097 0,0 0,0 0,0"
         sodipodi:ry="22.98097"
         sodipodi:rx="22.98097"
         sodipodi:cy="179.43886"
         sodipodi:cx="-25.809397"
         id="path6452"
         style="fill:none;stroke:#000000;stroke-width:20.53379822;stroke-linecap:round;stroke-miterlimit:4;stroke-opacity:1;stroke-dasharray:none;stroke-dashoffset:0;display:inline"
         sodipodi:type="arc"
         sodipodi:open="true" />
      <rect
         transform="matrix(0,1,-1,0,0,0)"
         style="fill:#000000;fill-opacity:1;stroke:none"
         id="rect6454"
         width="19.274734"
         height="3.3710001"
         x="14.718804"
         y="-46.623169"
         rx="1.6854999"
         ry="1.6855" />
      <rect
         ry="1.6855"
         rx="1.6854999"
         y="-4.7478309"
         x="14.35088"
         height="3.3710001"
         width="19.391321"
         id="rect6456"
         style="fill:#000000;fill-opacity:1;stroke:none"
         transform="matrix(0,1,-1,0,0,0)" />
      <path
         sodipodi:open="true"
         sodipodi:type="arc"
         style="fill:none;stroke:#000000;stroke-width:20.53379822;stroke-linecap:round;stroke-miterlimit:4;stroke-opacity:1;stroke-dasharray:none;stroke-dashoffset:0;display:inline"
         id="path6460"
         sodipodi:cx="-25.809397"
         sodipodi:cy="179.43886"
         sodipodi:rx="22.98097"
         sodipodi:ry="22.98097"
         d="m -25.809396,202.41983 c -12.685496,0 -22.980971,-10.29548 -22.980971,-22.98097 0,0 0,0 0,0"
         transform="matrix(-0.16424416,0,0,0.16405989,36.847623,3.0238535)"
         sodipodi:start="1.5707963"
         sodipodi:end="3.1415927" />
      <path
         sodipodi:end="3.1415927"
         sodipodi:start="1.5707963"
         transform="matrix(0.16424416,0,0,0.16405989,11.111038,3.0137177)"
         d="m -25.809396,202.41983 c -12.685496,0 -22.980971,-10.29548 -22.980971,-22.98097 0,0 0,0 0,0"
         sodipodi:ry="22.98097"
         sodipodi:rx="22.98097"
         sodipodi:cy="179.43886"
         sodipodi:cx="-25.809397"
         id="path6462"
         style="fill:none;stroke:#000000;stroke-width:20.53379822;stroke-linecap:round;stroke-miterlimit:4;stroke-opacity:1;stroke-dasharray:none;stroke-dashoffset:0;display:inline"
         sodipodi:type="arc"
         sodipodi:open="true" />
      <path
         sodipodi:nodetypes="cscccccscccccscc"
         id="rect6470"
         d="m 7.1582825,34.59375 c -0.9337668,0 -1.6875,0.722483 -1.6875,1.65625 0,0.933767 0.7537332,1.6875 1.6875,1.6875 l 10.1854675,0 C 15.774174,37.08387 14.380366,35.961305 13.25,34.59375 l -6.0917175,0 z m 11.1229675,0 c 1.629344,1.042419 3.569006,1.65625 5.65625,1.65625 2.094538,0 4.020642,-0.607112 5.65625,-1.65625 l -11.3125,0 z m 16.3125,0 C 33.463384,35.961305 32.069576,37.08387 30.5,37.9375 l 10.375,0 c 0.933767,0 1.6875,-0.753733 1.6875,-1.6875 0,-0.933767 -0.753733,-1.65625 -1.6875,-1.65625 l -6.28125,0 z"
         style="fill:#000000;fill-opacity:1;stroke:none" />
    </g>
  </g>
</svg>
