<?xml version="1.0" encoding="UTF-8" standalone="no"?>
<!-- Created with Inkscape (http://www.inkscape.org/) -->
<svg
   xmlns:dc="http://purl.org/dc/elements/1.1/"
   xmlns:cc="http://creativecommons.org/ns#"
   xmlns:rdf="http://www.w3.org/1999/02/22-rdf-syntax-ns#"
   xmlns:svg="http://www.w3.org/2000/svg"
   xmlns="http://www.w3.org/2000/svg"
   xmlns:sodipodi="http://sodipodi.sourceforge.net/DTD/sodipodi-0.dtd"
   xmlns:inkscape="http://www.inkscape.org/namespaces/inkscape"
   width="48"
   height="48"
   id="svg2"
   sodipodi:version="0.32"
   inkscape:version="0.46+devel"
   sodipodi:docname="drive-harddisk.svg"
   inkscape:output_extension="org.inkscape.output.svg.inkscape"
   inkscape:export-filename="/home/hbons/Desktop/Intel/svn/moblin-ui-docs/in progress/draft visual UI/icons/icons.png"
   inkscape:export-xdpi="60.476192"
   inkscape:export-ydpi="60.476192"
   version="1.0">
  <sodipodi:namedview
     id="base"
     pagecolor="#ffffff"
     bordercolor="#dcdcdc"
     borderopacity="1"
     gridtolerance="10000"
     guidetolerance="10"
     objecttolerance="10"
     inkscape:pageopacity="0"
     inkscape:pageshadow="2"
     inkscape:zoom="1"
     inkscape:cx="125.58886"
     inkscape:cy="9.4225499"
     inkscape:document-units="px"
     inkscape:current-layer="layer1"
     showgrid="false"
     inkscape:window-width="1280"
     inkscape:window-height="750"
     inkscape:window-x="0"
     inkscape:window-y="0"
     inkscape:snap-intersection-line-segments="false"
     inkscape:snap-bbox="true"
     inkscape:snap-nodes="false"
     inkscape:bbox-paths="true"
     inkscape:showpageshadow="false"
     showguides="true"
     inkscape:guide-bbox="true"
     inkscape:bbox-nodes="true"
     inkscape:snap-global="false">
    <inkscape:grid
       enabled="true"
       visible="true"
       id="grid4079"
       type="xygrid"
       empspacing="5" />
    <sodipodi:guide
       id="guide7317"
       position="566.05335,854.14667"
       orientation="1,0" />
  </sodipodi:namedview>
  <defs
     id="defs4" />
  <metadata
     id="metadata7">
    <rdf:RDF>
      <cc:Work
         rdf:about="">
        <dc:format>image/svg+xml</dc:format>
        <dc:type
           rdf:resource="http://purl.org/dc/dcmitype/StillImage" />
        <dc:title />
      </cc:Work>
    </rdf:RDF>
  </metadata>
  <g
     style="display:inline"
     id="layer1"
     inkscape:groupmode="layer"
     inkscape:label="Layer 1">
    <g
       id="g5599"
       transform="matrix(1.1369331,0,0,1.1369331,56.635121,22.608486)" />
    <g
       id="g6578"
       transform="translate(0.16742098,-1.7361201)">
      <path
         sodipodi:nodetypes="ccsccsc"
         id="rect6520"
         d="M 9.7009118,11.726852 4.8663556,27.414206 C 4.6246789,28.316156 3.7039978,28.847712 2.8020481,28.606035 1.9000985,28.364358 1.368543,27.443677 1.6102197,26.541727 L 6.4447758,10.854373 C 6.6864525,9.9524235 7.6071336,9.4208685 8.5090833,9.6625455 9.411033,9.9042215 9.9425885,10.824902 9.7009118,11.726852 z"
         inkscape:transform-center-y="0.40050902"
         inkscape:transform-center-x="0.10731623"
         style="fill:#000000;fill-opacity:1;stroke:none" />
      <rect
         style="fill:#000000;fill-opacity:1;stroke:none"
         id="rect6524"
         width="16.522144"
         height="3.3710001"
         x="25.331455"
         y="1.5234878"
         rx="1.6855001"
         ry="1.6855"
         transform="matrix(0,1,1,0,0,0)" />
      <rect
         transform="scale(-1,1)"
         ry="1.6855"
         rx="1.6855001"
         y="38.576012"
         x="-46.106739"
         height="3.3710001"
         width="44.360889"
         id="rect6758"
         style="fill:#000000;fill-opacity:1;stroke:none" />
      <rect
         style="fill:#000000;fill-opacity:1;stroke:none"
         id="rect5697"
         width="34.687519"
         height="3.3710001"
         x="-41.124416"
         y="9.5252285"
         rx="1.6855001"
         ry="1.6855"
         transform="scale(-1,1)" />
      <path
         style="fill:#000000;fill-opacity:1;stroke:none"
         d="m 6.5709653,32.251635 0,4.589212 c 0,0 3.371,0 3.371,0 l 0,-4.589212 c 0,-0.933767 -0.751733,-1.6855 -1.6855,-1.6855 -0.933767,0 -1.6855,0.751733 -1.6855,1.6855 z"
         id="rect5786"
         sodipodi:nodetypes="ccccsc" />
      <path
         style="fill:#000000;fill-opacity:1;stroke:none"
         d="m 11.629941,32.232472 0,4.589211 c 0,0 3.371,0 3.371,0 l 0,-4.589211 c 0,-0.933767 -0.751733,-1.6855 -1.6855,-1.6855 -0.933767,0 -1.6855,0.751733 -1.6855,1.6855 z"
         id="rect5788"
         sodipodi:nodetypes="ccccsc" />
      <path
         style="fill:#000000;fill-opacity:1;stroke:none"
         d="m 16.72341,32.226723 0,4.589212 c 0,0 3.371,0 3.371,0 l 0,-4.589212 c 0,-0.933767 -0.751733,-1.6855 -1.6855,-1.6855 -0.933767,0 -1.6855,0.751733 -1.6855,1.6855 z"
         id="rect5790"
         sodipodi:nodetypes="ccccsc" />
      <path
         style="fill:#000000;fill-opacity:1;stroke:none"
         inkscape:transform-center-x="-0.10731625"
         inkscape:transform-center-y="0.40050902"
         d="m 37.964245,11.661699 4.834556,15.687354 c 0.241677,0.90195 1.162358,1.433506 2.064308,1.191829 0.901949,-0.241677 1.433505,-1.162358 1.191828,-2.064308 L 41.220381,10.78922 C 40.978704,9.88727 40.058023,9.355715 39.156073,9.597392 c -0.901949,0.241676 -1.433505,1.162357 -1.191828,2.064307 z"
         id="path5792"
         sodipodi:nodetypes="ccsccsc" />
      <rect
         transform="matrix(0,1,-1,0,0,0)"
         ry="1.6855"
         rx="1.6855001"
         y="-46.14167"
         x="25.266302"
         height="3.3710001"
         width="16.522144"
         id="rect5794"
         style="fill:#000000;fill-opacity:1;stroke:none" />
    </g>
  </g>
</svg>
