<?xml version="1.0" encoding="UTF-8" standalone="no"?>
<!-- Created with Inkscape (http://www.inkscape.org/) -->
<svg
   xmlns:dc="http://purl.org/dc/elements/1.1/"
   xmlns:cc="http://creativecommons.org/ns#"
   xmlns:rdf="http://www.w3.org/1999/02/22-rdf-syntax-ns#"
   xmlns:svg="http://www.w3.org/2000/svg"
   xmlns="http://www.w3.org/2000/svg"
   xmlns:sodipodi="http://sodipodi.sourceforge.net/DTD/sodipodi-0.dtd"
   xmlns:inkscape="http://www.inkscape.org/namespaces/inkscape"
   width="48"
   height="48"
   id="svg2"
   sodipodi:version="0.32"
   inkscape:version="0.46+devel"
   sodipodi:docname="input-gaming.svg"
   inkscape:output_extension="org.inkscape.output.svg.inkscape"
   inkscape:export-filename="/home/hbons/Desktop/Intel/svn/moblin-ui-docs/in progress/draft visual UI/icons/icons.png"
   inkscape:export-xdpi="60.476192"
   inkscape:export-ydpi="60.476192"
   version="1.0">
  <sodipodi:namedview
     id="base"
     pagecolor="#ffffff"
     bordercolor="#dcdcdc"
     borderopacity="1"
     gridtolerance="10000"
     guidetolerance="10"
     objecttolerance="10"
     inkscape:pageopacity="0"
     inkscape:pageshadow="2"
     inkscape:zoom="1"
     inkscape:cx="199.3831"
     inkscape:cy="45.91909"
     inkscape:document-units="px"
     inkscape:current-layer="layer1"
     showgrid="false"
     inkscape:window-width="1280"
     inkscape:window-height="750"
     inkscape:window-x="0"
     inkscape:window-y="0"
     inkscape:snap-intersection-line-segments="false"
     inkscape:snap-bbox="true"
     inkscape:snap-nodes="false"
     inkscape:bbox-paths="true"
     inkscape:showpageshadow="false"
     showguides="true"
     inkscape:guide-bbox="true"
     inkscape:bbox-nodes="true"
     inkscape:snap-global="false">
    <inkscape:grid
       enabled="true"
       visible="true"
       id="grid4079"
       type="xygrid"
       empspacing="5" />
    <sodipodi:guide
       id="guide7317"
       position="566.05335,854.14667"
       orientation="1,0" />
  </sodipodi:namedview>
  <defs
     id="defs4" />
  <metadata
     id="metadata7">
    <rdf:RDF>
      <cc:Work
         rdf:about="">
        <dc:format>image/svg+xml</dc:format>
        <dc:type
           rdf:resource="http://purl.org/dc/dcmitype/StillImage" />
        <dc:title />
      </cc:Work>
    </rdf:RDF>
  </metadata>
  <g
     style="display:inline"
     id="layer1"
     inkscape:groupmode="layer"
     inkscape:label="Layer 1">
    <g
       id="g5599"
       transform="matrix(1.1369331,0,0,1.1369331,56.635121,22.608486)" />
    <g
       id="g6764"
       transform="translate(-0.42708731,3.5394637)">
      <path
         sodipodi:nodetypes="cscccccccccscc"
         id="rect5560"
         d="m 11.25,19.0625 c -0.933767,0 -1.6875,0.753733 -1.6875,1.6875 0,0.933767 0.753733,1.6875 1.6875,1.6875 l 9.15625,0 0,-1.96875 C 19.402712,20.141152 18.46982,19.663974 17.625,19.0625 l -6.375,0 z m 18.34375,0 c -0.748708,0.528758 -1.563645,0.963429 -2.4375,1.28125 l 0,2.09375 10.5,0 c 0.933767,0 1.6875,-0.753733 1.6875,-1.6875 0,-0.933767 -0.753733,-1.6875 -1.6875,-1.6875 l -8.0625,0 z"
         style="fill:#000000;fill-opacity:1;stroke:none" />
      <rect
         inkscape:transform-center-x="2.483497"
         style="fill:#000000;fill-opacity:1;stroke:none"
         id="rect6520"
         width="14.494656"
         height="3.3710001"
         x="15.439733"
         y="-17.872454"
         rx="1.6855001"
         ry="1.6855"
         transform="matrix(-0.25881905,0.96592583,-0.96592583,-0.25881905,0,0)" />
      <rect
         style="fill:#000000;fill-opacity:1;stroke:none"
         id="rect6524"
         width="8.765049"
         height="3.3710001"
         x="30.246529"
         y="6.5880003"
         rx="1.6855"
         ry="1.6855"
         transform="matrix(0,1,1,0,0,0)" />
      <rect
         transform="matrix(0,1,1,0,0,0)"
         ry="1.6855"
         rx="1.6854999"
         y="38.869865"
         x="30.049845"
         height="3.3710001"
         width="8.865592"
         id="rect6526"
         style="fill:#000000;fill-opacity:1;stroke:none" />
      <path
         transform="matrix(0.30795407,0,0,-0.30765837,31.569974,65.777737)"
         d="m -2.8284264,179.43886 c 0,12.68549 -10.2954746,22.98097 -22.9809706,22.98097 -12.685495,0 -22.98097,-10.29548 -22.98097,-22.98097 0,-12.6855 10.295475,-22.98097 22.98097,-22.98097 12.685496,0 22.9809706,10.29547 22.9809706,22.98097 z"
         sodipodi:ry="22.98097"
         sodipodi:rx="22.98097"
         sodipodi:cy="179.43886"
         sodipodi:cx="-25.809397"
         id="path6532"
         style="fill:none;stroke:#000000;stroke-width:10.95169544;stroke-linecap:round;stroke-miterlimit:4;stroke-opacity:1;stroke-dasharray:none;stroke-dashoffset:0;display:inline"
         sodipodi:type="arc" />
      <rect
         transform="matrix(0,1,1,0,0,0)"
         style="fill:#000000;fill-opacity:1;stroke:none;display:inline"
         id="rect6534"
         width="12.278343"
         height="3.3710001"
         x="16.578484"
         y="22.097233"
         rx="1.6854997"
         ry="1.6855" />
      <rect
         transform="matrix(0.25881905,0.96592583,0.96592583,-0.25881905,0,0)"
         ry="1.6855"
         rx="1.6855001"
         y="29.34634"
         x="28.091972"
         height="3.3710001"
         width="14.494656"
         id="rect6754"
         style="fill:#000000;fill-opacity:1;stroke:none"
         inkscape:transform-center-x="-2.4834967" />
      <rect
         transform="scale(-1,1)"
         ry="1.6855"
         rx="1.6855001"
         y="35.73399"
         x="-42.266174"
         height="3.3710001"
         width="35.630325"
         id="rect6758"
         style="fill:#000000;fill-opacity:1;stroke:none" />
    </g>
  </g>
</svg>
