<?xml version="1.0" encoding="UTF-8" standalone="no"?>
<!-- Created with Inkscape (http://www.inkscape.org/) -->
<svg
   xmlns:dc="http://purl.org/dc/elements/1.1/"
   xmlns:cc="http://creativecommons.org/ns#"
   xmlns:rdf="http://www.w3.org/1999/02/22-rdf-syntax-ns#"
   xmlns:svg="http://www.w3.org/2000/svg"
   xmlns="http://www.w3.org/2000/svg"
   xmlns:sodipodi="http://sodipodi.sourceforge.net/DTD/sodipodi-0.dtd"
   xmlns:inkscape="http://www.inkscape.org/namespaces/inkscape"
   width="48"
   height="48"
   id="svg2"
   sodipodi:version="0.32"
   inkscape:version="0.46+devel r20679"
   sodipodi:docname="iphone.svg"
   inkscape:output_extension="org.inkscape.output.svg.inkscape"
   inkscape:export-filename="/home/hbons/Desktop/Intel/svn/moblin-ui-docs/in progress/draft visual UI/icons/icons.png"
   inkscape:export-xdpi="60.476192"
   inkscape:export-ydpi="60.476192"
   version="1.0">
  <sodipodi:namedview
     id="base"
     pagecolor="#ffffff"
     bordercolor="#dcdcdc"
     borderopacity="1"
     gridtolerance="10000"
     guidetolerance="10"
     objecttolerance="10"
     inkscape:pageopacity="0"
     inkscape:pageshadow="2"
     inkscape:zoom="8"
     inkscape:cx="40.322517"
     inkscape:cy="23.023255"
     inkscape:document-units="px"
     inkscape:current-layer="layer1"
     showgrid="false"
     inkscape:window-width="1280"
     inkscape:window-height="750"
     inkscape:window-x="0"
     inkscape:window-y="0"
     inkscape:snap-intersection-line-segments="false"
     inkscape:snap-bbox="true"
     inkscape:snap-nodes="false"
     inkscape:bbox-paths="true"
     inkscape:showpageshadow="false"
     showguides="false"
     inkscape:guide-bbox="true"
     inkscape:bbox-nodes="true"
     inkscape:snap-global="false">
    <inkscape:grid
       enabled="true"
       visible="true"
       id="grid4079"
       type="xygrid"
       empspacing="5" />
    <sodipodi:guide
       id="guide7317"
       position="566.05335,854.14667"
       orientation="1,0" />
  </sodipodi:namedview>
  <defs
     id="defs4" />
  <metadata
     id="metadata7">
    <rdf:RDF>
      <cc:Work
         rdf:about="">
        <dc:format>image/svg+xml</dc:format>
        <dc:type
           rdf:resource="http://purl.org/dc/dcmitype/StillImage" />
        <dc:title></dc:title>
      </cc:Work>
    </rdf:RDF>
  </metadata>
  <g
     style="display:inline"
     id="layer1"
     inkscape:groupmode="layer"
     inkscape:label="Layer 1">
    <g
       id="g3077"
       transform="translate(-1.0229005,0.0657795)">
      <g
         id="g2874">
        <path
           id="path6425"
           d="m 11.444139,5.9854773 c -0.933651,0 -1.6853299,0.751651 -1.6853199,1.685311 l -10e-6,32.5858577 c 10e-6,0.93367 0.7516789,1.68531 1.6853299,1.68532 0.9337,0 1.68534,-0.75165 1.68533,-1.68532 l 10e-6,-32.5858587 c 0,-0.93366 -0.75164,-1.68531 -1.68534,-1.68531 z"
           style="fill:#000000;fill-opacity:1;stroke:none;display:inline"
           sodipodi:nodetypes="cccsccc" />
        <path
           sodipodi:nodetypes="cccsccc"
           style="fill:#000000;fill-opacity:1;stroke:none;display:inline"
           d="m 13.119678,4.4620913 c 0,0.93365 0.415607,1.68533 1.349268,1.68532 l 20.520367,1e-5 c 0.93367,-1e-5 1.68531,-0.75168 1.68532,-1.68533 0,-0.9337 -0.75165,-1.6853399 -1.68532,-1.6853299 l -20.184324,-10e-6 c -0.933661,0 -1.685311,0.7516399 -1.685311,1.6853399 z"
           id="path6429" />
        <path
           sodipodi:type="arc"
           style="fill:none;stroke:#000000;stroke-width:25.27816391;stroke-linecap:round;stroke-miterlimit:4;stroke-opacity:1;stroke-dasharray:none;stroke-dashoffset:0;display:inline"
           id="path7754"
           sodipodi:cx="-25.809397"
           sodipodi:cy="179.43886"
           sodipodi:rx="22.98097"
           sodipodi:ry="22.98097"
           d="m -25.809396,202.41983 c -12.685496,0 -22.980971,-10.29548 -22.980971,-22.98097 0,0 0,0 0,0"
           transform="matrix(0.13760251,0,0,-0.12921518,18.150166,30.60519)"
           sodipodi:start="1.5707963"
           sodipodi:end="3.1415927"
           sodipodi:open="true" />
        <path
           sodipodi:open="true"
           sodipodi:end="3.1415927"
           sodipodi:start="1.5707963"
           transform="matrix(-0.13760251,0,0,-0.12921518,31.885051,30.60519)"
           d="m -25.809396,202.41983 c -12.685496,0 -22.980971,-10.29548 -22.980971,-22.98097 0,0 0,0 0,0"
           sodipodi:ry="22.98097"
           sodipodi:rx="22.98097"
           sodipodi:cy="179.43886"
           sodipodi:cx="-25.809397"
           id="path2864"
           style="fill:none;stroke:#000000;stroke-width:25.27816391;stroke-linecap:round;stroke-miterlimit:4;stroke-opacity:1;stroke-dasharray:none;stroke-dashoffset:0;display:inline"
           sodipodi:type="arc" />
        <path
           id="path2866"
           d="m 13.119678,43.40635 c 0,-0.93365 0.415607,-1.68533 1.349268,-1.68532 l 20.520367,-10e-6 c 0.93367,10e-6 1.68531,0.75168 1.68532,1.68533 0,0.9337 -0.75165,1.68534 -1.68532,1.68533 l -20.184324,1e-5 c -0.933661,0 -1.685311,-0.75164 -1.685311,-1.68534 z"
           style="fill:#000000;fill-opacity:1;stroke:none;display:inline"
           sodipodi:nodetypes="cccsccc" />
        <path
           sodipodi:open="true"
           sodipodi:end="3.1415927"
           sodipodi:start="1.5707963"
           transform="matrix(0.13760251,0,0,0.12921518,18.150166,17.263251)"
           d="m -25.809396,202.41983 c -12.685496,0 -22.980971,-10.29548 -22.980971,-22.98097 0,0 0,0 0,0"
           sodipodi:ry="22.98097"
           sodipodi:rx="22.98097"
           sodipodi:cy="179.43886"
           sodipodi:cx="-25.809397"
           id="path2868"
           style="fill:none;stroke:#000000;stroke-width:25.27816391;stroke-linecap:round;stroke-miterlimit:4;stroke-opacity:1;stroke-dasharray:none;stroke-dashoffset:0;display:inline"
           sodipodi:type="arc" />
        <path
           sodipodi:type="arc"
           style="fill:none;stroke:#000000;stroke-width:25.27816391;stroke-linecap:round;stroke-miterlimit:4;stroke-opacity:1;stroke-dasharray:none;stroke-dashoffset:0;display:inline"
           id="path2870"
           sodipodi:cx="-25.809397"
           sodipodi:cy="179.43886"
           sodipodi:rx="22.98097"
           sodipodi:ry="22.98097"
           d="m -25.809396,202.41983 c -12.685496,0 -22.980971,-10.29548 -22.980971,-22.98097 0,0 0,0 0,0"
           transform="matrix(-0.13760251,0,0,0.12921518,31.885051,17.263251)"
           sodipodi:start="1.5707963"
           sodipodi:end="3.1415927"
           sodipodi:open="true" />
        <path
           sodipodi:nodetypes="cccsccc"
           style="fill:#000000;fill-opacity:1;stroke:none;display:inline"
           d="m 38.609304,5.9854773 c -0.933651,0 -1.68533,0.751651 -1.68532,1.685311 l -10e-6,32.5858577 c 10e-6,0.93367 0.751679,1.68531 1.68533,1.68532 0.9337,0 1.68534,-0.75165 1.68533,-1.68532 l 10e-6,-32.5858587 c 0,-0.93366 -0.75164,-1.68531 -1.68534,-1.68531 z"
           id="path2872" />
      </g>
      <path
         sodipodi:nodetypes="cccsccc"
         style="fill:#000000;fill-opacity:1;stroke:none;display:inline"
         d="m 24.872557,39.987123 c -0.93368,0 -1.68532,-0.75168 -1.68531,-1.68533 l 2e-5,-0.008 c -3e-5,-0.93369 0.75161,-1.68533 1.68532,-1.68533 0.93364,0 1.685319,0.75164 1.685319,1.68533 l -10e-6,0.008 c 10e-6,0.93365 -0.751669,1.68533 -1.685339,1.68533 z"
         id="path7348-1" />
    </g>
  </g>
</svg>
