<?xml version="1.0" encoding="UTF-8" standalone="no"?>
<!-- Created with Inkscape (http://www.inkscape.org/) -->
<svg
   xmlns:dc="http://purl.org/dc/elements/1.1/"
   xmlns:cc="http://creativecommons.org/ns#"
   xmlns:rdf="http://www.w3.org/1999/02/22-rdf-syntax-ns#"
   xmlns:svg="http://www.w3.org/2000/svg"
   xmlns="http://www.w3.org/2000/svg"
   xmlns:sodipodi="http://sodipodi.sourceforge.net/DTD/sodipodi-0.dtd"
   xmlns:inkscape="http://www.inkscape.org/namespaces/inkscape"
   width="48"
   height="48"
   id="svg2"
   sodipodi:version="0.32"
   inkscape:version="0.46+devel r20679"
   sodipodi:docname="multimedia-player.svg"
   inkscape:output_extension="org.inkscape.output.svg.inkscape"
   inkscape:export-filename="/home/hbons/Desktop/Intel/svn/moblin-ui-docs/in progress/draft visual UI/icons/icons.png"
   inkscape:export-xdpi="60.476192"
   inkscape:export-ydpi="60.476192"
   version="1.0">
  <sodipodi:namedview
     id="base"
     pagecolor="#ffffff"
     bordercolor="#dcdcdc"
     borderopacity="1"
     gridtolerance="10000"
     guidetolerance="10"
     objecttolerance="10"
     inkscape:pageopacity="0"
     inkscape:pageshadow="2"
     inkscape:zoom="11.313708"
     inkscape:cx="40.469731"
     inkscape:cy="31.570598"
     inkscape:document-units="px"
     inkscape:current-layer="layer1"
     showgrid="false"
     inkscape:window-width="1280"
     inkscape:window-height="750"
     inkscape:window-x="0"
     inkscape:window-y="0"
     inkscape:snap-intersection-line-segments="false"
     inkscape:snap-bbox="true"
     inkscape:snap-nodes="false"
     inkscape:bbox-paths="true"
     inkscape:showpageshadow="false"
     showguides="false"
     inkscape:guide-bbox="true"
     inkscape:bbox-nodes="true"
     inkscape:snap-global="false">
    <inkscape:grid
       enabled="true"
       visible="true"
       id="grid4079"
       type="xygrid"
       empspacing="5" />
    <sodipodi:guide
       id="guide7317"
       position="566.05335,854.14667"
       orientation="1,0" />
  </sodipodi:namedview>
  <defs
     id="defs4">
    <inkscape:perspective
       sodipodi:type="inkscape:persp3d"
       inkscape:vp_x="0 : 24 : 1"
       inkscape:vp_y="0 : 1000 : 0"
       inkscape:vp_z="48 : 24 : 1"
       inkscape:persp3d-origin="24 : 16 : 1"
       id="perspective20" />
  </defs>
  <metadata
     id="metadata7">
    <rdf:RDF>
      <cc:Work
         rdf:about="">
        <dc:format>image/svg+xml</dc:format>
        <dc:type
           rdf:resource="http://purl.org/dc/dcmitype/StillImage" />
        <dc:title />
      </cc:Work>
    </rdf:RDF>
  </metadata>
  <g
     style="display:inline"
     id="layer1"
     inkscape:groupmode="layer"
     inkscape:label="Layer 1">
    <path
       id="path6501"
       d="m 25.40625,27.351126 c -3.912606,0.0013 -7.1263,3.21637 -7.125,7.125 9.06e-4,2.702225 1.540862,5.052756 3.78125,6.25 C 22.043659,40.492298 22,40.277084 22,40.038626 c 0,-1.084967 0.230709,-2.1316 0.59375,-3.09375 -0.575506,-0.652456 -0.937179,-1.509568 -0.9375,-2.46875 -6.99e-4,-2.085815 1.662062,-3.749301 3.75,-3.75 0.988348,-3.31e-4 1.864963,0.385931 2.53125,1 0.91128,-0.320113 1.889043,-0.5 2.90625,-0.5 0.303364,0 0.579283,10e-4 0.875,0.03125 -1.181787,-2.305297 -3.55748,-3.907165 -6.3125,-3.90625 z m 10.65625,1.75 a 1.6864469,1.6845548 0 0 0 -1.5625,1.6875 c 0,0.404563 -0.119691,0.77605 -0.3125,1.09375 1.052378,0.43699 2.009823,1.057653 2.8125,1.84375 0.554097,-0.854209 0.875,-1.855811 0.875,-2.9375 a 1.6864469,1.6845548 0 0 0 -1.65625,-1.6875 1.6864469,1.6845548 0 0 0 -0.15625,0 z m -5.21875,5.53125 c -0.562997,0 -1.115837,0.06161 -1.625,0.21875 a 1.6888436,1.6871275 0 0 0 2.28125,1.15625 1.6864469,1.6845548 0 0 0 0.90625,0.25 c 0.665614,0 1.313657,-0.120784 1.90625,-0.34375 -0.941117,-0.794759 -2.130796,-1.28125 -3.46875,-1.28125 z m -5.125,3.625 c -0.190532,0.554324 -0.28125,1.159724 -0.28125,1.78125 0,0.526612 0.04895,1.019867 0.1875,1.5 a 1.6895055,1.6877887 0 0 0 0.09375,-3.28125 z"
       style="font-size:medium;font-style:normal;font-variant:normal;font-weight:normal;font-stretch:normal;text-indent:0;text-align:start;text-decoration:none;line-height:normal;letter-spacing:normal;word-spacing:normal;text-transform:none;direction:ltr;block-progression:tb;writing-mode:lr-tb;text-anchor:start;color:#000000;fill:#000000;fill-opacity:1;stroke:none;stroke-width:20.53379822;marker:none;visibility:visible;display:inline;overflow:visible;enable-background:accumulate;font-family:Bitstream Vera Sans;-inkscape-font-specification:Bitstream Vera Sans" />
    <path
       id="rect6491"
       d="m 7.25,32.944876 c -0.9337669,0 -1.6875,0.753733 -1.6875,1.6875 0,0.933767 0.7537331,1.6875 1.6875,1.6875 l 9.46875,0 C 16.578793,35.699049 16.5,35.075087 16.5,34.413626 c 0,-0.498554 0.07565,-0.992184 0.15625,-1.46875 l -9.40625,0 z"
       style="fill:#000000;fill-opacity:1;stroke:none" />
    <rect
       ry="1.6855"
       rx="1.6854999"
       y="0.85635006"
       x="5.713048"
       height="3.3710001"
       width="27.848846"
       id="rect6405"
       style="fill:#000000;fill-opacity:1;stroke:none" />
    <path
       sodipodi:end="3.1415927"
       sodipodi:start="1.5707963"
       transform="matrix(0.16424416,0,0,-0.16405989,11.153685,35.757081)"
       d="M -25.809396,202.41983 A 22.98097,22.98097 0 0 1 -48.790367,179.43886"
       sodipodi:ry="22.98097"
       sodipodi:rx="22.98097"
       sodipodi:cy="179.43886"
       sodipodi:cx="-25.809397"
       id="path6419-7"
       style="fill:none;stroke:#000000;stroke-width:20.53379822;stroke-linecap:round;stroke-miterlimit:4;stroke-opacity:1;stroke-dasharray:none;stroke-dashoffset:0;display:inline"
       sodipodi:type="arc"
       sodipodi:open="true" />
    <path
       sodipodi:open="true"
       sodipodi:type="arc"
       style="fill:none;stroke:#000000;stroke-width:20.53379822;stroke-linecap:round;stroke-miterlimit:4;stroke-opacity:1;stroke-dasharray:none;stroke-dashoffset:0;display:inline"
       id="path6452"
       sodipodi:cx="-25.809397"
       sodipodi:cy="179.43886"
       sodipodi:rx="22.98097"
       sodipodi:ry="22.98097"
       d="M -25.809396,202.41983 A 22.98097,22.98097 0 0 1 -48.790367,179.43886"
       transform="matrix(-0.16424416,0,0,-0.16405989,28.185664,35.775746)"
       sodipodi:start="1.5707963"
       sodipodi:end="3.1415927" />
    <rect
       ry="1.6855"
       rx="1.6854999"
       y="-37.896164"
       x="4.957593"
       height="3.3710001"
       width="27.016821"
       id="rect6454"
       style="fill:#000000;fill-opacity:1;stroke:none"
       transform="matrix(0,1,-1,0,0,0)" />
    <rect
       transform="matrix(0,1,-1,0,0,0)"
       style="fill:#000000;fill-opacity:1;stroke:none"
       id="rect6456"
       width="27.409031"
       height="3.3710001"
       x="4.7344408"
       y="-4.8013201"
       rx="1.6854999"
       ry="1.6855" />
    <path
       sodipodi:open="true"
       sodipodi:type="arc"
       style="fill:none;stroke:#000000;stroke-width:20.53379822;stroke-linecap:round;stroke-miterlimit:4;stroke-opacity:1;stroke-dasharray:none;stroke-dashoffset:0;display:inline"
       id="path6462"
       sodipodi:cx="-25.809397"
       sodipodi:cy="179.43886"
       sodipodi:rx="22.98097"
       sodipodi:ry="22.98097"
       d="M -25.809396,202.41983 A 22.98097,22.98097 0 0 1 -48.790367,179.43886"
       transform="matrix(0.16424416,0,0,0.16405989,11.164525,1.4149897)"
       sodipodi:start="1.5707963"
       sodipodi:end="3.1415927" />
    <path
       transform="matrix(0.23651201,0,0,-0.23627168,36.938959,82.424886)"
       d="m -2.8284264,179.43886 a 22.98097,22.98097 0 1 1 -45.9619406,0 22.98097,22.98097 0 1 1 45.9619406,0 z"
       sodipodi:ry="22.98097"
       sodipodi:rx="22.98097"
       sodipodi:cy="179.43886"
       sodipodi:cx="-25.809397"
       id="path5697"
       style="fill:none;stroke:#000000;stroke-width:14.25880051;stroke-linecap:round;stroke-miterlimit:4;stroke-opacity:1;stroke-dasharray:none;stroke-dashoffset:0;display:inline"
       sodipodi:type="arc" />
    <path
       style="font-size:medium;font-style:normal;font-variant:normal;font-weight:normal;font-stretch:normal;text-indent:0;text-align:start;text-decoration:none;line-height:normal;letter-spacing:normal;word-spacing:normal;text-transform:none;direction:ltr;block-progression:tb;writing-mode:lr-tb;text-anchor:start;color:#000000;fill:#000000;fill-opacity:1;stroke:none;stroke-width:10.85676003;marker:none;visibility:visible;display:inline;overflow:visible;enable-background:accumulate;font-family:Bitstream Vera Sans;-inkscape-font-specification:Bitstream Vera Sans"
       d="m 39.5625,24.65625 0,3.5 c 2.126524,0.742408 3.625,2.768283 3.625,5.15625 0,3.025104 -2.409492,5.4375 -5.4375,5.4375 -0.884421,0 -1.689119,0.803927 -1.689119,1.6875 0,0.883573 0.804698,1.6875 1.689119,1.6875 4.852623,0 8.8125,-3.96453 8.8125,-8.8125 0,-4.231458 -3.003841,-7.81916 -7,-8.65625 z"
       id="path7320-6"
       sodipodi:nodetypes="ccsssssc" />
    <path
       style="font-size:medium;font-style:normal;font-variant:normal;font-weight:normal;font-stretch:normal;text-indent:0;text-align:start;text-decoration:none;line-height:normal;letter-spacing:normal;word-spacing:normal;text-transform:none;direction:ltr;block-progression:tb;writing-mode:lr-tb;text-anchor:start;color:#000000;fill:#000000;fill-opacity:1;stroke:none;stroke-width:3.37099981;marker:none;visibility:visible;display:inline;overflow:visible;enable-background:accumulate;font-family:Bitstream Vera Sans;-inkscape-font-specification:Bitstream Vera Sans"
       d="m 8.03125,7.375 0,1.6875 0,9.84375 0,1.6875 1.6875,0 19.84375,0 1.6875,0 0,-1.6875 0,-9.84375 0,-1.6875 -1.6875,0 -19.84375,0 -1.6875,0 z m 3.375,3.34375 16.46875,0 0,6.5 -16.46875,0 0,-6.5 z"
       id="rect5933" />
  </g>
</svg>
