<?xml version="1.0" encoding="UTF-8" standalone="no"?>
<!-- Created with Inkscape (http://www.inkscape.org/) -->
<svg
   xmlns:dc="http://purl.org/dc/elements/1.1/"
   xmlns:cc="http://creativecommons.org/ns#"
   xmlns:rdf="http://www.w3.org/1999/02/22-rdf-syntax-ns#"
   xmlns:svg="http://www.w3.org/2000/svg"
   xmlns="http://www.w3.org/2000/svg"
   xmlns:sodipodi="http://sodipodi.sourceforge.net/DTD/sodipodi-0.dtd"
   xmlns:inkscape="http://www.inkscape.org/namespaces/inkscape"
   width="48"
   height="48"
   id="svg2"
   sodipodi:version="0.32"
   inkscape:version="0.46+devel"
   sodipodi:docname="printer.svg"
   inkscape:output_extension="org.inkscape.output.svg.inkscape"
   inkscape:export-filename="/home/hbons/Desktop/Intel/svn/moblin-ui-docs/in progress/draft visual UI/icons/icons.png"
   inkscape:export-xdpi="60.476192"
   inkscape:export-ydpi="60.476192"
   version="1.0">
  <sodipodi:namedview
     id="base"
     pagecolor="#ffffff"
     bordercolor="#dcdcdc"
     borderopacity="1"
     gridtolerance="10000"
     guidetolerance="10"
     objecttolerance="10"
     inkscape:pageopacity="0"
     inkscape:pageshadow="2"
     inkscape:zoom="8"
     inkscape:cx="31.576697"
     inkscape:cy="18.325678"
     inkscape:document-units="px"
     inkscape:current-layer="layer1"
     showgrid="false"
     inkscape:window-width="1280"
     inkscape:window-height="750"
     inkscape:window-x="0"
     inkscape:window-y="0"
     inkscape:snap-intersection-line-segments="false"
     inkscape:snap-bbox="true"
     inkscape:snap-nodes="false"
     inkscape:bbox-paths="true"
     inkscape:showpageshadow="false"
     showguides="true"
     inkscape:guide-bbox="true"
     inkscape:bbox-nodes="true"
     inkscape:snap-global="false">
    <inkscape:grid
       enabled="true"
       visible="true"
       id="grid4079"
       type="xygrid"
       empspacing="5" />
    <sodipodi:guide
       id="guide7317"
       position="566.05335,854.14667"
       orientation="1,0" />
  </sodipodi:namedview>
  <defs
     id="defs4" />
  <metadata
     id="metadata7">
    <rdf:RDF>
      <cc:Work
         rdf:about="">
        <dc:format>image/svg+xml</dc:format>
        <dc:type
           rdf:resource="http://purl.org/dc/dcmitype/StillImage" />
        <dc:title />
      </cc:Work>
    </rdf:RDF>
  </metadata>
  <g
     style="display:inline"
     id="layer1"
     inkscape:groupmode="layer"
     inkscape:label="Layer 1">
    <g
       id="g5599"
       transform="matrix(1.1369331,0,0,1.1369331,56.635121,22.608486)" />
    <rect
       transform="matrix(0,1,1,0,0,0)"
       ry="1.6855"
       rx="1.6855001"
       y="10.64282"
       x="4.4304109"
       height="3.3710001"
       width="16.522144"
       id="rect6524-3"
       style="fill:#000000;fill-opacity:1;stroke:none;display:inline" />
    <rect
       style="fill:#000000;fill-opacity:1;stroke:none;display:inline"
       id="rect6535"
       width="26.64776"
       height="3.3710001"
       x="-37.291672"
       y="4.4523101"
       rx="1.6855"
       ry="1.6855"
       transform="scale(-1,1)" />
    <rect
       transform="matrix(0,1,1,0,0,0)"
       ry="1.6855"
       rx="1.6855001"
       y="34.036381"
       x="4.4304109"
       height="3.3710001"
       width="16.522144"
       id="rect6547"
       style="fill:#000000;fill-opacity:1;stroke:none;display:inline" />
    <path
       transform="matrix(0.30976003,0,0,-0.30946291,18.981866,78.592121)"
       d="M -25.809396,202.41983 A 22.98097,22.98097 0 0 1 -48.790367,179.43886"
       sodipodi:ry="22.98097"
       sodipodi:rx="22.98097"
       sodipodi:cy="179.43886"
       sodipodi:cx="-25.809397"
       id="path6551"
       style="fill:none;stroke:#000000;stroke-width:10.8867569;stroke-linecap:round;stroke-miterlimit:4;stroke-opacity:1;stroke-dasharray:none;stroke-dashoffset:0;display:inline"
       sodipodi:type="arc"
       sodipodi:start="1.5707963"
       sodipodi:end="3.1415927"
       sodipodi:open="true" />
    <rect
       style="fill:#000000;fill-opacity:1;stroke:none;display:inline"
       id="rect6553"
       width="30.120087"
       height="3.3710001"
       x="-39.09301"
       y="18.876078"
       rx="1.6855"
       ry="1.6855"
       transform="scale(-1,1)" />
    <path
       sodipodi:open="true"
       sodipodi:end="3.1415927"
       sodipodi:start="1.5707963"
       sodipodi:type="arc"
       style="fill:none;stroke:#000000;stroke-width:10.8867569;stroke-linecap:round;stroke-miterlimit:4;stroke-opacity:1;stroke-dasharray:none;stroke-dashoffset:0;display:inline"
       id="path6565"
       sodipodi:cx="-25.809397"
       sodipodi:cy="179.43886"
       sodipodi:rx="22.98097"
       sodipodi:ry="22.98097"
       d="M -25.809396,202.41983 A 22.98097,22.98097 0 0 1 -48.790367,179.43886"
       transform="matrix(-0.30976003,0,0,-0.30946291,29.018134,78.592121)" />
    <rect
       style="fill:#000000;fill-opacity:1;stroke:none;display:inline"
       id="rect6571"
       width="13.463764"
       height="3.3710001"
       x="20.901476"
       y="2.2134838"
       rx="1.6855"
       ry="1.6855"
       transform="matrix(0,1,1,0,0,0)" />
    <rect
       transform="matrix(0,1,1,0,0,0)"
       ry="1.6855"
       rx="1.6855"
       y="42.428505"
       x="20.901476"
       height="3.3710001"
       width="13.463764"
       id="rect7357"
       style="fill:#000000;fill-opacity:1;stroke:none;display:inline" />
    <rect
       transform="scale(-1,1)"
       ry="1.6855"
       rx="1.6855001"
       y="31.080915"
       x="-13.160194"
       height="3.3710001"
       width="10.957273"
       id="rect7359"
       style="fill:#000000;fill-opacity:1;stroke:none;display:inline" />
    <rect
       style="fill:#000000;fill-opacity:1;stroke:none;display:inline"
       id="rect7361"
       width="11.068416"
       height="3.3710001"
       x="-45.786751"
       y="31.080915"
       rx="1.6855"
       ry="1.6855"
       transform="scale(-1,1)" />
    <rect
       style="fill:#000000;fill-opacity:1;stroke:none;display:inline"
       id="rect7363"
       width="31.832729"
       height="3.3710001"
       x="8.0369654"
       y="-43.553913"
       rx="1.6855"
       ry="1.6855"
       transform="scale(1,-1)" />
    <rect
       transform="matrix(0,-1,-1,0,0,0)"
       ry="1.6855"
       rx="1.6854999"
       y="-39.889767"
       x="-43.542759"
       height="3.3710001"
       width="6.7413816"
       id="rect7367"
       style="fill:#000000;fill-opacity:1;stroke:none;display:inline" />
    <path
       style="fill:#000000;fill-opacity:1;stroke:none"
       inkscape:transform-center-x="0.10731666"
       inkscape:transform-center-y="0.40050902"
       d="m 15.029687,29.768379 -3.746809,9.212424 C 11.041201,39.882753 10.12052,40.414309 9.21857,40.172632 8.31662,39.930955 7.785065,39.010274 8.026742,38.108324 L 11.773551,28.8959 c 0.241676,-0.901949 1.162358,-1.433504 2.064307,-1.191827 0.90195,0.241676 1.433505,1.162356 1.191829,2.064306 z"
       id="path7369"
       sodipodi:nodetypes="ccsccsc" />
    <rect
       style="fill:#000000;fill-opacity:1;stroke:none;display:inline"
       id="rect7373"
       width="6.230269"
       height="3.3710001"
       x="-43.569588"
       y="7.972661"
       rx="1.6854999"
       ry="1.6855"
       transform="matrix(0,-1,1,0,0,0)" />
    <path
       sodipodi:nodetypes="ccsccsc"
       id="path6155"
       d="m 32.820676,29.768379 3.746809,9.212424 c 0.241677,0.90195 1.162358,1.433506 2.064308,1.191829 0.90195,-0.241677 1.433505,-1.162358 1.191828,-2.064308 L 36.076812,28.8959 c -0.241676,-0.901949 -1.162358,-1.433504 -2.064307,-1.191827 -0.90195,0.241676 -1.433505,1.162356 -1.191829,2.064306 z"
       inkscape:transform-center-y="0.40050902"
       inkscape:transform-center-x="-0.10731687"
       style="fill:#000000;fill-opacity:1;stroke:none" />
  </g>
</svg>
