<?xml version="1.0" encoding="UTF-8" standalone="no"?>
<!-- Created with Inkscape (http://www.inkscape.org/) -->
<svg
   xmlns:dc="http://purl.org/dc/elements/1.1/"
   xmlns:cc="http://creativecommons.org/ns#"
   xmlns:rdf="http://www.w3.org/1999/02/22-rdf-syntax-ns#"
   xmlns:svg="http://www.w3.org/2000/svg"
   xmlns="http://www.w3.org/2000/svg"
   xmlns:sodipodi="http://sodipodi.sourceforge.net/DTD/sodipodi-0.dtd"
   xmlns:inkscape="http://www.inkscape.org/namespaces/inkscape"
   width="48"
   height="48"
   id="svg2"
   sodipodi:version="0.32"
   inkscape:version="0.46+devel r20679"
   sodipodi:docname="television.svg"
   inkscape:output_extension="org.inkscape.output.svg.inkscape"
   inkscape:export-filename="/home/hbons/Desktop/Intel/svn/moblin-ui-docs/in progress/draft visual UI/icons/icons.png"
   inkscape:export-xdpi="60.476192"
   inkscape:export-ydpi="60.476192"
   version="1.0">
  <sodipodi:namedview
     id="base"
     pagecolor="#ffffff"
     bordercolor="#dcdcdc"
     borderopacity="1"
     gridtolerance="10000"
     guidetolerance="10"
     objecttolerance="10"
     inkscape:pageopacity="0"
     inkscape:pageshadow="2"
     inkscape:zoom="8"
     inkscape:cx="39.685015"
     inkscape:cy="24.162571"
     inkscape:document-units="px"
     inkscape:current-layer="layer1"
     showgrid="false"
     inkscape:window-width="1280"
     inkscape:window-height="750"
     inkscape:window-x="0"
     inkscape:window-y="0"
     inkscape:snap-intersection-line-segments="false"
     inkscape:snap-bbox="true"
     inkscape:snap-nodes="false"
     inkscape:bbox-paths="true"
     inkscape:showpageshadow="false"
     showguides="false"
     inkscape:guide-bbox="true"
     inkscape:bbox-nodes="true"
     inkscape:snap-global="false">
    <inkscape:grid
       enabled="true"
       visible="true"
       id="grid4079"
       type="xygrid"
       empspacing="5" />
    <sodipodi:guide
       id="guide7317"
       position="566.05335,854.14667"
       orientation="1,0" />
  </sodipodi:namedview>
  <defs
     id="defs4">
    <inkscape:perspective
       sodipodi:type="inkscape:persp3d"
       inkscape:vp_x="0 : 24 : 1"
       inkscape:vp_y="0 : 1000 : 0"
       inkscape:vp_z="48 : 24 : 1"
       inkscape:persp3d-origin="24 : 16 : 1"
       id="perspective20" />
  </defs>
  <metadata
     id="metadata7">
    <rdf:RDF>
      <cc:Work
         rdf:about="">
        <dc:format>image/svg+xml</dc:format>
        <dc:type
           rdf:resource="http://purl.org/dc/dcmitype/StillImage" />
        <dc:title />
      </cc:Work>
    </rdf:RDF>
  </metadata>
  <g
     style="display:inline"
     id="layer1"
     inkscape:groupmode="layer"
     inkscape:label="Layer 1">
    <g
       id="g3912"
       transform="translate(-0.00544444,0.56508728)">
      <path
         id="path5536"
         d="m 3.9001168,13.282055 c -0.93365,0 -1.6853295,0.75165 -1.6853196,1.68531 l -1e-5,29.085519 c 1e-5,0.93367 0.7516796,1.68531 1.6853296,1.68532 0.9337,0 1.68534,-0.75165 1.68533,-1.68532 l 1e-5,-29.085519 c 0,-0.93366 -0.75164,-1.68531 -1.68534,-1.68531 z"
         style="fill:#000000;fill-opacity:1;stroke:none;display:inline"
         sodipodi:nodetypes="cccsccc" />
      <path
         id="path5576"
         d="m 44.084543,13.241634 c -0.93365,0 -1.68533,0.75165 -1.68532,1.68531 l -10e-6,29.036076 c 10e-6,0.93367 0.75168,1.68531 1.68533,1.68532 0.9337,0 1.68534,-0.75165 1.68533,-1.68532 l 1e-5,-29.036076 c 0,-0.93366 -0.75164,-1.68531 -1.68534,-1.68531 z"
         style="fill:#000000;fill-opacity:1;stroke:none;display:inline"
         sodipodi:nodetypes="cccsccc" />
      <path
         style="font-size:medium;font-style:normal;font-variant:normal;font-weight:normal;font-stretch:normal;text-indent:0;text-align:start;text-decoration:none;line-height:normal;letter-spacing:normal;word-spacing:normal;text-transform:none;direction:ltr;block-progression:tb;writing-mode:lr-tb;text-anchor:start;color:#000000;fill:#000000;fill-opacity:1;stroke:none;stroke-width:3.37100005;marker:none;visibility:visible;display:inline;overflow:visible;enable-background:accumulate;font-family:Bitstream Vera Sans;-inkscape-font-specification:Bitstream Vera Sans"
         d="m 8.90625,15.875 0,1.6875 0,19.875 0,1.6875 1.6875,0 26.78125,0 1.6875,0 0,-1.6875 0,-19.875 0,-1.6875 -1.6875,0 -26.78125,0 -1.6875,0 z m 3.375,3.375 23.40625,0 0,16.5 -23.40625,0 0,-16.5 z"
         id="rect5933" />
      <path
         sodipodi:nodetypes="cccsccc"
         style="fill:#000000;fill-opacity:1;stroke:none;display:inline"
         d="m 2.2776085,44.12046 c 0,-0.93365 0.75165,-1.68533 1.68531,-1.68532 l 39.9529655,-10e-6 c 0.93367,10e-6 1.68531,0.75168 1.68532,1.68533 0,0.9337 -0.75165,1.68534 -1.68532,1.68533 l -39.9529655,10e-6 c -0.93366,0 -1.68531,-0.75164 -1.68531,-1.68534 z"
         id="path2941" />
      <path
         sodipodi:nodetypes="cscccccccscc"
         id="path3005"
         d="m 8,6.0625 c -0.93366,0 -1.6875,0.7538 -1.6875,1.6875 0,0.93365 0.75384,1.65626 1.6875,1.65625 l 11.297464,0 c 0,0 -1.933955,-3.34375 -1.933955,-3.34375 L 8,6.0625 z m 22.638266,0 -1.931678,3.34375 11.324662,0 c 0.93367,-10e-6 1.68749,-0.7226 1.6875,-1.65625 0,-0.9337 -0.75383,-1.68751 -1.6875,-1.6875 l -9.392984,0 z"
         style="fill:#000000;fill-opacity:1;stroke:none;display:inline" />
      <path
         sodipodi:nodetypes="cccsccc"
         style="fill:#000000;fill-opacity:1;stroke:none;display:inline"
         d="m 3.1272116,16.222327 c 0.8085646,0.466825 1.8353636,0.191717 2.302185,-0.616861 L 9.4461292,8.6483011 C 9.9129556,7.8397141 9.6378102,6.8129391 8.8292506,6.3461061 8.0206427,5.8792561 6.9938784,6.1543841 6.5270521,6.9629711 L 2.5103194,13.920136 c -0.46683,0.808573 -0.1917157,1.835341 0.6168922,2.302191 z"
         id="path5572-5" />
      <path
         id="path3029"
         d="m 44.95195,16.222327 c -0.808565,0.466825 -1.835364,0.191717 -2.302185,-0.616861 L 38.633032,8.6483011 c -0.466826,-0.808587 -0.191681,-1.835362 0.616879,-2.302195 0.808608,-0.46685 1.835372,-0.191722 2.302199,0.616865 l 4.016732,6.9571649 c 0.46683,0.808573 0.191716,1.835341 -0.616892,2.302191 z"
         style="fill:#000000;fill-opacity:1;stroke:none;display:inline"
         sodipodi:nodetypes="cccsccc" />
      <g
         transform="translate(3.7607865,0)"
         id="g3886">
        <path
           id="path5572-5-6"
           d="m 21.090191,12.310633 c 0.808564,-0.466825 1.039416,-1.570339 0.517553,-2.4742119 L 17.117586,2.05922 C 16.595718,1.1553372 15.524635,0.80350784 14.716065,1.2703235 13.907457,1.7371733 13.676641,2.8406672 14.198509,3.7445498 l 4.490158,7.7772012 c 0.521854,0.903878 1.592916,1.255732 2.401524,0.788882 z"
           style="fill:#000000;fill-opacity:1;stroke:none;display:inline"
           sodipodi:nodetypes="cccsccc" />
        <path
           sodipodi:nodetypes="cccsccc"
           style="fill:#000000;fill-opacity:1;stroke:none;display:inline"
           d="M 19.388236,12.310633 C 18.579672,11.843808 18.34882,10.740294 18.870683,9.8364211 L 23.360841,2.05922 c 0.521868,-0.9038828 1.592951,-1.25571216 2.401521,-0.7888965 0.808608,0.4668498 1.039424,1.5703437 0.517556,2.4742263 L 21.78976,11.521751 c -0.521854,0.903878 -1.592916,1.255732 -2.401524,0.788882 z"
           id="path3878" />
      </g>
    </g>
  </g>
</svg>
