<?xml version="1.0" encoding="UTF-8" standalone="no"?>
<!-- Created with Inkscape (http://www.inkscape.org/) -->
<svg
   xmlns:dc="http://purl.org/dc/elements/1.1/"
   xmlns:cc="http://creativecommons.org/ns#"
   xmlns:rdf="http://www.w3.org/1999/02/22-rdf-syntax-ns#"
   xmlns:svg="http://www.w3.org/2000/svg"
   xmlns="http://www.w3.org/2000/svg"
   xmlns:sodipodi="http://sodipodi.sourceforge.net/DTD/sodipodi-0.dtd"
   xmlns:inkscape="http://www.inkscape.org/namespaces/inkscape"
   width="48"
   height="48"
   id="svg2"
   sodipodi:version="0.32"
   inkscape:version="0.46+devel r20679"
   sodipodi:docname="network-workgroup.svg"
   inkscape:output_extension="org.inkscape.output.svg.inkscape"
   inkscape:export-filename="/home/hbons/Desktop/Intel/icons.png"
   inkscape:export-xdpi="90"
   inkscape:export-ydpi="90"
   version="1.0">
  <defs
     id="defs4">
    <inkscape:perspective
       sodipodi:type="inkscape:persp3d"
       inkscape:vp_x="0 : 24 : 1"
       inkscape:vp_y="0 : 1000 : 0"
       inkscape:vp_z="48 : 24 : 1"
       inkscape:persp3d-origin="24 : 16 : 1"
       id="perspective24" />
  </defs>
  <sodipodi:namedview
     id="base"
     pagecolor="#ffffff"
     bordercolor="#666666"
     borderopacity="1.0"
     gridtolerance="10000"
     guidetolerance="10"
     objecttolerance="10"
     inkscape:pageopacity="0.0"
     inkscape:pageshadow="2"
     inkscape:zoom="4"
     inkscape:cx="17.152781"
     inkscape:cy="40.628531"
     inkscape:document-units="px"
     inkscape:current-layer="layer1"
     showgrid="false"
     inkscape:window-width="1280"
     inkscape:window-height="750"
     inkscape:window-x="0"
     inkscape:window-y="0"
     inkscape:snap-intersection-line-segments="false"
     inkscape:snap-bbox="false"
     inkscape:snap-nodes="true"
     inkscape:bbox-paths="true">
    <inkscape:grid
       type="xygrid"
       id="grid4079"
       visible="true"
       enabled="true"
       empspacing="5" />
  </sodipodi:namedview>
  <metadata
     id="metadata7">
    <rdf:RDF>
      <cc:Work
         rdf:about="">
        <dc:format>image/svg+xml</dc:format>
        <dc:type
           rdf:resource="http://purl.org/dc/dcmitype/StillImage" />
        <dc:title />
      </cc:Work>
    </rdf:RDF>
  </metadata>
  <g
     inkscape:label="Layer 1"
     inkscape:groupmode="layer"
     id="layer1"
     transform="translate(-9.3897648,-13.175828)">
    <rect
       transform="matrix(0,1,-1,0,0,0)"
       style="fill:#000000;fill-opacity:1;stroke:none"
       id="rect6456"
       width="21.058298"
       height="3.3710001"
       x="25.126305"
       y="-17.418234"
       rx="1.6855"
       ry="1.6855" />
    <rect
       ry="1.6855"
       rx="1.6855"
       y="24.978081"
       x="14.186066"
       height="3.3710001"
       width="31.673275"
       id="rect5618"
       style="fill:#000000;fill-opacity:1;stroke:none" />
    <path
       style="fill:#000000;fill-opacity:1;stroke:none"
       d="m 10.930971,47.033887 3.590394,-3.590395 c 0.660273,-0.660273 1.723384,-0.660273 2.383657,0 0.660273,0.660273 0.660273,1.723384 0,2.383657 l -3.590394,3.590395 c -0.660273,0.660273 -1.723384,0.660273 -2.383657,0 -0.660273,-0.660273 -0.660273,-1.723384 0,-2.383657 z"
       id="rect5640" />
    <rect
       ry="1.6855"
       rx="1.6855"
       y="-13.817462"
       x="46.912582"
       height="3.3710001"
       width="9.2334566"
       id="rect5835"
       style="fill:#000000;fill-opacity:1;stroke:none"
       transform="matrix(0,1,-1,0,0,0)" />
    <rect
       style="fill:#000000;fill-opacity:1;stroke:none"
       id="rect5839"
       width="39.021336"
       height="3.3710001"
       x="10.470225"
       y="52.765755"
       rx="1.6855001"
       ry="1.6855" />
    <path
       id="path5841"
       d="m 49.103272,47.060987 -3.590394,-3.590395 c -0.660273,-0.660273 -1.723384,-0.660273 -2.383657,0 -0.660273,0.660273 -0.660273,1.723384 0,2.383657 l 3.590394,3.590395 c 0.660273,0.660273 1.723384,0.660273 2.383657,0 0.660273,-0.660273 0.660273,-1.723384 0,-2.383657 z"
       style="fill:#000000;fill-opacity:1;stroke:none" />
    <rect
       transform="matrix(0,1,1,0,0,0)"
       style="fill:#000000;fill-opacity:1;stroke:none"
       id="rect5843"
       width="9.0816956"
       height="3.3710001"
       x="46.939682"
       y="46.249298"
       rx="1.6855"
       ry="1.6855" />
    <rect
       transform="matrix(0,1,-1,0,0,0)"
       style="fill:#000000;fill-opacity:1;stroke:none"
       id="rect9177"
       width="21.357744"
       height="3.3710001"
       x="24.961962"
       y="-45.944145"
       rx="1.6854999"
       ry="1.6855" />
    <path
       style="font-size:medium;font-style:normal;font-variant:normal;font-weight:normal;font-stretch:normal;text-indent:0;text-align:start;text-decoration:none;line-height:normal;letter-spacing:normal;word-spacing:normal;text-transform:none;direction:ltr;block-progression:tb;writing-mode:lr-tb;text-anchor:start;color:#000000;fill:#000000;fill-opacity:1;stroke:none;stroke-width:3.37099934;marker:none;visibility:visible;display:inline;overflow:visible;enable-background:accumulate;font-family:Bitstream Vera Sans;-inkscape-font-specification:Bitstream Vera Sans"
       d="m 20.78125,31.6875 0,1.6875 0,8.03125 0,1.6875 1.6875,0 15.03125,0 1.6875,0 0,-1.6875 0,-8.03125 0,-1.6875 -1.6875,0 -15.03125,0 -1.6875,0 z m 3.375,3.375 11.65625,0 0,4.65625 -11.65625,0 0,-4.65625 z"
       id="rect10083" />
    <path
       style="fill:#000000;fill-opacity:1;stroke:none"
       d="m 22.442351,18.369696 c -0.933767,0 -1.65625,0.753733 -1.65625,1.6875 l 0,3.25 3.34375,0 0,-3.25 c 0,-0.933767 -0.753733,-1.6875 -1.6875,-1.6875 z"
       id="rect6456-8"
       sodipodi:nodetypes="cccccc" />
    <rect
       ry="1.6855"
       rx="1.6855"
       y="18.221735"
       x="20.909529"
       height="3.3710001"
       width="31.673275"
       id="rect5618-5"
       style="fill:#000000;fill-opacity:1;stroke:none" />
    <path
       style="fill:#000000;fill-opacity:1;stroke:none"
       d="m 50.286101,45.994696 c 0.503015,0.530742 0.79762,1.201578 0.875,1.90625 0.0033,0.03028 -0.0025,0.06339 0,0.09375 0.0035,0.04276 0.02951,0.08212 0.03125,0.125 0.0013,0.03273 0.03093,0.06098 0.03125,0.09375 0.0012,0.0107 -0.0011,0.02066 0,0.03125 0.01307,0.128087 0.03125,0.261643 0.03125,0.375 l 0,0.75 3.28125,0 c 0.933767,0 1.6875,-0.753733 1.6875,-1.6875 0,-0.933767 -0.753733,-1.6875 -1.6875,-1.6875 l -4.25,0 z"
       id="rect5839-1" />
    <path
       id="path5841-8"
       d="m 55.826735,40.304641 -3.590394,-3.590395 c -0.660273,-0.660273 -1.723384,-0.660273 -2.383657,0 -0.660273,0.660273 -0.660273,1.723384 0,2.383657 l 3.590394,3.590395 c 0.660273,0.660273 1.723384,0.660273 2.383657,0 0.660273,-0.660273 0.660273,-1.723384 0,-2.383657 z"
       style="fill:#000000;fill-opacity:1;stroke:none" />
    <rect
       transform="matrix(0,1,1,0,0,0)"
       style="fill:#000000;fill-opacity:1;stroke:none"
       id="rect5843-1"
       width="9.0816956"
       height="3.3710001"
       x="40.183334"
       y="52.972763"
       rx="1.6855"
       ry="1.6855" />
    <rect
       transform="matrix(0,1,-1,0,0,0)"
       style="fill:#000000;fill-opacity:1;stroke:none"
       id="rect9177-3"
       width="21.357744"
       height="3.3710001"
       x="18.205616"
       y="-52.66761"
       rx="1.6854999"
       ry="1.6855" />
  </g>
</svg>
