<?xml version="1.0" encoding="UTF-8" standalone="no"?>
<!-- Created with Inkscape (http://www.inkscape.org/) -->
<svg
   xmlns:dc="http://purl.org/dc/elements/1.1/"
   xmlns:cc="http://creativecommons.org/ns#"
   xmlns:rdf="http://www.w3.org/1999/02/22-rdf-syntax-ns#"
   xmlns:svg="http://www.w3.org/2000/svg"
   xmlns="http://www.w3.org/2000/svg"
   xmlns:sodipodi="http://sodipodi.sourceforge.net/DTD/sodipodi-0.dtd"
   xmlns:inkscape="http://www.inkscape.org/namespaces/inkscape"
   width="48"
   height="48"
   id="svg2"
   sodipodi:version="0.32"
   inkscape:version="0.46+devel"
   sodipodi:docname="user-home.svg"
   inkscape:output_extension="org.inkscape.output.svg.inkscape"
   inkscape:export-filename="/home/hbons/Desktop/Intel/icons.png"
   inkscape:export-xdpi="90"
   inkscape:export-ydpi="90"
   version="1.0">
  <defs
     id="defs4" />
  <sodipodi:namedview
     id="base"
     pagecolor="#ffffff"
     bordercolor="#666666"
     borderopacity="1.0"
     gridtolerance="10000"
     guidetolerance="10"
     objecttolerance="10"
     inkscape:pageopacity="0.0"
     inkscape:pageshadow="2"
     inkscape:zoom="8"
     inkscape:cx="48.024126"
     inkscape:cy="24.746504"
     inkscape:document-units="px"
     inkscape:current-layer="layer1"
     showgrid="false"
     inkscape:window-width="1280"
     inkscape:window-height="750"
     inkscape:window-x="0"
     inkscape:window-y="0"
     inkscape:snap-intersection-line-segments="false"
     inkscape:snap-bbox="false"
     inkscape:snap-nodes="true"
     inkscape:bbox-paths="true">
    <inkscape:grid
       type="xygrid"
       id="grid4079"
       visible="true"
       enabled="true"
       empspacing="5" />
  </sodipodi:namedview>
  <metadata
     id="metadata7">
    <rdf:RDF>
      <cc:Work
         rdf:about="">
        <dc:format>image/svg+xml</dc:format>
        <dc:type
           rdf:resource="http://purl.org/dc/dcmitype/StillImage" />
        <dc:title />
      </cc:Work>
    </rdf:RDF>
  </metadata>
  <g
     inkscape:label="Layer 1"
     inkscape:groupmode="layer"
     id="layer1"
     transform="translate(-9.3897648,-13.175828)">
    <g
       id="g9124"
       transform="translate(-0.20738278,-0.07483708)">
      <rect
         style="fill:#000000;fill-opacity:1;stroke:none"
         id="rect10370"
         width="11.873867"
         height="3.3710001"
         x="44.427849"
         y="38.238659"
         rx="1.6854999"
         ry="1.6855" />
      <path
         sodipodi:nodetypes="cccccscccsccc"
         id="rect10380"
         transform="translate(9.3897648,13.175828)"
         d="m 24.09375,4.125 c -0.430846,0 -0.888614,0.1698635 -1.21875,0.5 l -7.775491,7.794461 0,4.8125 L 25.28125,7.03125 c 0.660273,-0.660273 0.660273,-1.745977 0,-2.40625 -0.330136,-0.3301365 -0.756654,-0.5 -1.1875,-0.5 z M 11.84375,15.6875 2,25.53125 c -0.660273,0.660273 -0.660273,1.714727 0,2.375 0.660273,0.660273 1.714727,0.660273 2.375,0 L 11.912736,20.341686 11.84375,15.6875 z"
         style="fill:#000000;fill-opacity:1;stroke:none" />
      <rect
         transform="matrix(-0.70710678,-0.70710678,-0.70710678,0.70710678,0,0)"
         ry="1.6855"
         rx="1.6854998"
         y="-12.113503"
         x="-68.524704"
         height="3.3710001"
         width="32.908562"
         id="rect10382"
         style="fill:#000000;fill-opacity:1;stroke:none" />
      <rect
         ry="1.6855"
         rx="1.6854999"
         y="38.238659"
         x="10.871096"
         height="3.3710001"
         width="12.173164"
         id="rect10384"
         style="fill:#000000;fill-opacity:1;stroke:none" />
      <rect
         ry="1.6855"
         rx="1.6855"
         y="53.829502"
         x="19.923429"
         height="3.3710001"
         width="27.658306"
         id="rect10400"
         style="fill:#000000;fill-opacity:1;stroke:none" />
      <rect
         transform="matrix(0,1,-1,0,0,0)"
         ry="1.6855"
         rx="1.6854999"
         y="-21.300274"
         x="20.024303"
         height="3.3710001"
         width="14.462647"
         id="rect10414"
         style="fill:#000000;fill-opacity:1;stroke:none" />
      <rect
         style="fill:#000000;fill-opacity:1;stroke:none"
         id="rect10416"
         width="8.0940838"
         height="3.3710001"
         x="19.493137"
         y="-27.85854"
         rx="1.6854999"
         ry="1.6855"
         transform="matrix(0,1,-1,0,0,0)" />
      <rect
         style="fill:#000000;fill-opacity:1;stroke:none"
         id="rect11192"
         width="9.7878504"
         height="3.3710001"
         x="-27.73905"
         y="-22.73381"
         rx="1.6855"
         ry="1.6855"
         transform="scale(-1,-1)" />
      <rect
         transform="matrix(0,1,-1,0,0,0)"
         ry="1.6855"
         rx="1.6854998"
         y="-47.755249"
         x="38.254032"
         height="3.3710001"
         width="18.855787"
         id="rect8348"
         style="fill:#000000;fill-opacity:1;stroke:none" />
      <rect
         style="fill:#000000;fill-opacity:1;stroke:none"
         id="rect9122"
         width="18.855787"
         height="3.3710001"
         x="38.254032"
         y="-23.01226"
         rx="1.6854998"
         ry="1.6855"
         transform="matrix(0,1,-1,0,0,0)" />
    </g>
  </g>
</svg>
