<?xml version="1.0" encoding="UTF-8" standalone="no"?>
<!-- Created with Inkscape (http://www.inkscape.org/) -->
<svg
   xmlns:dc="http://purl.org/dc/elements/1.1/"
   xmlns:cc="http://creativecommons.org/ns#"
   xmlns:rdf="http://www.w3.org/1999/02/22-rdf-syntax-ns#"
   xmlns:svg="http://www.w3.org/2000/svg"
   xmlns="http://www.w3.org/2000/svg"
   xmlns:sodipodi="http://sodipodi.sourceforge.net/DTD/sodipodi-0.dtd"
   xmlns:inkscape="http://www.inkscape.org/namespaces/inkscape"
   width="48"
   height="48"
   id="svg2"
   sodipodi:version="0.32"
   inkscape:version="0.46+devel"
   sodipodi:docname="user-trash.svg"
   inkscape:output_extension="org.inkscape.output.svg.inkscape"
   inkscape:export-filename="/home/hbons/Desktop/Intel/icons.png"
   inkscape:export-xdpi="90"
   inkscape:export-ydpi="90"
   version="1.0">
  <defs
     id="defs4" />
  <sodipodi:namedview
     id="base"
     pagecolor="#ffffff"
     bordercolor="#666666"
     borderopacity="1.0"
     gridtolerance="10000"
     guidetolerance="10"
     objecttolerance="10"
     inkscape:pageopacity="0.0"
     inkscape:pageshadow="2"
     inkscape:zoom="2.8284271"
     inkscape:cx="78.704174"
     inkscape:cy="15.146692"
     inkscape:document-units="px"
     inkscape:current-layer="layer1"
     showgrid="false"
     inkscape:window-width="1280"
     inkscape:window-height="750"
     inkscape:window-x="0"
     inkscape:window-y="0"
     inkscape:snap-intersection-line-segments="false"
     inkscape:snap-bbox="false"
     inkscape:snap-nodes="true"
     inkscape:bbox-paths="true">
    <inkscape:grid
       type="xygrid"
       id="grid4079"
       visible="true"
       enabled="true"
       empspacing="5" />
  </sodipodi:namedview>
  <metadata
     id="metadata7">
    <rdf:RDF>
      <cc:Work
         rdf:about="">
        <dc:format>image/svg+xml</dc:format>
        <dc:type
           rdf:resource="http://purl.org/dc/dcmitype/StillImage" />
        <dc:title></dc:title>
      </cc:Work>
    </rdf:RDF>
  </metadata>
  <g
     inkscape:label="Layer 1"
     inkscape:groupmode="layer"
     id="layer1"
     transform="translate(-9.3897648,-13.175828)">
    <g
       id="g9327"
       transform="translate(0.3263298,0.31151384)">
      <path
         sodipodi:nodetypes="ccccc"
         id="rect5744"
         d="m 20.710781,21.698464 24.75405,0.04599 c 0,0 1.96124,3.325009 1.96124,3.325009 l -28.648814,0 c 0,0 1.933524,-3.371 1.933524,-3.371 z"
         style="fill:#000000;fill-opacity:1;stroke:none" />
      <path
         sodipodi:nodetypes="csccccsccccscccc"
         id="rect5857"
         transform="translate(9.3897648,13.175828)"
         d="m 42.78125,20.09375 c -0.653593,0.207199 -1.314281,0.335567 -2.03125,0.34375 -0.01042,9.6e-5 -0.02083,9.6e-5 -0.03125,0 l -0.375,0 -0.9375,0 0,20.007667 c 0,0.933767 0.753733,1.6875 1.6875,1.6875 0.933767,0 1.6875,-0.753733 1.6875,-1.6875 l 0,-20.351417 z m -38.15625,0.0625 0,20.094635 c 0,0.933767 0.753733,1.6875 1.6875,1.6875 0.933767,0 1.6875,-0.753733 1.6875,-1.6875 L 8,20.4375 l -1.3125,0 c -0.7107125,0 -1.4116326,-0.0852 -2.0625,-0.28125 z"
         style="fill:#000000;fill-opacity:1;stroke:none" />
      <rect
         style="fill:#000000;fill-opacity:1;stroke:none"
         id="rect5863"
         width="37.406788"
         height="3.3710001"
         x="14.38558"
         y="28.561275"
         rx="1.6854999"
         ry="1.6855" />
      <path
         sodipodi:open="true"
         sodipodi:end="3.1415927"
         sodipodi:start="1.5707963"
         sodipodi:type="arc"
         style="fill:none;stroke:#000000;stroke-width:23.43480873;stroke-linecap:round;stroke-miterlimit:4;stroke-opacity:1;stroke-dasharray:none;stroke-dashoffset:0;display:inline"
         id="path7622"
         sodipodi:cx="-25.809397"
         sodipodi:cy="179.43886"
         sodipodi:rx="22.98097"
         sodipodi:ry="22.98097"
         d="m -25.809396,202.41983 c -12.685496,0 -22.980971,-10.29548 -22.980971,-22.98097 0,0 0,0 0,0"
         transform="matrix(0.14075751,0,0,0.14697271,22.563688,27.28701)" />
      <path
         sodipodi:open="true"
         sodipodi:type="arc"
         style="fill:none;stroke:#000000;stroke-width:20.5358448;stroke-linecap:round;stroke-miterlimit:4;stroke-opacity:1;stroke-dasharray:none;stroke-dashoffset:0;display:inline"
         id="path8417-2"
         sodipodi:cx="-25.809397"
         sodipodi:cy="179.43886"
         sodipodi:rx="22.98097"
         sodipodi:ry="22.98097"
         d="m -25.809396,202.41983 c -12.685496,0 -22.980971,-10.29548 -22.980971,-22.98097 0,-4.2285 0.964617,-7.8285 3.078866,-11.49049"
         transform="matrix(0.16424416,0,0,0.16405989,20.312462,-2.952897)"
         sodipodi:start="1.5707963"
         sodipodi:end="3.6651914" />
      <path
         sodipodi:end="2.6179939"
         sodipodi:start="1.5707963"
         transform="matrix(0.16424416,0,0,-0.16405989,23.750267,49.87889)"
         d="m -25.809396,202.41983 c -8.456998,0 -15.673607,-4.16651 -19.902105,-11.49049"
         sodipodi:ry="22.98097"
         sodipodi:rx="22.98097"
         sodipodi:cy="179.43886"
         sodipodi:cx="-25.809397"
         id="path8447"
         style="fill:none;stroke:#000000;stroke-width:20.5358448;stroke-linecap:round;stroke-miterlimit:4;stroke-opacity:1;stroke-dasharray:none;stroke-dashoffset:0;display:inline"
         sodipodi:type="arc"
         sodipodi:open="true" />
      <rect
         transform="matrix(0.5,-0.8660254,0.8660254,0.5,0,0)"
         style="fill:#000000;fill-opacity:1;stroke:none"
         id="rect5863-9"
         width="9.5206213"
         height="3.3710001"
         x="-16.208126"
         y="21.649277"
         rx="1.6854999"
         ry="1.6855" />
      <rect
         ry="1.6855"
         rx="1.6855001"
         y="14.993614"
         x="18.168509"
         height="3.3710001"
         width="29.739611"
         id="rect8481"
         style="fill:#000000;fill-opacity:1;stroke:none" />
      <rect
         style="fill:#000000;fill-opacity:1;stroke:none"
         id="rect8483"
         width="31.787153"
         height="3.3710001"
         x="17.380751"
         y="55.345634"
         rx="1.6855"
         ry="1.6855" />
      <path
         transform="matrix(-0.14075751,0,0,0.14697271,43.576412,27.30869)"
         d="m -25.809396,202.41983 c -12.685496,0 -22.980971,-10.29548 -22.980971,-22.98097 0,0 0,0 0,0"
         sodipodi:ry="22.98097"
         sodipodi:rx="22.98097"
         sodipodi:cy="179.43886"
         sodipodi:cx="-25.809397"
         id="path8486"
         style="fill:none;stroke:#000000;stroke-width:23.43480873;stroke-linecap:round;stroke-miterlimit:4;stroke-opacity:1;stroke-dasharray:none;stroke-dashoffset:0;display:inline"
         sodipodi:type="arc"
         sodipodi:start="1.5707963"
         sodipodi:end="3.1415927"
         sodipodi:open="true" />
      <path
         sodipodi:end="3.6651914"
         sodipodi:start="1.5707963"
         transform="matrix(-0.16424416,0,0,0.16405989,45.814408,-2.952897)"
         d="m -25.809396,202.41983 c -12.685496,0 -22.980971,-10.29548 -22.980971,-22.98097 0,-4.2285 0.964617,-7.8285 3.078866,-11.49049"
         sodipodi:ry="22.98097"
         sodipodi:rx="22.98097"
         sodipodi:cy="179.43886"
         sodipodi:cx="-25.809397"
         id="path8496"
         style="fill:none;stroke:#000000;stroke-width:20.5358448;stroke-linecap:round;stroke-miterlimit:4;stroke-opacity:1;stroke-dasharray:none;stroke-dashoffset:0;display:inline"
         sodipodi:type="arc"
         sodipodi:open="true" />
      <path
         sodipodi:open="true"
         sodipodi:type="arc"
         style="fill:none;stroke:#000000;stroke-width:20.5358448;stroke-linecap:round;stroke-miterlimit:4;stroke-opacity:1;stroke-dasharray:none;stroke-dashoffset:0;display:inline"
         id="path8498"
         sodipodi:cx="-25.809397"
         sodipodi:cy="179.43886"
         sodipodi:rx="22.98097"
         sodipodi:ry="22.98097"
         d="m -25.809396,202.41983 c -8.456998,0 -15.673607,-4.16651 -19.902105,-11.49049"
         transform="matrix(-0.16424416,0,0,-0.16405989,42.376603,49.87889)"
         sodipodi:start="1.5707963"
         sodipodi:end="2.6179939" />
      <rect
         ry="1.6855"
         rx="1.6854999"
         y="-35.618271"
         x="-49.271561"
         height="3.3710001"
         width="9.5206213"
         id="rect8500"
         style="fill:#000000;fill-opacity:1;stroke:none"
         transform="matrix(-0.5,-0.8660254,-0.8660254,0.5,0,0)" />
    </g>
  </g>
</svg>
