<?xml version="1.0" encoding="UTF-8" standalone="no"?>
<!-- Created with Inkscape (http://www.inkscape.org/) -->
<svg
   xmlns:dc="http://purl.org/dc/elements/1.1/"
   xmlns:cc="http://creativecommons.org/ns#"
   xmlns:rdf="http://www.w3.org/1999/02/22-rdf-syntax-ns#"
   xmlns:svg="http://www.w3.org/2000/svg"
   xmlns="http://www.w3.org/2000/svg"
   xmlns:sodipodi="http://sodipodi.sourceforge.net/DTD/sodipodi-0.dtd"
   xmlns:inkscape="http://www.inkscape.org/namespaces/inkscape"
   width="48"
   height="48"
   id="svg2"
   sodipodi:version="0.32"
   inkscape:version="0.46+devel r20679"
   sodipodi:docname="application-x-executable.svg"
   inkscape:output_extension="org.inkscape.output.svg.inkscape"
   inkscape:export-filename="/home/hbons/Desktop/Intel/svn/moblin-ui-docs/in progress/draft visual UI/icons/icons.png"
   inkscape:export-xdpi="60.476192"
   inkscape:export-ydpi="60.476192"
   version="1.0">
  <sodipodi:namedview
     id="base"
     pagecolor="#ffffff"
     bordercolor="#dcdcdc"
     borderopacity="1"
     gridtolerance="10000"
     guidetolerance="10"
     objecttolerance="10"
     inkscape:pageopacity="0"
     inkscape:pageshadow="2"
     inkscape:zoom="1"
     inkscape:cx="29.351558"
     inkscape:cy="23.16888"
     inkscape:document-units="px"
     inkscape:current-layer="layer1"
     showgrid="false"
     inkscape:window-width="1280"
     inkscape:window-height="750"
     inkscape:window-x="0"
     inkscape:window-y="0"
     inkscape:snap-intersection-line-segments="false"
     inkscape:snap-bbox="true"
     inkscape:snap-nodes="false"
     inkscape:bbox-paths="true"
     inkscape:showpageshadow="false"
     showguides="false"
     inkscape:guide-bbox="true"
     inkscape:bbox-nodes="true"
     inkscape:snap-global="false">
    <inkscape:grid
       enabled="true"
       visible="true"
       id="grid4079"
       type="xygrid"
       empspacing="5" />
    <sodipodi:guide
       id="guide7317"
       position="566.05335,854.14667"
       orientation="1,0" />
  </sodipodi:namedview>
  <defs
     id="defs4" />
  <metadata
     id="metadata7">
    <rdf:RDF>
      <cc:Work
         rdf:about="">
        <dc:format>image/svg+xml</dc:format>
        <dc:type
           rdf:resource="http://purl.org/dc/dcmitype/StillImage" />
        <dc:title />
      </cc:Work>
    </rdf:RDF>
  </metadata>
  <g
     style="display:inline"
     id="layer1"
     inkscape:groupmode="layer"
     inkscape:label="Layer 1">
    <path
       sodipodi:type="arc"
       style="fill:none;stroke:#000000;stroke-width:20.53379822;stroke-linecap:round;stroke-miterlimit:4;stroke-opacity:1;stroke-dasharray:none;stroke-dashoffset:0;display:inline"
       id="path5560"
       sodipodi:cx="-25.809397"
       sodipodi:cy="179.43886"
       sodipodi:rx="22.98097"
       sodipodi:ry="22.98097"
       d="m -2.8284264,179.43886 a 22.98097,22.98097 0 1 1 -45.9619406,0 22.98097,22.98097 0 1 1 45.9619406,0 z"
       transform="matrix(0.16424416,0,0,-0.16405989,28.239042,53.453976)" />
    <path
       style="font-size:medium;font-style:normal;font-variant:normal;font-weight:normal;font-stretch:normal;text-indent:0;text-align:start;text-decoration:none;line-height:normal;letter-spacing:normal;word-spacing:normal;text-transform:none;direction:ltr;block-progression:tb;writing-mode:lr-tb;text-anchor:start;color:#000000;fill:#000000;fill-opacity:1;stroke:none;stroke-width:5.59333181;marker:none;visibility:visible;display:inline;overflow:visible;enable-background:accumulate;font-family:Bitstream Vera Sans;-inkscape-font-specification:Bitstream Vera Sans"
       d="m 22.312499,8.5777571 c -3.013511,0.3259537 -5.749445,1.5402749 -8,3.3437499 l 2.375,2.375 c 1.611387,-1.21006 3.529061,-2.024113 5.625,-2.3125 l 0,-3.4062499 z m 3.375,0 0,3.4062499 c 2.095939,0.288387 4.013613,1.10244 5.625,2.3125 l 2.375,-2.375 c -2.250554,-1.803475 -4.986489,-3.0177962 -8,-3.3437499 z m -13.78125,5.6874999 c -1.821306,2.249196 -3.0094387,5.010992 -3.3437502,8.03125 l 3.3750002,0 c 0.294073,-2.09453 1.126855,-4.01706 2.34375,-5.625 l -2.375,-2.40625 z m 24.1875,0 -2.375,2.40625 c 1.216558,1.607495 2.018215,3.531146 2.3125,5.625 l 3.40625,0 c -0.334311,-3.020258 -1.522444,-5.782054 -3.34375,-8.03125 z M 8.5312488,25.671507 c 0.3221171,3.030996 1.5245312,5.802871 3.3437502,8.0625 l 2.40625,-2.40625 c -1.220278,-1.619405 -2.058419,-3.546858 -2.34375,-5.65625 l -3.4062502,0 z m 27.5000002,0 c -0.285495,2.108883 -1.092475,4.037181 -2.3125,5.65625 l 2.40625,2.40625 c 1.819219,-2.259629 3.021633,-5.031504 3.34375,-8.0625 l -3.4375,0 z m -19.375,8.03125 -2.375,2.40625 c 2.254081,1.812172 5.009083,3.01686 8.03125,3.34375 l 0,-3.40625 c -2.110974,-0.290456 -4.037821,-1.119367 -5.65625,-2.34375 z m 14.6875,0 c -1.618429,1.224383 -3.545276,2.053294 -5.65625,2.34375 l 0,3.40625 c 3.022167,-0.32689 5.777169,-1.531578 8.03125,-3.34375 l -2.375,-2.40625 z"
       id="path5555" />
    <rect
       transform="matrix(0,1,-1,0,0,0)"
       style="fill:#000000;fill-opacity:1;stroke:none;display:inline"
       id="rect6456"
       width="6.9503045"
       height="3.3710001"
       x="5.1205153"
       y="-22.322359"
       rx="1.6854999"
       ry="1.6855" />
    <rect
       transform="matrix(0,1,-1,0,0,0)"
       style="fill:#000000;fill-opacity:1;stroke:none;display:inline"
       id="rect5556"
       width="6.9503045"
       height="3.3710001"
       x="5.1205153"
       y="-29.048635"
       rx="1.6854999"
       ry="1.6855" />
    <rect
       ry="1.6855"
       rx="1.6854999"
       y="5.1292644"
       x="18.953384"
       height="3.3710001"
       width="10.077671"
       id="rect5558"
       style="fill:#000000;fill-opacity:1;stroke:none;display:inline" />
    <rect
       ry="1.6855"
       rx="1.6854999"
       y="-22.322359"
       x="-42.879486"
       height="3.3710001"
       width="6.9503045"
       id="rect6452"
       style="fill:#000000;fill-opacity:1;stroke:none;display:inline"
       transform="matrix(0,-1,-1,0,0,0)" />
    <rect
       ry="1.6855"
       rx="1.6854999"
       y="-29.048635"
       x="-42.879486"
       height="3.3710001"
       width="6.9503045"
       id="rect6455"
       style="fill:#000000;fill-opacity:1;stroke:none;display:inline"
       transform="matrix(0,-1,-1,0,0,0)" />
    <rect
       style="fill:#000000;fill-opacity:1;stroke:none;display:inline"
       id="rect6457"
       width="10.077671"
       height="3.3710001"
       x="18.953384"
       y="-42.870735"
       rx="1.6854999"
       ry="1.6855"
       transform="scale(1,-1)" />
    <rect
       ry="1.6855"
       rx="1.6854999"
       y="-22.322361"
       x="-42.879486"
       height="3.3710001"
       width="6.9503045"
       id="rect6485"
       style="fill:#000000;fill-opacity:1;stroke:none;display:inline"
       transform="scale(-1,-1)" />
    <rect
       ry="1.6855"
       rx="1.6854999"
       y="-29.048637"
       x="-42.879486"
       height="3.3710001"
       width="6.9503045"
       id="rect6487"
       style="fill:#000000;fill-opacity:1;stroke:none;display:inline"
       transform="scale(-1,-1)" />
    <rect
       style="fill:#000000;fill-opacity:1;stroke:none;display:inline"
       id="rect6489"
       width="10.077671"
       height="3.3710001"
       x="18.953386"
       y="-42.870735"
       rx="1.6854999"
       ry="1.6855"
       transform="matrix(0,1,-1,0,0,0)" />
    <rect
       transform="scale(1,-1)"
       style="fill:#000000;fill-opacity:1;stroke:none;display:inline"
       id="rect6495"
       width="6.9503045"
       height="3.3710001"
       x="5.1205149"
       y="-22.322361"
       rx="1.6854999"
       ry="1.6855" />
    <rect
       transform="scale(1,-1)"
       style="fill:#000000;fill-opacity:1;stroke:none;display:inline"
       id="rect6497"
       width="6.9503045"
       height="3.3710001"
       x="5.1205149"
       y="-29.048637"
       rx="1.6854999"
       ry="1.6855" />
    <rect
       ry="1.6855"
       rx="1.6854999"
       y="5.1292639"
       x="18.953386"
       height="3.3710001"
       width="10.077671"
       id="rect6499"
       style="fill:#000000;fill-opacity:1;stroke:none;display:inline"
       transform="matrix(0,1,1,0,0,0)" />
    <rect
       transform="matrix(-0.70710678,0.70710678,-0.70710678,-0.70710678,0,0)"
       style="fill:#000000;fill-opacity:1;stroke:none;display:inline"
       id="rect6507"
       width="6.9503045"
       height="3.3710001"
       x="-18.879484"
       y="-32.263489"
       rx="1.6854999"
       ry="1.6855" />
    <rect
       transform="matrix(-0.70710678,0.70710678,-0.70710678,-0.70710678,0,0)"
       style="fill:#000000;fill-opacity:1;stroke:none;display:inline"
       id="rect6509"
       width="6.9503045"
       height="3.3710001"
       x="-18.879484"
       y="-38.989761"
       rx="1.6854999"
       ry="1.6855" />
    <rect
       ry="1.6855"
       rx="1.6854999"
       y="-18.870735"
       x="28.894512"
       height="3.3710001"
       width="10.077671"
       id="rect6511"
       style="fill:#000000;fill-opacity:1;stroke:none;display:inline"
       transform="matrix(0.70710678,0.70710678,-0.70710678,0.70710678,0,0)" />
    <rect
       ry="1.6855"
       rx="1.6854999"
       y="-32.263485"
       x="-18.879484"
       height="3.3710001"
       width="6.9503045"
       id="rect6517"
       style="fill:#000000;fill-opacity:1;stroke:none;display:inline"
       transform="matrix(0.70710678,-0.70710678,-0.70710678,-0.70710678,0,0)" />
    <rect
       ry="1.6855"
       rx="1.6854999"
       y="-38.989761"
       x="-18.879484"
       height="3.3710001"
       width="6.9503045"
       id="rect6519"
       style="fill:#000000;fill-opacity:1;stroke:none;display:inline"
       transform="matrix(0.70710678,-0.70710678,-0.70710678,-0.70710678,0,0)" />
    <rect
       style="fill:#000000;fill-opacity:1;stroke:none;display:inline"
       id="rect6521"
       width="10.077671"
       height="3.3710001"
       x="28.894512"
       y="-18.870735"
       rx="1.6854999"
       ry="1.6855"
       transform="matrix(0.70710678,0.70710678,0.70710678,-0.70710678,0,0)" />
    <rect
       ry="1.6855"
       rx="1.6854999"
       y="1.6776385"
       x="-52.82061"
       height="3.3710001"
       width="6.9503045"
       id="rect6529"
       style="fill:#000000;fill-opacity:1;stroke:none;display:inline"
       transform="matrix(-0.70710678,-0.70710678,0.70710678,-0.70710678,0,0)" />
    <rect
       ry="1.6855"
       rx="1.6854999"
       y="-5.0486379"
       x="-52.82061"
       height="3.3710001"
       width="6.9503045"
       id="rect6531"
       style="fill:#000000;fill-opacity:1;stroke:none;display:inline"
       transform="matrix(-0.70710678,-0.70710678,0.70710678,-0.70710678,0,0)" />
    <rect
       style="fill:#000000;fill-opacity:1;stroke:none;display:inline"
       id="rect6533"
       width="10.077671"
       height="3.3710001"
       x="-5.0466132"
       y="-52.811859"
       rx="1.6854999"
       ry="1.6855"
       transform="matrix(-0.70710678,0.70710678,-0.70710678,-0.70710678,0,0)" />
    <rect
       transform="matrix(0.70710678,0.70710678,0.70710678,-0.70710678,0,0)"
       style="fill:#000000;fill-opacity:1;stroke:none;display:inline"
       id="rect6539"
       width="6.9503045"
       height="3.3710001"
       x="15.06164"
       y="1.6776384"
       rx="1.6854999"
       ry="1.6855" />
    <rect
       transform="matrix(0.70710678,0.70710678,0.70710678,-0.70710678,0,0)"
       style="fill:#000000;fill-opacity:1;stroke:none;display:inline"
       id="rect6541"
       width="6.9503045"
       height="3.3710001"
       x="15.06164"
       y="-5.0486383"
       rx="1.6854999"
       ry="1.6855" />
    <rect
       ry="1.6855"
       rx="1.6854999"
       y="15.070389"
       x="-5.0466127"
       height="3.3710001"
       width="10.077671"
       id="rect6543"
       style="fill:#000000;fill-opacity:1;stroke:none;display:inline"
       transform="matrix(-0.70710678,0.70710678,0.70710678,0.70710678,0,0)" />
  </g>
</svg>
