<?xml version="1.0" encoding="UTF-8" standalone="no"?>
<!-- Created with Inkscape (http://www.inkscape.org/) -->
<svg
   xmlns:dc="http://purl.org/dc/elements/1.1/"
   xmlns:cc="http://creativecommons.org/ns#"
   xmlns:rdf="http://www.w3.org/1999/02/22-rdf-syntax-ns#"
   xmlns:svg="http://www.w3.org/2000/svg"
   xmlns="http://www.w3.org/2000/svg"
   xmlns:sodipodi="http://sodipodi.sourceforge.net/DTD/sodipodi-0.dtd"
   xmlns:inkscape="http://www.inkscape.org/namespaces/inkscape"
   width="48"
   height="48"
   id="svg2"
   sodipodi:version="0.32"
   inkscape:version="0.46+devel r20679"
   sodipodi:docname="application-certificate.svg"
   inkscape:output_extension="org.inkscape.output.svg.inkscape"
   inkscape:export-filename="/home/hbons/Desktop/Intel/svn/moblin-ui-docs/in progress/draft visual UI/icons/icons.png"
   inkscape:export-xdpi="60.476192"
   inkscape:export-ydpi="60.476192"
   version="1.0">
  <sodipodi:namedview
     id="base"
     pagecolor="#ffffff"
     bordercolor="#dcdcdc"
     borderopacity="1"
     gridtolerance="10000"
     guidetolerance="10"
     objecttolerance="10"
     inkscape:pageopacity="0"
     inkscape:pageshadow="2"
     inkscape:zoom="8"
     inkscape:cx="41.791966"
     inkscape:cy="13.756362"
     inkscape:document-units="px"
     inkscape:current-layer="layer1"
     showgrid="false"
     inkscape:window-width="1280"
     inkscape:window-height="750"
     inkscape:window-x="0"
     inkscape:window-y="0"
     inkscape:snap-intersection-line-segments="false"
     inkscape:snap-bbox="true"
     inkscape:snap-nodes="false"
     inkscape:bbox-paths="true"
     inkscape:showpageshadow="false"
     showguides="false"
     inkscape:guide-bbox="true"
     inkscape:bbox-nodes="true"
     inkscape:snap-global="false">
    <inkscape:grid
       enabled="true"
       visible="true"
       id="grid4079"
       type="xygrid"
       empspacing="5" />
    <sodipodi:guide
       id="guide7317"
       position="566.05335,854.14667"
       orientation="1,0" />
  </sodipodi:namedview>
  <defs
     id="defs4" />
  <metadata
     id="metadata7">
    <rdf:RDF>
      <cc:Work
         rdf:about="">
        <dc:format>image/svg+xml</dc:format>
        <dc:type
           rdf:resource="http://purl.org/dc/dcmitype/StillImage" />
        <dc:title />
      </cc:Work>
    </rdf:RDF>
  </metadata>
  <g
     style="display:inline"
     id="layer1"
     inkscape:groupmode="layer"
     inkscape:label="Layer 1">
    <path
       style="fill:#000000;fill-opacity:1;stroke:none"
       d="M 35.125 30.09375 C 34.215884 30.865698 33.212632 31.552943 32.15625 32.125 L 34.40625 40.46875 L 31.75 38.9375 C 31.143501 38.587337 30.398684 38.665842 29.875 39.0625 C 29.662857 39.202416 29.479924 39.389139 29.34375 39.625 L 27.90625 42.125 L 25.78125 34.1875 L 25.8125 34.09375 C 25.791969 34.095916 25.770552 34.091656 25.75 34.09375 C 25.172861 34.152544 24.592334 34.1875 24 34.1875 C 23.439307 34.1875 22.890897 34.1465 22.34375 34.09375 C 22.323165 34.091765 22.301814 34.095807 22.28125 34.09375 L 22.3125 34.1875 L 20.1875 42.125 L 18.75 39.625 C 18.672014 39.489924 18.574358 39.385583 18.46875 39.28125 C 18.419409 39.225495 18.367767 39.172932 18.3125 39.125 C 18.283406 39.102963 18.249056 39.082488 18.21875 39.0625 C 18.160563 39.018427 18.094062 38.973318 18.03125 38.9375 C 17.996185 38.920397 17.973585 38.889596 17.9375 38.875 C 17.878656 38.846298 17.811579 38.834103 17.75 38.8125 C 17.740619 38.809986 17.728173 38.814851 17.71875 38.8125 C 17.278642 38.666747 16.778686 38.68639 16.34375 38.9375 L 13.6875 40.46875 L 15.90625 32.1875 C 14.855603 31.625125 13.87536 30.916005 12.96875 30.15625 L 9.40625 43.46875 C 9.2249923 44.145213 9.482536 44.816081 10 45.21875 C 10.022339 45.237584 10.039328 45.263699 10.0625 45.28125 C 10.129412 45.328086 10.206695 45.369058 10.28125 45.40625 C 10.301926 45.417431 10.322664 45.427215 10.34375 45.4375 C 10.425418 45.474094 10.504333 45.507291 10.59375 45.53125 C 11.026519 45.665803 11.512253 45.620516 11.9375 45.375 L 16.625 42.65625 L 19.3125 47.28125 C 19.319264 47.293732 19.336673 47.300195 19.34375 47.3125 C 19.400349 47.404938 19.460955 47.485038 19.53125 47.5625 C 19.601935 47.643995 19.663756 47.714138 19.75 47.78125 C 19.928532 47.919957 20.097915 48.036252 20.3125 48.09375 C 20.322132 48.096511 20.334031 48.091146 20.34375 48.09375 C 20.353173 48.096101 20.365537 48.091562 20.375 48.09375 C 20.570298 48.142412 20.779622 48.143987 20.96875 48.125 C 21.077392 48.111388 21.174867 48.098079 21.28125 48.0625 C 21.724253 47.929074 22.074103 47.621343 22.28125 47.1875 C 22.324565 47.098697 22.379208 47.000891 22.40625 46.90625 L 24.03125 40.71875 L 25.6875 46.90625 C 25.715105 47.009274 25.768258 47.094841 25.8125 47.1875 C 25.816674 47.196241 25.808188 47.210107 25.8125 47.21875 C 25.909407 47.413011 26.06244 47.579827 26.21875 47.71875 C 26.400659 47.880424 26.579034 47.992183 26.8125 48.0625 C 26.89613 48.087688 26.974963 48.113073 27.0625 48.125 C 27.083355 48.128418 27.104107 48.122382 27.125 48.125 C 27.314128 48.143987 27.523452 48.142412 27.71875 48.09375 C 27.728675 48.091277 27.740079 48.096408 27.75 48.09375 C 27.862744 48.06354 27.962236 48.018766 28.0625 47.96875 C 28.165755 47.918386 28.251779 47.852705 28.34375 47.78125 C 28.429994 47.714138 28.523065 47.643995 28.59375 47.5625 C 28.662372 47.484958 28.726145 47.404622 28.78125 47.3125 C 28.786222 47.303856 28.776433 47.289982 28.78125 47.28125 L 28.84375 47.1875 C 28.868513 47.134189 28.887156 47.087052 28.90625 47.03125 L 31.46875 42.65625 L 36.15625 45.375 C 36.4595 45.550081 36.801415 45.61637 37.125 45.59375 C 37.135679 45.593003 37.145595 45.5947 37.15625 45.59375 C 37.166099 45.593138 37.177635 45.594536 37.1875 45.59375 C 37.295799 45.582015 37.396215 45.563518 37.5 45.53125 C 37.589417 45.507291 37.668332 45.474094 37.75 45.4375 C 37.771086 45.427215 37.791824 45.417431 37.8125 45.40625 C 37.887055 45.369058 37.964338 45.328086 38.03125 45.28125 C 38.05307 45.264723 38.072667 45.236415 38.09375 45.21875 C 38.16244 45.165298 38.222331 45.094001 38.28125 45.03125 C 38.666189 44.621276 38.844697 44.055417 38.6875 43.46875 L 35.125 30.09375 z "
       id="rect5556" />
    <path
       sodipodi:type="arc"
       style="fill:none;stroke:#000000;stroke-width:5.5921731;stroke-linecap:round;stroke-miterlimit:4;stroke-opacity:1;stroke-dasharray:none;stroke-dashoffset:0;display:inline"
       id="path5688"
       sodipodi:cx="-25.809397"
       sodipodi:cy="179.43886"
       sodipodi:rx="22.98097"
       sodipodi:ry="22.98097"
       d="m -2.8284264,179.43886 a 22.98097,22.98097 0 1 1 -45.9619406,0 22.98097,22.98097 0 1 1 45.9619406,0 z"
       transform="matrix(0.60307836,0,0,-0.60253542,39.565089,125.12425)" />
    <g
       transform="matrix(0.68027394,0,0,0.68027394,7.7248149,9.0875085)"
       id="g5692">
      <path
         transform="matrix(0.45607196,0,0,-0.45566136,35.70238,93.398175)"
         d="m -2.8284264,179.43886 c 0,12.68549 -10.2954746,22.98097 -22.9809706,22.98097 -12.685495,0 -22.98097,-10.29548 -22.98097,-22.98097 0,-12.6855 10.295475,-22.98097 22.98097,-22.98097 12.685496,0 22.9809706,10.29547 22.9809706,22.98097 z"
         sodipodi:ry="22.98097"
         sodipodi:rx="22.98097"
         sodipodi:cy="179.43886"
         sodipodi:cx="-25.809397"
         id="path5696"
         style="fill:none;stroke:#000000;stroke-width:10.87018967;stroke-linecap:round;stroke-miterlimit:4;stroke-opacity:1;stroke-dasharray:none;stroke-dashoffset:0;display:inline"
         sodipodi:type="arc" />
    </g>
  </g>
</svg>
