<?xml version="1.0" encoding="UTF-8" standalone="no"?>
<!-- Created with Inkscape (http://www.inkscape.org/) -->
<svg
   xmlns:dc="http://purl.org/dc/elements/1.1/"
   xmlns:cc="http://creativecommons.org/ns#"
   xmlns:rdf="http://www.w3.org/1999/02/22-rdf-syntax-ns#"
   xmlns:svg="http://www.w3.org/2000/svg"
   xmlns="http://www.w3.org/2000/svg"
   xmlns:sodipodi="http://sodipodi.sourceforge.net/DTD/sodipodi-0.dtd"
   xmlns:inkscape="http://www.inkscape.org/namespaces/inkscape"
   width="48"
   height="48"
   id="svg2"
   sodipodi:version="0.32"
   inkscape:version="0.46+devel r20679"
   sodipodi:docname="podcast.svg"
   inkscape:output_extension="org.inkscape.output.svg.inkscape"
   inkscape:export-filename="/home/hbons/Desktop/Intel/svn/moblin-ui-docs/in progress/draft visual UI/icons/icons.png"
   inkscape:export-xdpi="60.476192"
   inkscape:export-ydpi="60.476192"
   version="1.0">
  <sodipodi:namedview
     id="base"
     pagecolor="#ffffff"
     bordercolor="#dcdcdc"
     borderopacity="1"
     gridtolerance="10000"
     guidetolerance="10"
     objecttolerance="10"
     inkscape:pageopacity="0"
     inkscape:pageshadow="2"
     inkscape:zoom="8"
     inkscape:cx="50.767942"
     inkscape:cy="18.190039"
     inkscape:document-units="px"
     inkscape:current-layer="layer1"
     showgrid="false"
     inkscape:window-width="1280"
     inkscape:window-height="750"
     inkscape:window-x="0"
     inkscape:window-y="0"
     inkscape:snap-intersection-line-segments="false"
     inkscape:snap-bbox="true"
     inkscape:snap-nodes="false"
     inkscape:bbox-paths="true"
     inkscape:showpageshadow="false"
     showguides="false"
     inkscape:guide-bbox="true"
     inkscape:bbox-nodes="true"
     inkscape:snap-global="false">
    <inkscape:grid
       enabled="true"
       visible="true"
       id="grid4079"
       type="xygrid"
       empspacing="5" />
    <sodipodi:guide
       id="guide7317"
       position="566.05335,854.14667"
       orientation="1,0" />
  </sodipodi:namedview>
  <defs
     id="defs4" />
  <metadata
     id="metadata7">
    <rdf:RDF>
      <cc:Work
         rdf:about="">
        <dc:format>image/svg+xml</dc:format>
        <dc:type
           rdf:resource="http://purl.org/dc/dcmitype/StillImage" />
        <dc:title />
      </cc:Work>
    </rdf:RDF>
  </metadata>
  <g
     style="display:inline"
     id="layer1"
     inkscape:groupmode="layer"
     inkscape:label="Layer 1">
    <g
       id="g3696"
       transform="translate(-0.02031621,-0.14859673)">
      <path
         sodipodi:open="true"
         sodipodi:end="9.1629786"
         sodipodi:start="4.9741884"
         transform="matrix(0.21963852,-0.21963852,-0.21942793,-0.21942793,69.000533,70.339282)"
         d="m -19.861483,157.24095 c 12.2532475,3.28324 19.53324713,15.89257 16.2499989,28.14582 -3.2832483,12.25325 -15.8925779,19.53325 -28.1458259,16.25 -8.168832,-2.18883 -14.061168,-8.08117 -16.25,-16.25"
         sodipodi:ry="22.98097"
         sodipodi:rx="22.98097"
         sodipodi:cy="179.43886"
         sodipodi:cx="-25.809397"
         id="path5554"
         style="fill:none;stroke:#000000;stroke-width:10.85676003;stroke-linecap:round;stroke-miterlimit:4;stroke-opacity:1;stroke-dasharray:none;stroke-dashoffset:0;display:inline"
         sodipodi:type="arc" />
      <path
         transform="matrix(0.16424416,0,0,-0.16405989,28.271163,48.628416)"
         d="m -2.8284264,179.43886 c 0,12.68549 -10.2954746,22.98097 -22.9809706,22.98097 -12.685495,0 -22.98097,-10.29548 -22.98097,-22.98097 0,-12.6855 10.295475,-22.98097 22.98097,-22.98097 12.685496,0 22.9809706,10.29547 22.9809706,22.98097 z"
         sodipodi:ry="22.98097"
         sodipodi:rx="22.98097"
         sodipodi:cy="179.43886"
         sodipodi:cx="-25.809397"
         id="path5560"
         style="fill:none;stroke:#000000;stroke-width:20.53379822;stroke-linecap:round;stroke-miterlimit:4;stroke-opacity:1;stroke-dasharray:none;stroke-dashoffset:0;display:inline"
         sodipodi:type="arc" />
      <path
         sodipodi:open="true"
         sodipodi:end="10.075642"
         sodipodi:start="5.6234505"
         sodipodi:type="arc"
         style="fill:none;stroke:#000000;stroke-width:7.33820629;stroke-linecap:round;stroke-miterlimit:4;stroke-opacity:1;stroke-dasharray:none;stroke-dashoffset:0;display:inline"
         id="path2858"
         sodipodi:cx="-25.809397"
         sodipodi:cy="179.43886"
         sodipodi:rx="22.98097"
         sodipodi:ry="22.98097"
         d="m -7.6508727,165.35365 c 7.77503324,10.02351 5.9501864,24.4687 -4.0733193,32.24373 -10.023505,7.77504 -24.468695,5.95019 -32.243729,-4.07332 -6.487123,-8.36314 -6.536912,-19.58842 -0.12423,-28.00878"
         transform="matrix(0.45953746,0,0,-0.45912416,35.892505,101.57441)" />
      <path
         sodipodi:open="true"
         sodipodi:end="10.17037"
         sodipodi:start="5.5320295"
         sodipodi:type="arc"
         style="fill:none;stroke:#000000;stroke-width:4.49246883;stroke-linecap:round;stroke-miterlimit:4;stroke-opacity:1;stroke-dasharray:none;stroke-dashoffset:0;display:inline"
         id="path2884"
         sodipodi:cx="-25.809397"
         sodipodi:cy="179.43886"
         sodipodi:rx="22.98097"
         sodipodi:ry="22.98097"
         d="m -9.0125931,163.75471 c 8.65764772,9.27184 8.15917644,23.8233 -1.1126589,32.48095 -9.271836,8.65765 -23.823301,8.15918 -32.480948,-1.11266 -8.24952,-8.83475 -8.287241,-22.39407 -0.087,-31.27459"
         transform="matrix(0.75061165,0,0,-0.7499726,43.404955,153.76392)" />
      <path
         sodipodi:open="true"
         sodipodi:end="5.7595865"
         sodipodi:start="3.6651914"
         sodipodi:type="arc"
         style="fill:none;stroke:#000000;stroke-width:13.88824463;stroke-linecap:round;stroke-miterlimit:4;stroke-opacity:1;stroke-dasharray:none;stroke-dashoffset:0;display:inline"
         id="path2886"
         sodipodi:cx="-25.809397"
         sodipodi:cy="179.43886"
         sodipodi:rx="22.98097"
         sodipodi:ry="22.98097"
         d="m -45.711501,167.94837 c 6.342747,-10.98596 20.406627,-14.75436 31.392589,-8.41162 3.661987,2.11425 6.2973697,4.74964 8.411619,8.41162"
         transform="matrix(0.22040452,0,0,-0.26724877,29.688441,88.152941)" />
      <path
         sodipodi:nodetypes="cccsccc"
         style="fill:#000000;fill-opacity:1;stroke:none;display:inline"
         d="m 20.117907,44.29633 c -0.808591,0.466839 -1.697117,0.431133 -1.992216,-0.08001 l -1.821633,-3.16536 c -0.295147,-0.511155 0.118213,-1.298465 0.926846,-1.765332 0.80854,-0.466804 1.697105,-0.431164 1.992214,0.08001 l 1.821637,3.165366 c 0.295113,0.511134 -0.118277,1.298499 -0.926849,1.765325 z"
         id="path2916" />
      <path
         id="path3694"
         d="m 27.78958,44.29633 c 0.808591,0.466839 1.697117,0.431133 1.992216,-0.08001 l 1.821633,-3.16536 c 0.295147,-0.511155 -0.118213,-1.298465 -0.926846,-1.765332 -0.80854,-0.466804 -1.697105,-0.431164 -1.992214,0.08001 l -1.821637,3.165366 c -0.295113,0.511134 0.118277,1.298499 0.926849,1.765325 z"
         style="fill:#000000;fill-opacity:1;stroke:none;display:inline"
         sodipodi:nodetypes="cccsccc" />
    </g>
  </g>
</svg>
