<?xml version="1.0" encoding="UTF-8" standalone="no"?>
<!-- Created with Inkscape (http://www.inkscape.org/) -->
<svg
   xmlns:dc="http://purl.org/dc/elements/1.1/"
   xmlns:cc="http://creativecommons.org/ns#"
   xmlns:rdf="http://www.w3.org/1999/02/22-rdf-syntax-ns#"
   xmlns:svg="http://www.w3.org/2000/svg"
   xmlns="http://www.w3.org/2000/svg"
   xmlns:sodipodi="http://sodipodi.sourceforge.net/DTD/sodipodi-0.dtd"
   xmlns:inkscape="http://www.inkscape.org/namespaces/inkscape"
   width="48"
   height="48"
   id="svg2"
   sodipodi:version="0.32"
   inkscape:version="0.46+devel r20679"
   sodipodi:docname="text-x-script.svg"
   inkscape:output_extension="org.inkscape.output.svg.inkscape"
   inkscape:export-filename="/home/hbons/Desktop/Intel/svn/moblin-ui-docs/in progress/draft visual UI/icons/icons.png"
   inkscape:export-xdpi="60.476192"
   inkscape:export-ydpi="60.476192"
   version="1.0">
  <sodipodi:namedview
     id="base"
     pagecolor="#ffffff"
     bordercolor="#dcdcdc"
     borderopacity="1"
     gridtolerance="10000"
     guidetolerance="10"
     objecttolerance="10"
     inkscape:pageopacity="0"
     inkscape:pageshadow="2"
     inkscape:zoom="2.8284271"
     inkscape:cx="39.736446"
     inkscape:cy="44.729935"
     inkscape:document-units="px"
     inkscape:current-layer="layer1"
     showgrid="false"
     inkscape:window-width="793"
     inkscape:window-height="625"
     inkscape:window-x="460"
     inkscape:window-y="46"
     inkscape:snap-intersection-line-segments="false"
     inkscape:snap-bbox="true"
     inkscape:snap-nodes="false"
     inkscape:bbox-paths="true"
     inkscape:showpageshadow="false"
     showguides="false"
     inkscape:guide-bbox="true"
     inkscape:bbox-nodes="true"
     inkscape:snap-global="false">
    <inkscape:grid
       enabled="true"
       visible="true"
       id="grid4079"
       type="xygrid"
       empspacing="5" />
    <sodipodi:guide
       id="guide7317"
       position="566.05335,854.14667"
       orientation="1,0" />
  </sodipodi:namedview>
  <defs
     id="defs4">
    <inkscape:perspective
       sodipodi:type="inkscape:persp3d"
       inkscape:vp_x="0 : 24 : 1"
       inkscape:vp_y="0 : 1000 : 0"
       inkscape:vp_z="48 : 24 : 1"
       inkscape:persp3d-origin="24 : 16 : 1"
       id="perspective22" />
    <inkscape:perspective
       id="perspective5539"
       inkscape:persp3d-origin="0.5 : 0.33333333 : 1"
       inkscape:vp_z="1 : 0.5 : 1"
       inkscape:vp_y="0 : 1000 : 0"
       inkscape:vp_x="0 : 0.5 : 1"
       sodipodi:type="inkscape:persp3d" />
    <inkscape:perspective
       sodipodi:type="inkscape:persp3d"
       inkscape:vp_x="0 : 0.5 : 1"
       inkscape:vp_y="0 : 1000 : 0"
       inkscape:vp_z="1 : 0.5 : 1"
       inkscape:persp3d-origin="0.5 : 0.33333333 : 1"
       id="perspective6334" />
    <inkscape:perspective
       sodipodi:type="inkscape:persp3d"
       inkscape:vp_x="0 : 0.5 : 1"
       inkscape:vp_y="0 : 1000 : 0"
       inkscape:vp_z="1 : 0.5 : 1"
       inkscape:persp3d-origin="0.5 : 0.33333333 : 1"
       id="perspective5534" />
    <inkscape:perspective
       sodipodi:type="inkscape:persp3d"
       inkscape:vp_x="0 : 0.5 : 1"
       inkscape:vp_y="0 : 1000 : 0"
       inkscape:vp_z="1 : 0.5 : 1"
       inkscape:persp3d-origin="0.5 : 0.33333333 : 1"
       id="perspective6327" />
    <inkscape:perspective
       id="perspective17"
       inkscape:persp3d-origin="24 : 16 : 1"
       inkscape:vp_z="48 : 24 : 1"
       inkscape:vp_y="0 : 1000 : 0"
       inkscape:vp_x="0 : 24 : 1"
       sodipodi:type="inkscape:persp3d" />
    <inkscape:perspective
       sodipodi:type="inkscape:persp3d"
       inkscape:vp_x="0 : 24 : 1"
       inkscape:vp_y="0 : 1000 : 0"
       inkscape:vp_z="48 : 24 : 1"
       inkscape:persp3d-origin="24 : 16 : 1"
       id="perspective17-1" />
    <inkscape:perspective
       id="perspective6327-3"
       inkscape:persp3d-origin="0.5 : 0.33333333 : 1"
       inkscape:vp_z="1 : 0.5 : 1"
       inkscape:vp_y="0 : 1000 : 0"
       inkscape:vp_x="0 : 0.5 : 1"
       sodipodi:type="inkscape:persp3d" />
    <inkscape:perspective
       id="perspective5534-7"
       inkscape:persp3d-origin="0.5 : 0.33333333 : 1"
       inkscape:vp_z="1 : 0.5 : 1"
       inkscape:vp_y="0 : 1000 : 0"
       inkscape:vp_x="0 : 0.5 : 1"
       sodipodi:type="inkscape:persp3d" />
    <inkscape:perspective
       id="perspective6334-9"
       inkscape:persp3d-origin="0.5 : 0.33333333 : 1"
       inkscape:vp_z="1 : 0.5 : 1"
       inkscape:vp_y="0 : 1000 : 0"
       inkscape:vp_x="0 : 0.5 : 1"
       sodipodi:type="inkscape:persp3d" />
    <inkscape:perspective
       sodipodi:type="inkscape:persp3d"
       inkscape:vp_x="0 : 0.5 : 1"
       inkscape:vp_y="0 : 1000 : 0"
       inkscape:vp_z="1 : 0.5 : 1"
       inkscape:persp3d-origin="0.5 : 0.33333333 : 1"
       id="perspective5539-1" />
    <inkscape:perspective
       id="perspective22-4"
       inkscape:persp3d-origin="24 : 16 : 1"
       inkscape:vp_z="48 : 24 : 1"
       inkscape:vp_y="0 : 1000 : 0"
       inkscape:vp_x="0 : 24 : 1"
       sodipodi:type="inkscape:persp3d" />
    <inkscape:perspective
       id="perspective6336"
       inkscape:persp3d-origin="0.5 : 0.33333333 : 1"
       inkscape:vp_z="1 : 0.5 : 1"
       inkscape:vp_y="0 : 1000 : 0"
       inkscape:vp_x="0 : 0.5 : 1"
       sodipodi:type="inkscape:persp3d" />
  </defs>
  <metadata
     id="metadata7">
    <rdf:RDF>
      <cc:Work
         rdf:about="">
        <dc:format>image/svg+xml</dc:format>
        <dc:type
           rdf:resource="http://purl.org/dc/dcmitype/StillImage" />
        <dc:title />
      </cc:Work>
    </rdf:RDF>
  </metadata>
  <g
     style="display:inline"
     id="layer1"
     inkscape:groupmode="layer"
     inkscape:label="Layer 1">
    <path
       sodipodi:nodetypes="cccccc"
       style="fill:#000000;fill-opacity:1;stroke:none;display:inline"
       d="m 38.294833,2.5692529 c 0,-0.93365 -0.75168,-1.68534001 -1.68535,-1.68533001 l -31.1276362,0.087308 c 0,0 0,3.37066001 0,3.37066001 L 36.609483,4.2545829 c 0.93367,0 1.68535,-0.75163 1.68535,-1.68533 z"
       id="path6515" />
    <path
       style="fill:#000000;fill-opacity:1;stroke:none;display:inline"
       d="m 36.641886,0.88360607 c -0.93367,0 -1.6875,0.75381973 -1.6875,1.68749973 l 0,19.3412452 3.375,3.375 0,-22.7162452 c 0,-0.93368 -0.75381,-1.68749973 -1.6875,-1.68749973 z M 5.4856359,37.818601 c -0.9336795,0 -1.6875,0.7538 -1.6875,1.6875 9e-6,0.93366 0.7538205,1.6875 1.6875,1.6875 l 16.9062501,0 -3.375,-3.375 -13.5312501,0 z"
       id="path5547"
       sodipodi:nodetypes="cccccccscccc" />
    <path
       sodipodi:nodetypes="cccccc"
       style="fill:#000000;fill-opacity:1;stroke:none;display:inline"
       d="m 5.5094186,0.96426319 c -0.9336695,0 -1.6853495,0.75166001 -1.6853495,1.68534001 l 0,37.0027178 c 0,0 3.3706695,0 3.3706695,0 l 0,-37.0027178 c 0,-0.93368 -0.75163,-1.68534001 -1.68532,-1.68534001 z"
       id="path5540" />
    <path
       style="fill:#000000;fill-opacity:1;stroke:none;display:inline"
       d="m 31.500964,21.615184 c -0.426043,-0.0055 -0.857394,0.169896 -1.1875,0.5 l -10.96875,10.96875 c -0.280263,0.280263 -0.426432,0.635559 -0.46875,1 -0.0053,0.02228 -0.0269,0.04007 -0.03125,0.0625 -0.0032,0.04263 0,0.08227 0,0.125 -0.0612,0.497542 0.08588,1.023382 0.46875,1.40625 l 10.96875,10.96875 c 0.330106,0.330104 0.761457,0.474273 1.1875,0.46875 0.0316,0.0022 0.06211,-4.1e-4 0.09375,0 0.426043,0.0055 0.857394,-0.138646 1.1875,-0.46875 l 10.96875,-10.96875 c 0.382869,-0.382868 0.529946,-0.908708 0.46875,-1.40625 0,-0.04273 0.0032,-0.08237 0,-0.125 -0.0044,-0.02243 -0.02598,-0.04022 -0.03125,-0.0625 -0.04232,-0.364441 -0.188487,-0.719737 -0.46875,-1 l -10.96875,-10.96875 c -0.08953,-0.08953 -0.210766,-0.154203 -0.3125,-0.21875 -0.08512,-0.05719 -0.158495,-0.115966 -0.25,-0.15625 -0.0092,-0.0037 -0.02198,0.0035 -0.03125,0 -0.09129,-0.03842 -0.186133,-0.07213 -0.28125,-0.09375 -0.0104,-0.0019 -0.02082,0.0017 -0.03125,0 -0.105012,-0.02193 -0.205989,-0.02987 -0.3125,-0.03125 z m 0.03125,4.03125 8.71875,8.75 -8.71875,8.71875 -8.75,-8.71875 8.75,-8.75 z"
       id="path5569" />
  </g>
</svg>
