<?xml version="1.0" encoding="UTF-8" standalone="no"?>
<!-- Created with Inkscape (http://www.inkscape.org/) -->
<svg
   xmlns:dc="http://purl.org/dc/elements/1.1/"
   xmlns:cc="http://creativecommons.org/ns#"
   xmlns:rdf="http://www.w3.org/1999/02/22-rdf-syntax-ns#"
   xmlns:svg="http://www.w3.org/2000/svg"
   xmlns="http://www.w3.org/2000/svg"
   xmlns:sodipodi="http://sodipodi.sourceforge.net/DTD/sodipodi-0.dtd"
   xmlns:inkscape="http://www.inkscape.org/namespaces/inkscape"
   width="48"
   height="48"
   id="svg2"
   sodipodi:version="0.32"
   inkscape:version="0.46+devel r20679"
   sodipodi:docname="text-x-generic.svg"
   inkscape:output_extension="org.inkscape.output.svg.inkscape"
   inkscape:export-filename="/home/hbons/Desktop/Intel/svn/moblin-ui-docs/in progress/draft visual UI/icons/icons.png"
   inkscape:export-xdpi="60.476192"
   inkscape:export-ydpi="60.476192"
   version="1.0">
  <sodipodi:namedview
     id="base"
     pagecolor="#ffffff"
     bordercolor="#dcdcdc"
     borderopacity="1"
     gridtolerance="10000"
     guidetolerance="10"
     objecttolerance="10"
     inkscape:pageopacity="0"
     inkscape:pageshadow="2"
     inkscape:zoom="4"
     inkscape:cx="36.170445"
     inkscape:cy="18.958943"
     inkscape:document-units="px"
     inkscape:current-layer="layer1"
     showgrid="false"
     inkscape:window-width="1280"
     inkscape:window-height="750"
     inkscape:window-x="0"
     inkscape:window-y="0"
     inkscape:snap-intersection-line-segments="false"
     inkscape:snap-bbox="true"
     inkscape:snap-nodes="false"
     inkscape:bbox-paths="true"
     inkscape:showpageshadow="false"
     showguides="false"
     inkscape:guide-bbox="true"
     inkscape:bbox-nodes="true"
     inkscape:snap-global="false">
    <inkscape:grid
       enabled="true"
       visible="true"
       id="grid4079"
       type="xygrid"
       empspacing="5" />
    <sodipodi:guide
       id="guide7317"
       position="566.05335,854.14667"
       orientation="1,0" />
  </sodipodi:namedview>
  <defs
     id="defs4">
    <inkscape:perspective
       sodipodi:type="inkscape:persp3d"
       inkscape:vp_x="0 : 24 : 1"
       inkscape:vp_y="0 : 1000 : 0"
       inkscape:vp_z="48 : 24 : 1"
       inkscape:persp3d-origin="24 : 16 : 1"
       id="perspective22" />
    <inkscape:perspective
       id="perspective5539"
       inkscape:persp3d-origin="0.5 : 0.33333333 : 1"
       inkscape:vp_z="1 : 0.5 : 1"
       inkscape:vp_y="0 : 1000 : 0"
       inkscape:vp_x="0 : 0.5 : 1"
       sodipodi:type="inkscape:persp3d" />
    <inkscape:perspective
       sodipodi:type="inkscape:persp3d"
       inkscape:vp_x="0 : 0.5 : 1"
       inkscape:vp_y="0 : 1000 : 0"
       inkscape:vp_z="1 : 0.5 : 1"
       inkscape:persp3d-origin="0.5 : 0.33333333 : 1"
       id="perspective6334" />
    <inkscape:perspective
       sodipodi:type="inkscape:persp3d"
       inkscape:vp_x="0 : 0.5 : 1"
       inkscape:vp_y="0 : 1000 : 0"
       inkscape:vp_z="1 : 0.5 : 1"
       inkscape:persp3d-origin="0.5 : 0.33333333 : 1"
       id="perspective5534" />
    <inkscape:perspective
       sodipodi:type="inkscape:persp3d"
       inkscape:vp_x="0 : 0.5 : 1"
       inkscape:vp_y="0 : 1000 : 0"
       inkscape:vp_z="1 : 0.5 : 1"
       inkscape:persp3d-origin="0.5 : 0.33333333 : 1"
       id="perspective6327" />
    <inkscape:perspective
       id="perspective17"
       inkscape:persp3d-origin="24 : 16 : 1"
       inkscape:vp_z="48 : 24 : 1"
       inkscape:vp_y="0 : 1000 : 0"
       inkscape:vp_x="0 : 24 : 1"
       sodipodi:type="inkscape:persp3d" />
    <inkscape:perspective
       id="perspective5568"
       inkscape:persp3d-origin="0.5 : 0.33333333 : 1"
       inkscape:vp_z="1 : 0.5 : 1"
       inkscape:vp_y="0 : 1000 : 0"
       inkscape:vp_x="0 : 0.5 : 1"
       sodipodi:type="inkscape:persp3d" />
    <inkscape:perspective
       id="perspective5592"
       inkscape:persp3d-origin="0.5 : 0.33333333 : 1"
       inkscape:vp_z="1 : 0.5 : 1"
       inkscape:vp_y="0 : 1000 : 0"
       inkscape:vp_x="0 : 0.5 : 1"
       sodipodi:type="inkscape:persp3d" />
    <inkscape:perspective
       id="perspective5592-0"
       inkscape:persp3d-origin="0.5 : 0.33333333 : 1"
       inkscape:vp_z="1 : 0.5 : 1"
       inkscape:vp_y="0 : 1000 : 0"
       inkscape:vp_x="0 : 0.5 : 1"
       sodipodi:type="inkscape:persp3d" />
    <inkscape:perspective
       id="perspective5623"
       inkscape:persp3d-origin="0.5 : 0.33333333 : 1"
       inkscape:vp_z="1 : 0.5 : 1"
       inkscape:vp_y="0 : 1000 : 0"
       inkscape:vp_x="0 : 0.5 : 1"
       sodipodi:type="inkscape:persp3d" />
    <inkscape:perspective
       id="perspective2869"
       inkscape:persp3d-origin="0.5 : 0.33333333 : 1"
       inkscape:vp_z="1 : 0.5 : 1"
       inkscape:vp_y="0 : 1000 : 0"
       inkscape:vp_x="0 : 0.5 : 1"
       sodipodi:type="inkscape:persp3d" />
    <inkscape:perspective
       id="perspective2903"
       inkscape:persp3d-origin="0.5 : 0.33333333 : 1"
       inkscape:vp_z="1 : 0.5 : 1"
       inkscape:vp_y="0 : 1000 : 0"
       inkscape:vp_x="0 : 0.5 : 1"
       sodipodi:type="inkscape:persp3d" />
  </defs>
  <metadata
     id="metadata7">
    <rdf:RDF>
      <cc:Work
         rdf:about="">
        <dc:format>image/svg+xml</dc:format>
        <dc:type
           rdf:resource="http://purl.org/dc/dcmitype/StillImage" />
        <dc:title />
      </cc:Work>
    </rdf:RDF>
  </metadata>
  <g
     style="display:inline"
     id="layer1"
     inkscape:groupmode="layer"
     inkscape:label="Layer 1">
    <g
       id="g2934"
       transform="translate(0.002053,0.00132775)">
      <path
         id="path6515"
         d="m 41.200129,5.526013 c 0,-0.93365 -0.75168,-1.68534 -1.68535,-1.68533 L 8.4178037,3.927991 c 0,0 0,3.37066 0,3.37066 L 39.514779,7.211343 c 0.93367,0 1.68535,-0.75163 1.68535,-1.68533 z"
         style="fill:#000000;fill-opacity:1;stroke:none;display:inline"
         sodipodi:nodetypes="cccccc" />
      <path
         sodipodi:nodetypes="cccccc"
         style="fill:#000000;fill-opacity:1;stroke:none;display:inline"
         d="m 39.566525,3.8380275 c -0.93367,0 -1.68535,0.75166 -1.68535,1.68534 l 0,36.9334945 c 0,0 3.37067,0 3.37067,0 l 0,-36.9334945 c 0,-0.93368 -0.75163,-1.68534 -1.68532,-1.68534 z"
         id="path5547" />
      <path
         sodipodi:nodetypes="csccscc"
         id="path5538"
         d="m 8.4278715,40.784317 c -0.9336795,0 -1.6874985,0.7538 -1.6874985,1.6875 9e-6,0.93366 0.75382,1.6875 1.6874995,1.6875 l 31.1713985,0 c 0.93368,0 1.65624,-0.75384 1.65625,-1.6875 0,-0.9337 -0.72257,-1.6875 -1.65625,-1.6875 l -31.1713995,0 z"
         style="fill:#000000;fill-opacity:1;stroke:none;display:inline" />
      <path
         id="path5540"
         d="m 8.4453755,3.9210233 c -0.9336695,0 -1.6853495,0.75166 -1.6853495,1.68534 l 0,37.0027177 c 0,0 3.37067,0 3.37067,0 l 0,-37.0027177 c 0,-0.93368 -0.7516305,-1.68534 -1.6853205,-1.68534 z"
         style="fill:#000000;fill-opacity:1;stroke:none;display:inline"
         sodipodi:nodetypes="cccccc" />
    </g>
    <g
       id="g2926"
       transform="translate(0.021216,0.922796)">
      <path
         style="fill:#000000;fill-opacity:1;stroke:none;display:inline"
         d="m 15.179053,18.074542 c -0.93368,0 -1.687499,0.7538 -1.687499,1.6875 9e-6,0.93366 0.75382,1.6875 1.687499,1.6875 l 17.630711,0 c 0.93368,0 1.65624,-0.75384 1.65625,-1.6875 0,-0.9337 -0.72257,-1.6875 -1.65625,-1.6875 l -17.630711,0 z"
         id="path2887"
         sodipodi:nodetypes="csccscc" />
      <path
         sodipodi:nodetypes="csccscc"
         id="path2889"
         d="m 15.179053,24.80068 c -0.93368,0 -1.687499,0.7538 -1.687499,1.6875 9e-6,0.93366 0.75382,1.6875 1.687499,1.6875 l 17.630711,0 c 0.93368,0 1.65624,-0.75384 1.65625,-1.6875 0,-0.9337 -0.72257,-1.6875 -1.65625,-1.6875 l -17.630711,0 z"
         style="fill:#000000;fill-opacity:1;stroke:none;display:inline" />
      <path
         sodipodi:nodetypes="csccscc"
         id="path2891"
         d="m 15.179053,11.333074 c -0.93368,0 -1.687499,0.7538 -1.687499,1.6875 9e-6,0.93366 0.75382,1.6875 1.687499,1.6875 l 17.630711,0 c 0.93368,0 1.65624,-0.75384 1.65625,-1.6875 0,-0.9337 -0.72257,-1.6875 -1.65625,-1.6875 l -17.630711,0 z"
         style="fill:#000000;fill-opacity:1;stroke:none;display:inline" />
      <path
         sodipodi:nodetypes="csccscc"
         id="path2893"
         d="m 15.179053,31.446334 c -0.93368,0 -1.687499,0.7538 -1.687499,1.6875 9e-6,0.93366 0.75382,1.6875 1.687499,1.6875 l 14.075155,0 c 0.93368,0 1.65624,-0.75384 1.65625,-1.6875 0,-0.9337 -0.72257,-1.6875 -1.65625,-1.6875 l -14.075155,0 z"
         style="fill:#000000;fill-opacity:1;stroke:none;display:inline" />
    </g>
  </g>
</svg>
