<?xml version="1.0" encoding="UTF-8" standalone="no"?>
<!-- Created with Inkscape (http://www.inkscape.org/) -->
<svg
   xmlns:dc="http://purl.org/dc/elements/1.1/"
   xmlns:cc="http://creativecommons.org/ns#"
   xmlns:rdf="http://www.w3.org/1999/02/22-rdf-syntax-ns#"
   xmlns:svg="http://www.w3.org/2000/svg"
   xmlns="http://www.w3.org/2000/svg"
   xmlns:sodipodi="http://sodipodi.sourceforge.net/DTD/sodipodi-0.dtd"
   xmlns:inkscape="http://www.inkscape.org/namespaces/inkscape"
   width="48"
   height="48"
   id="svg2"
   sodipodi:version="0.32"
   inkscape:version="0.46+devel r20679"
   sodipodi:docname="text-html.svg"
   inkscape:output_extension="org.inkscape.output.svg.inkscape"
   inkscape:export-filename="/home/hbons/Desktop/Intel/svn/moblin-ui-docs/in progress/draft visual UI/icons/icons.png"
   inkscape:export-xdpi="60.476192"
   inkscape:export-ydpi="60.476192"
   version="1.0">
  <sodipodi:namedview
     id="base"
     pagecolor="#ffffff"
     bordercolor="#dcdcdc"
     borderopacity="1"
     gridtolerance="10000"
     guidetolerance="10"
     objecttolerance="10"
     inkscape:pageopacity="0"
     inkscape:pageshadow="2"
     inkscape:zoom="1"
     inkscape:cx="36.974853"
     inkscape:cy="17.611096"
     inkscape:document-units="px"
     inkscape:current-layer="layer1"
     showgrid="false"
     inkscape:window-width="1280"
     inkscape:window-height="750"
     inkscape:window-x="0"
     inkscape:window-y="0"
     inkscape:snap-intersection-line-segments="false"
     inkscape:snap-bbox="true"
     inkscape:snap-nodes="false"
     inkscape:bbox-paths="true"
     inkscape:showpageshadow="false"
     showguides="false"
     inkscape:guide-bbox="true"
     inkscape:bbox-nodes="true"
     inkscape:snap-global="false">
    <inkscape:grid
       enabled="true"
       visible="true"
       id="grid4079"
       type="xygrid"
       empspacing="5" />
    <sodipodi:guide
       id="guide7317"
       position="566.05335,854.14667"
       orientation="1,0" />
  </sodipodi:namedview>
  <defs
     id="defs4" />
  <metadata
     id="metadata7">
    <rdf:RDF>
      <cc:Work
         rdf:about="">
        <dc:format>image/svg+xml</dc:format>
        <dc:type
           rdf:resource="http://purl.org/dc/dcmitype/StillImage" />
        <dc:title />
      </cc:Work>
    </rdf:RDF>
  </metadata>
  <g
     style="display:inline"
     id="layer1"
     inkscape:groupmode="layer"
     inkscape:label="Layer 1">
    <path
       sodipodi:type="arc"
       style="fill:none;stroke:#000000;stroke-width:7.39470673;stroke-linecap:round;stroke-miterlimit:4;stroke-opacity:1;stroke-dasharray:none;stroke-dashoffset:0;display:inline"
       id="path5561"
       sodipodi:cx="-25.809397"
       sodipodi:cy="179.43886"
       sodipodi:rx="22.98097"
       sodipodi:ry="22.98097"
       d="m -2.8284264,179.43886 a 22.98097,22.98097 0 1 1 -45.9619406,0 22.98097,22.98097 0 1 1 45.9619406,0 z"
       transform="matrix(0.45607196,0,0,-0.45566136,42.852457,115.8426)" />
    <path
       sodipodi:nodetypes="cccccc"
       style="fill:#000000;fill-opacity:1;stroke:none;display:inline"
       d="m 39.204191,3.4490401 c 0,-0.93365 -0.75168,-1.68534 -1.68535,-1.68533 L 6.421866,1.8510181 c 0,0 0,3.37066 0,3.37066 l 31.096975,-0.087308 c 0.93367,0 1.68535,-0.75163 1.68535,-1.68533 z"
       id="path6515-4" />
    <path
       style="fill:#000000;fill-opacity:1;stroke:none;display:inline"
       d="m 37.564509,1.7654493 c -0.93367,0 -1.6875,0.75382 -1.6875,1.6875 l 0,17.5937497 c 1.214915,0.448827 2.344577,1.060403 3.375,1.8125 l 0,-19.4062497 c 0,-0.93368 -0.75381,-1.6875 -1.6875,-1.6875 z m -31.125,36.9374997 c -0.933679,0 -1.6875,0.7538 -1.6875,1.6875 9e-6,0.93366 0.753821,1.6875 1.6875,1.6875 l 13.28125,0 c -0.726988,-1.026248 -1.320299,-2.172683 -1.75,-3.375 l -11.53125,0 z"
       id="path5547-2"
       sodipodi:nodetypes="cccccccscccc" />
    <path
       sodipodi:nodetypes="cccccc"
       style="fill:#000000;fill-opacity:1;stroke:none;display:inline"
       d="m 6.449438,1.8440504 c -0.93367,0 -1.68535,0.75166 -1.68535,1.68534 l 0,37.0027176 c 0,0 3.37067,0 3.37067,0 l 0,-37.0027176 c 0,-0.93368 -0.75163,-1.68534 -1.68532,-1.68534 z"
       id="path5540-8" />
    <path
       sodipodi:type="arc"
       style="fill:none;stroke:#000000;stroke-width:20.45133781;stroke-linecap:round;stroke-miterlimit:4;stroke-opacity:1;stroke-dasharray:none;stroke-dashoffset:0;display:inline"
       id="path2893"
       sodipodi:cx="-25.809397"
       sodipodi:cy="179.43886"
       sodipodi:rx="22.98097"
       sodipodi:ry="22.98097"
       d="m -2.8284264,179.43886 a 22.98097,22.98097 0 1 1 -45.9619406,0 22.98097,22.98097 0 1 1 45.9619406,0 z"
       transform="matrix(0.1649227,0,0,-0.16473792,35.338071,63.63963)" />
  </g>
</svg>
