<?xml version="1.0" encoding="UTF-8" standalone="no"?>
<!-- Created with Inkscape (http://www.inkscape.org/) -->
<svg
   xmlns:dc="http://purl.org/dc/elements/1.1/"
   xmlns:cc="http://creativecommons.org/ns#"
   xmlns:rdf="http://www.w3.org/1999/02/22-rdf-syntax-ns#"
   xmlns:svg="http://www.w3.org/2000/svg"
   xmlns="http://www.w3.org/2000/svg"
   xmlns:sodipodi="http://sodipodi.sourceforge.net/DTD/sodipodi-0.dtd"
   xmlns:inkscape="http://www.inkscape.org/namespaces/inkscape"
   width="48"
   height="48"
   id="svg2"
   sodipodi:version="0.32"
   inkscape:version="0.46+devel r20711"
   sodipodi:docname="application-x-executable.svg"
   inkscape:output_extension="org.inkscape.output.svg.inkscape"
   inkscape:export-filename="/home/hbons/Desktop/Intel/svn/moblin-ui-docs/in progress/draft visual UI/icons/icons.png"
   inkscape:export-xdpi="60.476192"
   inkscape:export-ydpi="60.476192"
   version="1.0">
  <sodipodi:namedview
     id="base"
     pagecolor="#ffffff"
     bordercolor="#dcdcdc"
     borderopacity="1"
     gridtolerance="10000"
     guidetolerance="10"
     objecttolerance="10"
     inkscape:pageopacity="0"
     inkscape:pageshadow="2"
     inkscape:zoom="1"
     inkscape:cx="49.651544"
     inkscape:cy="22.621619"
     inkscape:document-units="px"
     inkscape:current-layer="layer1"
     showgrid="false"
     inkscape:window-width="1278"
     inkscape:window-height="750"
     inkscape:window-x="0"
     inkscape:window-y="0"
     inkscape:snap-intersection-line-segments="false"
     inkscape:snap-bbox="true"
     inkscape:snap-nodes="false"
     inkscape:bbox-paths="true"
     inkscape:showpageshadow="false"
     showguides="false"
     inkscape:guide-bbox="true"
     inkscape:bbox-nodes="true"
     inkscape:snap-global="false">
    <inkscape:grid
       enabled="true"
       visible="true"
       id="grid4079"
       type="xygrid"
       empspacing="5" />
    <sodipodi:guide
       id="guide7317"
       position="566.05335,854.14667"
       orientation="1,0" />
  </sodipodi:namedview>
  <defs
     id="defs4">
    <inkscape:perspective
       sodipodi:type="inkscape:persp3d"
       inkscape:vp_x="0 : 24 : 1"
       inkscape:vp_y="0 : 1000 : 0"
       inkscape:vp_z="48 : 24 : 1"
       inkscape:persp3d-origin="24 : 16 : 1"
       id="perspective35" />
  </defs>
  <metadata
     id="metadata7">
    <rdf:RDF>
      <cc:Work
         rdf:about="">
        <dc:format>image/svg+xml</dc:format>
        <dc:type
           rdf:resource="http://purl.org/dc/dcmitype/StillImage" />
        <dc:title />
      </cc:Work>
    </rdf:RDF>
  </metadata>
  <g
     style="display:inline"
     id="layer1"
     inkscape:groupmode="layer"
     inkscape:label="Layer 1">
    <g
       id="g2923"
       transform="translate(-0.005749,-0.054911)">
      <path
         transform="matrix(0.16424416,0,0,-0.16405989,28.239042,53.453976)"
         d="m -2.8284264,179.43886 c 0,12.68549 -10.2954746,22.98097 -22.9809706,22.98097 -12.685495,0 -22.98097,-10.29548 -22.98097,-22.98097 0,-12.6855 10.295475,-22.98097 22.98097,-22.98097 12.685496,0 22.9809706,10.29547 22.9809706,22.98097 z"
         sodipodi:ry="22.98097"
         sodipodi:rx="22.98097"
         sodipodi:cy="179.43886"
         sodipodi:cx="-25.809397"
         id="path5560"
         style="fill:none;stroke:#000000;stroke-width:20.53379822;stroke-linecap:round;stroke-miterlimit:4;stroke-opacity:1;stroke-dasharray:none;stroke-dashoffset:0;display:inline"
         sodipodi:type="arc" />
      <path
         sodipodi:open="true"
         sodipodi:end="6.3747931"
         sodipodi:start="3.875656"
         sodipodi:type="arc"
         style="fill:none;stroke:#000000;stroke-width:36.09876633;stroke-linecap:round;stroke-miterlimit:4;stroke-opacity:1;stroke-dasharray:none;stroke-dashoffset:0;display:inline"
         id="path2869"
         sodipodi:cx="-25.809397"
         sodipodi:cy="179.43886"
         sodipodi:rx="22.98097"
         sodipodi:ry="22.98097"
         d="m -42.871814,164.04409 c 8.497912,-9.41846 23.038731,-10.16556 32.457186,-1.66765 5.5663075,5.02227 8.1756763,11.69902 7.489841,19.16471"
         transform="matrix(0.09290962,0,0,-0.09383947,20.906417,27.64025)" />
      <path
         transform="matrix(-0.09290962,0,0,-0.09383947,27.066465,27.64025)"
         d="m -42.871814,164.04409 c 8.497912,-9.41846 23.038731,-10.16556 32.457186,-1.66765 5.5663075,5.02227 8.1756763,11.69902 7.489841,19.16471"
         sodipodi:ry="22.98097"
         sodipodi:rx="22.98097"
         sodipodi:cy="179.43886"
         sodipodi:cx="-25.809397"
         id="path3643"
         style="fill:none;stroke:#000000;stroke-width:36.09876633;stroke-linecap:round;stroke-miterlimit:4;stroke-opacity:1;stroke-dasharray:none;stroke-dashoffset:0;display:inline"
         sodipodi:type="arc"
         sodipodi:start="3.875656"
         sodipodi:end="6.3747931"
         sodipodi:open="true" />
      <path
         transform="matrix(0.09290962,0,0,0.09383947,20.906417,20.442867)"
         d="m -42.871814,164.04409 c 8.497912,-9.41846 23.038731,-10.16556 32.457186,-1.66765 5.5663075,5.02227 8.1756763,11.69902 7.489841,19.16471"
         sodipodi:ry="22.98097"
         sodipodi:rx="22.98097"
         sodipodi:cy="179.43886"
         sodipodi:cx="-25.809397"
         id="path3645"
         style="fill:none;stroke:#000000;stroke-width:36.09876633;stroke-linecap:round;stroke-miterlimit:4;stroke-opacity:1;stroke-dasharray:none;stroke-dashoffset:0;display:inline"
         sodipodi:type="arc"
         sodipodi:start="3.875656"
         sodipodi:end="6.3747931"
         sodipodi:open="true" />
      <path
         sodipodi:open="true"
         sodipodi:end="6.3747931"
         sodipodi:start="3.875656"
         sodipodi:type="arc"
         style="fill:none;stroke:#000000;stroke-width:36.09876633;stroke-linecap:round;stroke-miterlimit:4;stroke-opacity:1;stroke-dasharray:none;stroke-dashoffset:0;display:inline"
         id="path3647"
         sodipodi:cx="-25.809397"
         sodipodi:cy="179.43886"
         sodipodi:rx="22.98097"
         sodipodi:ry="22.98097"
         d="m -42.871814,164.04409 c 8.497912,-9.41846 23.038731,-10.16556 32.457186,-1.66765 5.5663075,5.02227 8.1756763,11.69902 7.489841,19.16471"
         transform="matrix(-0.09290962,0,0,0.09383947,27.066465,20.442867)" />
      <path
         sodipodi:open="true"
         sodipodi:end="6.3747931"
         sodipodi:start="3.875656"
         sodipodi:type="arc"
         style="fill:none;stroke:#000000;stroke-width:36.09876633;stroke-linecap:round;stroke-miterlimit:4;stroke-opacity:1;stroke-dasharray:none;stroke-dashoffset:0;display:inline"
         id="path3649"
         sodipodi:cx="-25.809397"
         sodipodi:cy="179.43886"
         sodipodi:rx="22.98097"
         sodipodi:ry="22.98097"
         d="m -42.871814,164.04409 c 8.497912,-9.41846 23.038731,-10.16556 32.457186,-1.66765 5.5663075,5.02227 8.1756763,11.69902 7.489841,19.16471"
         transform="matrix(0,0.09290962,-0.09383947,0,27.56457,20.899915)" />
      <path
         transform="matrix(0,-0.09290962,-0.09383947,0,27.56457,27.059963)"
         d="m -42.871814,164.04409 c 8.497912,-9.41846 23.038731,-10.16556 32.457186,-1.66765 5.5663075,5.02227 8.1756763,11.69902 7.489841,19.16471"
         sodipodi:ry="22.98097"
         sodipodi:rx="22.98097"
         sodipodi:cy="179.43886"
         sodipodi:cx="-25.809397"
         id="path3651"
         style="fill:none;stroke:#000000;stroke-width:36.09876633;stroke-linecap:round;stroke-miterlimit:4;stroke-opacity:1;stroke-dasharray:none;stroke-dashoffset:0;display:inline"
         sodipodi:type="arc"
         sodipodi:start="3.875656"
         sodipodi:end="6.3747931"
         sodipodi:open="true" />
      <path
         transform="matrix(0,0.09290962,0.09383947,0,20.446037,20.899915)"
         d="m -42.871814,164.04409 c 8.497912,-9.41846 23.038731,-10.16556 32.457186,-1.66765 5.5663075,5.02227 8.1756763,11.69902 7.489841,19.16471"
         sodipodi:ry="22.98097"
         sodipodi:rx="22.98097"
         sodipodi:cy="179.43886"
         sodipodi:cx="-25.809397"
         id="path3653"
         style="fill:none;stroke:#000000;stroke-width:36.09876633;stroke-linecap:round;stroke-miterlimit:4;stroke-opacity:1;stroke-dasharray:none;stroke-dashoffset:0;display:inline"
         sodipodi:type="arc"
         sodipodi:start="3.875656"
         sodipodi:end="6.3747931"
         sodipodi:open="true" />
      <path
         sodipodi:open="true"
         sodipodi:end="6.3747931"
         sodipodi:start="3.875656"
         sodipodi:type="arc"
         style="fill:none;stroke:#000000;stroke-width:36.09876633;stroke-linecap:round;stroke-miterlimit:4;stroke-opacity:1;stroke-dasharray:none;stroke-dashoffset:0;display:inline"
         id="path3655"
         sodipodi:cx="-25.809397"
         sodipodi:cy="179.43886"
         sodipodi:rx="22.98097"
         sodipodi:ry="22.98097"
         d="m -42.871814,164.04409 c 8.497912,-9.41846 23.038731,-10.16556 32.457186,-1.66765 5.5663075,5.02227 8.1756763,11.69902 7.489841,19.16471"
         transform="matrix(0,-0.09290962,0.09383947,0,20.446037,27.059963)" />
      <path
         sodipodi:open="true"
         sodipodi:end="3.1415927"
         sodipodi:start="0"
         sodipodi:type="arc"
         style="fill:none;stroke:#000000;stroke-width:23.15584946;stroke-linecap:round;stroke-miterlimit:4;stroke-opacity:1;stroke-dasharray:none;stroke-dashoffset:0;display:inline"
         id="path2907"
         sodipodi:cx="-25.809397"
         sodipodi:cy="179.43886"
         sodipodi:rx="22.98097"
         sodipodi:ry="22.98097"
         d="m -2.8284264,179.43886 c 0,12.68549 -10.2954746,22.98097 -22.9809706,22.98097 -12.685495,0 -22.98097,-10.29548 -22.98097,-22.98097 0,0 0,0 0,0"
         transform="matrix(0.14564921,0,0,-0.14547936,27.764867,36.328496)" />
      <path
         transform="matrix(0.14564921,0,0,0.14547936,27.764867,11.781326)"
         d="m -2.8284264,179.43886 c 0,12.68549 -10.2954746,22.98097 -22.9809706,22.98097 -12.685495,0 -22.98097,-10.29548 -22.98097,-22.98097 0,0 0,0 0,0"
         sodipodi:ry="22.98097"
         sodipodi:rx="22.98097"
         sodipodi:cy="179.43886"
         sodipodi:cx="-25.809397"
         id="path2909"
         style="fill:none;stroke:#000000;stroke-width:23.15584946;stroke-linecap:round;stroke-miterlimit:4;stroke-opacity:1;stroke-dasharray:none;stroke-dashoffset:0;display:inline"
         sodipodi:type="arc"
         sodipodi:start="0"
         sodipodi:end="3.1415927"
         sodipodi:open="true" />
      <path
         transform="matrix(0,-0.14564921,-0.14547936,0,36.279334,20.295793)"
         d="m -2.8284264,179.43886 c 0,12.68549 -10.2954746,22.98097 -22.9809706,22.98097 -12.685495,0 -22.98097,-10.29548 -22.98097,-22.98097 0,0 0,0 0,0"
         sodipodi:ry="22.98097"
         sodipodi:rx="22.98097"
         sodipodi:cy="179.43886"
         sodipodi:cx="-25.809397"
         id="path2911"
         style="fill:none;stroke:#000000;stroke-width:23.15584946;stroke-linecap:round;stroke-miterlimit:4;stroke-opacity:1;stroke-dasharray:none;stroke-dashoffset:0;display:inline"
         sodipodi:type="arc"
         sodipodi:start="0"
         sodipodi:end="3.1415927"
         sodipodi:open="true" />
      <path
         sodipodi:open="true"
         sodipodi:end="3.1415927"
         sodipodi:start="0"
         sodipodi:type="arc"
         style="fill:none;stroke:#000000;stroke-width:23.15584946;stroke-linecap:round;stroke-miterlimit:4;stroke-opacity:1;stroke-dasharray:none;stroke-dashoffset:0;display:inline"
         id="path2913"
         sodipodi:cx="-25.809397"
         sodipodi:cy="179.43886"
         sodipodi:rx="22.98097"
         sodipodi:ry="22.98097"
         d="m -2.8284264,179.43886 c 0,12.68549 -10.2954746,22.98097 -22.9809706,22.98097 -12.685495,0 -22.98097,-10.29548 -22.98097,-22.98097 0,0 0,0 0,0"
         transform="matrix(0,-0.14564921,0.14547936,0,11.732164,20.295793)" />
      <path
         sodipodi:open="true"
         sodipodi:end="3.1415927"
         sodipodi:start="0"
         sodipodi:type="arc"
         style="fill:none;stroke:#000000;stroke-width:23.15584946;stroke-linecap:round;stroke-miterlimit:4;stroke-opacity:1;stroke-dasharray:none;stroke-dashoffset:0;display:inline"
         id="path2915"
         sodipodi:cx="-25.809397"
         sodipodi:cy="179.43886"
         sodipodi:rx="22.98097"
         sodipodi:ry="22.98097"
         d="m -2.8284264,179.43886 c 0,12.68549 -10.2954746,22.98097 -22.9809706,22.98097 -12.685495,0 -22.98097,-10.29548 -22.98097,-22.98097 0,0 0,0 0,0"
         transform="matrix(-0.10298954,-0.10298954,-0.10286944,0.10286944,30.026386,12.718078)" />
      <path
         transform="matrix(-0.10298954,-0.10298954,0.10286944,-0.10286944,12.668916,30.075548)"
         d="m -2.8284264,179.43886 c 0,12.68549 -10.2954746,22.98097 -22.9809706,22.98097 -12.685495,0 -22.98097,-10.29548 -22.98097,-22.98097 0,0 0,0 0,0"
         sodipodi:ry="22.98097"
         sodipodi:rx="22.98097"
         sodipodi:cy="179.43886"
         sodipodi:cx="-25.809397"
         id="path2917"
         style="fill:none;stroke:#000000;stroke-width:23.15584946;stroke-linecap:round;stroke-miterlimit:4;stroke-opacity:1;stroke-dasharray:none;stroke-dashoffset:0;display:inline"
         sodipodi:type="arc"
         sodipodi:start="0"
         sodipodi:end="3.1415927"
         sodipodi:open="true" />
      <path
         transform="matrix(-0.10298954,0.10298954,0.10286944,0.10286944,12.668916,18.034274)"
         d="m -2.8284264,179.43886 c 0,12.68549 -10.2954746,22.98097 -22.9809706,22.98097 -12.685495,0 -22.98097,-10.29548 -22.98097,-22.98097 0,0 0,0 0,0"
         sodipodi:ry="22.98097"
         sodipodi:rx="22.98097"
         sodipodi:cy="179.43886"
         sodipodi:cx="-25.809397"
         id="path2919"
         style="fill:none;stroke:#000000;stroke-width:23.15584946;stroke-linecap:round;stroke-miterlimit:4;stroke-opacity:1;stroke-dasharray:none;stroke-dashoffset:0;display:inline"
         sodipodi:type="arc"
         sodipodi:start="0"
         sodipodi:end="3.1415927"
         sodipodi:open="true" />
      <path
         sodipodi:open="true"
         sodipodi:end="3.1415927"
         sodipodi:start="0"
         sodipodi:type="arc"
         style="fill:none;stroke:#000000;stroke-width:23.15584946;stroke-linecap:round;stroke-miterlimit:4;stroke-opacity:1;stroke-dasharray:none;stroke-dashoffset:0;display:inline"
         id="path2921"
         sodipodi:cx="-25.809397"
         sodipodi:cy="179.43886"
         sodipodi:rx="22.98097"
         sodipodi:ry="22.98097"
         d="m -2.8284264,179.43886 c 0,12.68549 -10.2954746,22.98097 -22.9809706,22.98097 -12.685495,0 -22.98097,-10.29548 -22.98097,-22.98097 0,0 0,0 0,0"
         transform="matrix(-0.10298954,0.10298954,-0.10286944,-0.10286944,30.026386,35.391744)" />
    </g>
  </g>
</svg>
