<?xml version="1.0" encoding="UTF-8" standalone="no"?>
<!-- Created with Inkscape (http://www.inkscape.org/) -->
<svg
   xmlns:dc="http://purl.org/dc/elements/1.1/"
   xmlns:cc="http://creativecommons.org/ns#"
   xmlns:rdf="http://www.w3.org/1999/02/22-rdf-syntax-ns#"
   xmlns:svg="http://www.w3.org/2000/svg"
   xmlns="http://www.w3.org/2000/svg"
   xmlns:xlink="http://www.w3.org/1999/xlink"
   xmlns:sodipodi="http://sodipodi.sourceforge.net/DTD/sodipodi-0.dtd"
   xmlns:inkscape="http://www.inkscape.org/namespaces/inkscape"
   width="48"
   height="48"
   id="svg2"
   sodipodi:version="0.32"
   inkscape:version="0.46+devel r20711"
   sodipodi:docname="emblem-favorite.svg"
   inkscape:output_extension="org.inkscape.output.svg.inkscape"
   inkscape:export-filename="/home/hbons/Desktop/Intel/svn/moblin-ui-docs/in progress/draft visual UI/icons/icons.png"
   inkscape:export-xdpi="60.476192"
   inkscape:export-ydpi="60.476192"
   version="1.0">
  <sodipodi:namedview
     id="base"
     pagecolor="#ffffff"
     bordercolor="#dcdcdc"
     borderopacity="1"
     gridtolerance="10000"
     guidetolerance="10"
     objecttolerance="10"
     inkscape:pageopacity="0"
     inkscape:pageshadow="2"
     inkscape:zoom="8"
     inkscape:cx="35.161972"
     inkscape:cy="24.37406"
     inkscape:document-units="px"
     inkscape:current-layer="layer1"
     showgrid="false"
     inkscape:window-width="1278"
     inkscape:window-height="750"
     inkscape:window-x="0"
     inkscape:window-y="0"
     inkscape:snap-intersection-line-segments="false"
     inkscape:snap-bbox="true"
     inkscape:snap-nodes="false"
     inkscape:bbox-paths="true"
     inkscape:showpageshadow="false"
     showguides="false"
     inkscape:guide-bbox="true"
     inkscape:bbox-nodes="true"
     inkscape:snap-global="false">
    <inkscape:grid
       enabled="true"
       visible="true"
       id="grid4079"
       type="xygrid"
       empspacing="5" />
    <sodipodi:guide
       id="guide7317"
       position="566.05335,854.14667"
       orientation="1,0" />
  </sodipodi:namedview>
  <defs
     id="defs4">
    <inkscape:perspective
       sodipodi:type="inkscape:persp3d"
       inkscape:vp_x="0 : 24 : 1"
       inkscape:vp_y="0 : 1000 : 0"
       inkscape:vp_z="48 : 24 : 1"
       inkscape:persp3d-origin="24 : 16 : 1"
       id="perspective24" />
    <inkscape:perspective
       id="perspective18"
       inkscape:persp3d-origin="24 : 16 : 1"
       inkscape:vp_z="48 : 24 : 1"
       inkscape:vp_y="0 : 1000 : 0"
       inkscape:vp_x="0 : 24 : 1"
       sodipodi:type="inkscape:persp3d" />
    <inkscape:perspective
       id="perspective2938"
       inkscape:persp3d-origin="24 : 16 : 1"
       inkscape:vp_z="48 : 24 : 1"
       inkscape:vp_y="0 : 1000 : 0"
       inkscape:vp_x="0 : 24 : 1"
       sodipodi:type="inkscape:persp3d" />
    <inkscape:perspective
       id="perspective3746"
       inkscape:persp3d-origin="0.5 : 0.33333333 : 1"
       inkscape:vp_z="1 : 0.5 : 1"
       inkscape:vp_y="0 : 1000 : 0"
       inkscape:vp_x="0 : 0.5 : 1"
       sodipodi:type="inkscape:persp3d" />
    <inkscape:perspective
       id="perspective3816"
       inkscape:persp3d-origin="0.5 : 0.33333333 : 1"
       inkscape:vp_z="1 : 0.5 : 1"
       inkscape:vp_y="0 : 1000 : 0"
       inkscape:vp_x="0 : 0.5 : 1"
       sodipodi:type="inkscape:persp3d" />
  </defs>
  <metadata
     id="metadata7">
    <rdf:RDF>
      <cc:Work
         rdf:about="">
        <dc:format>image/svg+xml</dc:format>
        <dc:type
           rdf:resource="http://purl.org/dc/dcmitype/StillImage" />
        <dc:title></dc:title>
      </cc:Work>
    </rdf:RDF>
  </metadata>
  <g
     style="display:inline"
     id="layer1"
     inkscape:groupmode="layer"
     inkscape:label="Layer 1">
    <g
       id="g3830">
      <rect
         y="8.4659243"
         x="7.7909222"
         height="31.089703"
         width="32.22414"
         id="rect3628"
         style="fill:#ffffff;fill-opacity:1;stroke:none" />
      <g
         transform="matrix(1.1369331,0,0,1.1369331,-79.585008,16.9503)"
         id="g5599" />
      <g
         style="opacity:0.68279569;stroke:#707070;stroke-width:0.89643699;stroke-opacity:1"
         id="g6374"
         transform="matrix(1.4473033,0,0,1.4473026,-91.602178,14.061763)">
        <g
           style="stroke:#707070;stroke-width:0.89643699;stroke-opacity:1"
           id="g6376"
           transform="translate(4.2092501,-3.9419057)" />
      </g>
      <g
         transform="translate(-0.0062994,0.02874291)"
         id="g3891">
        <rect
           transform="matrix(0,1,-1,0,0,0)"
           style="fill:#ffffff;fill-opacity:1;stroke:none"
           id="rect6456-0"
           width="28.267931"
           height="3.3710001"
           x="9.919714"
           y="-8.8417501"
           rx="1.6855003"
           ry="1.6855" />
        <rect
           transform="matrix(0,1,-1,0,0,0)"
           style="fill:#ffffff;fill-opacity:1;stroke:none"
           id="rect5746-4"
           width="28.898413"
           height="3.3710001"
           x="9.6458788"
           y="-42.529247"
           rx="1.6854999"
           ry="1.6855" />
        <rect
           style="fill:#ffffff;fill-opacity:1;stroke:none"
           id="rect5824-5"
           width="29.258284"
           height="3.3710001"
           x="9.3194952"
           y="5.7805519"
           rx="1.6855"
           ry="1.6855" />
        <rect
           style="fill:#ffffff;fill-opacity:1;stroke:none"
           id="rect5826-4"
           width="29.006187"
           height="3.3710001"
           x="9.4226294"
           y="38.790962"
           rx="1.6854999"
           ry="1.6855" />
        <path
           sodipodi:type="arc"
           style="fill:none;stroke:#ffffff;stroke-width:20.45133781;stroke-linecap:round;stroke-miterlimit:4;stroke-opacity:1;stroke-dasharray:none;stroke-dashoffset:0;display:inline"
           id="path3851-1"
           sodipodi:cx="-25.809397"
           sodipodi:cy="179.43886"
           sodipodi:rx="22.98097"
           sodipodi:ry="22.98097"
           d="m -9.5593975,163.18886 c 8.97000043,8.97 8.97000107,23.53 1.5e-6,32.5 -5e-7,0 -8e-7,0 -1.2e-6,0"
           transform="matrix(-0.11661796,-0.11661796,0.1164873,-0.1164873,-12.941731,29.159871)"
           sodipodi:start="5.4977871"
           sodipodi:end="7.0685835"
           sodipodi:open="true" />
        <path
           sodipodi:open="true"
           sodipodi:end="7.0685835"
           sodipodi:start="5.4977871"
           transform="matrix(-0.11661796,0.11661796,0.1164873,0.1164873,-12.941731,18.792772)"
           d="m -9.5593975,163.18886 c 8.97000043,8.97 8.97000107,23.53 1.5e-6,32.5 -5e-7,0 -8e-7,0 -1.2e-6,0"
           sodipodi:ry="22.98097"
           sodipodi:rx="22.98097"
           sodipodi:cy="179.43886"
           sodipodi:cx="-25.809397"
           id="path3878"
           style="fill:none;stroke:#ffffff;stroke-width:20.45133781;stroke-linecap:round;stroke-miterlimit:4;stroke-opacity:1;stroke-dasharray:none;stroke-dashoffset:0;display:inline"
           sodipodi:type="arc" />
        <path
           sodipodi:type="arc"
           style="fill:none;stroke:#ffffff;stroke-width:20.45133781;stroke-linecap:round;stroke-miterlimit:4;stroke-opacity:1;stroke-dasharray:none;stroke-dashoffset:0;display:inline"
           id="path3880"
           sodipodi:cx="-25.809397"
           sodipodi:cy="179.43886"
           sodipodi:rx="22.98097"
           sodipodi:ry="22.98097"
           d="m -9.5593975,163.18886 c 8.97000043,8.97 8.97000107,23.53 1.5e-6,32.5 -5e-7,0 -8e-7,0 -1.2e-6,0"
           transform="matrix(0.11661796,0.11661796,-0.1164873,0.1164873,60.939257,18.792772)"
           sodipodi:start="5.4977871"
           sodipodi:end="7.0685835"
           sodipodi:open="true" />
        <path
           sodipodi:open="true"
           sodipodi:end="7.0685835"
           sodipodi:start="5.4977871"
           transform="matrix(0.11661796,-0.11661796,-0.1164873,-0.1164873,60.980575,29.157955)"
           d="m -9.5593975,163.18886 c 8.97000043,8.97 8.97000107,23.53 1.5e-6,32.5 -5e-7,0 -8e-7,0 -1.2e-6,0"
           sodipodi:ry="22.98097"
           sodipodi:rx="22.98097"
           sodipodi:cy="179.43886"
           sodipodi:cx="-25.809397"
           id="path3882"
           style="fill:none;stroke:#ffffff;stroke-width:20.45133781;stroke-linecap:round;stroke-miterlimit:4;stroke-opacity:1;stroke-dasharray:none;stroke-dashoffset:0;display:inline"
           sodipodi:type="arc" />
      </g>
    </g>
    <g
       style="display:inline"
       id="g3799"
       transform="translate(0.9640385,-0.82780604)">
      <path
         style="fill:#ffffff;fill-opacity:1;stroke:none;display:inline"
         d="m 24.252582,34.035706 c -0.660212,0.660212 -1.776865,0.606538 -2.503689,-0.1203 l -8.548607,-8.548635 c -0.726891,-0.726849 -0.780526,-1.843463 -0.120293,-2.503696 0.660183,-0.660183 1.776825,-0.606576 2.503695,0.120294 l 8.548614,8.548628 c 0.726837,0.726825 0.780484,1.843505 0.12028,2.503709 z"
         id="path7330-1"
         sodipodi:nodetypes="cccsccc" />
      <path
         sodipodi:open="true"
         sodipodi:end="3.9269908"
         sodipodi:start="0.26179939"
         transform="matrix(0.19416046,7.0895421e-4,6.5057126e-4,-0.19344377,22.742373,56.019286)"
         d="m -3.611484,185.38677 c -3.2832478,12.25325 -15.892578,19.53325 -28.145826,16.25 -12.253247,-3.28325 -19.533247,-15.89258 -16.25,-28.14582 1.094416,-4.08442 2.957913,-7.31209 5.947913,-10.30209"
         sodipodi:ry="22.98097"
         sodipodi:rx="22.98097"
         sodipodi:cy="179.43886"
         sodipodi:cx="-25.809397"
         style="fill:none;stroke:#ffffff;stroke-width:17.39221573;stroke-linecap:round;stroke-miterlimit:4;stroke-opacity:1;stroke-dasharray:none;stroke-dashoffset:0;display:inline"
         sodipodi:type="arc"
         id="path2960" />
      <path
         id="path2962"
         sodipodi:type="arc"
         style="fill:none;stroke:#ffffff;stroke-width:17.39221573;stroke-linecap:round;stroke-miterlimit:4;stroke-opacity:1;stroke-dasharray:none;stroke-dashoffset:0;display:inline"
         sodipodi:cx="-25.809397"
         sodipodi:cy="179.43886"
         sodipodi:rx="22.98097"
         sodipodi:ry="22.98097"
         d="m -3.611484,185.38677 c -3.2832478,12.25325 -15.892578,19.53325 -28.145826,16.25 -12.253247,-3.28325 -19.533247,-15.89258 -16.25,-28.14582 1.094416,-4.08442 2.957913,-7.31209 5.947913,-10.30209"
         transform="matrix(-0.19416046,7.0895421e-4,-6.5057126e-4,-0.19344377,23.32955,56.019286)"
         sodipodi:start="0.26179939"
         sodipodi:end="3.9269908"
         sodipodi:open="true" />
      <path
         d="M 19.46875,18.0625 C 18.962922,18.087846 18.459608,18.230651 18,18.5 c -1.175279,0.688759 -1.803129,2.071057 -1.53125,3.375 0.0948,0.454669 0.219206,0.875028 0.71875,1.46875 0.499544,0.593722 1.36842,1.484355 3.125,3.25 0.884776,0.889342 1.691813,1.690466 2.28125,2.28125 0.294718,0.295392 0.549823,0.551485 0.71875,0.71875 0.08446,0.08363 0.139003,0.140708 0.1875,0.1875 0.02425,0.0234 0.04401,0.04554 0.0625,0.0625 0.0092,0.0085 0.01609,0.0186 0.03125,0.03125 0.0076,0.0063 0.0099,-0.01506 0.03125,0 0.01066,0.0075 0.06217,0.06232 0.0625,0.0625 1.65e-4,9e-5 0.06238,0.0312 0.0625,0.03125 1.22e-4,4.5e-5 0.187422,0.03125 0.1875,0.03125 2.43e-4,0 0.218322,-0.06231 0.21875,-0.0625 4.28e-4,-1.89e-4 0.049,-0.02293 0.0625,-0.03125 0.027,-0.01663 0.02121,-0.02355 0.03125,-0.03125 0.02008,-0.01539 0.05126,-0.02143 0.0625,-0.03125 0.02247,-0.01963 0.03583,-0.03745 0.0625,-0.0625 0.05334,-0.0501 0.13006,-0.132173 0.21875,-0.21875 0.17738,-0.173154 0.423083,-0.424119 0.71875,-0.71875 0.591335,-0.589262 1.368,-1.360312 2.15625,-2.15625 0.78825,-0.795938 1.577766,-1.595268 2.1875,-2.21875 0.304867,-0.311741 0.559276,-0.582774 0.75,-0.78125 0.09536,-0.09924 0.190447,-0.186296 0.25,-0.25 0.05955,-0.0637 0.06989,-0.08432 0.125,-0.15625 0.408251,-0.532822 0.654366,-1.100346 0.6875,-1.78125 0.07325,-1.505186 -0.821341,-2.798366 -2.25,-3.28125 -0.735464,-0.248585 -1.589538,-0.213518 -2.3125,0.125 -0.317598,0.148713 -0.652466,0.38498 -0.90625,0.625 -0.217239,0.205456 -0.435771,0.464366 -0.59375,0.71875 -0.07899,0.127192 -0.13243,0.249917 -0.1875,0.375 -0.05507,0.125083 -0.122657,0.236432 -0.125,0.4375 7.9e-5,-0.0067 -0.06617,0.194723 -0.21875,0.375 -0.152584,0.180277 -0.352679,0.336447 -0.46875,0.375 -0.289984,0.09632 -0.905183,0.04801 -1.09375,-0.0625 -0.118429,-0.0694 -0.290966,-0.221169 -0.40625,-0.375 -0.115284,-0.153831 -0.125,-0.343388 -0.125,-0.28125 0,-0.389334 -0.155005,-0.551297 -0.3125,-0.8125 -0.157495,-0.261203 -0.369114,-0.537549 -0.59375,-0.75 C 21.642248,18.748623 21.333608,18.499865 21,18.34375 20.516885,18.117673 19.976012,18.037082 19.46875,18.0625 z"
         id="path3788"
         style="fill:#ffffff;fill-opacity:0.48584906;stroke:none"
         inkscape:original="M 19.5 18.59375 C 19.059891 18.615803 18.617437 18.722167 18.25 18.9375 C 17.279385 19.506318 16.746558 20.715609 16.96875 21.78125 C 17.15714 22.684773 17.173838 22.686954 20.6875 26.21875 C 22.457272 27.997656 23.9176 29.46875 23.9375 29.46875 C 23.99961 29.46875 30.164593 23.24336 30.375 22.96875 C 30.738731 22.494032 30.90855 22.063666 30.9375 21.46875 C 31.001242 20.15894 30.30612 19.139091 29.0625 18.71875 C 28.468142 18.517858 27.698732 18.543857 27.125 18.8125 C 26.892676 18.921284 26.52822 19.169285 26.34375 19.34375 C 26.010917 19.658529 25.6276 20.276874 25.625 20.5 C 25.619971 20.925905 25.069521 21.581595 24.5625 21.75 C 24.098213 21.904212 23.442215 21.847527 23.0625 21.625 C 22.661157 21.389797 22.25 20.850742 22.25 20.53125 C 22.25 20.293717 21.877246 19.670979 21.53125 19.34375 C 21.346779 19.169285 21.01298 18.92094 20.78125 18.8125 C 20.401143 18.634626 19.940109 18.571697 19.5 18.59375 z "
         inkscape:radius="0.51724786"
         sodipodi:type="inkscape:offset" />
      <path
         sodipodi:nodetypes="cccsccc"
         id="path3790"
         d="m 21.810533,34.035706 c 0.660212,0.660212 1.776865,0.606538 2.503689,-0.1203 l 8.548607,-8.548635 c 0.726891,-0.726849 0.780526,-1.843463 0.120293,-2.503696 -0.660183,-0.660183 -1.776825,-0.606576 -2.503695,0.120294 l -8.548614,8.548628 c -0.726837,0.726825 -0.780484,1.843505 -0.12028,2.503709 z"
         style="fill:#ffffff;fill-opacity:1;stroke:none;display:inline" />
      <path
         id="rect3792"
         d="m 14.8199,18.237679 16.449335,0 0,8.822546 -16.449335,0 0,-8.822546 z"
         style="fill:#ffffff;fill-opacity:1;stroke:none" />
      <use
         height="48"
         width="48"
         transform="matrix(0.53401677,0,0,1.4018245,10.738382,-7.3283466)"
         x="0"
         y="0"
         xlink:href="#rect3792"
         id="use3797" />
    </g>
  </g>
</svg>
