<?xml version="1.0" encoding="UTF-8" standalone="no"?>
<!-- Created with Inkscape (http://www.inkscape.org/) -->
<svg
   xmlns:dc="http://purl.org/dc/elements/1.1/"
   xmlns:cc="http://creativecommons.org/ns#"
   xmlns:rdf="http://www.w3.org/1999/02/22-rdf-syntax-ns#"
   xmlns:svg="http://www.w3.org/2000/svg"
   xmlns="http://www.w3.org/2000/svg"
   xmlns:sodipodi="http://sodipodi.sourceforge.net/DTD/sodipodi-0.dtd"
   xmlns:inkscape="http://www.inkscape.org/namespaces/inkscape"
   width="48"
   height="48"
   id="svg2"
   sodipodi:version="0.32"
   inkscape:version="0.46+devel r20711"
   sodipodi:docname="emblem-photos.svg"
   inkscape:output_extension="org.inkscape.output.svg.inkscape"
   inkscape:export-filename="/home/hbons/Desktop/Intel/svn/moblin-ui-docs/in progress/draft visual UI/icons/icons.png"
   inkscape:export-xdpi="60.476192"
   inkscape:export-ydpi="60.476192"
   version="1.0">
  <sodipodi:namedview
     id="base"
     pagecolor="#ffffff"
     bordercolor="#dcdcdc"
     borderopacity="1"
     gridtolerance="10000"
     guidetolerance="10"
     objecttolerance="10"
     inkscape:pageopacity="0"
     inkscape:pageshadow="2"
     inkscape:zoom="11.313708"
     inkscape:cx="39.533902"
     inkscape:cy="21.852398"
     inkscape:document-units="px"
     inkscape:current-layer="layer1"
     showgrid="false"
     inkscape:window-width="1278"
     inkscape:window-height="750"
     inkscape:window-x="0"
     inkscape:window-y="0"
     inkscape:snap-intersection-line-segments="false"
     inkscape:snap-bbox="true"
     inkscape:snap-nodes="false"
     inkscape:bbox-paths="true"
     inkscape:showpageshadow="false"
     showguides="false"
     inkscape:guide-bbox="true"
     inkscape:bbox-nodes="true"
     inkscape:snap-global="false">
    <inkscape:grid
       enabled="true"
       visible="true"
       id="grid4079"
       type="xygrid"
       empspacing="5" />
    <sodipodi:guide
       id="guide7317"
       position="566.05335,854.14667"
       orientation="1,0" />
  </sodipodi:namedview>
  <defs
     id="defs4">
    <inkscape:perspective
       sodipodi:type="inkscape:persp3d"
       inkscape:vp_x="0 : 24 : 1"
       inkscape:vp_y="0 : 1000 : 0"
       inkscape:vp_z="48 : 24 : 1"
       inkscape:persp3d-origin="24 : 16 : 1"
       id="perspective24" />
  </defs>
  <metadata
     id="metadata7">
    <rdf:RDF>
      <cc:Work
         rdf:about="">
        <dc:format>image/svg+xml</dc:format>
        <dc:type
           rdf:resource="http://purl.org/dc/dcmitype/StillImage" />
        <dc:title></dc:title>
      </cc:Work>
    </rdf:RDF>
  </metadata>
  <g
     style="display:inline"
     id="layer1"
     inkscape:groupmode="layer"
     inkscape:label="Layer 1">
    <rect
       style="fill:#ffffff;fill-opacity:1;stroke:none"
       id="rect3628"
       width="32.22414"
       height="31.089703"
       x="7.8668027"
       y="8.3900433" />
    <g
       id="g5599"
       transform="matrix(1.1369331,0,0,1.1369331,-79.585008,16.9503)" />
    <g
       transform="matrix(1.4473033,0,0,1.4473026,-91.602178,14.061763)"
       id="g6374"
       style="opacity:0.68279569;stroke:#707070;stroke-width:0.89643699;stroke-opacity:1">
      <g
         transform="translate(4.2092501,-3.9419057)"
         id="g6376"
         style="stroke:#707070;stroke-width:0.89643699;stroke-opacity:1" />
    </g>
    <g
       id="g3891"
       transform="translate(-0.0062994,0.02874291)">
      <rect
         ry="1.6855"
         rx="1.6855003"
         y="-8.8417501"
         x="9.919714"
         height="3.3710001"
         width="28.267931"
         id="rect6456-0"
         style="fill:#ffffff;fill-opacity:1;stroke:none"
         transform="matrix(0,1,-1,0,0,0)" />
      <rect
         ry="1.6855"
         rx="1.6854999"
         y="-42.529247"
         x="9.6458788"
         height="3.3710001"
         width="28.898413"
         id="rect5746-4"
         style="fill:#ffffff;fill-opacity:1;stroke:none"
         transform="matrix(0,1,-1,0,0,0)" />
      <rect
         ry="1.6855"
         rx="1.6855"
         y="5.7805519"
         x="9.3194952"
         height="3.3710001"
         width="29.258284"
         id="rect5824-5"
         style="fill:#ffffff;fill-opacity:1;stroke:none" />
      <rect
         ry="1.6855"
         rx="1.6854999"
         y="38.790962"
         x="9.4226294"
         height="3.3710001"
         width="29.006187"
         id="rect5826-4"
         style="fill:#ffffff;fill-opacity:1;stroke:none" />
      <path
         sodipodi:open="true"
         sodipodi:end="7.0685835"
         sodipodi:start="5.4977871"
         transform="matrix(-0.11661796,-0.11661796,0.1164873,-0.1164873,-12.941731,29.159871)"
         d="m -9.5593975,163.18886 c 8.97000043,8.97 8.97000107,23.53 1.5e-6,32.5 -5e-7,0 -8e-7,0 -1.2e-6,0"
         sodipodi:ry="22.98097"
         sodipodi:rx="22.98097"
         sodipodi:cy="179.43886"
         sodipodi:cx="-25.809397"
         id="path3851-1"
         style="fill:none;stroke:#ffffff;stroke-width:20.45133781;stroke-linecap:round;stroke-miterlimit:4;stroke-opacity:1;stroke-dasharray:none;stroke-dashoffset:0;display:inline"
         sodipodi:type="arc" />
      <path
         sodipodi:type="arc"
         style="fill:none;stroke:#ffffff;stroke-width:20.45133781;stroke-linecap:round;stroke-miterlimit:4;stroke-opacity:1;stroke-dasharray:none;stroke-dashoffset:0;display:inline"
         id="path3878"
         sodipodi:cx="-25.809397"
         sodipodi:cy="179.43886"
         sodipodi:rx="22.98097"
         sodipodi:ry="22.98097"
         d="m -9.5593975,163.18886 c 8.97000043,8.97 8.97000107,23.53 1.5e-6,32.5 -5e-7,0 -8e-7,0 -1.2e-6,0"
         transform="matrix(-0.11661796,0.11661796,0.1164873,0.1164873,-12.941731,18.792772)"
         sodipodi:start="5.4977871"
         sodipodi:end="7.0685835"
         sodipodi:open="true" />
      <path
         sodipodi:open="true"
         sodipodi:end="7.0685835"
         sodipodi:start="5.4977871"
         transform="matrix(0.11661796,0.11661796,-0.1164873,0.1164873,60.939257,18.792772)"
         d="m -9.5593975,163.18886 c 8.97000043,8.97 8.97000107,23.53 1.5e-6,32.5 -5e-7,0 -8e-7,0 -1.2e-6,0"
         sodipodi:ry="22.98097"
         sodipodi:rx="22.98097"
         sodipodi:cy="179.43886"
         sodipodi:cx="-25.809397"
         id="path3880"
         style="fill:none;stroke:#ffffff;stroke-width:20.45133781;stroke-linecap:round;stroke-miterlimit:4;stroke-opacity:1;stroke-dasharray:none;stroke-dashoffset:0;display:inline"
         sodipodi:type="arc" />
      <path
         sodipodi:type="arc"
         style="fill:none;stroke:#ffffff;stroke-width:20.45133781;stroke-linecap:round;stroke-miterlimit:4;stroke-opacity:1;stroke-dasharray:none;stroke-dashoffset:0;display:inline"
         id="path3882"
         sodipodi:cx="-25.809397"
         sodipodi:cy="179.43886"
         sodipodi:rx="22.98097"
         sodipodi:ry="22.98097"
         d="m -9.5593975,163.18886 c 8.97000043,8.97 8.97000107,23.53 1.5e-6,32.5 -5e-7,0 -8e-7,0 -1.2e-6,0"
         transform="matrix(0.11661796,-0.11661796,-0.1164873,-0.1164873,60.980575,29.157955)"
         sodipodi:start="5.4977871"
         sodipodi:end="7.0685835"
         sodipodi:open="true" />
    </g>
    <g
       id="g3694"
       transform="translate(3.379811,3.1452497)">
      <path
         sodipodi:nodetypes="cccsccc"
         id="path7153-4"
         d="m 12.22726,9.8597085 c 0.933664,10e-7 1.685318,0.7516815 1.685297,1.6853385 l -7e-6,18.57423 c 2.1e-5,0.933701 -0.751612,1.685334 -1.685332,1.685333 -0.933643,-7e-6 -1.685319,-0.751639 -1.685305,-1.685345 l 0,-18.574226 c -6e-6,-0.933641 0.751676,-1.6853265 1.685347,-1.6853305 z"
         style="fill:#ffffff;fill-opacity:1;stroke:none;display:inline" />
      <path
         style="fill:#ffffff;fill-opacity:1;stroke:none;display:inline"
         d="m 30.68302,11.53932 c -10e-7,0.933664 -0.751681,1.685318 -1.685338,1.685297 l -16.661992,-7e-6 c -0.933701,2.1e-5 -1.685334,-0.751612 -1.685332,-1.685332 7e-6,-0.933643 0.751638,-1.6853185 1.685345,-1.6853045 l 16.661987,0 c 0.933641,-6e-6 1.685326,0.7516755 1.68533,1.6853465 z"
         id="path2858"
         sodipodi:nodetypes="cccsccc" />
      <rect
         y="18.316771"
         x="18.933077"
         height="3.338753"
         width="3.3170741"
         id="rect2864"
         style="fill:none;stroke:#ffffff;stroke-width:3.37099981;stroke-miterlimit:4;stroke-opacity:1;stroke-dasharray:none" />
      <path
         sodipodi:nodetypes="cccsccc"
         id="path3650"
         d="m 29.013168,9.8597085 c 0.933664,10e-7 1.685318,0.7516815 1.685297,1.6853385 l -7e-6,18.57516 c 2.1e-5,0.933701 -0.751612,1.685334 -1.685332,1.685332 -0.933644,-6e-6 -1.685319,-0.751638 -1.685305,-1.685344 l 0,-18.575156 c -6e-6,-0.933641 0.751676,-1.6853265 1.685347,-1.6853305 z"
         style="fill:#ffffff;fill-opacity:1;stroke:none;display:inline" />
      <path
         style="fill:#ffffff;fill-opacity:1;stroke:none;display:inline"
         d="m 30.66134,30.17023 c -10e-7,0.933664 -0.75168,1.685319 -1.685337,1.685297 l -16.727034,-6e-6 c -0.933701,2e-5 -1.685335,-0.751613 -1.685333,-1.685333 8e-6,-0.933643 0.751639,-1.685319 1.685345,-1.685305 l 16.727029,0 c 0.933641,-6e-6 1.685327,0.751677 1.68533,1.685347 z"
         id="path3692"
         sodipodi:nodetypes="cccsccc" />
    </g>
  </g>
</svg>
