<?xml version="1.0" encoding="UTF-8" standalone="no"?>
<!-- Created with Inkscape (http://www.inkscape.org/) -->
<svg
   xmlns:dc="http://purl.org/dc/elements/1.1/"
   xmlns:cc="http://creativecommons.org/ns#"
   xmlns:rdf="http://www.w3.org/1999/02/22-rdf-syntax-ns#"
   xmlns:svg="http://www.w3.org/2000/svg"
   xmlns="http://www.w3.org/2000/svg"
   xmlns:sodipodi="http://sodipodi.sourceforge.net/DTD/sodipodi-0.dtd"
   xmlns:inkscape="http://www.inkscape.org/namespaces/inkscape"
   width="48"
   height="48"
   id="svg2"
   sodipodi:version="0.32"
   inkscape:version="0.46+devel r20679"
   sodipodi:docname="audio-x-generic.svg"
   inkscape:output_extension="org.inkscape.output.svg.inkscape"
   inkscape:export-filename="/home/hbons/Desktop/Intel/svn/moblin-ui-docs/in progress/draft visual UI/icons/icons.png"
   inkscape:export-xdpi="60.476192"
   inkscape:export-ydpi="60.476192"
   version="1.0">
  <sodipodi:namedview
     id="base"
     pagecolor="#ffffff"
     bordercolor="#dcdcdc"
     borderopacity="1"
     gridtolerance="10000"
     guidetolerance="10"
     objecttolerance="10"
     inkscape:pageopacity="0"
     inkscape:pageshadow="2"
     inkscape:zoom="1"
     inkscape:cx="53.594781"
     inkscape:cy="21.634745"
     inkscape:document-units="px"
     inkscape:current-layer="layer1"
     showgrid="false"
     inkscape:window-width="1280"
     inkscape:window-height="750"
     inkscape:window-x="0"
     inkscape:window-y="0"
     inkscape:snap-intersection-line-segments="false"
     inkscape:snap-bbox="true"
     inkscape:snap-nodes="false"
     inkscape:bbox-paths="true"
     inkscape:showpageshadow="false"
     showguides="false"
     inkscape:guide-bbox="true"
     inkscape:bbox-nodes="true"
     inkscape:snap-global="false">
    <inkscape:grid
       enabled="true"
       visible="true"
       id="grid4079"
       type="xygrid"
       empspacing="5" />
    <sodipodi:guide
       id="guide7317"
       position="566.05335,854.14667"
       orientation="1,0" />
  </sodipodi:namedview>
  <defs
     id="defs4">
    <inkscape:perspective
       sodipodi:type="inkscape:persp3d"
       inkscape:vp_x="0 : 24 : 1"
       inkscape:vp_y="0 : 1000 : 0"
       inkscape:vp_z="48 : 24 : 1"
       inkscape:persp3d-origin="24 : 16 : 1"
       id="perspective15" />
    <inkscape:perspective
       id="perspective2871"
       inkscape:persp3d-origin="0.5 : 0.33333333 : 1"
       inkscape:vp_z="1 : 0.5 : 1"
       inkscape:vp_y="0 : 1000 : 0"
       inkscape:vp_x="0 : 0.5 : 1"
       sodipodi:type="inkscape:persp3d" />
  </defs>
  <metadata
     id="metadata7">
    <rdf:RDF>
      <cc:Work
         rdf:about="">
        <dc:format>image/svg+xml</dc:format>
        <dc:type
           rdf:resource="http://purl.org/dc/dcmitype/StillImage" />
        <dc:title />
      </cc:Work>
    </rdf:RDF>
  </metadata>
  <g
     style="display:inline"
     id="layer1"
     inkscape:groupmode="layer"
     inkscape:label="Layer 1">
    <g
       id="g2890"
       transform="translate(0.02811977,2.3411628)">
      <path
         sodipodi:nodetypes="cccsccc"
         style="fill:#ffffff;fill-opacity:1;stroke:none;display:inline"
         d="m 41.552313,3.1173756 c -0.93365,0 -1.68533,0.7294353 -1.68533,1.635499 l 0,25.8865804 c 0,0.906064 0.75168,1.635509 1.68532,1.635509 0.9337,0 1.68534,-0.729445 1.68534,-1.635509 l 0,-25.8865804 c 0,-0.9060637 -0.75163,-1.635499 -1.68533,-1.635499 z"
         id="path6504" />
      <path
         transform="matrix(0.30795407,0,0,-0.30765837,42.444191,86.695626)"
         d="m -2.8284264,179.43886 c 0,12.68549 -10.2954746,22.98097 -22.9809706,22.98097 -12.685495,0 -22.98097,-10.29548 -22.98097,-22.98097 0,-12.6855 10.295475,-22.98097 22.98097,-22.98097 12.685496,0 22.9809706,10.29547 22.9809706,22.98097 z"
         sodipodi:ry="22.98097"
         sodipodi:rx="22.98097"
         sodipodi:cy="179.43886"
         sodipodi:cx="-25.809397"
         id="path6532"
         style="fill:none;stroke:#ffffff;stroke-width:10.95169544;stroke-linecap:round;stroke-miterlimit:4;stroke-opacity:1;stroke-dasharray:none;stroke-dashoffset:0;display:inline"
         sodipodi:type="arc" />
      <path
         id="path2859"
         d="m 20.503909,3.117376 c -0.93365,0 -1.68533,0.7294353 -1.68533,1.635499 l 0,25.88658 c 0,0.906064 0.75168,1.635509 1.68532,1.635509 0.9337,0 1.68534,-0.729445 1.68534,-1.635509 l 0,-25.88658 c 0,-0.9060637 -0.75163,-1.635499 -1.68533,-1.635499 z"
         style="fill:#ffffff;fill-opacity:1;stroke:none;display:inline"
         sodipodi:nodetypes="cccsccc" />
      <path
         sodipodi:type="arc"
         style="fill:none;stroke:#ffffff;stroke-width:10.95169544;stroke-linecap:round;stroke-miterlimit:4;stroke-opacity:1;stroke-dasharray:none;stroke-dashoffset:0;display:inline"
         id="path2861"
         sodipodi:cx="-25.809397"
         sodipodi:cy="179.43886"
         sodipodi:rx="22.98097"
         sodipodi:ry="22.98097"
         d="m -2.8284264,179.43886 c 0,12.68549 -10.2954746,22.98097 -22.9809706,22.98097 -12.685495,0 -22.98097,-10.29548 -22.98097,-22.98097 0,-12.6855 10.295475,-22.98097 22.98097,-22.98097 12.685496,0 22.9809706,10.29547 22.9809706,22.98097 z"
         transform="matrix(0.30795407,0,0,-0.30765837,21.395787,86.695626)" />
      <path
         id="path2888"
         d="m 43.181914,4.7574573 c 0,-0.93365 -0.729435,-1.68533 -1.635499,-1.68533 l -20.933576,0 c -0.906064,0 -1.635509,0.75168 -1.635509,1.68532 0,0.9337 0.729445,1.68534 1.635509,1.68534 l 20.933576,0 c 0.906064,0 1.635499,-0.75163 1.635499,-1.68533 z"
         style="fill:#ffffff;fill-opacity:1;stroke:none;display:inline"
         sodipodi:nodetypes="cccsccc" />
    </g>
  </g>
</svg>
